<?xml version="1.0" encoding="utf-8"?>
<!-- Generator: Adobe Illustrator 16.0.0, SVG Export Plug-In . SVG Version: 6.00 Build 0)  -->
<!DOCTYPE svg PUBLIC "-//W3C//DTD SVG 1.1//EN" "http://www.w3.org/Graphics/SVG/1.1/DTD/svg11.dtd">
<svg version="1.1" id="Sky_Broadband" xmlns="http://www.w3.org/2000/svg" xmlns:xlink="http://www.w3.org/1999/xlink" x="0px"
	 y="0px" width="16px" height="13.147px" viewBox="0 1.45 16 13.147" enable-background="new 0 1.45 16 13.147"
	 xml:space="preserve">
<path fill="#0073C5" d="M15.674,6.892H4.053l4.25-4.005c0.122-0.113,0.122-0.3,0.002-0.414l-0.944-0.89
	c-0.122-0.115-0.32-0.115-0.441,0L1.305,6.871c-0.042,0.015-0.087,0.017-0.12,0.048L0.242,7.808
	c-0.07,0.065-0.087,0.153-0.077,0.239C0.154,8.134,0.171,8.223,0.242,8.288l0.943,0.89c0.032,0.031,0.079,0.033,0.12,0.047
	l5.617,5.289c0.12,0.113,0.318,0.113,0.439,0l0.942-0.889c0.124-0.115,0.122-0.303,0-0.416L4.051,9.203h11.623
	C15.852,9.203,16,9.041,16,8.838v-1.58C16,7.056,15.852,6.892,15.674,6.892z"/>
</svg>
