<?xml version="1.0" encoding="utf-8"?>
<!-- Generator: Adobe Illustrator 16.0.0, SVG Export Plug-In . SVG Version: 6.00 Build 0)  -->
<!DOCTYPE svg PUBLIC "-//W3C//DTD SVG 1.1//EN" "http://www.w3.org/Graphics/SVG/1.1/DTD/svg11.dtd">
<svg version="1.1" id="Layer_1" xmlns="http://www.w3.org/2000/svg" xmlns:xlink="http://www.w3.org/1999/xlink" x="0px" y="0px"
	 width="16px" height="10px" viewBox="0 0 16 10" enable-background="new 0 0 16 10" xml:space="preserve">
<path fill="#1A71B9" d="M7.671,5.301c0.178,0.177,0.471,0.177,0.649,0l5.165-5.168c0.179-0.177,0.471-0.177,0.651,0l1.23,1.233
	c0.179,0.179,0.179,0.469,0,0.649l-5.169,5.162c-0.179,0.177-0.471,0.469-0.65,0.65L8.316,9.056c-0.179,0.18-0.469,0.18-0.648,0
	L0.636,2.027c-0.181-0.18-0.181-0.473,0-0.653l1.229-1.229c0.179-0.181,0.472-0.181,0.65,0L7.671,5.301z"/>
</svg>
