<?xml version="1.0" encoding="utf-8"?>
<!-- Generator: Adobe Illustrator 16.0.0, SVG Export Plug-In . SVG Version: 6.00 Build 0)  -->
<!DOCTYPE svg PUBLIC "-//W3C//DTD SVG 1.1//EN" "http://www.w3.org/Graphics/SVG/1.1/DTD/svg11.dtd">
<svg version="1.1" id="Layer_1" xmlns="http://www.w3.org/2000/svg" xmlns:xlink="http://www.w3.org/1999/xlink" x="0px" y="0px"
	 width="16px" height="10px" viewBox="0 0 16 10" enable-background="new 0 0 16 10" xml:space="preserve">
<path fill="#1A71B9" d="M2.515,9.047c-0.178,0.181-0.471,0.181-0.65,0L0.636,7.817c-0.181-0.18-0.181-0.473,0-0.653l7.032-7.029
	c0.18-0.18,0.47-0.18,0.648,0l1.231,1.229c0.179,0.181,0.471,0.473,0.65,0.65l5.169,5.162c0.179,0.18,0.179,0.47,0,0.649
	l-1.23,1.233c-0.18,0.177-0.472,0.177-0.651,0L8.32,3.891c-0.178-0.177-0.471-0.177-0.649,0L2.515,9.047z"/>
</svg>
