<?xml version="1.0" encoding="utf-8"?>
<!-- Generator: Adobe Illustrator 16.0.0, SVG Export Plug-In . SVG Version: 6.00 Build 0)  -->
<!DOCTYPE svg PUBLIC "-//W3C//DTD SVG 1.1//EN" "http://www.w3.org/Graphics/SVG/1.1/DTD/svg11.dtd">
<svg version="1.1" id="Cloud_wifi" xmlns="http://www.w3.org/2000/svg" xmlns:xlink="http://www.w3.org/1999/xlink" x="0px" y="0px"
	 width="16px" height="12.107px" viewBox="0 0 16 12.107" enable-background="new 0 0 16 12.107" xml:space="preserve">
<path fill="#0073C5" d="M6.249,2.631c-0.38-0.36-0.891-0.583-1.454-0.583c-1.077,0-1.962,0.805-2.094,1.845
	c-1.482,0.179-2.63,1.439-2.63,2.968c0,1.652,1.338,2.992,2.993,2.992c0.652,0,1.254-0.213,1.747-0.566
	c0.706,0.818,1.747,1.341,2.914,1.341c1.015,0,1.936-0.396,2.623-1.039l2.178,2.52l-0.469-2.628
	c0.303,0.104,0.627,0.165,0.965,0.165c1.617,0,2.931-1.312,2.931-2.93c0-1.617-1.312-2.931-2.931-2.931l-0.078,0.005
	c0.005-0.068,0.012-0.134,0.012-0.201c0-1.89-1.532-3.42-3.421-3.42C7.975,0.168,6.664,1.208,6.249,2.631"/>
</svg>
