<?xml version="1.0" encoding="utf-8"?>
<!-- Generator: Adobe Illustrator 15.1.0, SVG Export Plug-In . SVG Version: 6.00 Build 0)  -->
<!DOCTYPE svg PUBLIC "-//W3C//DTD SVG 1.1//EN" "http://www.w3.org/Graphics/SVG/1.1/DTD/svg11.dtd">
<svg version="1.1" xmlns="http://www.w3.org/2000/svg" xmlns:xlink="http://www.w3.org/1999/xlink" x="0px" y="0px" width="20px"
	 height="20px" viewBox="0 0 20 20" enable-background="new 0 0 20 20" xml:space="preserve">
<g id="Layer_1" display="none">
</g>
<g id="Layer_2" display="none">
	<path display="inline" fill="#FAFAFA" d="M16.625,13.25c-1.004,0-1.891,0.466-2.487,1.182l-7.074-3.322
		c0.035-0.198,0.062-0.4,0.062-0.608c0-0.383-0.077-0.745-0.19-1.09l7.502-3.522c0.578,0.53,1.343,0.861,2.188,0.861
		c1.795,0,3.25-1.455,3.25-3.25s-1.455-3.25-3.25-3.25c-1.794,0-3.25,1.455-3.25,3.25c0,0.145,0.024,0.282,0.042,0.421L5.584,7.6
		C5.025,7.222,4.351,7.001,3.625,7.001c-1.934,0-3.5,1.566-3.5,3.5c0,1.933,1.566,3.5,3.5,3.5c0.921,0,1.752-0.363,2.377-0.944
		l7.375,3.464c0.012,1.785,1.461,3.229,3.248,3.229c1.795,0,3.25-1.455,3.25-3.25C19.875,14.706,18.42,13.25,16.625,13.25z"/>
</g>
<g id="Layer_3" display="none">
	<path display="inline" fill="#0073C5" d="M16.625,13.25c-1.004,0-1.891,0.466-2.487,1.182l-7.074-3.322
		c0.035-0.198,0.062-0.4,0.062-0.608c0-0.383-0.077-0.745-0.19-1.09l7.502-3.522c0.578,0.53,1.343,0.861,2.188,0.861
		c1.795,0,3.25-1.455,3.25-3.25s-1.455-3.25-3.25-3.25c-1.794,0-3.25,1.455-3.25,3.25c0,0.145,0.024,0.282,0.042,0.421L5.584,7.6
		C5.025,7.222,4.351,7.001,3.625,7.001c-1.934,0-3.5,1.566-3.5,3.5c0,1.933,1.566,3.5,3.5,3.5c0.921,0,1.752-0.363,2.377-0.944
		l7.375,3.464c0.012,1.785,1.461,3.229,3.248,3.229c1.795,0,3.25-1.455,3.25-3.25C19.875,14.706,18.42,13.25,16.625,13.25z"/>
</g>
<g id="Layer_4" display="none">
	<g display="inline">
		<polygon fill="#0073C5" points="9.337,8.026 3.041,1.731 9.116,1.724 9.117,0.059 1.791,0.067 1.791,0.059 0.127,0.059 
			0.127,0.069 0.117,0.069 0.117,1.734 0.125,1.734 0.117,9.059 1.781,9.058 1.788,3.306 7.923,9.441 		"/>
		<path fill="#0073C5" d="M20,10.941h-1.665l-0.007,5.914l-6.297-6.297l-1.414,1.414l6.297,6.297L11,18.275v1.666l7.325-0.008v0.008
			h1.665v-0.01h0.009L20,18.266h-0.008L20,10.941z"/>
	</g>
</g>
<g id="Layer_5" display="none">
	<g display="inline">
		<polygon fill="#FAFAFA" points="9.337,8.026 3.041,1.731 9.116,1.724 9.117,0.059 1.791,0.067 1.791,0.059 0.127,0.059 
			0.127,0.069 0.117,0.069 0.117,1.734 0.125,1.734 0.117,9.059 1.781,9.058 1.788,3.306 7.923,9.441 		"/>
		<path fill="#FAFAFA" d="M20,10.941h-1.665l-0.007,5.914l-6.297-6.297l-1.414,1.414l6.297,6.297L11,18.275v1.666l7.325-0.008v0.008
			h1.665v-0.01h0.009L20,18.266h-0.008L20,10.941z"/>
	</g>
</g>
<g id="Layer_6" display="none">
</g>
<g id="Layer_7">
	<path fill="#FAFAFA" d="M7.621,20v-9.385H5.14V7.236h2.481c0,0,0-1.385,0-2.886C7.621,2.083,9.087,0,12.465,0
		c1.367,0,2.379,0.131,2.379,0.131l-0.08,3.155c0,0-1.031-0.01-2.156-0.01c-1.219,0-1.414,0.561-1.414,1.493c0,0.737,0-1.57,0,2.467
		h3.668l-0.16,3.379h-3.508V20H7.621z"/>
</g>
</svg>
