<?xml version="1.0" encoding="utf-8"?>
<!-- Generator: Adobe Illustrator 16.0.0, SVG Export Plug-In . SVG Version: 6.00 Build 0)  -->
<!DOCTYPE svg PUBLIC "-//W3C//DTD SVG 1.1//EN" "http://www.w3.org/Graphics/SVG/1.1/DTD/svg11.dtd">
<svg version="1.1" id="Layer_1" xmlns="http://www.w3.org/2000/svg" xmlns:xlink="http://www.w3.org/1999/xlink" x="0px" y="0px"
	 width="20px" height="20px" viewBox="0 0 20 20" enable-background="new 0 0 20 20" xml:space="preserve">
<g>
	<path d="M14.172,9.062h-3.281V5.781c0-0.258-0.211-0.469-0.469-0.469H9.484c-0.258,0-0.469,0.211-0.469,0.469v3.281H5.734
		c-0.258,0-0.469,0.211-0.469,0.469v0.938c0,0.258,0.211,0.469,0.469,0.469h3.281v3.281c0,0.258,0.211,0.469,0.469,0.469h0.938
		c0.258,0,0.469-0.211,0.469-0.469v-3.281h3.281c0.258,0,0.469-0.211,0.469-0.469V9.531C14.641,9.273,14.43,9.062,14.172,9.062z"/>
	<path d="M10,0C4.477,0,0,4.477,0,10c0,5.522,4.477,10,10,10c5.522,0,10-4.478,10-10C20,4.477,15.522,0,10,0z M10,18.106
		c-4.502,0-8.155-3.65-8.155-8.154c0-4.503,3.652-8.154,8.155-8.154c4.502,0,8.153,3.651,8.153,8.154
		C18.153,14.456,14.502,18.106,10,18.106z"/>
</g>
</svg>
