<?xml version="1.0" encoding="utf-8"?>
<!-- Generator: Adobe Illustrator 16.0.0, SVG Export Plug-In . SVG Version: 6.00 Build 0)  -->
<!DOCTYPE svg PUBLIC "-//W3C//DTD SVG 1.1//EN" "http://www.w3.org/Graphics/SVG/1.1/DTD/svg11.dtd">
<svg version="1.1" id="Layer_1" xmlns="http://www.w3.org/2000/svg" xmlns:xlink="http://www.w3.org/1999/xlink" x="0px" y="0px"
	 width="20px" height="20px" viewBox="0 0 20 20" enable-background="new 0 0 20 20" xml:space="preserve">
<path fill="#4C4B4B" d="M19.912,17.916l-6.211-6.196c0.819-1.202,1.3-2.654,1.3-4.22c0-4.144-3.356-7.5-7.5-7.5
	C7.475,0,7.45,0.004,7.424,0.004c-1.909-0.026-3.826,0.684-5.282,2.14C0.676,3.608-0.033,5.539,0.003,7.458
	c0,0.014-0.002,0.027-0.002,0.042c0,4.143,3.357,7.5,7.5,7.5c1.556,0,3.001-0.474,4.199-1.284l6.213,6.195
	c0.117,0.118,0.31,0.118,0.427,0.001l1.572-1.57C20.029,18.225,20.029,18.032,19.912,17.916z M11.154,11.148
	c-1.834,1.835-4.656,2.072-6.753,0.727c-1.399-1.053-2.4-2.708-2.4-4.375c0-2.762,2.738-5.5,5.5-5.5
	c1.676,0,3.339,1.011,4.392,2.421C13.225,6.517,12.983,9.321,11.154,11.148z"/>
</svg>
