<?xml version="1.0" encoding="utf-8"?>
<!-- Generator: Adobe Illustrator 16.0.0, SVG Export Plug-In . SVG Version: 6.00 Build 0)  -->
<!DOCTYPE svg PUBLIC "-//W3C//DTD SVG 1.1//EN" "http://www.w3.org/Graphics/SVG/1.1/DTD/svg11.dtd">
<svg version="1.1" id="Layer_2" xmlns="http://www.w3.org/2000/svg" xmlns:xlink="http://www.w3.org/1999/xlink" x="0px" y="0px"
	 width="20px" height="20px" viewBox="0 0 20 20" style="enable-background:new 0 0 20 20;" xml:space="preserve">
<path style="fill:#44AD3A;" d="M18.2,0H1.8C0.8,0,0,0.8,0,1.8v16.5c0,1,0.8,1.8,1.8,1.8h16.5c1,0,1.8-0.8,1.8-1.8V1.8
	C20,0.8,19.2,0,18.2,0z M12.6,14.1c0,0-1.1-1-2.7-1c-1.4,0-2.5,1-2.5,1l-1-1.2c0,0,1.3-1.4,3.6-1.4c2.5,0,3.6,1.4,3.6,1.4L12.6,14.1
	z M14.8,11.6c0,0-1.7-1.9-4.9-1.9c-2.8,0-4.8,1.9-4.8,1.9l-1-1.3c0,0,1.9-2.2,5.8-2.2c4.3,0,6,2.2,6,2.2L14.8,11.6z M17,9
	c0,0-2.9-2.6-7.1-2.6c-4.1,0-7.1,2.6-7.1,2.6l-1-1.1c0,0,2.9-3,8.1-3c5,0,8,3,8,3L17,9z"/>
</svg>
