<?xml version="1.0" encoding="utf-8"?>
<!-- Generator: Adobe Illustrator 15.1.0, SVG Export Plug-In . SVG Version: 6.00 Build 0)  -->
<!DOCTYPE svg PUBLIC "-//W3C//DTD SVG 1.1//EN" "http://www.w3.org/Graphics/SVG/1.1/DTD/svg11.dtd">
<svg version="1.1" id="Layer_1" xmlns="http://www.w3.org/2000/svg" xmlns:xlink="http://www.w3.org/1999/xlink" x="0px" y="0px"
	 width="36px" height="36px" viewBox="0 0 36 36" enable-background="new 0 0 36 36" xml:space="preserve">
<g>
	<path d="M29.61,8.844c-1.088,0.48-2.254,0.809-3.477,0.952c1.248-0.747,2.209-1.935,2.661-3.351
		c-1.169,0.694-2.466,1.198-3.844,1.47c-1.106-1.177-2.683-1.912-4.424-1.912c-3.345,0-6.057,2.712-6.057,6.056
		c0,0.476,0.053,0.938,0.156,1.383c-5.033-0.255-9.498-2.664-12.485-6.329c-0.52,0.893-0.82,1.935-0.82,3.045
		c0,2.101,1.07,3.955,2.695,5.041c-0.993-0.032-1.926-0.305-2.744-0.757c-0.001,0.024-0.001,0.051-0.001,0.076
		c0,2.935,2.089,5.383,4.861,5.938c-0.509,0.14-1.045,0.212-1.598,0.212c-0.39,0-0.77-0.038-1.137-0.108
		c0.77,2.407,3.005,4.158,5.656,4.207C6.982,26.393,4.37,27.36,1.533,27.36c-0.491,0-0.972-0.03-1.446-0.087
		c2.681,1.72,5.863,2.724,9.286,2.724c11.14,0,17.231-9.23,17.231-17.236c0-0.26-0.005-0.521-0.017-0.782
		C27.773,11.125,28.798,10.057,29.61,8.844z"/>
	<polygon points="35.913,23.694 32.057,23.694 32.057,19.838 29.61,19.838 29.61,23.694 25.754,23.694 25.754,26.141 29.61,26.141 
		29.61,29.997 32.057,29.997 32.057,26.141 35.913,26.141 	"/>
</g>
</svg>
