<?xml version="1.0" encoding="utf-8"?>
<!-- Generator: Adobe Illustrator 16.0.0, SVG Export Plug-In . SVG Version: 6.00 Build 0)  -->
<!DOCTYPE svg PUBLIC "-//W3C//DTD SVG 1.1//EN" "http://www.w3.org/Graphics/SVG/1.1/DTD/svg11.dtd">
<svg version="1.1" id="Layer_1" xmlns="http://www.w3.org/2000/svg" xmlns:xlink="http://www.w3.org/1999/xlink" x="0px" y="0px"
	 width="76px" height="122px" viewBox="0 0 76 122" enable-background="new 0 0 76 122" xml:space="preserve">
<g>
	<g>
		<path d="M47.289,6.004c7.204,0.348,12.729,6.585,16.973,11.896c3.544,4.436,5.836,9.66,6.698,15.259
			c1.676,10.878-3.628,21.593-9.437,30.394C48.93,82.638,30.137,96.772,13.221,111.754c-2.04,1.807-0.745,5.38,1.731,3.188
			c18.784-16.636,39.353-32.367,52.499-54.176c5.899-9.787,9.624-21.355,7.072-32.772c-1.306-5.84-4.498-10.953-8.32-15.465
			C61.574,7.062,56.169,1.921,48.711,1.562C46.521,1.456,44.482,5.869,47.289,6.004L47.289,6.004z"/>
		<path d="M11.459,115.663c8.587-15.468,0.054-35.054-5.901-49.95c-0.914-2.287-4.642,1.02-3.812,3.096
			c5.246,13.124,13.892,31.979,6.273,45.703C6.418,117.396,10.123,118.069,11.459,115.663L11.459,115.663z"/>
		<path d="M74.769,112.019c1.246-0.372,2.3-1.449,2.417-2.785c0.064-0.73-0.236-1.276-0.891-1.587
			c-2.145-1.017-6.357-0.093-8.597-0.014c-6.83,0.241-13.656,0.625-20.477,1.061c-7.55,0.483-15.096,1.066-22.62,1.866
			c-4.854,0.516-9.995,0.899-14.674,2.378c-2.114,0.668-3.298,5.222-0.377,4.299c10.973-3.468,23.809-3.272,35.189-4.03
			c6.672-0.445,13.352-0.806,20.033-1.074c2.137-0.086,4.274-0.156,6.412-0.196c0.741-0.014,2.862,0.068,2.723,0.002
			c-0.297-0.529-0.594-1.058-0.891-1.587c-0.001,0.008-0.001,0.015-0.002,0.023c0.579-0.833,1.158-1.665,1.737-2.497
			c0.131-0.053,0.262-0.105,0.393-0.158C73.014,108.356,71.827,112.897,74.769,112.019L74.769,112.019z"/>
	</g>
</g>
</svg>
