<?xml version="1.0" encoding="utf-8"?>
<!-- Generator: Adobe Illustrator 16.0.0, SVG Export Plug-In . SVG Version: 6.00 Build 0)  -->
<!DOCTYPE svg PUBLIC "-//W3C//DTD SVG 1.1//EN" "http://www.w3.org/Graphics/SVG/1.1/DTD/svg11.dtd">
<svg version="1.1" xmlns="http://www.w3.org/2000/svg" xmlns:xlink="http://www.w3.org/1999/xlink" x="0px" y="0px" width="16px"
	 height="17.125px" viewBox="0 0 16 17.125" enable-background="new 0 0 16 17.125" xml:space="preserve">
<g id="on_demand" display="none">
	<path display="inline" fill="#0073C5" d="M4.33,12.564c-0.229-0.168-0.434-0.372-0.607-0.608l-0.187-0.247l-3.417,3.417
		l1.054,1.056l0.178-0.202l3.231-3.23L4.33,12.564z M15.943,7.721L15.92,7.34l-0.251-0.001h-3.768l3.729-1.545l-0.574-1.378
		l-0.242,0.118l-3.439,1.425l2.823-2.818l-1.057-1.056l-0.177,0.201L10.31,4.942l1.539-3.717l-1.377-0.574l-0.088,0.253L8.953,4.359
		V0.376L8.6,0.354l-0.383-0.02l-0.384,0.02L7.479,0.376v0.251v3.741L5.941,0.66L4.565,1.234l0.118,0.239l1.433,3.46L3.278,2.095
		L2.224,3.151l0.201,0.177L5.08,5.984l-3.715-1.54L0.79,5.823l0.256,0.085l3.452,1.431H0.511L0.487,7.735L0.474,8.077l0.013,0.341
		l0.024,0.395l0.252,0.002h3.723l-3.691,1.526l0.573,1.38l0.241-0.119l4.218-1.747L5.669,9.589C5.522,9.346,5.414,9.077,5.34,8.791
		L5.293,8.604L5.251,8.077l0.042-0.532L5.34,7.356c0.073-0.282,0.183-0.549,0.332-0.795L5.75,6.427l0.089-0.119
		c0.171-0.23,0.376-0.436,0.608-0.607L6.583,5.6l0.113-0.066c0.252-0.15,0.518-0.261,0.796-0.331l0.196-0.049L8.217,5.11
		l0.524,0.043l0.196,0.048c0.282,0.071,0.55,0.182,0.794,0.329l0.122,0.074l0.133,0.097c0.231,0.172,0.437,0.377,0.607,0.607
		l0.088,0.115l0.072,0.126c0.151,0.248,0.261,0.517,0.333,0.794l0.053,0.206l0.043,0.527L11.14,8.605l-0.049,0.199
		c-0.072,0.278-0.184,0.547-0.333,0.794l-0.084,0.139l-0.08,0.109c-0.171,0.229-0.378,0.435-0.609,0.609L9.871,10.54l-0.138,0.082
		c-0.248,0.147-0.515,0.257-0.792,0.327L8.744,11l-0.527,0.045L7.688,11l-0.197-0.051c-0.282-0.07-0.549-0.184-0.797-0.329
		l-0.267-0.16l-1.85,4.467l1.379,0.571l0.085-0.252l1.437-3.469v4.003l0.368,0.023l0.37,0.018l0.37-0.018l0.366-0.023v-0.253v-3.744
		l1.537,3.711l1.379-0.575l-0.119-0.239l-1.432-3.46l2.836,2.839L14.21,13l-0.201-0.175l-2.64-2.64l3.697,1.531l0.574-1.376
		l-0.254-0.087l-3.475-1.439h4.008l0.023-0.381l0.016-0.356L15.943,7.721z"/>
</g>
<g id="Sky_x2B_" display="none">
	<g display="inline">
		<g>
			<path fill="#0073C5" d="M6.11,6.281c-0.995,0-1.802,0.804-1.802,1.799c0,0.994,0.807,1.799,1.802,1.799
				c0.996,0,1.802-0.806,1.802-1.799C7.912,7.085,7.105,6.281,6.11,6.281z M9.144,6.47v3.201c0,0.14,0.092,0.185,0.202,0.103
				l2.117-1.553c0.112-0.083,0.112-0.217,0-0.3L9.346,6.367C9.235,6.285,9.144,6.331,9.144,6.47z M3.3,4.361L1.767,3.148
				C0.754,4.422,0.166,5.955,0.062,7.58l1.954,0.121C2.094,6.479,2.537,5.323,3.3,4.361z M7.503,2.113l-0.16-1.95
				C5.59,0.308,3.973,1.007,2.667,2.19L3.979,3.64C4.963,2.749,6.184,2.221,7.503,2.113z M2.024,8.581L0.074,8.74
				c0.142,1.7,0.809,3.28,1.933,4.568l1.475-1.286C2.635,11.052,2.131,9.861,2.024,8.581z M13.943,7.701l1.953-0.121
				c-0.102-1.625-0.69-3.158-1.704-4.432l-1.533,1.213C13.424,5.323,13.867,6.479,13.943,7.701z M8.494,14.052l0.172,1.945
				c1.665-0.146,3.213-0.802,4.484-1.891l-1.278-1.482C10.916,13.444,9.747,13.938,8.494,14.052z M2.813,14.106
				c1.268,1.089,2.819,1.745,4.484,1.891l0.17-1.945c-1.253-0.113-2.421-0.607-3.377-1.428L2.813,14.106z M13.296,2.19
				c-1.308-1.184-2.925-1.883-4.677-2.028l-0.162,1.95c1.321,0.108,2.541,0.636,3.523,1.527L13.296,2.19z M12.479,12.022
				l1.475,1.286c1.124-1.288,1.794-2.868,1.934-4.568l-1.951-0.159C13.83,9.861,13.326,11.052,12.479,12.022z"/>
		</g>
	</g>
</g>
<g id="Cloud_wifi" display="none">
	<path display="inline" fill="#0073C5" d="M6.249,4.687c-0.38-0.36-0.891-0.583-1.454-0.583c-1.077,0-1.962,0.805-2.094,1.845
		c-1.482,0.179-2.63,1.439-2.63,2.968c0,1.653,1.338,2.992,2.993,2.992c0.652,0,1.254-0.213,1.747-0.566
		c0.706,0.818,1.747,1.339,2.914,1.339c1.015,0,1.936-0.396,2.623-1.039l2.178,2.52l-0.469-2.628
		c0.302,0.105,0.627,0.165,0.965,0.165c1.617,0,2.929-1.312,2.929-2.929s-1.312-2.93-2.929-2.93l-0.079,0.004
		c0.004-0.068,0.011-0.133,0.011-0.201c0-1.889-1.532-3.42-3.421-3.42C7.975,2.224,6.664,3.264,6.249,4.687"/>
</g>
<g id="Sky_TV" display="none">
	<path display="inline" fill="#0073C5" d="M12.935,4.068L3.13,4.069c0,0-1.06,0-1.06,1.055v4.979c0,0,0,1.057,1.06,1.057h9.804
		c0,0,1.06,0,1.06-1.057V5.125C13.994,5.125,13.994,4.068,12.935,4.068 M13.379,2.175H2.686c-0.892,0-2.579,0.537-2.579,2.569v6.753
		c0,0.891,0.54,2.571,2.579,2.571h10.693c0.894,0,2.579-0.539,2.579-2.571V4.744C15.958,3.854,15.419,2.175,13.379,2.175
		 M9.651,13.519H6.415v-0.729h3.237V13.519z M15.071,10.519c0,1.622-1.519,1.685-1.692,1.687H2.686
		c-1.628,0-1.689-1.514-1.691-1.687V4.744c0-1.622,1.519-1.684,1.692-1.686h10.691c1.63,0,1.691,1.515,1.692,1.688V10.519z"/>
</g>
<g id="Sky_Talk" display="none">
	<path display="inline" fill="#0073C5" d="M11.676,5.19c1.194,1.128-0.556,3.203-1.207,4.193c-0.576,0.874-1.546,2.012-1.546,2.012
		s-1.35,1.814-2.39,1.218c0,0-0.567-0.391-1.096-0.726l-0.867-0.636c-0.674-0.225-0.984-0.273-1.701,0.318l-2.207,1.872
		c-0.773,0.778-0.659,1.143-0.304,1.865c0.527,0.755,0.882,1.594,1.754,2.038c0.734,0.374,1.589,0.333,2.381,0.208
		c1.51-0.236,2.894-0.739,4.142-1.63c0.765-0.545,1.362-1.236,2.012-1.902c0,0,1.414-1.442,2.475-3.018
		c1.059-1.574,1.521-2.835,1.521-2.835c2.673-5.871,0.453-9.006,0.453-9.006s-0.305-0.325-0.614-0.391
		c-0.311-0.065-2.004-0.157-2.004-0.157c-0.743-0.021-1.021-0.16-1.497,0.825c0,0-1.265,2.8-1.269,2.807
		C9.611,2.467,9.459,2.835,9.546,3.082c0.083,0.239,0.317,0.467,0.486,0.647c0.176,0.19,0.365,0.389,0.57,0.549
		c0.263,0.204,0.486,0.442,0.748,0.642C11.467,5.009,11.577,5.097,11.676,5.19z"/>
</g>
<g id="Sky_Talk_old" display="none">
	<path display="inline" fill="#0073C5" d="M11.732,17.823c0,0-3.374,0.744-8.434-6.408C-1.76,4.265,0.736,0.084,0.736,0.084
		S2.557-2.48,4.108-2.48s2.024,1.484,2.091,1.755c0.068,0.269,0.405,3.304,0.405,3.304s0,0.877-0.405,1.417
		C5.795,4.535,4.918,5.479,4.918,5.479S4.446,6.626,5.255,7.841c0.809,1.215,2.766,3.644,2.766,3.644s0.674,0.606,1.349,0.199
		c0.676-0.403,1.687-0.74,2.495-0.471c0.811,0.271,2.632,1.485,3.306,2.023c0.675,0.54,0.808,2.158,0.471,2.632
		C15.306,16.341,14.092,17.823,11.732,17.823z"/>
</g>
<g id="Sky_Broadband" display="none">
	<path display="inline" fill="#0073C5" d="M15.538,8.603l-1.679-3.834c-1.002-2.291-3.56-3.381-5.852-2.569
		c-0.071-0.14-0.188-0.342-0.366-0.554c-0.299-0.363-0.81-0.772-1.525-0.772c-0.532,0-1.123,0.226-1.761,0.743
		C3.029,2.701,2.102,3.174,1.468,3.162C1.193,3.16,0.955,3.089,0.692,2.925C0.495,2.802,0.236,2.864,0.115,3.063
		c-0.121,0.2-0.062,0.464,0.135,0.586c0.369,0.234,0.78,0.364,1.21,0.364h0.008c1.017-0.012,2.037-0.625,3.414-1.731
		c0.541-0.438,0.943-0.558,1.236-0.558c0.383-0.001,0.667,0.21,0.885,0.47C7.109,2.32,7.188,2.451,7.242,2.549
		C5.151,3.744,4.259,6.38,5.253,8.652l1.679,3.833c1.057,2.413,3.84,3.5,6.215,2.427C15.524,13.842,16.594,11.016,15.538,8.603z
		 M9.395,4.281l0.294,0.671c0.186,0.421-0.003,0.915-0.418,1.103C8.855,6.243,8.368,6.054,8.184,5.631L7.89,4.961
		C7.705,4.538,7.892,4.044,8.308,3.857C8.724,3.669,9.209,3.859,9.395,4.281z M13.33,6.167L6.642,9.186
		C6.587,9.21,6.528,9.222,6.472,9.222c-0.161,0-0.314-0.093-0.383-0.253c-0.095-0.215,0-0.465,0.213-0.561l6.688-3.02
		c0.211-0.095,0.461,0.002,0.552,0.217C13.638,5.819,13.541,6.07,13.33,6.167z"/>
</g>
<g id="Sky_Broadband_old">
	<g>
		<path fill="#0073C5" d="M12.007,4.385l-0.284-0.111c-0.676-0.264-1.604-0.425-2.645-0.363c-3.407,0.198-5.646,3.114-5.476,6.154
			c0.119,1.976,1.502,3.194,3.056,3.109c1.216-0.064,2.214-0.629,2.947-1.621c0.128,0.353,0.329,0.641,0.581,0.855
			c0.424,0.362,0.961,0.503,1.482,0.471c2.423-0.141,4.33-2.531,4.126-6.098c-0.116-2.001-0.925-3.726-2.242-4.913
			c-1.316-1.188-3.136-1.827-5.217-1.704C3.021,0.485-0.15,4.987,0.126,9.878c0.276,4.616,3.819,7.35,7.766,7.126
			c0.005-0.001,0.011-0.001,0.014-0.001c1.567-0.091,2.91-0.436,4.187-1.208l0.296-0.179L12.248,15.3l-0.608-1.382l-0.386,0.247
			c-0.835,0.535-1.972,0.869-3.223,0.94c-3.19,0.166-5.59-1.849-5.825-5.486C1.96,5.151,4.748,2.228,8.258,2.014
			c3.349-0.171,5.24,1.867,5.457,5.026c0.071,1.254-0.178,2.245-0.561,2.911c-0.381,0.671-0.877,0.987-1.274,1.005
			c-0.007,0-0.017,0.001-0.021,0.001c-0.271-0.016-0.404-0.062-0.496-0.877c-0.021-0.312,0-0.711,0.07-1.199L12.007,4.385z
			 M7.089,11.12c-0.777,0.021-1.106-0.391-1.197-1.282C5.775,7.801,7.17,6.03,8.921,5.923c0.273-0.017,0.506-0.001,0.695,0.021
			L9.333,8.189C9.203,9.495,8.075,11.123,7.089,11.12z"/>
	</g>
</g>
<g id="back_arrow" display="none">
	<path display="inline" fill="#0073C5" d="M15.573,7.279H3.952l4.25-4.004c0.123-0.113,0.123-0.3,0.002-0.414L7.26,1.971
		c-0.122-0.115-0.32-0.115-0.441,0L0.141,8.195c-0.07,0.065-0.087,0.153-0.077,0.239C0.053,8.521,0.07,8.61,0.141,8.676l6.68,6.226
		c0.12,0.113,0.318,0.113,0.439,0l0.941-0.889c0.125-0.115,0.123-0.303,0-0.416L3.95,9.591h11.624c0.178,0,0.326-0.162,0.326-0.365
		V7.646C15.899,7.443,15.751,7.279,15.573,7.279z"/>
</g>
</svg>
