<?xml version="1.0" encoding="utf-8"?>
<!-- Generator: Adobe Illustrator 16.0.0, SVG Export Plug-In . SVG Version: 6.00 Build 0)  -->
<!DOCTYPE svg PUBLIC "-//W3C//DTD SVG 1.1//EN" "http://www.w3.org/Graphics/SVG/1.1/DTD/svg11.dtd">
<svg version="1.1" id="Layer_1" xmlns="http://www.w3.org/2000/svg" xmlns:xlink="http://www.w3.org/1999/xlink" x="0px" y="0px"
	 width="18px" height="30px" viewBox="0 0 18 30" enable-background="new 0 0 18 30" xml:space="preserve">
<path fill="#FFFFFF" d="M17.715,4.028c0.351-0.356,0.351-0.942,0-1.301l-2.41-2.458c-0.351-0.358-0.922-0.358-1.271,0L0.263,14.333
	c-0.351,0.357-0.351,0.944,0,1.3l2.409,2.461c0.351,0.356,0.921,0.942,1.272,1.299l10.11,10.339c0.35,0.357,0.922,0.357,1.273,0.001
	l2.409-2.462c0.351-0.358,0.351-0.944,0-1.301L7.62,15.639c-0.351-0.356-0.351-0.942,0-1.3L17.715,4.028z"/>
</svg>
