<?xml version="1.0" encoding="utf-8"?>
<!-- Generator: Adobe Illustrator 16.0.4, SVG Export Plug-In . SVG Version: 6.00 Build 0)  -->
<!DOCTYPE svg PUBLIC "-//W3C//DTD SVG 1.1//EN" "http://www.w3.org/Graphics/SVG/1.1/DTD/svg11.dtd">
<svg version="1.1" id="Layer_1" xmlns="http://www.w3.org/2000/svg" xmlns:xlink="http://www.w3.org/1999/xlink" x="0px" y="0px"
	 width="22px" height="16px" viewBox="-0.106 2 22 16" enable-background="new -0.106 2 22 16" xml:space="preserve">
<path fill="#13110C" d="M20.446,4.383h-5.451l0.035,0.085l-0.795-1.883C14.099,2.26,13.724,2,13.401,2H8.759
	C8.434,2,8.067,2.26,7.938,2.584l-0.75,1.883l0.034-0.085h-5.88c-0.799,0-1.447,0.647-1.447,1.448v10.724
	c0,0.797,0.648,1.445,1.447,1.445h19.105c0.799,0,1.447-0.648,1.447-1.445V5.831C21.894,5.03,21.245,4.383,20.446,4.383
	 M10.9,16.029c-2.82,0-5.107-2.273-5.107-5.08c0-2.806,2.288-5.082,5.107-5.082c2.818,0,5.105,2.276,5.105,5.082
	C16.006,13.756,13.719,16.029,10.9,16.029 M19.078,8.715c-0.713,0-1.289-0.574-1.289-1.285c0-0.709,0.576-1.283,1.289-1.283
	s1.289,0.574,1.289,1.283C20.367,8.141,19.791,8.715,19.078,8.715"/>
</svg>
