<?xml version="1.0" encoding="utf-8"?>
<!-- Generator: Adobe Illustrator 16.0.0, SVG Export Plug-In . SVG Version: 6.00 Build 0)  -->
<!DOCTYPE svg PUBLIC "-//W3C//DTD SVG 1.1//EN" "http://www.w3.org/Graphics/SVG/1.1/DTD/svg11.dtd">
<svg version="1.1" id="pre-active" xmlns="http://www.w3.org/2000/svg" xmlns:xlink="http://www.w3.org/1999/xlink" x="0px" y="0px"
	 width="16px" height="19.094px" viewBox="0 0 16 19.094" enable-background="new 0 0 16 19.094" xml:space="preserve">
<path fill="#48AC3B" d="M8.043,0.022c0,0,0.006,3.162,0,3.162c-1.986,0-4.055,0.883-5.544,2.359C1.009,7.02,0.1,9.093,0.1,11.078
	c0,1.98,0.612,3.945,2.268,5.602c1.703,1.705,3.836,2.299,5.674,2.299c1.963,0,3.992-0.6,5.703-2.311
	c1.715-1.715,2.156-3.625,2.156-5.609c0-0.623-0.154-1.121-0.154-1.121s-2.229,0.359-2.24,0.359c0.311,2.596-0.574,3.76-1.395,4.668
	c-0.867,0.961-2.014,1.609-4.07,1.617c-1.979,0.006-3.062-0.734-3.946-1.617c-0.883-0.881-1.563-2.406-1.563-3.887
	c0-1.521,0.799-2.938,1.683-3.808c0.884-0.87,2.371-1.645,3.815-1.645c0.02,0,0.014,2.916,0.014,2.916l4.451-4.066L8.043,0.022z"/>
</svg>