<?xml version="1.0" encoding="utf-8"?>
<!-- Generator: Adobe Illustrator 16.0.0, SVG Export Plug-In . SVG Version: 6.00 Build 0)  -->
<!DOCTYPE svg PUBLIC "-//W3C//DTD SVG 1.1//EN" "http://www.w3.org/Graphics/SVG/1.1/DTD/svg11.dtd">
<svg version="1.1" id="Layer_1" xmlns="http://www.w3.org/2000/svg" xmlns:xlink="http://www.w3.org/1999/xlink" x="0px" y="0px"
	 width="16px" height="20.68px" viewBox="0 0 16 20.68" enable-background="new 0 0 16 20.68" xml:space="preserve">
<g id="on_demand" display="none">
	<path display="inline" fill="#0073C5" d="M4.33,15.281c-0.229-0.168-0.434-0.372-0.607-0.608l-0.187-0.246l-3.417,3.417
		l1.054,1.056l0.178-0.202l3.231-3.229L4.33,15.281z M15.943,10.438l-0.023-0.381l-0.251-0.001H11.9l3.729-1.545l-0.573-1.378
		L14.814,7.25l-3.439,1.426l2.822-2.818l-1.057-1.056l-0.177,0.2l-2.653,2.657l1.539-3.717l-1.377-0.574l-0.089,0.253L8.953,7.076
		V3.094L8.6,3.07l-0.383-0.02L7.833,3.07L7.479,3.094v0.251v3.74L5.941,3.377L4.565,3.951L4.683,4.19l1.433,3.46L3.278,4.812
		L2.224,5.868l0.201,0.177L5.08,8.701l-3.715-1.54L0.79,8.54l0.256,0.085l3.452,1.432H0.511l-0.024,0.396l-0.013,0.341l0.013,0.342
		l0.024,0.395l0.252,0.002h3.723l-3.691,1.526l0.573,1.38l0.241-0.119l4.218-1.747l-0.158-0.266
		c-0.146-0.243-0.255-0.513-0.329-0.799L5.293,11.32l-0.042-0.527l0.042-0.531l0.047-0.188c0.073-0.282,0.183-0.549,0.332-0.795
		L5.75,9.144l0.089-0.119c0.171-0.23,0.376-0.437,0.608-0.607l0.135-0.101L6.696,8.25C6.948,8.1,7.214,7.989,7.492,7.919L7.688,7.87
		l0.529-0.043L8.741,7.87l0.196,0.048C9.219,7.99,9.486,8.1,9.73,8.247l0.123,0.074l0.133,0.097c0.23,0.172,0.437,0.377,0.606,0.607
		l0.089,0.115l0.071,0.126c0.151,0.248,0.261,0.517,0.333,0.794l0.053,0.206l0.043,0.526l-0.043,0.529l-0.049,0.199
		c-0.072,0.277-0.184,0.547-0.333,0.794l-0.084,0.139l-0.08,0.109c-0.171,0.229-0.378,0.435-0.608,0.608l-0.113,0.084l-0.139,0.082
		c-0.248,0.147-0.515,0.258-0.791,0.327l-0.197,0.051l-0.527,0.046l-0.529-0.046l-0.197-0.051c-0.282-0.069-0.549-0.184-0.797-0.329
		l-0.267-0.159l-1.85,4.467l1.379,0.57l0.085-0.252l1.437-3.469v4.003l0.368,0.023l0.37,0.018l0.37-0.018l0.366-0.023v-0.253V14.5
		l1.536,3.711l1.38-0.574l-0.119-0.239l-1.433-3.46l2.836,2.839l1.058-1.059l-0.201-0.176l-2.64-2.64l3.697,1.531l0.574-1.376
		l-0.254-0.087l-3.476-1.439h4.008l0.022-0.381l0.017-0.356L15.943,10.438z"/>
</g>
<g id="Sky_x2B_" display="none">
	<g display="inline">
		<g>
			<path fill="#0073C5" d="M6.11,8.998c-0.995,0-1.802,0.805-1.802,1.799s0.807,1.8,1.802,1.8c0.996,0,1.802-0.807,1.802-1.8
				C7.912,9.802,7.105,8.998,6.11,8.998z M9.145,9.187v3.201c0,0.14,0.092,0.185,0.201,0.103l2.117-1.553
				c0.112-0.083,0.112-0.217,0-0.3L9.346,9.084C9.234,9.001,9.145,9.047,9.145,9.187z M3.3,7.078L1.767,5.865
				c-1.012,1.274-1.601,2.807-1.704,4.432l1.954,0.121C2.094,9.196,2.537,8.04,3.3,7.078z M7.503,4.83l-0.16-1.95
				C5.59,3.024,3.973,3.724,2.667,4.907L3.98,6.356C4.963,5.465,6.184,4.938,7.503,4.83z M2.024,11.298l-1.951,0.159
				c0.142,1.7,0.809,3.28,1.933,4.568l1.475-1.286C2.635,13.769,2.131,12.578,2.024,11.298z M13.943,10.418l1.953-0.121
				c-0.103-1.625-0.69-3.157-1.705-4.432l-1.532,1.213C13.424,8.04,13.867,9.196,13.943,10.418z M8.494,16.769l0.172,1.944
				c1.665-0.146,3.213-0.802,4.484-1.891l-1.278-1.482C10.916,16.161,9.747,16.655,8.494,16.769z M2.813,16.823
				c1.268,1.089,2.819,1.745,4.484,1.891l0.17-1.944c-1.253-0.113-2.421-0.607-3.377-1.429L2.813,16.823z M13.296,4.907
				c-1.308-1.184-2.925-1.883-4.677-2.028L8.458,4.83c1.321,0.108,2.541,0.636,3.522,1.527L13.296,4.907z M12.479,14.739
				l1.476,1.286c1.124-1.288,1.794-2.868,1.935-4.568l-1.951-0.159C13.83,12.578,13.326,13.769,12.479,14.739z"/>
		</g>
	</g>
</g>
<g id="Cloud_wifi" display="none">
	<path display="inline" fill="#0073C5" d="M6.249,7.403C5.869,7.043,5.358,6.82,4.794,6.82c-1.077,0-1.962,0.805-2.094,1.845
		c-1.482,0.18-2.63,1.439-2.63,2.969c0,1.652,1.338,2.991,2.993,2.991c0.652,0,1.254-0.213,1.747-0.565
		c0.706,0.817,1.747,1.339,2.914,1.339c1.014,0,1.936-0.396,2.624-1.039l2.178,2.52l-0.469-2.628
		c0.301,0.105,0.627,0.165,0.965,0.165c1.617,0,2.929-1.312,2.929-2.929s-1.312-2.93-2.929-2.93l-0.08,0.004
		c0.004-0.068,0.012-0.133,0.012-0.201c0-1.889-1.532-3.42-3.421-3.42C7.975,4.94,6.664,5.98,6.249,7.403"/>
</g>
<g id="Sky_TV" display="none">
	<path display="inline" fill="#0073C5" d="M12.936,6.785L3.13,6.786c0,0-1.06,0-1.06,1.055v4.979c0,0,0,1.057,1.06,1.057h9.804
		c0,0,1.061,0,1.061-1.057V7.841C13.994,7.841,13.994,6.785,12.936,6.785 M13.379,4.892H2.686c-0.892,0-2.579,0.537-2.579,2.568
		v6.753c0,0.892,0.54,2.571,2.579,2.571h10.693c0.895,0,2.579-0.539,2.579-2.571V7.46C15.958,6.571,15.419,4.892,13.379,4.892
		 M9.65,16.235H6.415v-0.729h3.237v0.729H9.65z M15.07,13.235c0,1.622-1.518,1.685-1.691,1.687H2.686
		c-1.628,0-1.689-1.514-1.691-1.687V7.46c0-1.622,1.519-1.684,1.692-1.686h10.691c1.63,0,1.69,1.515,1.692,1.688V13.235
		L15.07,13.235z"/>
</g>
<g id="Sky_Talk" display="none">
	<path display="inline" fill="#0073C5" d="M11.676,7.907c1.194,1.128-0.556,3.203-1.207,4.193c-0.576,0.874-1.546,2.012-1.546,2.012
		s-1.35,1.814-2.39,1.218c0,0-0.567-0.391-1.096-0.726L4.57,13.969c-0.674-0.226-0.984-0.273-1.701,0.317l-2.207,1.872
		c-0.773,0.778-0.659,1.144-0.304,1.865c0.527,0.755,0.882,1.594,1.754,2.038c0.734,0.374,1.589,0.333,2.381,0.208
		c1.51-0.236,2.894-0.739,4.142-1.63c0.766-0.545,1.362-1.236,2.012-1.902c0,0,1.414-1.442,2.476-3.018
		c1.06-1.574,1.521-2.835,1.521-2.835c2.674-5.871,0.453-9.007,0.453-9.007s-0.305-0.324-0.613-0.391
		c-0.312-0.065-2.004-0.157-2.004-0.157c-0.744-0.021-1.021-0.16-1.498,0.825c0,0-1.265,2.8-1.269,2.807
		C9.611,5.184,9.459,5.552,9.546,5.798c0.083,0.239,0.317,0.468,0.486,0.647c0.176,0.19,0.364,0.389,0.569,0.549
		c0.264,0.204,0.486,0.442,0.748,0.643C11.467,7.726,11.577,7.814,11.676,7.907z"/>
</g>
<g id="Sky_Talk_old">
	<path fill="#0073C5" d="M0.297,18.585c-0.336-0.474-0.203-2.092,0.472-2.632c0.674-0.538,2.495-1.752,3.306-2.022
		c0.809-0.27,1.819,0.067,2.495,0.471c0.675,0.407,1.349-0.199,1.349-0.199s1.957-2.429,2.766-3.644
		c0.81-1.216,0.337-2.362,0.337-2.362S10.145,7.252,9.74,6.712S9.336,5.295,9.336,5.295S9.672,2.26,9.739,1.992
		c0.067-0.271,0.539-1.755,2.091-1.755c1.553,0,3.373,2.564,3.373,2.564s2.496,4.18-2.562,11.33
		c-5.06,7.152-8.435,6.408-8.435,6.408C1.848,20.54,0.633,19.058,0.297,18.585z"/>
</g>
<g id="Sky_Broadband" display="none">
	<path display="inline" fill="#0073C5" d="M15.538,11.319l-1.679-3.834c-1.002-2.291-3.561-3.381-5.853-2.569
		c-0.071-0.14-0.188-0.342-0.366-0.554C7.342,3.999,6.831,3.59,6.116,3.59c-0.532,0-1.123,0.227-1.761,0.743
		C3.029,5.417,2.102,5.891,1.468,5.878C1.193,5.877,0.955,5.806,0.692,5.642C0.495,5.519,0.236,5.581,0.115,5.78
		c-0.121,0.2-0.062,0.464,0.135,0.586C0.619,6.601,1.03,6.73,1.46,6.73h0.008c1.017-0.012,2.037-0.625,3.414-1.731
		c0.541-0.438,0.943-0.558,1.236-0.558C6.5,4.44,6.784,4.651,7.002,4.912c0.107,0.125,0.186,0.256,0.239,0.354
		C5.15,6.461,4.259,9.098,5.253,11.37l1.679,3.833c1.057,2.413,3.839,3.5,6.214,2.427C15.523,16.559,16.594,13.732,15.538,11.319z
		 M9.395,6.998l0.295,0.671C9.874,8.09,9.686,8.584,9.271,8.772C8.855,8.96,8.368,8.771,8.184,8.348L7.89,7.678
		C7.705,7.255,7.892,6.761,8.308,6.574C8.725,6.386,9.209,6.576,9.395,6.998z M13.33,8.884l-6.688,3.019
		c-0.055,0.024-0.113,0.036-0.17,0.036c-0.161,0-0.314-0.093-0.383-0.253c-0.095-0.215,0-0.465,0.213-0.562l6.688-3.02
		c0.211-0.095,0.461,0.002,0.552,0.217C13.639,8.536,13.541,8.787,13.33,8.884z"/>
</g>
<g id="Sky_Broadband_old" display="none">
	<g display="inline">
		<path fill="#0073C5" d="M12.007,7.102l-0.284-0.111c-0.676-0.264-1.604-0.425-2.645-0.363c-3.407,0.198-5.646,3.114-5.476,6.154
			c0.119,1.977,1.502,3.194,3.056,3.109c1.216-0.064,2.214-0.629,2.947-1.621c0.127,0.353,0.328,0.641,0.58,0.854
			c0.424,0.362,0.961,0.503,1.482,0.472c2.423-0.142,4.33-2.531,4.126-6.099c-0.116-2.001-0.925-3.726-2.241-4.913
			s-3.137-1.826-5.218-1.704c-5.314,0.32-8.485,4.823-8.208,9.714c0.276,4.615,3.819,7.35,7.766,7.126
			c0.005-0.001,0.011-0.001,0.014-0.001c1.567-0.092,2.909-0.437,4.187-1.208l0.297-0.18l-0.142-0.315l-0.608-1.382l-0.386,0.246
			c-0.835,0.535-1.972,0.869-3.223,0.94c-3.19,0.166-5.59-1.849-5.825-5.486C1.96,7.868,4.748,4.945,8.258,4.73
			c3.35-0.171,5.24,1.867,5.457,5.025c0.071,1.255-0.178,2.245-0.561,2.911c-0.381,0.671-0.877,0.987-1.274,1.005
			c-0.007,0-0.017,0.001-0.021,0.001c-0.271-0.016-0.404-0.062-0.496-0.877c-0.021-0.312,0-0.711,0.07-1.198L12.007,7.102z
			 M7.089,13.837c-0.777,0.021-1.106-0.391-1.197-1.281C5.775,10.518,7.17,8.747,8.921,8.64c0.272-0.018,0.507-0.002,0.695,0.02
			l-0.283,2.246C9.203,12.212,8.075,13.84,7.089,13.837z"/>
	</g>
</g>
<g id="back_arrow" display="none">
	<path display="inline" fill="#0073C5" d="M15.572,9.996H3.952l4.25-4.004c0.123-0.113,0.123-0.3,0.002-0.414L7.26,4.688
		c-0.122-0.115-0.32-0.115-0.441,0l-6.678,6.224c-0.07,0.065-0.087,0.153-0.077,0.239c-0.011,0.087,0.006,0.176,0.077,0.241
		l6.68,6.226c0.12,0.113,0.318,0.113,0.439,0l0.941-0.889c0.125-0.115,0.123-0.303,0-0.416L3.95,12.308h11.624
		c0.178,0,0.326-0.162,0.326-0.365v-1.579C15.898,10.16,15.751,9.996,15.572,9.996z"/>
</g>
</svg>
