<?xml version="1.0" encoding="utf-8"?>
<!-- Generator: Adobe Illustrator 16.0.0, SVG Export Plug-In . SVG Version: 6.00 Build 0)  -->
<!DOCTYPE svg PUBLIC "-//W3C//DTD SVG 1.1//EN" "http://www.w3.org/Graphics/SVG/1.1/DTD/svg11.dtd">
<svg version="1.1" id="Layer_1" xmlns="http://www.w3.org/2000/svg" xmlns:xlink="http://www.w3.org/1999/xlink" x="0px" y="0px"
	 width="22.938px" height="14.139px" viewBox="0 0 22.938 14.139" enable-background="new 0 0 22.938 14.139" xml:space="preserve">
<path fill="#4B4B4B" d="M15.876,13.855c0.187,0.095,0.572,0.212,1.057,0.225c0.828,0.018,1.28-0.3,1.616-1.042L23,3.108
	c-0.183-0.099-0.589-0.208-0.923-0.217c-0.572-0.009-1.34,0.107-1.831,1.279l-1.442,3.402l-2.827-4.604
	c-0.182-0.056-0.627-0.136-0.955-0.136c-0.996,0-1.554,0.368-2.134,0.996L10.14,6.833l2.21,3.48
	c0.408,0.633,0.947,0.958,1.821,0.958c0.573,0,1.048-0.131,1.269-0.237L12.777,7.02l1.887-1.999l3.095,4.857L15.876,13.855z
	 M10.035,10.099c0,0.732-0.288,1.154-1.715,1.154c-0.189,0-0.354-0.015-0.514-0.037V1.507C7.806,0.77,8.057,0,9.501,0
	c0.181,0,0.365,0.019,0.535,0.055L10.035,10.099L10.035,10.099z M7.087,8.634c0,1.366-0.893,2.362-2.703,2.559
	c-1.313,0.141-3.214-0.026-4.116-0.128c-0.034-0.148-0.061-0.331-0.061-0.475c0-1.194,0.646-1.467,1.251-1.467
	c0.627,0,1.616,0.109,2.353,0.109c0.809,0,1.056-0.274,1.056-0.536c0-0.343-0.328-0.484-0.956-0.605L2.194,7.76
	C0.763,7.487,0,6.495,0,5.447c0-1.276,0.904-2.345,2.68-2.542c1.344-0.146,2.979,0.019,3.875,0.129
	c0.033,0.154,0.051,0.3,0.051,0.459c0,1.189-0.628,1.447-1.232,1.447c-0.466,0-1.186-0.087-2.01-0.087
	c-0.838,0-1.186,0.232-1.186,0.514c0,0.298,0.332,0.42,0.857,0.513l1.643,0.305C6.365,6.495,7.087,7.455,7.087,8.634"/>
</svg>
