<?xml version="1.0" encoding="utf-8"?>
<!-- Generator: Adobe Illustrator 16.0.0, SVG Export Plug-In . SVG Version: 6.00 Build 0)  -->
<!DOCTYPE svg PUBLIC "-//W3C//DTD SVG 1.1//EN" "http://www.w3.org/Graphics/SVG/1.1/DTD/svg11.dtd">
<svg version="1.1" id="Layer_1" xmlns="http://www.w3.org/2000/svg" xmlns:xlink="http://www.w3.org/1999/xlink" x="0px" y="0px"
	 width="40px" height="40px" viewBox="0 0 40 40" enable-background="new 0 0 40 40" xml:space="preserve">
<g>
	<path fill="#13110C" d="M21.298,35.083L21.732,40c4.202-0.371,8.119-2.022,11.324-4.778l-3.228-3.744
		C27.413,33.553,24.463,34.801,21.298,35.083 M31.361,29.957l3.726,3.25c2.842-3.256,4.532-7.242,4.883-11.537l-4.925-0.402
		C34.775,24.498,33.505,27.509,31.361,29.957 M35.065,19.043L40,18.737c-0.255-4.104-1.749-7.978-4.308-11.195l-3.871,3.063
		C33.751,13.037,34.873,15.956,35.065,19.043 M33.425,5.123C30.126,2.133,26.04,0.366,21.612,0l-0.407,4.927
		c3.337,0.274,6.415,1.605,8.902,3.856L33.425,5.123z M6.946,35.222c3.203,2.756,7.122,4.407,11.326,4.778l0.431-4.917
		c-3.167-0.282-6.117-1.53-8.531-3.605L6.946,35.222z M4.956,21.268L0.029,21.67c0.357,4.295,2.043,8.281,4.882,11.537l3.724-3.25
		C6.498,27.509,5.224,24.498,4.956,21.268 M8.178,10.605L4.303,7.542C1.748,10.76,0.26,14.633,0,18.737l4.933,0.306
		C5.129,15.956,6.25,13.037,8.178,10.605 M18.795,4.927L18.393,0C13.964,0.366,9.879,2.133,6.576,5.123l3.317,3.66
		C12.379,6.532,15.46,5.201,18.795,4.927"/>
	<path fill="#13110C" d="M16.01,12.767c-0.212-0.146-0.386-0.056-0.386,0.202v14.688c0,0.258,0.172,0.348,0.384,0.201l10.481-7.312
		c0.211-0.147,0.21-0.388-0.001-0.534L16.01,12.767z"/>
</g>
</svg>
