<svg xmlns="http://www.w3.org/2000/svg" width="16" height="19.234" viewBox="0 0 16 19.234"><path fill="#0073C5" d="M11.592 6.785c1.194 1.128-.556 3.203-1.207 4.193-.576.875-1.546 2.014-1.546 2.014s-1.35 1.812-2.39 1.217c0 0-.567-.391-1.096-.725l-.867-.637c-.674-.227-.984-.273-1.701.316l-2.207 1.871c-.773.779-.659 1.145-.304 1.865.527.756.882 1.594 1.754 2.039.734.373 1.589.332 2.381.207 1.51-.236 2.894-.738 4.142-1.629.766-.545 1.362-1.236 2.012-1.902 0 0 1.414-1.441 2.477-3.018 1.061-1.574 1.521-2.836 1.521-2.836 2.674-5.871.453-9.005.453-9.005s-.306-.325-.614-.391c-.312-.064-2.004-.157-2.004-.157-.744-.021-1.021-.159-1.498.825l-1.27 2.808c-.101.222-.252.59-.165.837.083.238.317.466.486.646.176.19.363.39.568.549l.748.643.327.27z"/></svg>