<svg xmlns="http://www.w3.org/2000/svg" width="16" height="20.679" viewBox="0 0 16 20.679"><path fill="#0073C5" d="M11.732 20.54s-3.374.744-8.434-6.408c-5.058-7.151-2.562-11.331-2.562-11.331s1.821-2.564 3.373-2.564 2.024 1.484 2.091 1.755c.068.268.404 3.303.404 3.303s0 .877-.405 1.417c-.404.54-1.281 1.484-1.281 1.484s-.472 1.146.337 2.362c.809 1.215 2.766 3.644 2.766 3.644s.674.606 1.349.199c.676-.403 1.687-.74 2.495-.471.811.271 2.632 1.485 3.306 2.023.675.54.808 2.158.471 2.632-.336.473-1.55 1.955-3.91 1.955z"/></svg>