<svg xmlns="http://www.w3.org/2000/svg" width="841" height="595" viewBox="0 0 841 595" style="margin-left:5px;margin-top:8px"><path d="M562.526 547.712c6.457 3.274 19.711 7.318 36.443 7.771 28.547.623 44.146-10.354 55.712-35.933l153.452-342.384c-6.321-3.421-20.3-7.182-31.821-7.488-19.711-.306-46.219 3.693-63.132 44.112l-49.697 117.281-97.468-158.731c-6.287-1.937-21.603-4.69-32.931-4.69-34.347 0-53.571 12.699-73.588 34.347l-94.738 103.608 76.205 119.977c14.081 21.818 32.648 33.033 62.781 33.033 19.745 0 36.137-4.52 43.761-8.179l-91.804-138.408 65.058-68.921 106.723 167.465-64.956 137.14zm-201.393-129.493c0 25.228-9.935 39.796-59.122 39.796-6.525 0-12.223-.521-17.706-1.28v-334.76c0-25.398 8.666-51.94 58.431-51.94 6.242 0 12.597.657 18.431 1.903v346.281zm-101.638-50.535c0 47.114-30.79 81.45-93.186 88.224-45.279 4.871-110.824-.895-141.92-4.418-1.178-5.109-2.107-11.419-2.107-16.358 0-41.178 22.26-50.569 43.138-50.569 21.603 0 55.712 3.761 81.144 3.761 27.89 0 36.409-9.459 36.409-18.465 0-11.838-11.317-16.675-32.965-20.844l-59.19-11.419c-49.323-9.425-75.661-43.625-75.661-79.762 0-44.01 31.164-80.872 92.393-87.635 46.355-5.041 102.713.657 133.605 4.452 1.144 5.313 1.756 10.354 1.756 15.837 0 41.008-21.637 49.878-42.492 49.878-16.086 0-40.895-3.002-69.306-3.002-28.887 0-40.895 8.009-40.895 17.706 0 10.286 11.464 14.5 29.544 17.672l56.641 10.524c58.204 10.695 83.092 43.761 83.092 84.418"/></svg>