<svg xmlns="http://www.w3.org/2000/svg" width="22.938" height="14.139" viewBox="0 0 22.938 14.139"><path fill="#4B4B4B" d="M15.876 13.855c.187.095.572.212 1.057.225.828.018 1.28-.3 1.616-1.042l4.451-9.93c-.183-.099-.589-.208-.923-.217-.572-.009-1.34.107-1.831 1.279l-1.442 3.402-2.827-4.604c-.182-.056-.627-.136-.955-.136-.996 0-1.554.368-2.134.996l-2.748 3.005 2.21 3.48c.408.633.947.958 1.821.958.573 0 1.048-.131 1.269-.237l-2.663-4.014 1.887-1.999 3.095 4.857-1.883 3.977zm-5.841-3.756c0 .732-.288 1.154-1.715 1.154-.189 0-.354-.015-.514-.037v-9.709c0-.737.251-1.507 1.695-1.507.181 0 .365.019.535.055l-.001 10.044zm-2.948-1.465c0 1.366-.893 2.362-2.703 2.559-1.313.141-3.214-.026-4.116-.128-.034-.148-.061-.331-.061-.475 0-1.194.646-1.467 1.251-1.467.627 0 1.616.109 2.353.109.809 0 1.056-.274 1.056-.536 0-.343-.328-.484-.956-.605l-1.717-.331c-1.431-.273-2.194-1.265-2.194-2.313 0-1.276.904-2.345 2.68-2.542 1.344-.146 2.979.019 3.875.129.033.154.051.3.051.459 0 1.189-.628 1.447-1.232 1.447-.466 0-1.186-.087-2.01-.087-.838 0-1.186.232-1.186.514 0 .298.332.42.857.513l1.643.305c1.687.31 2.409 1.27 2.409 2.449"/></svg>