<svg xmlns="http://www.w3.org/2000/svg" width="16" height="12.074" viewBox="0 0 16 12.074"><path fill="#0073C5" d="M12.828 1.894l-9.806.001s-1.06 0-1.06 1.055v4.979s0 1.058 1.06 1.058h9.804s1.062 0 1.062-1.058v-4.979c-.001.002-.001-1.056-1.06-1.056m.443-1.894h-10.692c-.892 0-2.579.538-2.579 2.571v6.752c0 .892.54 2.57 2.579 2.57h10.693c.895 0 2.579-.539 2.579-2.57v-6.752c0-.891-.539-2.571-2.58-2.571m-3.728 11.345h-3.235v-.729h3.237v.729h-.002zm5.42-3c0 1.623-1.52 1.687-1.691 1.688h-10.693c-1.628 0-1.689-1.515-1.691-1.688v-5.774c0-1.621 1.519-1.684 1.692-1.686h10.691c1.63 0 1.69 1.516 1.692 1.688v5.772z"/></svg>