<svg xmlns="http://www.w3.org/2000/svg" width="36" height="36" viewBox="0 0 36 36"><path d="M29.61 8.844c-1.088.48-2.254.809-3.477.952 1.248-.747 2.209-1.935 2.661-3.351-1.169.694-2.466 1.198-3.844 1.47-1.106-1.177-2.683-1.912-4.424-1.912-3.345 0-6.057 2.712-6.057 6.056 0 .476.053.938.156 1.383-5.033-.255-9.498-2.664-12.485-6.329-.52.893-.82 1.935-.82 3.045 0 2.101 1.07 3.955 2.695 5.041-.993-.032-1.926-.305-2.744-.757l-.001.076c0 2.935 2.089 5.383 4.861 5.938-.509.14-1.045.212-1.598.212-.39 0-.77-.038-1.137-.108.77 2.407 3.005 4.158 5.656 4.207-2.07 1.626-4.682 2.593-7.519 2.593-.491 0-.972-.03-1.446-.087 2.681 1.72 5.863 2.724 9.286 2.724 11.14 0 17.231-9.23 17.231-17.236 0-.26-.005-.521-.017-.782 1.186-.854 2.211-1.922 3.023-3.135z"/><polygon points="35.913,23.694 32.057,23.694 32.057,19.838 29.61,19.838 29.61,23.694 25.754,23.694 25.754,26.141 29.61,26.141 29.61,29.997 32.057,29.997 32.057,26.141 35.913,26.141"/></svg>