<svg xmlns="http://www.w3.org/2000/svg" width="16" height="13.147" viewBox="0 1.45 16 13.147" enable-background="new 0 1.45 16 13.147"><path fill="#0073C5" d="M15.674 6.892h-11.621l4.25-4.005c.122-.113.122-.3.002-.414l-.944-.89c-.122-.115-.32-.115-.441 0l-5.615 5.288-.12.048-.943.889c-.07.065-.087.153-.077.239-.011.087.006.176.077.241l.943.89.12.047 5.617 5.289c.12.113.318.113.439 0l.942-.889c.124-.115.122-.303 0-.416l-4.252-4.006h11.623c.178 0 .326-.162.326-.365v-1.58c0-.202-.148-.366-.326-.366z"/></svg>