<svg xmlns="http://www.w3.org/2000/svg" width="20" height="20" viewBox="0 0 20 20"><path d="M11.415 10.001l2.475-2.475c.435-.545-.29-.938-.6-1.307-.433-.571-.971.011-1.294.373l-1.996 1.995-2.475-2.475c-.545-.435-.938.29-1.307.6-.571.433.011.971.373 1.294l1.995 1.995-2.475 2.475c-.435.545.29.938.6 1.307.433.571.971-.011 1.294-.373l1.995-1.995 2.475 2.475c.545.435.939-.29 1.307-.6.571-.433-.011-.971-.373-1.294l-1.994-1.995zm5.656 7.07c2.82-2.742 3.714-7.211 2.197-10.834-1.425-3.625-5.131-6.192-9.028-6.234-3.85-.142-7.634 2.185-9.26 5.675-1.751 3.553-1.101 8.113 1.595 11.021 2.547 2.9 6.848 4.043 10.504 2.819 1.501-.482 2.88-1.33 3.992-2.446zm-12.803-12.802c2.515-2.607 6.821-3.148 9.909-1.26 3.05 1.737 4.663 5.572 3.778 8.967-.809 3.565-4.265 6.278-7.921 6.212-3.656.066-7.112-2.648-7.921-6.213-.685-2.719.152-5.741 2.155-7.707z"/></svg>