<svg xmlns="http://www.w3.org/2000/svg" width="22" height="16" viewBox="-0.106 2 22 16" enable-background="new -0.106 2 22 16"><path fill="#13110C" d="M20.446 4.383h-5.451l.035.085-.795-1.883c-.136-.325-.511-.585-.834-.585h-4.642c-.325 0-.692.26-.821.584l-.75 1.883.034-.085h-5.88c-.799 0-1.447.647-1.447 1.448v10.724c0 .797.648 1.445 1.447 1.445h19.105c.799 0 1.447-.648 1.447-1.445v-10.723c0-.801-.649-1.448-1.448-1.448m-9.546 11.646c-2.82 0-5.107-2.273-5.107-5.08 0-2.806 2.288-5.082 5.107-5.082 2.818 0 5.105 2.276 5.105 5.082.001 2.807-2.286 5.08-5.105 5.08m8.178-7.314c-.713 0-1.289-.574-1.289-1.285 0-.709.576-1.283 1.289-1.283s1.289.574 1.289 1.283c0 .711-.576 1.285-1.289 1.285"/></svg>