<svg xmlns="http://www.w3.org/2000/svg" width="20" height="20" viewBox="0 0 20 20"><path d="M4.031 0c-2.155.086-4.104 2.037-4.031 4.25.002.194.005.402.031.594.151.742.391 1.754 1.063 2.094.713-1.621 1.862-3.066 3.313-4.094.645-.777 2.438-.947 2.781-1.531-.526-.58-1.373-1.113-2.219-1.25-.311-.069-.63-.075-.938-.063zm11.469 0c-.155.013-.313.029-.469.063-.779.2-2.022.617-2.219 1.406 2.737.767 4.925 2.9 6.125 5.438.604-.376.892-1.333 1.031-2.063.026-.192.029-.4.031-.594.078-2.371-2.17-4.448-4.5-4.25zm-5.688.75c-.285.024-.55.127-.781.344-.588.671-.539 1.522-1.656 1.5-3.724 1.221-6.311 5.18-5.813 9.094.216 2.029 1.181 3.946 2.625 5.375-.526.552-1.098 1.049-1.594 1.625-.021.509.573.768.844 1.156.475.47.882-.28 1.219-.563l1.094-1.063c2.564 1.545 5.928 1.527 8.5 0 .606.576 1.173 1.25 1.813 1.781.573.051.838-.632 1.25-.938.277-.523-.491-.811-.75-1.188l-.813-.781c2.987-2.651 3.637-7.445 1.5-10.813-1.238-2.046-3.36-3.554-5.719-3.969.075-.939-.863-1.634-1.719-1.563zm-.125 3.344c2.758-.136 5.549 1.619 6.5 4.25 1.165 2.92.02 6.584-2.719 8.188-1.025.631-2.234.966-3.438.969-3.319.074-6.335-2.704-6.594-6-.401-3.234 1.899-6.535 5.094-7.219.388-.099.762-.168 1.156-.188zm-.344 1.375c-.507.116-.191.831-.281 1.219v4.5h.031v.156l2.906 2.875c.42.101.798-.545 1.031-.875-.37-.588-.968-1.003-1.438-1.531-.333-.322-.671-.673-1-1-.004-.256-.037-.513 0-.75v-4.344h.031c-.203-.451-.871-.16-1.281-.25z"/></svg>