<svg xmlns="http://www.w3.org/2000/svg" width="20" height="20" viewBox="0 0 20 20"><path fill="#4C4B4B" d="M19.912 17.916l-6.211-6.196c.819-1.202 1.3-2.654 1.3-4.22 0-4.144-3.356-7.5-7.5-7.5l-.077.004c-1.909-.026-3.826.684-5.282 2.14-1.466 1.464-2.175 3.395-2.139 5.314l-.002.042c0 4.143 3.357 7.5 7.5 7.5 1.556 0 3.001-.474 4.199-1.284l6.213 6.195c.117.118.31.118.427.001l1.572-1.57c.117-.117.117-.31 0-.426zm-8.758-6.768c-1.834 1.835-4.656 2.072-6.753.727-1.399-1.053-2.4-2.708-2.4-4.375 0-2.762 2.738-5.5 5.5-5.5 1.676 0 3.339 1.011 4.392 2.421 1.332 2.096 1.09 4.9-.739 6.727z"/></svg>