<svg xmlns="http://www.w3.org/2000/svg" width="16" height="15.996" viewBox="0 0 16 15.996"><path fill="#0073C5" d="M6.11 6.119c-.995 0-1.802.804-1.802 1.799 0 .994.807 1.799 1.802 1.799.996 0 1.802-.806 1.802-1.799 0-.995-.807-1.799-1.802-1.799zm3.035.189v3.201c0 .141.092.186.201.104l2.117-1.553c.112-.082.112-.217 0-.3l-2.117-1.554c-.112-.083-.201-.037-.201.102zm-5.845-2.11l-1.534-1.213c-1.012 1.275-1.601 2.808-1.704 4.433l1.954.121c.078-1.222.521-2.378 1.284-3.341zm4.203-2.248l-.16-1.949c-1.753.145-3.37.844-4.676 2.027l1.313 1.45c.983-.891 2.204-1.418 3.523-1.528zm-5.479 6.469l-1.951.159c.142 1.7.809 3.28 1.933 4.567l1.475-1.285c-.846-.97-1.35-2.162-1.457-3.441zm11.919-.88l1.953-.121c-.104-1.625-.69-3.158-1.705-4.433l-1.532 1.213c.765.963 1.208 2.119 1.284 3.341zm-5.449 6.351l.172 1.945c1.665-.146 3.213-.803 4.484-1.891l-1.278-1.482c-.956.82-2.125 1.314-3.378 1.428zm-5.681.054c1.268 1.088 2.819 1.744 4.484 1.891l.17-1.945c-1.253-.113-2.421-.607-3.377-1.428l-1.277 1.482zm10.483-11.916c-1.308-1.184-2.925-1.882-4.677-2.028l-.162 1.95c1.32.107 2.541.636 3.523 1.527l1.316-1.449zm-.817 9.832l1.477 1.285c1.124-1.287 1.794-2.867 1.936-4.567l-1.951-.159c-.111 1.279-.615 2.471-1.462 3.441z"/></svg>