<svg xmlns="http://www.w3.org/2000/svg" width="36" height="36" viewBox="0 0 36 36"><path d="M35.801 6.958c-1.312.58-2.719.975-4.194 1.149 1.507-.902 2.665-2.333 3.209-4.041-1.409.837-2.972 1.445-4.635 1.772-1.334-1.419-3.234-2.305-5.334-2.305-4.033 0-7.303 3.27-7.303 7.302 0 .573.064 1.13.189 1.667-6.07-.307-11.453-3.212-15.056-7.632-.627 1.077-.989 2.333-.989 3.672 0 2.533 1.29 4.769 3.249 6.079-1.197-.039-2.322-.368-3.308-.913l-.001.092c0 3.539 2.519 6.491 5.861 7.161-.614.168-1.26.256-1.926.256-.47 0-.929-.047-1.372-.131.928 2.902 3.624 5.013 6.821 5.072-2.498 1.961-5.649 3.128-9.069 3.128-.592 0-1.171-.036-1.744-.104 3.233 2.073 7.071 3.284 11.197 3.284 13.434 0 20.779-11.131 20.779-20.784 0-.314-.006-.629-.02-.944 1.43-1.029 2.666-2.317 3.646-3.78z"/></svg>