<svg width="20" height="20" viewBox="0 0 20 20"><path fill="#D2191A" d="M10 20c5.522 0 10-4.478 10-10s-4.478-10-10-10-10 4.478-10 10 4.478 10 10 10m0-18.106c4.503 0 8.153 3.651 8.153 8.154 0 4.504-3.65 8.154-8.153 8.154s-8.154-3.65-8.154-8.154c0-4.503 3.651-8.154 8.154-8.154m0 10.97c.363 0 .672.126.928.377.256.25.384.557.384.92 0 .362-.128.672-.384.928s-.565.385-.928.385c-.362 0-.672-.129-.928-.385s-.384-.565-.384-.928c0-.363.128-.67.384-.92.256-.251.565-.377.928-.377zm.176-8.943c.203 0 .411.014.624.04l.48.072v7.024c0 .276-.099.484-.296.623-.197.139-.578.209-1.144.209-.202 0-.41-.014-.624-.041l-.48-.072v-7.023c0-.277.099-.485.296-.624.197-.139.578-.208 1.144-.208z"/></svg>