<?xml version="1.0" encoding="UTF-8" standalone="no"?>
<!-- Generator: Adobe Illustrator 16.0.0, SVG Export Plug-In . SVG Version: 6.00 Build 0)  -->

<svg
   xmlns:dc="http://purl.org/dc/elements/1.1/"
   xmlns:cc="http://creativecommons.org/ns#"
   xmlns:rdf="http://www.w3.org/1999/02/22-rdf-syntax-ns#"
   xmlns:svg="http://www.w3.org/2000/svg"
   xmlns="http://www.w3.org/2000/svg"
   xmlns:sodipodi="http://sodipodi.sourceforge.net/DTD/sodipodi-0.dtd"
   xmlns:inkscape="http://www.inkscape.org/namespaces/inkscape"
   version="1.1"
   id="Layer_1"
   x="0px"
   y="0px"
   width="32px"
   height="32px"
   viewBox="0 0 32 32"
   style="enable-background:new 0 0 32 32;"
   xml:space="preserve"
   inkscape:version="0.48.3.1 r9886"
   sodipodi:docname="google-plus.svg"><metadata
   id="metadata3056"><rdf:RDF><cc:Work
       rdf:about=""><dc:format>image/svg+xml</dc:format><dc:type
         rdf:resource="http://purl.org/dc/dcmitype/StillImage" /><dc:title></dc:title></cc:Work></rdf:RDF></metadata><defs
   id="defs3054" /><sodipodi:namedview
   pagecolor="#ffffff"
   bordercolor="#666666"
   borderopacity="1"
   objecttolerance="10"
   gridtolerance="10"
   guidetolerance="10"
   inkscape:pageopacity="0"
   inkscape:pageshadow="2"
   inkscape:window-width="1464"
   inkscape:window-height="774"
   id="namedview3052"
   showgrid="false"
   inkscape:zoom="15.3125"
   inkscape:cx="5.2244898"
   inkscape:cy="16"
   inkscape:window-x="906"
   inkscape:window-y="410"
   inkscape:window-maximized="0"
   inkscape:current-layer="Layer_1" />
<g
   id="g3059"><g
     transform="matrix(1.5799267,0,0,1.5799267,-9.2135212,-8.5607156)"
     id="g3048">
	<path
   inkscape:connector-curvature="0"
   id="path3050"
   d="m 16.9,7.1 c -1.876711,0.012703 -3.75505,-0.026106 -5.630688,0.020703 -1.9172575,0.1948528 -3.9345747,1.5653121 -4.1626439,3.5924319 -0.1621083,1.902398 1.348858,3.703868 3.2355899,3.927555 0.29601,0.205571 1.434464,-0.191552 1.126492,0.285872 -0.579568,0.719809 0.304155,1.940371 0.374145,2.173438 -1.639977,-0.08471 -3.3804946,0.257795 -4.627323,1.393957 C 6.180119,19.348779 5.527938,21.01427 6.4359375,22.185937 7.6279015,23.623447 9.6282923,23.971299 11.4,24 c 1.944594,0.0359 4.178809,-0.785677 4.912134,-2.743774 C 16.77739,19.83845 16.408727,18.097489 15.179297,17.17168 14.496426,16.594994 13.519168,16.142996 13.3,15.2 c 0.0043,-1.066511 1.20114,-1.453351 1.746704,-2.214844 C 16.248561,11.631284 15.974482,9.2259902 14.488867,8.1904297 13.739592,7.9088604 14.537389,8.0219206 14.885525,8 15.210269,7.9579994 15.595572,8.0856473 15.881062,7.9336768 16.220708,7.6557845 16.560354,7.3778923 16.9,7.1 z m -1.8,12.8 c 0.379694,1.186367 -0.398994,2.521538 -1.57793,2.875903 C 11.853102,23.331507 9.697257,23.288684 8.4800781,21.845117 7.662567,20.954397 7.7230899,19.446331 8.6839355,18.680753 9.856065,17.654781 11.656481,17.296443 13.102237,17.873856 13.845971,18.446997 14.868754,18.902751 15.1,19.9 z M 11.9,14.2 C 10.436378,14.119261 9.4756077,12.688898 9.1099182,11.397351 8.7432136,10.146489 9.0610254,8.3902871 10.422592,7.8921631 11.768263,7.4682165 12.976545,8.6573538 13.503125,9.7828125 14.193217,11.09968 14.108277,13.059272 12.789062,13.953125 12.522759,14.115214 12.211699,14.201208 11.9,14.2 z m 10.3,-3.4 c 0,-1.2333333 0,-2.4666667 0,-3.7 -0.4,0 -0.8,0 -1.2,0 0,1.2666667 0,2.5333333 0,3.8 -1.266667,0 -2.533333,0 -3.8,0 0,0.4 0,0.8 0,1.2 1.266667,0 2.533333,0 3.8,0 0,1.266667 0,2.533333 0,3.8 0.4,0 0.8,0 1.2,0 0,-1.266667 0,-2.533333 0,-3.8 1.266667,0 2.533333,0 3.8,0 0,-0.4 0,-0.8 0,-1.2 -1.266667,0 -2.533333,0 -3.8,0 l 0,-0.05237 0,-0.04763 z" />
</g></g>
</svg>