<?xml version="1.0" encoding="utf-8"?>
<!-- Generator: Adobe Illustrator 16.0.0, SVG Export Plug-In . SVG Version: 6.00 Build 0)  -->
<!DOCTYPE svg PUBLIC "-//W3C//DTD SVG 1.1//EN" "http://www.w3.org/Graphics/SVG/1.1/DTD/svg11.dtd">
<svg version="1.1" xmlns="http://www.w3.org/2000/svg" xmlns:xlink="http://www.w3.org/1999/xlink" x="0px" y="0px" width="16px"
	 height="20.679px" viewBox="0 0 16 20.679" enable-background="new 0 0 16 20.679" xml:space="preserve">
<g id="on_demand" display="none">
	<path display="inline" fill="#0073C5" d="M4.33,15.281c-0.229-0.168-0.434-0.372-0.607-0.608l-0.187-0.247l-3.417,3.417
		l1.054,1.056l0.178-0.202l3.231-3.23L4.33,15.281z M15.943,10.438l-0.023-0.381l-0.251-0.001h-3.768l3.729-1.545l-0.574-1.378
		L14.814,7.25l-3.439,1.425l2.823-2.818l-1.057-1.056l-0.177,0.201L10.31,7.659l1.539-3.717l-1.377-0.574l-0.088,0.253L8.953,7.076
		V3.093L8.6,3.07L8.217,3.05L7.833,3.07L7.479,3.093v0.251v3.741L5.941,3.377L4.565,3.951l0.118,0.239l1.433,3.46L3.278,4.812
		L2.224,5.868l0.201,0.177L5.08,8.701l-3.715-1.54L0.79,8.54l0.256,0.085l3.452,1.431H0.511l-0.024,0.396l-0.013,0.341l0.013,0.341
		l0.024,0.395l0.252,0.002h3.723l-3.691,1.526l0.573,1.38l0.241-0.119l4.218-1.747l-0.158-0.266
		c-0.146-0.243-0.255-0.512-0.329-0.798L5.293,11.32l-0.042-0.527l0.042-0.532l0.047-0.188c0.073-0.282,0.183-0.549,0.332-0.795
		L5.75,9.144l0.089-0.119c0.171-0.23,0.376-0.436,0.608-0.607l0.135-0.101L6.696,8.25C6.948,8.1,7.214,7.989,7.492,7.919L7.688,7.87
		l0.529-0.043L8.741,7.87l0.196,0.048C9.219,7.99,9.487,8.1,9.731,8.247l0.122,0.074l0.133,0.097
		c0.231,0.172,0.437,0.377,0.607,0.607l0.088,0.115l0.072,0.126c0.151,0.248,0.261,0.517,0.333,0.794l0.053,0.206l0.043,0.527
		l-0.043,0.529l-0.049,0.199c-0.072,0.278-0.184,0.547-0.333,0.794l-0.084,0.139l-0.08,0.109c-0.171,0.229-0.378,0.435-0.609,0.609
		l-0.113,0.084l-0.138,0.082c-0.248,0.147-0.515,0.257-0.792,0.327l-0.197,0.051l-0.527,0.045l-0.529-0.045l-0.197-0.051
		c-0.282-0.07-0.549-0.184-0.797-0.329l-0.267-0.16l-1.85,4.467l1.379,0.571l0.085-0.252l1.437-3.469v4.003l0.368,0.023l0.37,0.018
		l0.37-0.018l0.366-0.023v-0.253V14.5l1.537,3.711l1.379-0.575l-0.119-0.239l-1.432-3.46l2.836,2.839l1.057-1.059l-0.201-0.175
		l-2.64-2.64l3.697,1.531l0.574-1.376l-0.254-0.087l-3.475-1.439h4.008l0.023-0.381l0.016-0.356L15.943,10.438z"/>
</g>
<g id="Sky_x2B_" display="none">
	<g display="inline">
		<g>
			<path fill="#0073C5" d="M6.11,8.998c-0.995,0-1.802,0.804-1.802,1.799c0,0.994,0.807,1.799,1.802,1.799
				c0.996,0,1.802-0.806,1.802-1.799C7.912,9.802,7.105,8.998,6.11,8.998z M9.144,9.187v3.201c0,0.14,0.092,0.185,0.202,0.103
				l2.117-1.553c0.112-0.083,0.112-0.217,0-0.3L9.346,9.084C9.235,9.001,9.144,9.047,9.144,9.187z M3.3,7.078L1.767,5.865
				c-1.012,1.274-1.601,2.807-1.704,4.432l1.954,0.121C2.094,9.196,2.537,8.04,3.3,7.078z M7.503,4.83l-0.16-1.95
				C5.59,3.024,3.973,3.724,2.667,4.907l1.313,1.449C4.963,5.465,6.184,4.938,7.503,4.83z M2.024,11.298l-1.951,0.159
				c0.142,1.7,0.809,3.28,1.933,4.568l1.475-1.286C2.635,13.769,2.131,12.578,2.024,11.298z M13.943,10.418l1.953-0.121
				c-0.102-1.625-0.69-3.158-1.704-4.432l-1.533,1.213C13.424,8.04,13.867,9.196,13.943,10.418z M8.494,16.769l0.172,1.945
				c1.665-0.146,3.213-0.802,4.484-1.891l-1.278-1.482C10.916,16.161,9.747,16.655,8.494,16.769z M2.813,16.823
				c1.268,1.089,2.819,1.745,4.484,1.891l0.17-1.945c-1.253-0.113-2.421-0.607-3.377-1.428L2.813,16.823z M13.296,4.907
				c-1.308-1.184-2.925-1.883-4.677-2.028L8.458,4.83c1.321,0.108,2.541,0.636,3.523,1.527L13.296,4.907z M12.479,14.739
				l1.475,1.286c1.124-1.288,1.794-2.868,1.934-4.568l-1.951-0.159C13.83,12.578,13.326,13.769,12.479,14.739z"/>
		</g>
	</g>
</g>
<g id="Cloud_wifi" display="none">
	<path display="inline" fill="#0073C5" d="M6.249,7.403C5.869,7.043,5.358,6.82,4.794,6.82c-1.077,0-1.962,0.805-2.094,1.845
		c-1.482,0.179-2.63,1.439-2.63,2.968c0,1.653,1.338,2.992,2.993,2.992c0.652,0,1.254-0.213,1.747-0.566
		c0.706,0.818,1.747,1.339,2.914,1.339c1.015,0,1.936-0.396,2.623-1.039l2.178,2.52l-0.469-2.628
		c0.302,0.105,0.627,0.165,0.965,0.165c1.617,0,2.929-1.312,2.929-2.929s-1.312-2.93-2.929-2.93l-0.079,0.004
		c0.004-0.068,0.011-0.133,0.011-0.201c0-1.889-1.532-3.42-3.421-3.42C7.975,4.94,6.664,5.98,6.249,7.403"/>
</g>
<g id="Sky_TV" display="none">
	<path display="inline" fill="#0073C5" d="M12.935,6.785L3.13,6.786c0,0-1.06,0-1.06,1.055v4.979c0,0,0,1.057,1.06,1.057h9.804
		c0,0,1.06,0,1.06-1.057V7.841C13.994,7.841,13.994,6.785,12.935,6.785 M13.379,4.892H2.686c-0.892,0-2.579,0.537-2.579,2.569v6.753
		c0,0.891,0.54,2.571,2.579,2.571h10.693c0.894,0,2.579-0.539,2.579-2.571V7.46C15.958,6.571,15.419,4.892,13.379,4.892
		 M9.651,16.235H6.415v-0.729h3.237V16.235z M15.071,13.235c0,1.622-1.519,1.685-1.692,1.687H2.686
		c-1.628,0-1.689-1.514-1.691-1.687V7.46c0-1.622,1.519-1.684,1.692-1.686h10.691c1.63,0,1.691,1.515,1.692,1.688V13.235z"/>
</g>
<g id="Sky_Talk" display="none">
	<path display="inline" fill="#0073C5" d="M11.676,7.907c1.194,1.128-0.556,3.203-1.207,4.193c-0.576,0.874-1.546,2.012-1.546,2.012
		s-1.35,1.814-2.39,1.218c0,0-0.567-0.391-1.096-0.726l-0.867-0.636c-0.674-0.225-0.984-0.273-1.701,0.318l-2.207,1.872
		c-0.773,0.778-0.659,1.143-0.304,1.865c0.527,0.755,0.882,1.594,1.754,2.038c0.734,0.374,1.589,0.333,2.381,0.208
		c1.51-0.236,2.894-0.739,4.142-1.63c0.765-0.545,1.362-1.236,2.012-1.902c0,0,1.414-1.442,2.475-3.018
		c1.059-1.574,1.521-2.835,1.521-2.835c2.673-5.871,0.453-9.006,0.453-9.006s-0.305-0.325-0.614-0.391
		c-0.311-0.065-2.004-0.157-2.004-0.157c-0.743-0.021-1.021-0.16-1.497,0.825c0,0-1.265,2.8-1.269,2.807
		C9.611,5.184,9.459,5.552,9.546,5.798c0.083,0.239,0.317,0.467,0.486,0.647c0.176,0.19,0.365,0.389,0.57,0.549
		c0.263,0.204,0.486,0.442,0.748,0.642C11.467,7.726,11.577,7.814,11.676,7.907z"/>
</g>
<g id="Sky_Talk_old">
	<path fill="#0073C5" d="M11.732,20.54c0,0-3.374,0.744-8.434-6.408C-1.76,6.981,0.736,2.801,0.736,2.801s1.821-2.564,3.373-2.564
		s2.024,1.484,2.091,1.755C6.268,2.26,6.604,5.295,6.604,5.295s0,0.877-0.405,1.417C5.795,7.252,4.918,8.196,4.918,8.196
		s-0.472,1.146,0.337,2.362c0.809,1.215,2.766,3.644,2.766,3.644s0.674,0.606,1.349,0.199c0.676-0.403,1.687-0.74,2.495-0.471
		c0.811,0.271,2.632,1.485,3.306,2.023c0.675,0.54,0.808,2.158,0.471,2.632C15.306,19.058,14.092,20.54,11.732,20.54z"/>
</g>
<g id="Sky_Broadband" display="none">
	<path display="inline" fill="#0073C5" d="M15.538,11.319l-1.679-3.834c-1.002-2.291-3.56-3.381-5.852-2.569
		c-0.071-0.14-0.188-0.342-0.366-0.554c-0.299-0.363-0.81-0.772-1.525-0.772c-0.532,0-1.123,0.226-1.761,0.743
		C3.029,5.417,2.102,5.891,1.468,5.878C1.193,5.877,0.955,5.806,0.692,5.642C0.495,5.519,0.236,5.581,0.115,5.78
		c-0.121,0.2-0.062,0.464,0.135,0.586C0.619,6.601,1.03,6.73,1.46,6.73h0.008c1.017-0.012,2.037-0.625,3.414-1.731
		c0.541-0.438,0.943-0.558,1.236-0.558C6.5,4.44,6.784,4.651,7.002,4.912c0.107,0.125,0.186,0.256,0.239,0.354
		c-2.091,1.195-2.982,3.832-1.988,6.104l1.679,3.833c1.057,2.413,3.84,3.5,6.215,2.427C15.524,16.559,16.594,13.732,15.538,11.319z
		 M9.395,6.998l0.294,0.671C9.874,8.09,9.686,8.584,9.271,8.772C8.855,8.96,8.368,8.771,8.184,8.348L7.89,7.678
		C7.705,7.255,7.892,6.761,8.308,6.574C8.724,6.386,9.209,6.576,9.395,6.998z M13.33,8.883l-6.688,3.019
		c-0.055,0.024-0.113,0.036-0.17,0.036c-0.161,0-0.314-0.093-0.383-0.253c-0.095-0.215,0-0.465,0.213-0.561l6.688-3.02
		c0.211-0.095,0.461,0.002,0.552,0.217C13.638,8.536,13.541,8.787,13.33,8.883z"/>
</g>
<g id="Sky_Broadband_old" display="none">
	<g display="inline">
		<path fill="#0073C5" d="M12.007,7.102l-0.284-0.111c-0.676-0.264-1.604-0.425-2.645-0.363c-3.407,0.198-5.646,3.114-5.476,6.154
			c0.119,1.976,1.502,3.194,3.056,3.109c1.216-0.064,2.214-0.629,2.947-1.621c0.128,0.353,0.329,0.641,0.581,0.855
			c0.424,0.362,0.961,0.503,1.482,0.471c2.423-0.141,4.33-2.531,4.126-6.098c-0.116-2.001-0.925-3.726-2.242-4.913
			c-1.316-1.188-3.136-1.827-5.217-1.704c-5.314,0.32-8.485,4.823-8.208,9.713c0.276,4.616,3.819,7.35,7.766,7.126
			c0.005-0.001,0.011-0.001,0.014-0.001c1.567-0.091,2.91-0.436,4.187-1.208l0.296-0.179l-0.141-0.316l-0.608-1.382l-0.386,0.247
			c-0.835,0.535-1.972,0.869-3.223,0.94c-3.19,0.166-5.59-1.849-5.825-5.486C1.96,7.868,4.748,4.945,8.258,4.73
			c3.349-0.171,5.24,1.867,5.457,5.026c0.071,1.254-0.178,2.245-0.561,2.911c-0.381,0.671-0.877,0.987-1.274,1.005
			c-0.007,0-0.017,0.001-0.021,0.001c-0.271-0.016-0.404-0.062-0.496-0.877c-0.021-0.312,0-0.711,0.07-1.199L12.007,7.102z
			 M7.089,13.837c-0.777,0.021-1.106-0.391-1.197-1.282C5.775,10.518,7.17,8.747,8.921,8.64C9.194,8.623,9.427,8.638,9.616,8.66
			l-0.283,2.246C9.203,12.212,8.075,13.84,7.089,13.837z"/>
	</g>
</g>
<g id="back_arrow" display="none">
	<path display="inline" fill="#0073C5" d="M15.573,9.996H3.952l4.25-4.004c0.123-0.113,0.123-0.3,0.002-0.414L7.26,4.688
		c-0.122-0.115-0.32-0.115-0.441,0l-6.678,6.224c-0.07,0.065-0.087,0.153-0.077,0.239c-0.011,0.087,0.006,0.176,0.077,0.241
		l6.68,6.226c0.12,0.113,0.318,0.113,0.439,0l0.941-0.889c0.125-0.115,0.123-0.303,0-0.416L3.95,12.308h11.624
		c0.178,0,0.326-0.162,0.326-0.365v-1.579C15.899,10.16,15.751,9.996,15.573,9.996z"/>
</g>
</svg>
