<?xml version="1.0" encoding="utf-8"?>
<!-- Generator: Adobe Illustrator 15.1.0, SVG Export Plug-In . SVG Version: 6.00 Build 0)  -->
<!DOCTYPE svg PUBLIC "-//W3C//DTD SVG 1.1//EN" "http://www.w3.org/Graphics/SVG/1.1/DTD/svg11.dtd">
<svg version="1.1" xmlns="http://www.w3.org/2000/svg" xmlns:xlink="http://www.w3.org/1999/xlink" x="0px" y="0px" width="20px"
	 height="20px" viewBox="0 0 20 20" enable-background="new 0 0 20 20" xml:space="preserve">
<g id="Layer_1">
</g>
<g id="Layer_2">
	<path fill="#FAFAFA" d="M16.625,13.25c-1.004,0-1.891,0.466-2.487,1.182l-7.074-3.322c0.035-0.198,0.062-0.4,0.062-0.608
		c0-0.383-0.077-0.745-0.19-1.09l7.502-3.522c0.578,0.53,1.343,0.861,2.188,0.861c1.795,0,3.25-1.455,3.25-3.25
		s-1.455-3.25-3.25-3.25c-1.794,0-3.25,1.455-3.25,3.25c0,0.145,0.024,0.282,0.042,0.421L5.584,7.6
		C5.025,7.222,4.351,7.001,3.625,7.001c-1.934,0-3.5,1.566-3.5,3.5c0,1.933,1.566,3.5,3.5,3.5c0.921,0,1.752-0.363,2.377-0.944
		l7.375,3.464c0.012,1.785,1.461,3.229,3.248,3.229c1.795,0,3.25-1.455,3.25-3.25C19.875,14.706,18.42,13.25,16.625,13.25z"/>
</g>
</svg>
