<?xml version="1.0" encoding="utf-8"?>
<!-- Generator: Adobe Illustrator 16.0.0, SVG Export Plug-In . SVG Version: 6.00 Build 0)  -->
<!DOCTYPE svg PUBLIC "-//W3C//DTD SVG 1.1//EN" "http://www.w3.org/Graphics/SVG/1.1/DTD/svg11.dtd">
<svg version="1.1" id="Sky_TV" xmlns="http://www.w3.org/2000/svg" xmlns:xlink="http://www.w3.org/1999/xlink" x="0px" y="0px"
	 width="16px" height="12.594px" viewBox="0 0 16 12.594" enable-background="new 0 0 16 12.594" xml:space="preserve">
<path fill="#0073C5" d="M15.159,0.141H0.834c-0.495,0-0.734,0.246-0.734,0.74v10.862c0,0.423,0.312,0.741,0.741,0.741h14.318
	c0.494,0,0.741-0.248,0.741-0.741V0.881C15.9,0.387,15.653,0.141,15.159,0.141 M10.222,11.496c0,0.137-0.109,0.247-0.246,0.247
	h-3.95c-0.136,0-0.247-0.11-0.247-0.247v-0.247c0-0.137,0.111-0.247,0.247-0.247h3.95c0.137,0,0.246,0.11,0.246,0.247V11.496z
	 M14.42,10.262H1.581v-8.64H14.42V10.262z"/>
</svg>
