<?xml version="1.0" encoding="utf-8"?>
<!-- Generator: Adobe Illustrator 15.1.0, SVG Export Plug-In . SVG Version: 6.00 Build 0)  -->
<!DOCTYPE svg PUBLIC "-//W3C//DTD SVG 1.1//EN" "http://www.w3.org/Graphics/SVG/1.1/DTD/svg11.dtd">
<svg version="1.1" xmlns="http://www.w3.org/2000/svg" xmlns:xlink="http://www.w3.org/1999/xlink" x="0px" y="0px" width="20px"
	 height="20px" viewBox="0 0 20 20" enable-background="new 0 0 20 20" xml:space="preserve">
<g id="Layer_1">
</g>
<g id="Layer_2" display="none">
	<path display="inline" fill="#FAFAFA" d="M16.625,13.25c-1.004,0-1.891,0.466-2.487,1.182l-7.074-3.322
		c0.035-0.198,0.062-0.4,0.062-0.608c0-0.383-0.077-0.745-0.19-1.09l7.502-3.522c0.578,0.53,1.343,0.861,2.188,0.861
		c1.795,0,3.25-1.455,3.25-3.25s-1.455-3.25-3.25-3.25c-1.794,0-3.25,1.455-3.25,3.25c0,0.145,0.024,0.282,0.042,0.421L5.584,7.6
		C5.025,7.222,4.351,7.001,3.625,7.001c-1.934,0-3.5,1.566-3.5,3.5c0,1.933,1.566,3.5,3.5,3.5c0.921,0,1.752-0.363,2.377-0.944
		l7.375,3.464c0.012,1.785,1.461,3.229,3.248,3.229c1.795,0,3.25-1.455,3.25-3.25C19.875,14.706,18.42,13.25,16.625,13.25z"/>
</g>
<g id="Layer_3" display="none">
	<path display="inline" fill="#0073C5" d="M16.625,13.25c-1.004,0-1.891,0.466-2.487,1.182l-7.074-3.322
		c0.035-0.198,0.062-0.4,0.062-0.608c0-0.383-0.077-0.745-0.19-1.09l7.502-3.522c0.578,0.53,1.343,0.861,2.188,0.861
		c1.795,0,3.25-1.455,3.25-3.25s-1.455-3.25-3.25-3.25c-1.794,0-3.25,1.455-3.25,3.25c0,0.145,0.024,0.282,0.042,0.421L5.584,7.6
		C5.025,7.222,4.351,7.001,3.625,7.001c-1.934,0-3.5,1.566-3.5,3.5c0,1.933,1.566,3.5,3.5,3.5c0.921,0,1.752-0.363,2.377-0.944
		l7.375,3.464c0.012,1.785,1.461,3.229,3.248,3.229c1.795,0,3.25-1.455,3.25-3.25C19.875,14.706,18.42,13.25,16.625,13.25z"/>
</g>
<g id="Layer_4" display="none">
	<g display="inline">
		<polygon fill="#0073C5" points="9.337,8.026 3.041,1.731 9.116,1.724 9.117,0.059 1.791,0.067 1.791,0.059 0.127,0.059 
			0.127,0.069 0.117,0.069 0.117,1.734 0.125,1.734 0.117,9.059 1.781,9.058 1.788,3.306 7.923,9.441 		"/>
		<path fill="#0073C5" d="M20,10.941h-1.665l-0.007,5.914l-6.297-6.297l-1.414,1.414l6.297,6.297L11,18.275v1.666l7.325-0.008v0.008
			h1.665v-0.01h0.009L20,18.266h-0.008L20,10.941z"/>
	</g>
</g>
<g id="Layer_5" display="none">
	<g display="inline">
		<polygon fill="#FAFAFA" points="9.337,8.026 3.041,1.731 9.116,1.724 9.117,0.059 1.791,0.067 1.791,0.059 0.127,0.059 
			0.127,0.069 0.117,0.069 0.117,1.734 0.125,1.734 0.117,9.059 1.781,9.058 1.788,3.306 7.923,9.441 		"/>
		<path fill="#FAFAFA" d="M20,10.941h-1.665l-0.007,5.914l-6.297-6.297l-1.414,1.414l6.297,6.297L11,18.275v1.666l7.325-0.008v0.008
			h1.665v-0.01h0.009L20,18.266h-0.008L20,10.941z"/>
	</g>
</g>
<g id="Layer_6">
	<path fill="#FAFAFA" d="M12.696,13.798c-0.358-0.419-0.31-1.047,0.108-1.406c0.67-0.576,1.087-1.422,1.087-2.373
		c0-0.969-0.432-1.826-1.121-2.403c-0.421-0.35-0.481-0.98-0.129-1.403c0.352-0.425,0.979-0.482,1.402-0.129
		c1.124,0.937,1.843,2.356,1.84,3.936c0.003,1.553-0.689,2.953-1.783,3.888c-0.188,0.163-0.417,0.24-0.646,0.24
		C13.174,14.147,12.894,14.03,12.696,13.798"/>
	<path fill="#FAFAFA" d="M15.97,16.474c-0.396-0.387-0.4-1.017-0.015-1.411c1.271-1.308,2.052-3.085,2.052-5.057
		c0-1.976-0.787-3.756-2.068-5.066c-0.384-0.394-0.375-1.024,0.017-1.409c0.393-0.389,1.021-0.381,1.411,0.011
		c1.625,1.666,2.633,3.952,2.633,6.464c0,2.507-0.999,4.788-2.618,6.449v0.001c-0.195,0.2-0.455,0.301-0.713,0.301
		C16.419,16.757,16.164,16.662,15.97,16.474"/>
	<path fill="#FAFAFA" d="M9.852,2.125L4.395,7.069H0v5.86h4.396l5.441,4.951c0.4,0.429,0.419,0.031,0.419-0.556V2.673
		C10.256,2.086,10.244,1.688,9.852,2.125"/>
</g>
</svg>
