<?xml version="1.0" encoding="utf-8"?>
<!-- Generator: Adobe Illustrator 16.0.0, SVG Export Plug-In . SVG Version: 6.00 Build 0)  -->
<!DOCTYPE svg PUBLIC "-//W3C//DTD SVG 1.1//EN" "http://www.w3.org/Graphics/SVG/1.1/DTD/svg11.dtd">
<svg version="1.1" id="Sky_x2B_" xmlns="http://www.w3.org/2000/svg" xmlns:xlink="http://www.w3.org/1999/xlink" x="0px" y="0px"
	 width="16px" height="15.996px" viewBox="0 0 16 15.996" enable-background="new 0 0 16 15.996" xml:space="preserve">
<g>
	<g>
		<path fill="#0073C5" d="M6.11,6.119c-0.995,0-1.802,0.804-1.802,1.799c0,0.994,0.807,1.799,1.802,1.799
			c0.996,0,1.802-0.806,1.802-1.799C7.912,6.923,7.105,6.119,6.11,6.119z M9.145,6.308v3.201c0,0.141,0.092,0.186,0.201,0.104
			l2.117-1.553c0.112-0.082,0.112-0.217,0-0.3L9.346,6.206C9.234,6.123,9.145,6.169,9.145,6.308z M3.3,4.198L1.766,2.985
			C0.754,4.26,0.165,5.793,0.062,7.418l1.954,0.121C2.094,6.317,2.537,5.161,3.3,4.198z M7.503,1.95l-0.16-1.949
			C5.59,0.146,3.973,0.845,2.667,2.028L3.98,3.478C4.963,2.587,6.184,2.06,7.503,1.95z M2.024,8.419L0.073,8.578
			c0.142,1.7,0.809,3.28,1.933,4.567l1.475-1.285C2.635,10.89,2.131,9.698,2.024,8.419z M13.943,7.539l1.953-0.121
			c-0.104-1.625-0.69-3.158-1.705-4.433l-1.532,1.213C13.424,5.161,13.867,6.317,13.943,7.539z M8.494,13.89l0.172,1.945
			c1.665-0.146,3.213-0.803,4.484-1.891l-1.278-1.482C10.916,13.282,9.747,13.776,8.494,13.89z M2.813,13.944
			c1.268,1.088,2.819,1.744,4.484,1.891l0.17-1.945c-1.253-0.113-2.421-0.607-3.377-1.428L2.813,13.944z M13.296,2.028
			C11.988,0.844,10.371,0.146,8.619,0L8.457,1.95c1.32,0.107,2.541,0.636,3.523,1.527L13.296,2.028z M12.479,11.86l1.477,1.285
			c1.124-1.287,1.794-2.867,1.936-4.567l-1.951-0.159C13.83,9.698,13.326,10.89,12.479,11.86z"/>
	</g>
</g>
</svg>
