<?xml version="1.0" encoding="UTF-8" standalone="no"?>
<!DOCTYPE svg PUBLIC "-//W3C//DTD SVG 1.1//EN" "http://www.w3.org/Graphics/SVG/1.1/DTD/svg11.dtd">
<svg xmlns="http://www.w3.org/2000/svg">
<metadata/>
<defs>
<font id="sky_regular" horiz-adv-x="602">
<font-face units-per-em="1000" ascent="800" descent="-200"/>
<missing-glyph horiz-adv-x="200"/>
<glyph unicode="
" horiz-adv-x="200"/>
<glyph unicode=" " horiz-adv-x="200"/>
<glyph unicode="	" horiz-adv-x="200"/>
<glyph unicode=" " horiz-adv-x="200"/>
<glyph unicode="!" horiz-adv-x="255" d="M127 -8q-20 0 -34 14.5t-14 34.5t14 34.5t34 14.5t34.5 -14.5t14.5 -34.5t-14.5 -34.5t-34.5 -14.5zM105 212l-19 404q-2 36 44 36q23 0 38 -5l-15 -418q-1 -13 -7 -17.5t-16 -4.5q-12 0 -25 5z"/>
<glyph unicode="&quot;" horiz-adv-x="339" d="M95 401q-10 0 -20 2l-15 217q-2 32 39 32q9 0 18 -1t15 -3l-14 -228q-1 -9 -5.5 -14t-17.5 -5zM244 401q-10 0 -20 2l-15 217q-2 32 39 32q9 0 18 -1t15 -3l-14 -228q-1 -9 -5.5 -14t-17.5 -5z"/>
<glyph unicode="#" d="M116 -4q-18 0 -31 5l43 179h-95q-2 4 -2.5 10.5t-0.5 14.5q0 16 6.5 22t16.5 6h87l43 180h-101q-2 10 -2 24q0 17 7 23t15 6h92l41 173q3 10 10.5 12.5t18.5 2.5q19 0 30 -4l-43 -184h159l41 173q3 10 10.5 12.5t18.5 2.5q19 0 30 -4l-43 -184h100q2 -10 2 -25 q0 -17 -6.5 -22.5t-15.5 -5.5h-91l-44 -180h107q1 -5 1.5 -11.5t0.5 -14.5q0 -15 -7 -21t-15 -6h-99l-41 -168q-2 -10 -10 -13t-18 -3q-17 0 -29 5l42 179h-160l-39 -168q-3 -10 -11 -13t-18 -3zM196 233h160l43 180h-159z"/>
<glyph unicode="$" d="M290 -101q-8 0 -13.5 1t-9.5 2v87q-44 2 -92.5 10t-102.5 28q-1 25 6 40t26 15q10 0 25.5 -4.5t35.5 -10t45.5 -10.5t56.5 -7v255l-25 7q-92 26 -129 71t-37 106q0 28 9.5 57t31.5 53t58.5 41t91.5 20v69q0 11 6 17t21 6q16 0 26 -5v-87q41 -2 82.5 -11t87.5 -26 q3 -54 -34 -54q-17 0 -50 12t-86 16v-235l38 -10q84 -24 123.5 -68t39.5 -107q0 -77 -49 -127.5t-152 -58.5v-69q0 -11 -6.5 -17t-23.5 -6zM320 51q69 7 99.5 41.5t30.5 79.5q0 50 -32 74.5t-86 39.5l-12 3v-238zM267 377v221q-35 -3 -59 -13.5t-38.5 -26t-20.5 -33.5 t-6 -35q0 -42 27 -67.5t97 -45.5z"/>
<glyph unicode="%" horiz-adv-x="698" d="M163 -5q-10 0 -18 3.5t-15 8.5l364 626q5 8 13 14t21 6t21 -5t13 -7l-363 -626q-11 -20 -36 -20zM534 -4q-58 0 -95.5 43.5t-37.5 131.5t37.5 131t95.5 43q57 0 95.5 -43t38.5 -131t-38.5 -131.5t-95.5 -43.5zM534 45q35 0 57 30.5t22 95.5t-22 95t-57 30t-56.5 -30 t-21.5 -95t21.5 -95.5t56.5 -30.5zM163 312q-58 0 -95.5 43.5t-37.5 131.5t37.5 131t95.5 43q57 0 95.5 -43t38.5 -131t-38.5 -131.5t-95.5 -43.5zM163 361q35 0 57 30.5t22 95.5t-22 95t-57 30t-56.5 -30t-21.5 -95t21.5 -95.5t56.5 -30.5z"/>
<glyph unicode="&amp;" horiz-adv-x="639" d="M245 -11q-50 0 -89 17t-66 44t-41.5 62t-14.5 71q0 67 39 114.5t108 74.5q-27 29 -42 61t-15 73q0 29 11.5 57t35 49.5t57.5 35t79 13.5q50 0 90.5 -12t70.5 -29q2 -25 -7.5 -35t-22.5 -10q-11 0 -22 4.5t-25.5 10t-34 10t-47.5 4.5q-60 0 -89 -30.5t-29 -75.5 q0 -26 14 -53.5t55 -68.5l180 -176l97 180q11 21 38 21q20 0 36 -7l-128 -235l153 -153q-9 -3 -19 -5.5t-26 -2.5q-20 0 -32 5t-22 15l-88 89q-15 -24 -35 -45.5t-45.5 -37.5t-56 -25.5t-67.5 -9.5zM247 47q30 0 54.5 8t44 22t35 32.5t26.5 39.5l-186 184 q-56 -21 -88.5 -56.5t-32.5 -90.5q0 -26 9.5 -51t28.5 -44.5t46.5 -31.5t62.5 -12z"/>
<glyph unicode="'" horiz-adv-x="190" d="M95 401q-10 0 -20 2l-15 217q-2 32 39 32q9 0 18 -1t15 -3l-14 -228q-1 -9 -5.5 -14t-17.5 -5z"/>
<glyph unicode="(" horiz-adv-x="344" d="M290 -198q-118 68 -184 178.5t-66 250.5q0 70 18 134t50.5 119.5t78.5 100.5t103 76q11 -6 18 -15t7 -20q0 -9 -3 -15.5t-10 -10.5q-92 -57 -144.5 -149.5t-52.5 -219.5q0 -125 50 -216.5t147 -152.5q6 -4 9.5 -11t3.5 -16q0 -10 -7 -18.5t-18 -14.5z"/>
<glyph unicode=")" horiz-adv-x="344" d="M54 -198q-11 6 -16.5 12.5t-7 11.5t-1.5 12t3 13t10 11q97 61 147 152.5t50 216.5q0 127 -52 219.5t-145 149.5q-10 8 -13 14.5t-3 13.5t3.5 12.5t8.5 10t16 10.5q57 -31 103 -76t79 -100.5t51 -119.5t18 -134q0 -140 -66.5 -250.5t-184.5 -178.5z"/>
<glyph unicode="*" horiz-adv-x="318" d="M245 359q-19 0 -30 22l-56 93l-72 -114q-15 -2 -26 6.5t-11 22.5q0 15 14 29l64 79l-126 23q-7 21 5 36.5t42 5.5l92 -30l-8 130q9 6 19.5 7t18.5 -3t13 -12.5t3 -23.5l-8 -98l125 33q13 -11 13 -27q0 -10 -7 -17.5t-24 -9.5l-98 -13l90 -114q-10 -25 -33 -25z"/>
<glyph unicode="+" d="M296 -2q-9 0 -16.5 1t-12.5 3v229h-209q-1 5 -2 13t-1 17q0 18 7.5 25t20.5 7h184v195q0 11 7.5 18t25.5 7q9 0 16.5 -1t12.5 -3v-216h215q1 -5 2 -13t1 -17q0 -18 -7.5 -25t-20.5 -7h-190v-208q0 -11 -7.5 -18t-25.5 -7z"/>
<glyph unicode="," horiz-adv-x="155" d="M5 -121l61 182q4 13 12 18.5t16 5.5q10 0 18 -7.5t8 -21.5q0 -17 -5 -35.5t-10 -32.5q-20 -52 -44 -79.5t-56 -29.5z"/>
<glyph unicode="-" horiz-adv-x="339" d="M30 223q-1 5 -2.5 13.5t-1.5 16.5q0 17 8 24.5t19 7.5h256q2 -5 2.5 -13t0.5 -16q0 -19 -7.5 -26t-18.5 -7h-256z"/>
<glyph unicode="." horiz-adv-x="175" d="M86 -7q-19 0 -33.5 14.5t-14.5 33.5q0 20 14.5 34.5t33.5 14.5q21 0 35.5 -14.5t14.5 -34.5q0 -19 -14.5 -33.5t-35.5 -14.5z"/>
<glyph unicode="/" horiz-adv-x="303" d="M59 -41q-11 0 -18.5 2t-15.5 4l193 682q5 11 14 15t21 4q11 0 18.5 -2t15.5 -5l-193 -681q-4 -12 -13.5 -15.5t-21.5 -3.5z"/>
<glyph unicode="0" horiz-adv-x="608" d="M302 -11q-55 0 -100.5 21t-78 63t-50.5 105t-18 147t18 147t50.5 105t78 63t100.5 21t101 -21t79.5 -63t52 -105t18.5 -147t-18.5 -147t-52 -105t-79.5 -63t-101 -21zM302 49q40 0 73 16.5t57 50.5t37 86t13 123t-13 123t-37 86t-57 50.5t-73 16.5q-80 0 -128 -67 t-48 -209t48 -209t128 -67z"/>
<glyph unicode="1" horiz-adv-x="346" d="M201 -6q-9 0 -18 1t-14 3v572l-132 -69q-18 17 -18 40t25 35l141 74h53v-629q0 -12 -8.5 -19.5t-28.5 -7.5z"/>
<glyph unicode="2" horiz-adv-x="499" d="M22 0q-1 5 -2 12.5t-1 16.5q0 11 4.5 25t15.5 24l221 202q25 23 46.5 45t37.5 44.5t25 46t9 49.5q0 63 -40.5 99t-111.5 36q-36 0 -63 -9t-47 -19.5t-34.5 -19t-24.5 -8.5q-14 0 -22.5 12.5t-10.5 33.5q15 12 36 24.5t47 23t56 17t63 6.5q52 0 93 -14t69.5 -40t44 -62 t15.5 -79q0 -34 -11.5 -64t-31 -57.5t-45 -53t-52.5 -49.5l-197 -177v-2h346q1 -5 2 -13t1 -17q0 -19 -8 -26t-20 -7h-410z"/>
<glyph unicode="3" horiz-adv-x="534" d="M262 -11q-75 0 -126 16.5t-92 40.5q0 24 9 35.5t24 11.5q12 0 26 -6.5t34.5 -14.5t50.5 -14.5t74 -6.5q78 0 118.5 37t40.5 93q0 24 -9 46t-28.5 39t-50.5 27t-74 10h-97q-10 0 -17.5 7t-7.5 24q0 8 1.5 15.5l2.5 12.5h103q79 0 117.5 31t38.5 88q0 22 -7 42.5t-23.5 37 t-43 26.5t-65.5 10q-41 0 -68.5 -6.5t-46.5 -14t-32 -13.5t-25 -6q-15 0 -24 13.5t-10 36.5q36 19 86.5 36t122.5 17q54 0 92.5 -14t64 -37.5t37.5 -55t12 -66.5q0 -57 -32.5 -96.5t-84.5 -53.5q28 -5 53.5 -17.5t44.5 -32.5t30 -47t11 -61q0 -45 -17 -80t-48 -59.5 t-73 -37.5t-92 -13z"/>
<glyph unicode="4" horiz-adv-x="555" d="M386 -4q-8 0 -17.5 0.5t-14.5 2.5v157h-326q-1 5 -2 12.5t-1 15.5q0 11 3 21.5t11 21.5l312 423h70v-433h107q1 -5 1.5 -13t0.5 -16q0 -17 -7.5 -24t-18.5 -7h-83v-136q0 -25 -35 -25zM104 216h250v336z"/>
<glyph unicode="5" horiz-adv-x="523" d="M245 -11q-63 0 -114.5 15t-93.5 36q0 26 10 38.5t25 12.5q10 0 24.5 -6.5t35 -14t48.5 -14t65 -6.5q43 0 75 12.5t53.5 33t32 47t10.5 53.5q0 36 -13.5 63.5t-36 45.5t-52.5 27t-62 9q-38 0 -76.5 -12.5t-70.5 -38.5l-49 20l35 340h362q3 -11 3 -30q0 -18 -7.5 -25 t-19.5 -7h-281l-26 -228l1 -1q31 22 69 32t74 10q44 0 84 -14.5t70.5 -41t48.5 -64t18 -83.5q0 -39 -15 -76.5t-45 -67t-75.5 -47.5t-106.5 -18z"/>
<glyph unicode="6" horiz-adv-x="568" d="M302 -11q-53 0 -98 20t-78.5 60t-52.5 100.5t-19 141.5q0 90 22.5 156t61 109t88.5 64t105 21q47 0 84.5 -9.5t70.5 -24.5q2 -29 -8.5 -41t-24.5 -12q-12 0 -22 3.5t-23 8t-31.5 8t-46.5 3.5q-93 0 -147 -68.5t-59 -192.5q16 14 34.5 28t41 25t50.5 18t63 7 q52 0 93.5 -16.5t70.5 -45t45 -66.5t16 -80q0 -43 -16 -82.5t-46.5 -69.5t-74.5 -47.5t-99 -17.5zM304 49q36 0 66 11.5t52 32.5t34 50t12 64q0 36 -12.5 63t-35 46t-52.5 28.5t-64 9.5q-33 0 -60 -7t-48.5 -18.5t-38.5 -26t-31 -29.5q0 -50 13.5 -91.5t37.5 -71t56.5 -45.5 t70.5 -16z"/>
<glyph unicode="7" horiz-adv-x="482" d="M130 -6q-9 0 -20.5 2t-18.5 5l295 584h-335q-26 0 -26 35q0 9 0.5 17t1.5 13h437v-49l-293 -588q-5 -12 -16 -15.5t-25 -3.5z"/>
<glyph unicode="8" horiz-adv-x="568" d="M284 -12q-57 0 -102.5 14t-76.5 38.5t-47.5 58t-16.5 73.5q0 68 39 110.5t98 57.5q-21 7 -41 20.5t-36.5 32t-26.5 43t-10 53.5q0 36 14.5 67t42 54.5t68.5 37t95 13.5t95.5 -13.5t69 -37t41.5 -54.5t14 -67q0 -29 -10 -53.5t-26 -43t-37 -32t-42 -20.5q60 -15 99 -58 t39 -109q0 -40 -16.5 -74t-47.5 -58.5t-76.5 -38.5t-102.5 -14zM284 48q37 0 68.5 9.5t54.5 26.5t36 40t13 51q0 25 -10.5 49t-31.5 42t-53.5 29t-76.5 11q-45 0 -77.5 -11t-53.5 -29t-31 -42t-10 -49q0 -28 12.5 -51t35.5 -40t54.5 -26.5t69.5 -9.5zM284 366q32 0 59.5 9 t47.5 24.5t31.5 37.5t11.5 49q0 53 -40 84t-110 31q-69 0 -109.5 -31t-40.5 -84q0 -27 11.5 -49t31.5 -37.5t47.5 -24.5t59.5 -9z"/>
<glyph unicode="9" horiz-adv-x="563" d="M226 -11q-19 0 -40 2.5t-42 7t-40 11t-34 13.5q-2 25 7 38.5t26 13.5q11 0 23 -3.5t26.5 -7.5t32 -7.5t40.5 -3.5q95 0 152 63t62 198q-37 -33 -82 -56t-108 -23q-52 0 -92.5 17.5t-68.5 47t-43 68.5t-15 81q0 46 17 84.5t48 67t73 44.5t93 16q115 0 181 -82.5t66 -245.5 q0 -84 -20 -148.5t-57 -108t-89 -65.5t-116 -22zM257 296q57 0 101 21.5t78 59.5q0 49 -11 90t-32.5 71t-54.5 46.5t-77 16.5q-34 0 -63.5 -11t-51 -31t-34 -48t-12.5 -62q0 -66 41 -109.5t116 -43.5z"/>
<glyph unicode=":" horiz-adv-x="237" d="M114 -8q-19 0 -33.5 15t-14.5 34q0 20 14.5 34.5t33.5 14.5q20 0 34.5 -14.5t14.5 -34.5q0 -19 -14.5 -34t-34.5 -15zM113 346q-19 0 -33.5 14.5t-14.5 34.5t14.5 34.5t33.5 14.5q20 0 34.5 -14.5t14.5 -34.5t-14.5 -34.5t-34.5 -14.5z"/>
<glyph unicode=";" horiz-adv-x="237" d="M63 -121l61 182q4 13 12.5 18.5t16.5 5.5q11 0 18.5 -7.5t7.5 -21.5q0 -17 -5.5 -35.5t-10.5 -32.5q-20 -52 -44 -79.5t-56 -29.5zM145 346q-19 0 -33.5 14.5t-14.5 34.5t14.5 34.5t33.5 14.5q20 0 34.5 -14.5t14.5 -34.5t-14.5 -34.5t-34.5 -14.5z"/>
<glyph unicode="&lt;" d="M474 1l-391 231v54l391 224q2 -7 4.5 -17.5t2.5 -18.5q0 -27 -16 -36l-312 -178l312 -185q16 -9 16 -37q0 -8 -2.5 -19t-4.5 -18z"/>
<glyph unicode="=" d="M81 127q-1 5 -2 13t-1 17q0 18 7.5 25t20.5 7h407q1 -5 2 -13t1 -17q0 -18 -7.5 -25t-20.5 -7h-407zM81 325q-1 5 -2 13t-1 17q0 18 7.5 25t20.5 7h407q1 -5 2 -13t1 -17q0 -18 -7.5 -25t-20.5 -7h-407z"/>
<glyph unicode="&gt;" d="M128 3q-2 7 -4.5 17.5t-2.5 18.5q0 27 16 36l312 181l-312 182q-16 9 -16 37q0 8 2.5 19t4.5 18l391 -228v-54z"/>
<glyph unicode="?" horiz-adv-x="443" d="M179 -8q-20 0 -34.5 15t-14.5 34q0 20 14.5 34.5t34.5 14.5t34.5 -14.5t14.5 -34.5q0 -19 -14.5 -34t-34.5 -15zM152 210q-3 44 10 74.5t34 52t46.5 37.5t48 32.5t37.5 37t15 50.5q0 47 -33 76.5t-95 29.5q-38 0 -64 -7t-44.5 -15t-31.5 -15t-25 -7q-13 0 -21.5 12.5 t-8.5 33.5q15 11 36.5 21.5t47 19t54 13.5t57.5 5q46 0 82.5 -12t62 -34t38.5 -51.5t13 -64.5q0 -29 -9 -52t-22 -41t-28.5 -30.5t-28.5 -19.5q-31 -19 -52.5 -34t-35 -29t-20.5 -30t-9 -37q-1 -12 -8.5 -17t-20.5 -5t-25 6z"/>
<glyph unicode="@" horiz-adv-x="689" d="M351 -59q-71 0 -129.5 25.5t-101.5 70.5t-66.5 106.5t-23.5 133.5q0 70 25.5 130t69.5 104.5t104.5 69.5t131.5 25q73 0 129 -25t94 -65.5t57.5 -92t19.5 -104.5q0 -46 -12 -82t-32 -61.5t-46 -39t-54 -13.5q-34 0 -54 16t-26 39q-15 -23 -38.5 -40.5t-69.5 -17.5 q-27 0 -51 10t-43 29.5t-30 47t-11 63.5q0 33 11 60.5t30 47t43.5 30.5t51.5 11q33 0 57.5 -14t39.5 -37h1q1 21 6 33.5t25 12.5q5 0 10.5 -1t9.5 -2v-193q0 -29 12.5 -39t27.5 -10q17 0 33.5 9t30 27.5t21.5 47t8 66.5q0 48 -17.5 91.5t-50.5 76t-79.5 51.5t-104.5 19 q-53 0 -102.5 -19t-88 -55t-61.5 -88t-23 -118q0 -68 21.5 -121t58 -89.5t84.5 -55.5t101 -19q35 0 61.5 5.5t46.5 11.5t33.5 11.5t21.5 5.5q11 0 19.5 -8t6.5 -36q-41 -17 -89 -29t-99 -12zM341 169q27 0 50 15t36 38v93q-9 21 -32 38.5t-54 17.5q-23 0 -40 -8.5t-28 -22.5 t-17 -32.5t-6 -38.5q0 -42 23 -71t68 -29z"/>
<glyph unicode="A" horiz-adv-x="576" d="M42 -5q-9 0 -19 2.5t-17 5.5l236 645q25 6 47 6q30 0 42 -9t20 -32l219 -610q-6 -4 -16 -6t-19 -2q-13 0 -24.5 5t-16.5 19l-66 183h-280l-65 -183q-5 -14 -16.5 -19t-24.5 -5zM169 264h238l-117 329h-3z"/>
<glyph unicode="B" horiz-adv-x="571" d="M111 0q-20 0 -25.5 8t-5.5 20v594q0 12 5.5 20t25.5 8h162q123 0 179.5 -44t56.5 -124q0 -52 -31.5 -92t-83.5 -54q36 -8 62.5 -23t43 -35.5t24.5 -45t8 -49.5q0 -89 -60 -136t-185 -47h-176zM148 61h130q94 0 138.5 29.5t44.5 95.5q0 20 -7 40.5t-26 37.5t-53.5 27.5 t-88.5 10.5h-138v-241zM148 361h138q42 0 71 10t47 26t26.5 37t8.5 43q0 55 -39.5 83.5t-126.5 28.5h-125v-228z"/>
<glyph unicode="C" horiz-adv-x="558" d="M348 -12q-71 0 -129 24.5t-99 69t-64 105.5t-23 133q0 70 23 131t64 106t99 70.5t129 25.5q51 0 99 -12t89 -29q2 -32 -7.5 -43.5t-23.5 -11.5q-8 0 -21 5t-32 11t-44.5 11t-58.5 5q-50 0 -95 -18.5t-78.5 -53.5t-53 -85t-19.5 -112q0 -65 19.5 -114.5t53 -84t78.5 -52 t95 -17.5q33 0 58.5 5t45 11t32.5 11t22 5q14 0 23 -11.5t7 -43.5q-41 -17 -89.5 -29t-99.5 -12z"/>
<glyph unicode="D" horiz-adv-x="634" d="M111 0q-20 0 -25.5 8t-5.5 20v594q0 12 5.5 20t25.5 8h149q78 0 141 -22.5t107.5 -64t68.5 -100.5t24 -132q0 -69 -24 -129t-68.5 -105t-107.5 -71t-141 -26h-149zM149 61h114q54 0 102.5 17t85 51t58 84.5t21.5 118.5q0 61 -21.5 109t-58 81t-85 50t-103.5 17h-113v-528 z"/>
<glyph unicode="E" horiz-adv-x="502" d="M111 0q-20 0 -25.5 8t-5.5 20v594q0 12 5.5 20t25.5 8h340q2 -5 3 -13t1 -17q0 -18 -8 -24.5t-19 -6.5h-279v-234h275q4 -10 4 -29q0 -18 -7 -24.5t-18 -6.5h-254v-234h308q2 -5 3 -12.5t1 -15.5q0 -19 -7.5 -26t-18.5 -7h-324z"/>
<glyph unicode="F" horiz-adv-x="483" d="M112 -6q-9 0 -18 1t-14 3v624q0 12 5.5 20t25.5 8h356q2 -5 3 -13.5t1 -16.5q0 -20 -8 -25.5t-20 -5.5h-294v-237h291q2 -5 3 -13t1 -17q0 -18 -7.5 -25.5t-18.5 -7.5h-269v-268q0 -12 -8.5 -19.5t-28.5 -7.5z"/>
<glyph unicode="G" horiz-adv-x="643" d="M358 -11q-74 0 -134 27t-102.5 73t-65.5 107.5t-23 130.5t23.5 129.5t66 105.5t102 71t131.5 26q28 0 53 -2.5t50.5 -8t52 -15.5t56.5 -25q2 -23 -5.5 -37t-27.5 -14q-9 0 -21.5 6t-32.5 13.5t-49.5 14t-74.5 6.5q-54 0 -100.5 -20.5t-80.5 -56.5t-53 -85.5t-19 -107.5 t19 -108.5t53 -88t81 -59t103 -21.5q51 0 89.5 12.5t70.5 30.5v193h-164q-12 0 -19.5 7t-7.5 26q0 8 1 16t2 13h223q20 0 25.5 -8t5.5 -20v-264q-27 -16 -52 -28.5t-52 -21t-57 -13t-67 -4.5z"/>
<glyph unicode="H" horiz-adv-x="658" d="M112 -6q-9 0 -18 1t-14 3v627q0 12 8.5 19.5t28.5 7.5q9 0 18 -1t14 -3v-291h360v268q0 12 8.5 19.5t28.5 7.5q9 0 18 -1t14 -3v-627q0 -12 -8.5 -19.5t-28.5 -7.5q-9 0 -18 1t-14 3v298h-360v-275q0 -12 -8.5 -19.5t-28.5 -7.5z"/>
<glyph unicode="I" horiz-adv-x="229" d="M112 -6q-9 0 -18 1t-14 3v627q0 12 8.5 19.5t28.5 7.5q9 0 18 -1t14 -3v-627q0 -12 -8.5 -19.5t-28.5 -7.5z"/>
<glyph unicode="J" horiz-adv-x="422" d="M175 -7q-51 0 -90 12t-74 34q-2 27 6.5 39t22.5 12q10 0 21.5 -5.5t26 -12t33 -12t44.5 -5.5q50 0 81.5 28.5t31.5 88.5v453q0 12 8.5 19.5t28.5 7.5q9 0 18 -1t14 -3v-476q0 -89 -48 -134t-124 -45z"/>
<glyph unicode="K" horiz-adv-x="530" d="M112 -6q-9 0 -18 1t-14 3v627q0 12 8.5 19.5t28.5 7.5q9 0 18 -1t14 -3v-309l279 296q6 7 15 12t24 5q28 0 51 -10l-293 -312l304 -324q-22 -11 -54 -11q-16 0 -25 5t-16 13l-285 303v-295q0 -12 -8.5 -19.5t-28.5 -7.5z"/>
<glyph unicode="L" horiz-adv-x="490" d="M111 0q-20 0 -25.5 8t-5.5 20v597q0 12 8.5 19.5t28.5 7.5q9 0 18 -1t14 -3v-587h328q3 -12 3 -28q0 -20 -8 -26.5t-23 -6.5h-338z"/>
<glyph unicode="M" horiz-adv-x="752" d="M76 -5q-11 0 -19 2.5t-14 4.5l68 642q9 4 24.5 6t26.5 2q30 0 43.5 -8.5t20.5 -30.5l66 -214q19 -60 40 -129t44 -148q26 77 46.5 146.5t39.5 128.5l69 216q7 22 20 30.5t40 8.5q14 0 28 -2t23 -5l67 -643q-6 -2 -14.5 -4.5t-19.5 -2.5q-14 0 -23.5 5t-11.5 19l-28 288 q-7 65 -14.5 137.5t-14.5 137.5q-10 -30 -21 -64t-22 -68.5t-21.5 -68t-20.5 -62.5l-79 -242q-5 -16 -15 -23t-30 -7q-11 0 -19 2t-16 5l-86 263q-22 69 -43 134.5t-42 132.5q-9 -94 -17 -168t-14 -131l-26 -266q-2 -14 -11.5 -19t-23.5 -5z"/>
<glyph unicode="N" horiz-adv-x="660" d="M111 -5q-9 0 -17.5 1t-13.5 3v646q19 7 40 7q27 0 39.5 -7t20.5 -21l336 -533v536q0 11 8.5 18t25.5 7q9 0 17 -1t13 -3v-645q-8 -3 -18 -4.5t-20 -1.5q-25 0 -35.5 6.5t-18.5 19.5l-342 542v-544q0 -11 -8.5 -18.5t-26.5 -7.5z"/>
<glyph unicode="O" horiz-adv-x="687" d="M344 -11q-68 0 -125.5 26.5t-98.5 72t-64 107t-23 132.5q0 70 23 131t64 106t98.5 71t125.5 26q67 0 124 -25.5t98.5 -70.5t64.5 -106.5t23 -131.5q0 -71 -23 -132.5t-64.5 -107t-98.5 -72t-124 -26.5zM343 50q49 0 92.5 21.5t76 58.5t51.5 87.5t19 109.5q0 58 -19 108 t-51.5 86.5t-76 57.5t-91.5 21q-49 0 -92.5 -20.5t-76 -57t-51.5 -86.5t-19 -109q0 -60 19 -111t51 -88t75.5 -57.5t92.5 -20.5z"/>
<glyph unicode="P" horiz-adv-x="529" d="M112 -6q-9 0 -18 1t-14 3v624q0 12 5.5 20t25.5 8h154q58 0 102.5 -16.5t75.5 -45t47 -67.5t16 -84q0 -46 -16.5 -84.5t-47.5 -66t-75 -43t-99 -15.5h-119v-207q0 -12 -8.5 -19.5t-28.5 -7.5zM149 289h110q86 0 131 39t45 109q0 71 -45.5 111.5t-128.5 40.5h-112v-300z "/>
<glyph unicode="Q" horiz-adv-x="689" d="M604 -132q-16 0 -30.5 5.5t-22.5 8.5l-303 120q-104 42 -159.5 125.5t-55.5 199.5q0 70 23 131t64 106t98.5 71t125.5 26q67 0 124 -26t98.5 -71t64.5 -106t23 -131q0 -63 -18 -117t-49 -96t-73.5 -71t-91.5 -42v-2l229 -80q-1 -26 -14.5 -38.5t-32.5 -12.5zM343 51 q49 0 92.5 21t76 58.5t51.5 87.5t19 109q0 58 -19 108t-51.5 86.5t-76 57t-91.5 20.5q-49 0 -92.5 -20.5t-76 -56.5t-51.5 -86t-19 -109q0 -60 19 -111t51 -87.5t75.5 -57t92.5 -20.5z"/>
<glyph unicode="R" horiz-adv-x="540" d="M112 -6q-9 0 -18 1t-14 3v624q0 12 5.5 20t25.5 8h172q52 0 91.5 -14.5t66 -40t40 -59.5t13.5 -74q0 -79 -53 -130t-163 -59l241 -267q-10 -5 -22.5 -8.5t-27.5 -3.5q-29 0 -44 20l-227 258h-49v-251q0 -12 -8.5 -19.5t-28.5 -7.5zM149 332h106q90 0 130 34.5t40 94.5 q0 57 -36 92.5t-108 35.5h-132v-257z"/>
<glyph unicode="S" horiz-adv-x="525" d="M250 -11q-46 0 -99 8.5t-111 29.5q-2 25 9 38.5t30 13.5q12 0 28 -4.5t37.5 -10t49.5 -10t64 -4.5q42 0 72.5 10t49.5 26.5t28 39t9 46.5q0 50 -32 74.5t-86 39.5l-90 26q-46 13 -77.5 31t-51 40.5t-28.5 49t-9 56.5q0 29 10.5 59.5t35.5 55t66.5 40.5t103.5 16 q49 0 97 -8.5t101 -28.5q2 -25 -9 -38.5t-30 -13.5q-10 0 -24 4.5t-33.5 9.5t-45.5 9.5t-59 4.5q-41 0 -69 -10t-45 -26t-24 -35.5t-7 -37.5q0 -42 26.5 -67.5t95.5 -44.5l92 -26q84 -24 123.5 -68t39.5 -107q0 -42 -14.5 -76.5t-43.5 -59t-74 -38.5t-106 -14z"/>
<glyph unicode="T" horiz-adv-x="497" d="M246 -6q-9 0 -18 1t-14 3v591h-209q-2 5 -3 12.5t-1 16.5q0 20 7.5 26t21.5 6h463q1 -5 2 -12t1 -17q0 -18 -8 -25t-22 -7h-183v-568q0 -12 -8.5 -19.5t-28.5 -7.5z"/>
<glyph unicode="U" horiz-adv-x="646" d="M322 -12q-64 0 -112 22t-80 60t-48 89t-16 110v356q0 12 8.5 19.5t28.5 7.5q9 0 18 -1t14 -3v-384q0 -47 12 -86.5t35.5 -67.5t58.5 -43.5t81 -15.5q44 0 79.5 15.5t60 43t37.5 67t13 87.5v361q0 12 8 19.5t28 7.5q9 0 18 -1t14 -3v-380q0 -58 -16.5 -109t-49 -89 t-81 -60t-111.5 -22z"/>
<glyph unicode="V" horiz-adv-x="575" d="M283 -10q-25 0 -44 8l-230 648q6 4 16.5 6t19.5 2q13 0 25.5 -5t17.5 -19l85 -249q28 -84 56.5 -162t57.5 -166h3q14 45 28 85t28 79.5t28.5 79.5t29.5 85l87 248q5 14 16.5 19t24.5 5q9 0 19 -2.5t17 -5.5l-225 -623q-7 -20 -20.5 -26.5t-39.5 -6.5z"/>
<glyph unicode="W" horiz-adv-x="836" d="M215 -7q-10 0 -25 1.5t-24 5.5l-147 644q7 3 16 5.5t20 2.5q15 0 25 -6t13 -20l73 -329q13 -61 25 -120t24 -120h2q15 61 29.5 118.5t34.5 125.5l98 344q21 6 39 6q26 0 35.5 -7.5t15.5 -27.5l91 -315q18 -63 33.5 -125t29.5 -119h2q6 28 12.5 60.5t13.5 65.5t13.5 65 t12.5 59l69 320q6 25 36 25q11 0 19.5 -2.5t14.5 -4.5l-140 -620q-5 -20 -18.5 -26t-34.5 -6q-11 0 -23 2t-21 5l-114 396q-10 35 -22.5 84t-23.5 95h-2q-11 -48 -23.5 -95t-23.5 -84l-107 -370q-5 -20 -16 -26.5t-32 -6.5z"/>
<glyph unicode="X" horiz-adv-x="546" d="M51 -5q-10 0 -21 2.5t-19 6.5l220 326l-210 312q8 5 19 7.5t22 2.5q14 0 25 -4.5t19 -15.5l168 -254l165 249q17 25 47 25q21 0 37 -8l-210 -315l220 -324q-8 -5 -19.5 -7.5t-22.5 -2.5q-14 0 -25 4.5t-19 15.5l-177 264l-172 -259q-17 -25 -47 -25z"/>
<glyph unicode="Y" horiz-adv-x="534" d="M266 -6q-9 0 -18 1t-14 3v286l-235 358q8 5 19 7.5t22 2.5q14 0 25 -4.5t19 -15.5l185 -287l183 285q9 14 20.5 19t26.5 5q22 0 38 -8l-234 -361v-264q0 -12 -8.5 -19.5t-28.5 -7.5z"/>
<glyph unicode="Z" horiz-adv-x="519" d="M47 0q-2 6 -3.5 17.5t-1.5 21.5q0 16 4.5 29.5t15.5 29.5l343 491h-339q-12 0 -20 6.5t-8 25.5q0 9 1 16.5t2 12.5h434q1 -5 2.5 -15.5t1.5 -19.5q0 -13 -3.5 -28.5t-14.5 -27.5l-349 -498h367q2 -5 3 -12t1 -16q0 -19 -8 -26t-19 -7h-409z"/>
<glyph unicode="[" horiz-adv-x="372" d="M95 -199q-20 0 -25.5 8t-5.5 20v876q0 12 5.5 20t25.5 8h185q3 -14 3 -27q0 -20 -7.5 -27.5t-19.5 -7.5h-126v-809h150q1 -5 2 -12t1 -14q0 -20 -7.5 -27.5t-19.5 -7.5h-161z"/>
<glyph unicode="\" horiz-adv-x="349" d="M253 -41q-11 0 -20.5 3.5t-14.5 15.5l-193 681q8 3 15.5 5t18.5 2q13 0 22 -4t13 -15l193 -682q-8 -2 -15.5 -4t-18.5 -2z"/>
<glyph unicode="]" horiz-adv-x="372" d="M66 -199q-3 13 -3 27q0 20 7.5 27.5t19.5 7.5h126v809h-150q-1 5 -2 12t-1 14q0 20 7.5 27.5t19.5 7.5h161q20 0 25.5 -8t5.5 -20v-876q0 -12 -5.5 -20t-25.5 -8h-185z"/>
<glyph unicode="^" d="M196 447q-9 0 -19 1.5t-17 4.5l105 149q19 8 40 8q20 0 30.5 -5.5t18.5 -15.5l97 -135q-6 -3 -14.5 -5t-22.5 -2t-22.5 4t-16.5 15l-70 101l-73 -103q-13 -17 -36 -17z"/>
<glyph unicode="_" horiz-adv-x="467" d="M-9 -125v50h485v-50h-485z"/>
<glyph unicode="`" horiz-adv-x="462" d="M314 542q-10 0 -21 3.5t-23 12.5l-69 55q-31 22 -31 47q0 28 34 39l148 -141q-6 -7 -16 -11.5t-22 -4.5z"/>
<glyph unicode="a" horiz-adv-x="512" d="M204 -9q-42 0 -73.5 11.5t-52.5 31.5t-31 46.5t-10 55.5q0 69 48.5 111t156.5 42q61 0 142 -15v41q0 61 -28 87.5t-96 26.5q-36 0 -61 -4t-42.5 -9t-29.5 -9t-22 -4q-15 0 -23 13.5t-4 39.5q25 8 74.5 19t109.5 11q55 0 91 -13t57 -37.5t29.5 -60t8.5 -80.5v-104 q0 -33 1 -58t4.5 -46t9.5 -41t15 -43q-7 -4 -14.5 -6.5t-18.5 -2.5q-14 0 -23 6t-13 15q-5 10 -9.5 28.5t-7.5 44.5h-2q-26 -41 -71.5 -69t-114.5 -28zM215 47q58 0 100 27t69 78v75q-76 14 -128 14q-78 0 -115.5 -27t-37.5 -75q0 -41 30 -66.5t82 -25.5z"/>
<glyph unicode="b" horiz-adv-x="557" d="M300 -9q-55 0 -99.5 25t-67.5 65h-1v-21.5t-1 -23.5q-2 -18 -9 -28t-29 -10q-17 0 -28 4q2 32 3.5 79.5t1.5 103.5v468q0 12 7.5 19.5t27.5 7.5q9 0 17.5 -1t13.5 -3v-266q22 29 64.5 52.5t102.5 23.5q43 0 83 -16t70.5 -46.5t49 -76t18.5 -104.5q0 -54 -16 -100 t-45.5 -79.5t-70.5 -53t-92 -19.5zM291 49q34 0 63.5 12.5t52 36.5t35.5 60t13 83q0 45 -13 79.5t-35.5 58.5t-52.5 36.5t-65 12.5q-51 0 -92 -25t-61 -67v-136q0 -32 12 -59.5t33 -48t49 -32t61 -11.5z"/>
<glyph unicode="c" horiz-adv-x="449" d="M270 -8q-54 0 -98 19t-75 52.5t-47.5 78t-16.5 95.5t16.5 96t47.5 78.5t75 52.5t98 19q51 0 86.5 -10.5t64.5 -26.5q2 -23 -7 -36t-23 -13q-9 0 -18.5 4.5t-22.5 9.5t-31.5 9.5t-45.5 4.5q-35 0 -66 -12.5t-54.5 -36.5t-37.5 -59t-14 -80q0 -44 14 -78.5t37.5 -58.5 t54.5 -36.5t66 -12.5q28 0 48.5 4.5t35 10t24.5 10t18 4.5q16 0 24 -12.5t6 -37.5q-17 -9 -34 -16t-36 -12t-40.5 -7.5t-48.5 -2.5z"/>
<glyph unicode="d" horiz-adv-x="555" d="M255 -10q-44 0 -84 17t-71 49t-49 79.5t-18 108.5q0 62 20 107.5t51.5 75.5t71.5 44.5t80 14.5q51 0 93 -20t71 -55v242q0 12 7.5 19.5t27.5 7.5q9 0 17.5 -1t13.5 -3v-515q0 -49 1.5 -89t3.5 -72q-13 -5 -31 -5q-33 0 -33 35v45h-1q-32 -45 -76 -65t-95 -20zM268 48 q45 0 87 22t65 68v201q-23 45 -65 67.5t-88 22.5q-37 0 -67.5 -13.5t-52.5 -38t-34 -58.5t-12 -75q0 -89 45 -142.5t122 -53.5z"/>
<glyph unicode="e" horiz-adv-x="509" d="M279 -11q-58 0 -104 19t-77.5 53t-48 79t-16.5 98t17.5 98.5t48.5 78.5t72.5 52t89.5 19q55 0 96 -21.5t67.5 -54.5t39.5 -73t13 -77q0 -32 -3 -44h-375q2 -41 16.5 -72t38.5 -52.5t55.5 -32.5t67.5 -11q30 0 52.5 5t40 11t30.5 11t24 5q14 0 23 -13.5t5 -35.5 q-27 -14 -72.5 -28t-100.5 -14zM100 266h314q-2 34 -13.5 64t-31 52.5t-47 35.5t-61.5 13t-62.5 -12.5t-49.5 -35t-33.5 -52.5t-15.5 -65z"/>
<glyph unicode="f" horiz-adv-x="329" d="M122 -6q-9 0 -18 1t-14 3v420h-65q-1 5 -2 11.5t-1 13.5q0 17 7 23.5t18 6.5h43v54q0 42 11.5 73t32.5 51t49.5 30t61.5 10q35 0 70.5 -7t56.5 -15q2 -27 -6 -38.5t-24 -11.5q-14 0 -36 7t-60 7q-42 0 -65.5 -25t-23.5 -85v-50h172q3 -9 3 -25q0 -17 -7 -23.5t-18 -6.5 h-150v-397q0 -12 -7.5 -19.5t-27.5 -7.5z"/>
<glyph unicode="g" horiz-adv-x="495" d="M242 -210q-50 0 -89.5 12t-67.5 33t-43 49t-15 59q0 36 20.5 67.5t59.5 51.5q-8 8 -15 19.5t-7 28.5q0 19 11.5 36.5t32.5 23.5q-14 6 -29.5 17.5t-29 29t-22.5 41.5t-9 56q0 37 13.5 69t39 54.5t61.5 35.5t81 13q56 0 99 -20q33 6 69 13t68 12q5 -5 9 -13t4 -17 q0 -14 -8.5 -22t-25.5 -9t-35 -0.5t-34 0.5l-1 -1q23 -22 37 -51t14 -67q0 -73 -51.5 -118t-144.5 -45q-19 0 -34.5 3t-23.5 2q-14 -2 -23 -9.5t-9 -21.5q0 -17 18 -26t49 -13l133 -18q73 -10 103 -41t30 -79q0 -33 -14.5 -61.5t-44 -49t-73.5 -32.5t-103 -12zM251 -155 q40 0 70 8t50 21.5t29.5 31t9.5 35.5q0 27 -17 42t-65 22l-122 17q-25 3 -40 8t-25 10q-25 -14 -39.5 -37t-12.5 -52q2 -45 43.5 -75.5t118.5 -30.5zM234 199q61 0 96.5 29t35.5 86t-36 88t-96 31q-59 0 -94 -31t-35 -88t35.5 -86t93.5 -29z"/>
<glyph unicode="h" horiz-adv-x="540" d="M99 -6q-9 0 -18 1t-14 3v655q0 12 7.5 19.5t27.5 7.5q9 0 18 -1t14 -3v-269q26 32 66 55.5t97 23.5q36 0 68.5 -12t57 -36.5t39 -63t14.5 -91.5v-262q0 -12 -7.5 -19.5t-27.5 -7.5q-9 0 -18 1t-14 3v278q0 77 -35.5 114.5t-95.5 37.5q-45 0 -85 -25t-59 -62v-320 q0 -12 -7.5 -19.5t-27.5 -7.5z"/>
<glyph unicode="i" horiz-adv-x="214" d="M104 -6q-9 0 -18 1t-14 3v453q0 12 7.5 19.5t27.5 7.5q9 0 18 -1t14 -3v-453q0 -12 -7.5 -19.5t-27.5 -7.5zM107 592q-18 0 -30.5 13t-12.5 30q0 18 12.5 30.5t30.5 12.5t30.5 -12.5t12.5 -30.5q0 -17 -12.5 -30t-30.5 -13z"/>
<glyph unicode="j" horiz-adv-x="220" d="M-14 -199q-24 18 -24 37q0 16 18 25q30 15 49 27.5t30 28.5t15 37.5t4 53.5v441q0 12 7.5 19.5t27.5 7.5q9 0 18 -1t14 -3v-456q0 -45 -9 -79t-28.5 -59.5t-49.5 -44.5t-72 -34zM113 592q-17 0 -30 13t-13 30q0 18 13 30.5t30 12.5q18 0 31 -12.5t13 -30.5q0 -17 -13 -30 t-31 -13z"/>
<glyph unicode="k" horiz-adv-x="459" d="M99 -6q-9 0 -18 1t-14 3v655q0 12 7.5 19.5t27.5 7.5q9 0 18 -1.5t14 -3.5v-418l215 203q9 9 21 14t31 5q15 0 26.5 -2.5t19.5 -4.5l-240 -225l256 -241q-9 -3 -20.5 -5.5t-27.5 -2.5q-20 0 -32 5t-22 15l-227 219v-216q0 -12 -7.5 -19.5t-27.5 -7.5z"/>
<glyph unicode="l" horiz-adv-x="201" d="M99 -6q-9 0 -18 1t-14 3v655q0 12 7.5 19.5t27.5 7.5q9 0 18 -1.5t14 -3.5v-654q0 -12 -7.5 -19.5t-27.5 -7.5z"/>
<glyph unicode="m" horiz-adv-x="782" d="M99 -6q-9 0 -18 1t-14 3v475q15 5 28 5q38 0 38 -44v-23h1q20 32 56.5 53.5t77.5 21.5q47 0 86.5 -24t55.5 -72q27 46 65.5 71t89.5 25q42 0 71.5 -14t47.5 -37.5t26 -55t8 -66.5v-292q0 -12 -7.5 -19.5t-27.5 -7.5q-9 0 -18 1t-14 3v312q0 57 -27.5 87.5t-72.5 30.5 q-48 0 -78.5 -25t-46.5 -59v-323q0 -12 -7.5 -19.5t-27.5 -7.5q-9 0 -18 1t-14 3v312q0 57 -28 87.5t-76 30.5q-42 0 -74 -25t-47 -58v-324q0 -12 -7.5 -19.5t-27.5 -7.5z"/>
<glyph unicode="n" horiz-adv-x="540" d="M99 -6q-9 0 -18 1t-14 3v475q15 5 28 5q38 0 38 -44v-28h2q26 35 66.5 57.5t95.5 22.5q87 0 133 -55.5t46 -146.5v-263q0 -12 -7.5 -19.5t-27.5 -7.5q-9 0 -18 1t-14 3v279q0 78 -35.5 114.5t-95.5 36.5q-20 0 -41.5 -6t-41 -17.5t-35.5 -27.5t-26 -36v-320 q0 -12 -7.5 -19.5t-27.5 -7.5z"/>
<glyph unicode="o" horiz-adv-x="540" d="M272 -9q-54 0 -98 19t-75.5 52t-48.5 78t-17 98q0 50 17 95t48.5 79t75.5 54t98 20t97 -20t74 -54t47.5 -79t16.5 -95q0 -51 -16.5 -95.5t-47 -78.5t-74 -53.5t-97.5 -19.5zM272 48q30 0 60 11.5t54 35t39.5 59.5t15.5 84q0 45 -14 80.5t-37 60t-53.5 37.5t-64.5 13 q-32 0 -63 -13t-55.5 -37.5t-39.5 -60t-15 -80.5q0 -48 15 -83.5t39.5 -59.5t55.5 -35.5t63 -11.5z"/>
<glyph unicode="p" horiz-adv-x="554" d="M99 -192q-9 0 -18 1t-14 3v661q15 5 28 5q38 0 38 -44v-34h1q29 40 68 63t97 23q45 0 85.5 -18t71 -51t48 -79t17.5 -102q0 -64 -20 -110.5t-52 -76.5t-71.5 -44.5t-79.5 -14.5q-57 0 -99 23t-65 52v-230q0 -12 -7.5 -19.5t-27.5 -7.5zM286 47q36 0 66.5 13t52.5 37 t34.5 59t12.5 80q0 37 -10 71.5t-31 61.5t-52 43t-73 16q-45 0 -87 -24.5t-65 -70.5v-196q19 -38 58.5 -64t93.5 -26z"/>
<glyph unicode="q" horiz-adv-x="554" d="M451 -192q-9 0 -18 1t-14 3v252q-32 -38 -75.5 -55.5t-85.5 -17.5q-47 0 -88 18.5t-71.5 51t-48 77t-17.5 96.5q0 55 17.5 101.5t47.5 80t70.5 52t86.5 18.5q57 0 100 -26.5t64 -64.5h1v39q0 44 38 44q13 0 28 -5v-638q0 -12 -7.5 -19.5t-27.5 -7.5zM266 47q47 0 89 22.5 t65 67.5v134q0 32 -11.5 60.5t-32 50t-48.5 34t-61 12.5q-41 0 -72 -15.5t-52 -42.5t-31.5 -62t-10.5 -74t11 -73.5t32.5 -59.5t52 -39.5t69.5 -14.5z"/>
<glyph unicode="r" horiz-adv-x="334" d="M99 -6q-9 0 -18 1t-14 3v475q15 5 28 5q38 0 38 -44v-46h2q24 54 63.5 75.5t87.5 21.5q29 0 55 -8q5 -30 -7 -44.5t-32 -12.5q-31 4 -61 -2.5t-54 -25t-38.5 -51t-14.5 -80.5v-240q0 -12 -7.5 -19.5t-27.5 -7.5z"/>
<glyph unicode="s" horiz-adv-x="457" d="M228 -7q-50 0 -97 10t-93 27q-5 22 2.5 36t23.5 14q11 0 26 -5t35.5 -10.5t46 -10.5t56.5 -5q41 0 65.5 7.5t37.5 19.5t17 26t4 26q0 30 -21.5 45.5t-74.5 30.5l-84 23q-72 20 -103 52t-31 75q0 25 9 49t31 42.5t57 29.5t88 11q45 0 86 -8t86 -24q6 -49 -28 -49 q-9 0 -22 4t-30.5 9t-40 9t-51.5 4q-65 0 -92 -21t-27 -50q0 -12 3 -22.5t12.5 -19.5t27 -17t46.5 -16l81 -22q41 -11 68.5 -24t44.5 -29t24.5 -35.5t7.5 -44.5q0 -23 -7.5 -47t-28.5 -44t-58.5 -33t-96.5 -13z"/>
<glyph unicode="t" horiz-adv-x="383" d="M238 -7q-71 0 -110 42.5t-39 110.5v273h-78q-3 9 -3 25q0 17 6.5 23t16.5 6h58v97q0 14 7 26t32 12q6 0 14 -1t13 -3v-131h181q3 -9 3 -25q0 -17 -6.5 -23t-16.5 -6h-161v-269q0 -45 22 -72t68 -27q18 0 32.5 4t26 9t20.5 9t17 4q14 0 21.5 -11t4.5 -35 q-26 -17 -57.5 -27.5t-71.5 -10.5z"/>
<glyph unicode="u" horiz-adv-x="543" d="M245 -9q-38 0 -70.5 12t-57.5 36.5t-39 62.5t-14 90v259q0 12 7.5 19.5t27.5 7.5q9 0 18 -1t14 -3v-280q0 -74 36.5 -109.5t90.5 -35.5q42 0 80.5 22.5t67.5 70.5v309q0 12 7.5 19.5t27.5 7.5q9 0 18 -1t14 -3v-253q0 -48 3 -101.5t20 -116.5q-6 -3 -16 -5.5t-20 -2.5 q-27 0 -34 22q-2 6 -6 23t-7 40h-1q-29 -41 -70 -65t-97 -24z"/>
<glyph unicode="v" horiz-adv-x="435" d="M215 -7q-19 0 -35 6l-180 472q5 3 15.5 5t19.5 2q14 0 25 -5t16 -19l87 -238q15 -42 27.5 -79t26.5 -78h1q14 40 27 77t29 80l89 239q5 14 15 18.5t24 4.5q8 0 18 -2t15 -5l-174 -450q-5 -16 -15.5 -22t-30.5 -6z"/>
<glyph unicode="w" horiz-adv-x="670" d="M174 -7q-9 0 -22.5 1.5t-20.5 4.5l-122 471q7 3 16.5 5.5t20.5 2.5q16 0 26 -6t14 -21l57 -240q10 -44 18 -81.5t16 -72.5h2q4 16 9.5 37t12 42t12 41.5t9.5 35.5l79 258q19 6 36 6q25 0 33.5 -6.5t14.5 -26.5l68 -231q14 -47 24 -85.5t18 -71.5h2q7 33 15 70t20 85 l61 243q6 24 35 24q11 0 19 -2.5t14 -4.5l-116 -448q-5 -17 -19.5 -23.5t-31.5 -6.5q-10 0 -22.5 1.5t-19.5 3.5l-116 400l-110 -373q-5 -19 -19 -25.5t-33 -6.5z"/>
<glyph unicode="x" horiz-adv-x="456" d="M57 -5q-10 0 -20 2.5t-18 5.5l170 242l-158 225q8 3 19.5 5.5t21.5 2.5q29 0 40 -17l118 -174l121 173q11 18 39 18q9 0 20 -2t19 -5l-163 -229l170 -239q-8 -3 -19.5 -5.5t-21.5 -2.5q-29 0 -40 17l-131 188l-127 -188q-11 -17 -40 -17z"/>
<glyph unicode="y" horiz-adv-x="447" d="M157 -193q-9 0 -19 2.5t-18 5.5l78 182l-194 473q8 3 16.5 5.5t18.5 2.5q16 0 27 -6t17 -22l146 -376h1l143 377q6 15 16.5 21t21.5 6q9 0 19 -2.5t18 -5.5l-253 -636q-6 -15 -16.5 -21t-21.5 -6z"/>
<glyph unicode="z" horiz-adv-x="437" d="M32 0q-1 5 -2 12.5t-1 15.5q0 11 2.5 21.5t11.5 21.5l280 348h-262q-11 0 -18 6.5t-7 23.5q0 8 1 15t2 11h362q1 -4 2 -11.5t1 -14.5q0 -9 -2.5 -20.5t-10.5 -20.5l-284 -352h299q2 -10 2 -25q0 -18 -6.5 -24.5t-17.5 -6.5h-352z"/>
<glyph unicode="{" horiz-adv-x="288" d="M208 -198q-31 18 -51.5 37t-32.5 38.5t-17 39t-5 36.5q0 28 3.5 53.5t8 48.5t8.5 44t4 39q0 35 -22.5 48.5t-57.5 20.5v47q16 4 30.5 9t25.5 12.5t17.5 19t6.5 28.5q0 21 -4 42.5t-8.5 43t-8 44t-3.5 46.5q0 53 24.5 92t82.5 70q24 -12 24 -32q0 -19 -13 -29 q-36 -22 -47.5 -49t-11.5 -56q0 -42 9.5 -87t9.5 -93q0 -30 -16 -52t-45 -32q29 -9 44.5 -33t15.5 -52q0 -24 -3.5 -49.5t-7 -50t-6.5 -47t-3 -41.5q1 -27 13.5 -50.5t47.5 -45.5q7 -5 10 -11.5t3 -16.5t-7 -18t-18 -14z"/>
<glyph unicode="|" horiz-adv-x="267" d="M132 -192q-8 0 -16 1t-13 3v827q0 11 7 18t25 7q8 0 16 -1.5t13 -3.5v-826q0 -11 -7 -18t-25 -7z"/>
<glyph unicode="}" horiz-adv-x="288" d="M80 -198q-24 12 -24 34q0 18 13 27q36 22 47.5 49t11.5 56q0 42 -10 87t-10 93q0 30 16 52t45 32q-29 9 -44.5 33t-15.5 52q0 24 3.5 49.5t7.5 50t7 47t3 41.5q-1 27 -13.5 50.5t-43.5 43.5q-17 12 -17 33q0 19 23 29q33 -18 53.5 -37t32.5 -38.5t17 -39t5 -36.5 q0 -28 -4 -53.5t-8.5 -48.5t-8 -44t-3.5 -39q0 -35 22.5 -48.5t57.5 -20.5v-47q-16 -4 -30.5 -9t-25.5 -12.5t-17.5 -19t-6.5 -28.5q0 -21 3.5 -42.5t8 -43.5t8.5 -44t4 -46q0 -53 -24.5 -92t-82.5 -70z"/>
<glyph unicode="~" d="M377 169q-20 0 -30 6.5t-18 14.5l-106 96l-59 -112h-52l75 143q6 4 16.5 7t24.5 3q28 0 45 -18l109 -98l56 110h52l-74 -143q-9 -4 -19.5 -6.5t-19.5 -2.5z"/>
<glyph unicode="¡" horiz-adv-x="255" d="M126 -3q-23 0 -38 5l14 419q2 13 8.5 17.5t19.5 4.5q12 0 20 -5l20 -405q2 -36 -44 -36zM128 560q-20 0 -34.5 14.5t-14.5 34.5t14.5 34.5t34.5 14.5t34 -14.5t14 -34.5t-14 -34.5t-34 -14.5z"/>
<glyph unicode="¢" d="M340 -101q-8 0 -15 1t-11 2v135q-49 5 -88 25.5t-66 53t-41.5 75t-14.5 90.5t14.5 90t41.5 74.5t66 53t88 26.5v106q0 11 6 17t23 6q8 0 15 -2t12 -4v-122q39 -3 68 -11t54 -22q2 -23 -7 -35.5t-23 -12.5q-8 0 -16 3t-18.5 7t-24.5 7.5t-33 5.5v-374q21 1 36.5 5 t27.5 8.5t20.5 8.5t16.5 4q34 0 30 -48q-30 -15 -60 -24t-71 -12v-114q0 -11 -6.5 -17t-23.5 -6zM314 97v369q-30 -5 -56 -19.5t-45 -38t-30 -55.5t-11 -72q0 -39 11 -70.5t30 -55t45 -38.5t56 -20z"/>
<glyph unicode="£" d="M94 0q-2 5 -3 10t-1 22q0 21 12.5 44t27.5 52t27 65t12 83h-96q-2 5 -3 12.5t-1 15.5q0 17 7.5 24t18.5 7h67q-8 32 -18 69.5t-10 74.5q0 36 11.5 68.5t35.5 58t60.5 40.5t85.5 15q51 0 96 -15.5t76 -34.5q-2 -20 -10 -34t-23 -14q-9 0 -21.5 6t-29.5 12.5t-40.5 12.5 t-54.5 6q-57 0 -87.5 -33t-30.5 -88q0 -24 3 -43.5t6.5 -36.5t8 -32.5t7.5 -31.5h194q1 -5 2 -12.5t1 -15.5q0 -18 -7 -24.5t-18 -6.5h-168q-1 -56 -17.5 -107t-46.5 -106h332q1 -5 2 -13t1 -17q0 -33 -35 -33h-373z"/>
<glyph unicode="¤" d="M144 53l-43 43l61 62q-14 22 -22 47t-8 53q0 54 30 98l-61 62l44 45l62 -63q20 15 45 23.5t53 8.5t53.5 -8.5t45.5 -23.5l63 62l43 -43l-63 -63q32 -41 32 -98q0 -56 -31 -99l62 -62l-43 -44l-63 62q-43 -31 -99 -31t-99 31zM305 139q25 0 46.5 9.5t38 25.5t26 37.5 t9.5 46.5q0 24 -9.5 46t-26 38t-38 25.5t-46.5 9.5q-24 0 -46 -9.5t-38 -25.5t-25.5 -38t-9.5 -46q0 -25 9.5 -46.5t25.5 -37.5t38 -25.5t46 -9.5z"/>
<glyph unicode="¥" d="M296 -6q-9 0 -18 1t-14 3v233h-163q-1 5 -2.5 13t-1.5 16q0 18 8 25.5t19 7.5h134l-228 349q8 5 19 7.5t22 2.5q14 0 25 -4.5t19 -15.5l185 -287l182 284q17 25 47 25q22 0 38 -8l-229 -353h158q2 -5 2.5 -13t0.5 -16q0 -19 -7.5 -26t-18.5 -7h-140v-210 q0 -12 -8.5 -19.5t-28.5 -7.5z"/>
<glyph unicode="¦" horiz-adv-x="266" d="M131 -194q-8 0 -16 1t-13 3v351q0 11 7 18t25 7q8 0 16 -1.5t13 -3.5v-350q0 -11 -7 -18t-25 -7zM131 284q-8 0 -16 1t-13 3v351q0 11 7 18t25 7q8 0 16 -1.5t13 -3.5v-350q0 -11 -7 -18t-25 -7z"/>
<glyph unicode="§" d="M287 -56q-51 0 -92 8.5t-87 26.5q-5 21 3 35t24 14q11 0 24.5 -4.5t31.5 -9.5t41.5 -9.5t54.5 -4.5q40 0 64.5 7.5t38 19.5t17.5 26t4 26q0 30 -21 45.5t-75 29.5l-58 17q-41 11 -69 25t-45 30.5t-24.5 36.5t-7.5 44q0 32 19 62.5t57 49.5q-82 33 -82 109q0 26 10.5 50 t33 42.5t57.5 29.5t85 11q44 0 81 -8t82 -24q2 -23 -4.5 -36t-23.5 -13q-11 0 -23 4t-28 9t-37.5 9t-50.5 4q-54 0 -85 -19.5t-31 -51.5q0 -12 3.5 -23t14 -20.5t28.5 -18.5t48 -17l68 -18q41 -11 68.5 -25t44.5 -31t24.5 -37.5t7.5 -44.5q0 -31 -18.5 -61t-60.5 -50 q44 -20 61.5 -44t17.5 -64q0 -23 -8 -47.5t-29.5 -44.5t-58.5 -32.5t-95 -12.5zM337 212q78 18 78 83q0 20 -12.5 35t-34.5 26.5t-52 21t-66 17.5q-39 -9 -58.5 -32t-19.5 -55q0 -20 12.5 -34t34 -25t52 -19.5t66.5 -17.5z"/>
<glyph unicode="¨" horiz-adv-x="462" d="M155 565q-18 0 -30.5 12.5t-12.5 30.5t12.5 31t30.5 13t31 -13t13 -31t-13 -30.5t-31 -12.5zM324 565q-18 0 -30.5 12.5t-12.5 30.5t12.5 31t30.5 13q19 0 31.5 -13t12.5 -31t-12.5 -30.5t-31.5 -12.5z"/>
<glyph unicode="©" horiz-adv-x="719" d="M360 -13q-72 0 -132.5 25t-103.5 69.5t-67 106.5t-24 136q0 73 24 134.5t67.5 106.5t103.5 70t132 25t131.5 -25t103 -69.5t67.5 -106t24 -135.5t-24 -135.5t-67.5 -106.5t-103 -70t-131.5 -25zM360 34q61 0 112 21.5t87.5 60.5t57 92t20.5 116q0 62 -21 115t-58 91.5 t-88 60.5t-111 22q-61 0 -112 -21.5t-87.5 -60t-57 -91.5t-20.5 -116t20.5 -116t57.5 -91.5t88 -60.5t112 -22zM367 135q-41 0 -75 15t-58 41t-37 60.5t-13 73.5t13 73t37 59.5t57.5 40.5t74.5 15q38 0 65 -7.5t50 -20.5q2 -23 -8 -33t-24 -10q-6 0 -12 3t-15 6t-22 6t-32 3 q-26 0 -49 -9t-40 -26.5t-27 -42.5t-10 -57t10 -57.5t27 -43t40 -27t49 -9.5q40 0 59 9t30 9q14 0 22.5 -9t6.5 -33q-28 -15 -58.5 -22t-60.5 -7z"/>
<glyph unicode="ª" horiz-adv-x="430" d="M173 261q-32 0 -57 9.5t-42 25t-25.5 36.5t-8.5 45q0 63 47 93t123 30q23 0 49 -3t53 -8v26q0 48 -21.5 69t-71.5 21t-78.5 -10t-43.5 -10q-13 0 -20.5 11t-4.5 34q9 3 24 7.5t35 8t42.5 6.5t46.5 3q44 0 73 -10.5t46 -30t24 -48t7 -63.5v-83q0 -26 0.5 -45t3 -36t7 -33 t12.5 -34q-7 -4 -14.5 -6.5t-16.5 -2.5q-13 0 -20.5 5.5t-12 15.5t-7 22.5t-3.5 26.5q-23 -32 -60.5 -52t-85.5 -20zM189 309q42 0 72.5 21.5t51.5 59.5v56q-27 5 -51.5 8t-45.5 3q-56 0 -87 -19.5t-31 -58.5q0 -31 23 -50.5t68 -19.5z"/>
<glyph unicode="«" horiz-adv-x="562" d="M259 86l-228 151v55l228 151q3 -8 5 -19t2 -19q0 -29 -17 -39l-153 -100l153 -100q17 -11 17 -40q0 -9 -2 -20.5t-5 -19.5zM477 86l-228 151v55l228 151q3 -8 5 -19t2 -19q0 -29 -17 -39l-153 -100l153 -100q17 -11 17 -40q0 -9 -2 -20.5t-5 -19.5z"/>
<glyph unicode="¬" d="M513 -2q-9 0 -16.5 1t-12.5 3v229h-427q-1 5 -2 13t-1 17q0 18 7.5 25t20.5 7h436q13 0 20.5 -7t7.5 -25v-238q0 -11 -7.5 -18t-25.5 -7z"/>
<glyph unicode="­" horiz-adv-x="339" d="M30 223q-1 5 -2.5 13.5t-1.5 16.5q0 17 8 24.5t19 7.5h256q2 -5 2.5 -13t0.5 -16q0 -19 -7.5 -26t-18.5 -7h-256z"/>
<glyph unicode="®" horiz-adv-x="372" d="M186 336q-35 0 -64.5 12t-51 34t-33.5 51t-12 64q0 33 12 62.5t33.5 51t51 34.5t64.5 13q34 0 63.5 -13t51 -34.5t33.5 -51t12 -62.5q0 -35 -12 -64.5t-33.5 -51t-51 -33.5t-63.5 -12zM186 369q23 0 45.5 8t40 24.5t28.5 40t11 55.5q0 30 -11 54t-28.5 40.5t-40 25 t-45.5 8.5t-45.5 -8.5t-40.5 -25t-29 -40.5t-11 -54q0 -32 11 -55.5t29 -40t40.5 -24.5t45.5 -8zM146 412q-8 0 -16 2v154q0 6 3 10t12 4h47q27 0 44 -14.5t17 -39.5q0 -17 -11 -31t-35 -18l49 -61q-2 -2 -8 -4t-14 -2t-13.5 3.5t-9.5 8.5l-40 52h-7v-51q0 -13 -18 -13z M164 506h24q16 0 23 6.5t7 15.5q0 23 -27 23h-27v-45z"/>
<glyph unicode="¯" horiz-adv-x="462" d="M116 596q-1 5 -2 12.5t-1 15.5q0 17 7.5 23.5t19.5 6.5h246q1 -5 1.5 -12t0.5 -15q0 -31 -27 -31h-245z"/>
<glyph unicode="°" horiz-adv-x="394" d="M197 347q-33 0 -61.5 12.5t-49.5 33.5t-33.5 49.5t-12.5 61.5t12.5 61.5t33.5 49.5t49.5 33.5t61.5 12.5t61.5 -12.5t49.5 -33.5t33.5 -49.5t12.5 -61.5t-12.5 -61.5t-33.5 -49.5t-49.5 -33.5t-61.5 -12.5zM197 399q22 0 41 8t33 22.5t22.5 33.5t8.5 41t-8.5 41t-22.5 33 t-33 22.5t-41 8.5t-41 -8.5t-33.5 -22.5t-22.5 -33t-8 -41t8 -41t22.5 -33.5t33.5 -22.5t41 -8z"/>
<glyph unicode="±" horiz-adv-x="554" d="M274 180q-9 0 -16.5 1t-12.5 3v229h-209q-1 5 -2 13t-1 17q0 18 7.5 25t20.5 7h184v195q0 11 7.5 18t25.5 7q9 0 16.5 -1t12.5 -3v-216h215q1 -5 2 -13t1 -17q0 -18 -7.5 -25t-20.5 -7h-190v-208q0 -11 -7.5 -18t-25.5 -7z"/>
<glyph unicode="²" horiz-adv-x="413" d="M63 224q-1 4 -2 10.5t-1 13.5q0 6 2.5 17.5t15.5 23.5l121 106q26 23 43.5 40.5t28 32.5t15 28.5t4.5 29.5q0 38 -23.5 59.5t-66.5 21.5q-22 0 -39 -5t-30.5 -11t-24 -11t-19.5 -5q-11 0 -18 12t-9 26q20 16 58 32t83 16q69 0 107.5 -37.5t38.5 -96.5q0 -23 -6.5 -43 t-20 -39.5t-34 -40t-48.5 -43.5l-98 -81v-1h213q1 -5 1.5 -11.5t0.5 -14.5q0 -15 -7 -22t-15 -7h-270z"/>
<glyph unicode="³" horiz-adv-x="447" d="M225 214q-45 0 -84.5 10.5t-66.5 26.5q0 17 7 29t21 12q9 0 18.5 -4t23.5 -8.5t33.5 -8.5t49.5 -4q44 0 71.5 21t27.5 53t-24 54t-83 22h-64q-8 0 -13.5 7.5t-5.5 18.5q0 5 0.5 13t1.5 11h76q51 0 75 19.5t24 50.5q0 29 -20.5 49.5t-69.5 20.5q-23 0 -41.5 -4t-33 -8.5 t-24 -8t-15.5 -3.5q-17 0 -22 13.5t-6 29.5q24 12 60.5 23t84.5 11q36 0 63 -9.5t45 -25t27 -36.5t9 -44q0 -38 -20.5 -64t-52.5 -35q38 -8 63 -35t25 -69q0 -30 -12.5 -54t-34 -40.5t-51 -25t-62.5 -8.5z"/>
<glyph unicode="´" horiz-adv-x="462" d="M194 542q-12 0 -22 4.5t-16 11.5l148 141q34 -11 34 -39q0 -25 -31 -47l-69 -55q-12 -9 -23 -12.5t-21 -3.5z"/>
<glyph unicode="µ" horiz-adv-x="561" d="M99 -192q-9 0 -18 1t-14 3v642q0 12 7.5 19.5t27.5 7.5q9 0 18 -1t14 -3v-263q0 -43 11 -74.5t29.5 -51.5t43 -30t50.5 -10q41 0 76.5 23t64.5 71v312q0 12 7.5 19.5t27.5 7.5q9 0 18 -1t14 -3v-256q0 -48 3 -101.5t20 -116.5q-6 -3 -15 -5.5t-17 -2.5q-12 0 -20.5 4.5 t-14.5 17.5q-5 11 -7.5 26t-5.5 35h-1q-27 -41 -62 -65t-85 -24q-54 0 -86 20.5t-51 53.5v-228q0 -12 -7.5 -19.5t-27.5 -7.5z"/>
<glyph unicode="¶" horiz-adv-x="559" d="M337 -2q-8 0 -15 1t-12 3v231h-55q-54 0 -97 15.5t-73 42.5t-46 65t-16 83t16 84t46 67t73 44t97 16h193q20 0 25.5 -8t5.5 -20v-601q0 -10 -7 -16.5t-24 -6.5q-8 0 -15 1t-12 3v593h-53v-574q0 -10 -7 -16.5t-24 -6.5zM263 289h47v306h-47q-86 0 -132.5 -42t-46.5 -114 t46.5 -111t132.5 -39z"/>
<glyph unicode="·" horiz-adv-x="198" d="M97 201q-19 0 -33.5 14.5t-14.5 33.5q0 20 14.5 34.5t33.5 14.5q21 0 35.5 -14.5t14.5 -34.5q0 -19 -14.5 -33.5t-35.5 -14.5z"/>
<glyph unicode="¸" horiz-adv-x="462" d="M253 -207q-25 0 -48.5 7.5t-40.5 16.5q0 11 6 21.5t17 10.5q13 0 27.5 -7t40.5 -7q23 0 40 12t17 35q0 16 -14.5 29t-50.5 13h-5q-17 0 -23 10.5t-1 22.5l14 43l43 1l-13 -39q27 -1 46 -8.5t30 -19.5t16 -25.5t5 -26.5q0 -44 -31.5 -66.5t-74.5 -22.5z"/>
<glyph unicode="¹" horiz-adv-x="352" d="M196 214q-8 0 -15 1t-12 2v363l-89 -46q-4 4 -10 11t-7 18q-3 22 18 32l102 55h42v-413q0 -11 -6 -17t-23 -6z"/>
<glyph unicode="º" horiz-adv-x="439" d="M228 257q-43 0 -78.5 15t-60.5 42t-39 63.5t-14 78.5q0 41 14 77.5t39 63.5t60.5 43t78.5 16t78 -16t60 -43t38 -63.5t13 -76.5q0 -41 -13 -77.5t-37.5 -63.5t-59.5 -43t-79 -16zM228 310q23 0 46.5 9t42 27t30.5 45.5t12 64.5q0 34 -11 61.5t-29 46.5t-42 29t-49 10 t-49 -10t-43 -29t-30.5 -46.5t-11.5 -61.5q0 -36 12 -63.5t31 -46t43 -27.5t48 -9z"/>
<glyph unicode="»" horiz-adv-x="562" d="M77 88q-3 8 -5 19t-2 19q0 29 17 39l153 100l-153 100q-17 11 -17 40q0 9 2 20.5t5 19.5l228 -151v-55zM295 88q-3 8 -5 19t-2 19q0 29 17 39l153 100l-153 100q-17 11 -17 40q0 9 2 20.5t5 19.5l228 -151v-55z"/>
<glyph unicode="¼" horiz-adv-x="885" d="M735 -1q-8 0 -15 1t-12 2v91h-214q-1 5 -2 12t-1 14q0 11 2.5 20.5t10.5 20.5l203 274h57v-289h69q2 -5 3 -11.5t1 -14.5q0 -26 -21 -26h-52v-71q0 -11 -6 -17t-23 -6zM265 76q-11 0 -20 4.5t-14 9.5l286 473q8 12 24 12q11 0 20 -4.5t14 -9.5l-286 -473q-8 -12 -24 -12z M556 145h152v204zM163 214q-8 0 -15 1t-12 2v363l-89 -46q-4 4 -10 11t-7 18q-3 22 18 32l102 55h42v-413q0 -11 -6 -17t-23 -6z"/>
<glyph unicode="½" horiz-adv-x="905" d="M548 0q-1 4 -2.5 12t-1.5 14q0 17 4.5 29t18.5 24l99 82q24 20 45 36.5t36.5 32.5t24 33t8.5 39q0 33 -23 56t-61 23q-23 0 -41 -5t-32.5 -11t-25.5 -11t-20 -5q-11 0 -18.5 13.5t-9.5 27.5q10 7 25.5 15.5t35 15.5t41.5 11.5t46 4.5q32 0 58.5 -10t45 -28t28.5 -42.5 t10 -52.5q0 -31 -11 -55t-30.5 -45t-45 -41t-53.5 -42l-82 -64v-1h228q0 -5 0.5 -12t0.5 -15q0 -15 -7 -22t-15 -7h-276zM256 76q-11 0 -20 4.5t-14 9.5l286 473q8 12 24 12q11 0 20 -4.5t14 -9.5l-286 -473q-8 -12 -24 -12zM163 214q-8 0 -15 1t-12 2v363l-89 -46 q-4 4 -10 11t-7 18q-3 22 18 32l102 55h42v-413q0 -11 -6 -17t-23 -6z"/>
<glyph unicode="¾" horiz-adv-x="1007" d="M856 -1q-8 0 -15 1t-12 2v91h-214q-1 5 -2 12t-1 14q0 11 2.5 20.5t10.5 20.5l203 274h57v-289h69q2 -5 3 -11.5t1 -14.5q0 -26 -21 -26h-52v-71q0 -11 -6 -17t-23 -6zM385 76q-11 0 -20 4.5t-14 9.5l286 473q8 12 24 12q11 0 20 -4.5t14 -9.5l-286 -473q-8 -12 -24 -12z M677 145h152v204zM200 214q-45 0 -84.5 10.5t-66.5 26.5q0 17 6.5 29t20.5 12q9 0 19 -4t23.5 -8.5t33 -8.5t49.5 -4q44 0 72 20.5t28 52.5t-24.5 54.5t-83.5 22.5h-64q-8 0 -13 7.5t-5 18.5q0 5 0.5 13t1.5 11h75q51 0 75.5 19t24.5 54q0 26 -20.5 46.5t-68.5 20.5 q-24 0 -42.5 -4t-33 -8.5t-24 -8t-15.5 -3.5q-17 0 -22.5 13.5t-5.5 29.5q24 12 60.5 23t84.5 11q36 0 63 -9.5t45 -25t27 -36.5t9 -44q0 -38 -20.5 -64t-52.5 -35q37 -8 62.5 -36t25.5 -70q0 -30 -12.5 -53t-34 -39.5t-51 -25t-62.5 -8.5z"/>
<glyph unicode="¿" horiz-adv-x="443" d="M228 -8q-47 0 -83.5 12t-61.5 34t-38 52t-13 65q0 29 9 52t22 41t28.5 30t28.5 20q31 19 52.5 33.5t35 29t20 30.5t8.5 37q4 15 11.5 20t19.5 5t24 -9q3 -44 -10 -74.5t-34 -52t-47 -37.5t-48 -32.5t-37 -37t-15 -50.5q0 -47 33 -76.5t95 -29.5q38 0 64 6.5t44 15t31 15 t25 6.5q14 0 22.5 -12t8.5 -34q-15 -11 -37 -21.5t-47.5 -18.5t-54 -13.5t-56.5 -5.5zM264 564q-20 0 -34.5 14.5t-14.5 34.5q0 19 14.5 33.5t34.5 14.5q19 0 33.5 -14.5t14.5 -33.5q0 -20 -14.5 -34.5t-33.5 -14.5z"/>
<glyph unicode="À" horiz-adv-x="576" d="M42 -5q-9 0 -19 2.5t-17 5.5l236 645q25 6 47 6q30 0 42 -9t20 -32l219 -610q-6 -4 -16 -6t-19 -2q-13 0 -24.5 5t-16.5 19l-66 183h-280l-65 -183q-5 -14 -16.5 -19t-24.5 -5zM169 264h238l-117 329h-3zM300 686q-10 0 -21 3.5t-23 12.5l-69 55q-31 22 -31 47 q0 28 34 39l148 -141q-6 -7 -16 -11.5t-22 -4.5z"/>
<glyph unicode="Á" horiz-adv-x="576" d="M42 -5q-9 0 -19 2.5t-17 5.5l236 645q25 6 47 6q30 0 42 -9t20 -32l219 -610q-6 -4 -16 -6t-19 -2q-13 0 -24.5 5t-16.5 19l-66 183h-280l-65 -183q-5 -14 -16.5 -19t-24.5 -5zM169 264h238l-117 329h-3zM259 686q-12 0 -22 4.5t-16 11.5l148 141q34 -11 34 -39 q0 -25 -31 -47l-69 -55q-12 -9 -23 -12.5t-21 -3.5z"/>
<glyph unicode="Â" horiz-adv-x="576" d="M42 -5q-9 0 -19 2.5t-17 5.5l236 645q25 6 47 6q30 0 42 -9t20 -32l219 -610q-6 -4 -16 -6t-19 -2q-13 0 -24.5 5t-16.5 19l-66 183h-280l-65 -183q-5 -14 -16.5 -19t-24.5 -5zM169 264h238l-117 329h-3zM195 689q-12 0 -21 2t-14 4l91 126q12 20 36 20q27 0 39 -20 l92 -127q-6 -2 -16 -3.5t-18 -1.5q-21 0 -32 15l-63 90l-61 -89q-11 -16 -33 -16z"/>
<glyph unicode="Ã" horiz-adv-x="576" d="M42 -5q-9 0 -19 2.5t-17 5.5l236 645q25 6 47 6q30 0 42 -9t20 -32l219 -610q-6 -4 -16 -6t-19 -2q-13 0 -24.5 5t-16.5 19l-66 183h-280l-65 -183q-5 -14 -16.5 -19t-24.5 -5zM169 264h238l-117 329h-3zM341 692q-17 0 -32.5 9t-29.5 19.5l-26 19.5t-21 9 q-11 0 -16.5 -8t-10.5 -17.5t-11.5 -17.5t-18.5 -8q-16 0 -29 16q11 44 32 67.5t56 23.5q18 0 33.5 -9t29 -20.5t25 -20.5t22.5 -9q9 0 15 8.5t11 18t12 18t18 8.5q16 0 31 -16q-15 -46 -34.5 -68.5t-55.5 -22.5z"/>
<glyph unicode="Ä" horiz-adv-x="576" d="M42 -5q-9 0 -19 2.5t-17 5.5l236 645q25 6 47 6q30 0 42 -9t20 -32l219 -610q-6 -4 -16 -6t-19 -2q-13 0 -24.5 5t-16.5 19l-66 183h-280l-65 -183q-5 -14 -16.5 -19t-24.5 -5zM169 264h238l-117 329h-3zM203 703q-18 0 -30.5 12.5t-12.5 30.5t12.5 31t30.5 13t31 -13 t13 -31t-13 -30.5t-31 -12.5zM372 703q-18 0 -30.5 12.5t-12.5 30.5t12.5 31t30.5 13q19 0 31.5 -13t12.5 -31t-12.5 -30.5t-31.5 -12.5z"/>
<glyph unicode="Å" horiz-adv-x="576" d="M42 -5q-9 0 -19 2.5t-17 5.5l236 645q25 6 47 6q30 0 42 -9t20 -32l219 -610q-6 -4 -16 -6t-19 -2q-13 0 -24.5 5t-16.5 19l-66 183h-280l-65 -183q-5 -14 -16.5 -19t-24.5 -5zM169 264h238l-117 329h-3zM288 684q-42 0 -70.5 27t-28.5 71q0 21 8 38.5t21.5 30.5t32 20.5 t39.5 7.5t39 -7.5t31.5 -20.5t21 -30.5t7.5 -38.5q0 -44 -29.5 -71t-71.5 -27zM289 723q23 0 39 16.5t16 42.5q0 25 -16 41.5t-39 16.5t-39 -16.5t-16 -41.5q0 -26 16 -42.5t39 -16.5z"/>
<glyph unicode="Æ" horiz-adv-x="809" d="M28 -5q-10 0 -21 2.5t-19 6.5l299 646h473q1 -5 1.5 -13t0.5 -17q0 -18 -8 -25t-19 -7h-331l60 -221h277q2 -4 2.5 -12t0.5 -17q0 -18 -7.5 -24.5t-18.5 -6.5h-239l67 -245h220q1 -5 1.5 -13t0.5 -16q0 -19 -7.5 -26t-18.5 -7h-214q-15 0 -28.5 5t-18.5 25l-45 168h-283 l-78 -173q-8 -19 -20 -24.5t-27 -5.5zM180 261h241l-90 324z"/>
<glyph unicode="Ç" horiz-adv-x="558" d="M315 -207q-25 0 -48.5 7.5t-40.5 16.5q0 11 6 21.5t17 10.5q13 0 27.5 -7t40.5 -7q23 0 40 12t17 35q0 16 -14.5 29t-50.5 13h-5q-17 0 -22.5 4.5t-5.5 12.5q0 6 4 17l11 35q-59 9 -106.5 37t-81 70.5t-52 98.5t-18.5 121q0 70 23 131t64 106t99 70.5t129 25.5 q51 0 99 -12t89 -29q2 -32 -7.5 -43.5t-23.5 -11.5q-8 0 -21 5t-32 11t-44.5 11t-58.5 5q-50 0 -95 -18.5t-78.5 -53.5t-53 -85t-19.5 -112q0 -65 19.5 -114.5t53 -84t78.5 -52t95 -17.5q33 0 58.5 5t45 11t32.5 11t22 5q14 0 24.5 -12.5t5.5 -42.5q-42 -19 -94.5 -30.5 t-109.5 -9.5l-9 -27q27 -1 46 -8.5t30 -19.5t16 -25.5t5 -26.5q0 -44 -31.5 -66.5t-74.5 -22.5z"/>
<glyph unicode="È" horiz-adv-x="502" d="M111 0q-20 0 -25.5 8t-5.5 20v594q0 12 5.5 20t25.5 8h340q2 -5 3 -13t1 -17q0 -18 -8 -24.5t-19 -6.5h-279v-234h275q4 -10 4 -29q0 -18 -7 -24.5t-18 -6.5h-254v-234h308q2 -5 3 -12.5t1 -15.5q0 -19 -7.5 -26t-18.5 -7h-324zM310 686q-10 0 -21 3.5t-23 12.5l-69 55 q-31 22 -31 47q0 28 34 39l148 -141q-6 -7 -16 -11.5t-22 -4.5z"/>
<glyph unicode="É" horiz-adv-x="502" d="M111 0q-20 0 -25.5 8t-5.5 20v594q0 12 5.5 20t25.5 8h340q2 -5 3 -13t1 -17q0 -18 -8 -24.5t-19 -6.5h-279v-234h275q4 -10 4 -29q0 -18 -7 -24.5t-18 -6.5h-254v-234h308q2 -5 3 -12.5t1 -15.5q0 -19 -7.5 -26t-18.5 -7h-324zM230 686q-12 0 -22 4.5t-16 11.5l148 141 q34 -11 34 -39q0 -25 -31 -47l-69 -55q-12 -9 -23 -12.5t-21 -3.5z"/>
<glyph unicode="Ê" horiz-adv-x="502" d="M111 0q-20 0 -25.5 8t-5.5 20v594q0 12 5.5 20t25.5 8h340q2 -5 3 -13t1 -17q0 -18 -8 -24.5t-19 -6.5h-279v-234h275q4 -10 4 -29q0 -18 -7 -24.5t-18 -6.5h-254v-234h308q2 -5 3 -12.5t1 -15.5q0 -19 -7.5 -26t-18.5 -7h-324zM170 689q-12 0 -21 2t-14 4l91 126 q12 20 36 20q27 0 39 -20l92 -127q-6 -2 -16 -3.5t-18 -1.5q-21 0 -32 15l-63 90l-61 -89q-11 -16 -33 -16z"/>
<glyph unicode="Ë" horiz-adv-x="502" d="M111 0q-20 0 -25.5 8t-5.5 20v594q0 12 5.5 20t25.5 8h340q2 -5 3 -13t1 -17q0 -18 -8 -24.5t-19 -6.5h-279v-234h275q4 -10 4 -29q0 -18 -7 -24.5t-18 -6.5h-254v-234h308q2 -5 3 -12.5t1 -15.5q0 -19 -7.5 -26t-18.5 -7h-324zM185 705q-18 0 -30.5 12.5t-12.5 30.5 t12.5 31t30.5 13t31 -13t13 -31t-13 -30.5t-31 -12.5zM354 705q-18 0 -30.5 12.5t-12.5 30.5t12.5 31t30.5 13q19 0 31.5 -13t12.5 -31t-12.5 -30.5t-31.5 -12.5z"/>
<glyph unicode="Ì" horiz-adv-x="229" d="M112 -6q-9 0 -18 1t-14 3v627q0 12 8.5 19.5t28.5 7.5q9 0 18 -1t14 -3v-627q0 -12 -8.5 -19.5t-28.5 -7.5zM149 685q-10 0 -21 3.5t-23 12.5l-69 55q-31 22 -31 47q0 28 34 39l148 -141q-6 -7 -16 -11.5t-22 -4.5z"/>
<glyph unicode="Í" horiz-adv-x="229" d="M112 -6q-9 0 -18 1t-14 3v627q0 12 8.5 19.5t28.5 7.5q9 0 18 -1t14 -3v-627q0 -12 -8.5 -19.5t-28.5 -7.5zM89 685q-12 0 -22 4.5t-16 11.5l148 141q34 -11 34 -39q0 -25 -31 -47l-69 -55q-12 -9 -23 -12.5t-21 -3.5z"/>
<glyph unicode="Î" horiz-adv-x="229" d="M112 -6q-9 0 -18 1t-14 3v627q0 12 8.5 19.5t28.5 7.5q9 0 18 -1t14 -3v-627q0 -12 -8.5 -19.5t-28.5 -7.5zM23 689q-12 0 -21 2t-14 4l91 126q12 20 36 20q27 0 39 -20l92 -127q-6 -2 -16 -3.5t-18 -1.5q-21 0 -32 15l-63 90l-61 -89q-11 -16 -33 -16z"/>
<glyph unicode="Ï" horiz-adv-x="229" d="M112 -6q-9 0 -18 1t-14 3v627q0 12 8.5 19.5t28.5 7.5q9 0 18 -1t14 -3v-627q0 -12 -8.5 -19.5t-28.5 -7.5zM31 706q-18 0 -30.5 12.5t-12.5 30.5t12.5 31t30.5 13t31 -13t13 -31t-13 -30.5t-31 -12.5zM200 706q-18 0 -30.5 12.5t-12.5 30.5t12.5 31t30.5 13 q19 0 31.5 -13t12.5 -31t-12.5 -30.5t-31.5 -12.5z"/>
<glyph unicode="Ð" horiz-adv-x="644" d="M121 0q-20 0 -25.5 8t-5.5 20v272h-87q-1 5 -2.5 13t-1.5 16q0 17 7.5 24t18.5 7h65v262q0 12 5.5 20t25.5 8h149q78 0 141 -22.5t107.5 -64.5t68.5 -101t24 -132q0 -69 -24 -129t-68.5 -104.5t-107.5 -70.5t-141 -26h-149zM159 61h114q54 0 102.5 17t85 51.5t58 85 t21.5 118.5q0 70 -25 119t-67 79.5t-97 44t-115 13.5h-77v-229h157q1 -5 2.5 -13t1.5 -16q0 -17 -7.5 -24t-18.5 -7h-135v-239z"/>
<glyph unicode="Ñ" horiz-adv-x="660" d="M111 -5q-9 0 -17.5 1t-13.5 3v646q19 7 40 7q27 0 39.5 -7t20.5 -21l336 -533v536q0 11 8.5 18t25.5 7q9 0 17 -1t13 -3v-645q-8 -3 -18 -4.5t-20 -1.5q-25 0 -35.5 6.5t-18.5 19.5l-342 542v-544q0 -11 -8.5 -18.5t-26.5 -7.5zM382 694q-17 0 -32.5 9t-29.5 19.5 l-26 19.5t-21 9q-11 0 -16.5 -8t-10.5 -17.5t-11.5 -17.5t-18.5 -8q-16 0 -29 16q11 44 32 67.5t56 23.5q18 0 33.5 -9t29 -20.5t25 -20.5t22.5 -9q9 0 15 8.5t11 18t12 18t18 8.5q16 0 31 -16q-15 -46 -34.5 -68.5t-55.5 -22.5z"/>
<glyph unicode="Ò" horiz-adv-x="687" d="M344 -11q-68 0 -125.5 26.5t-98.5 72t-64 107t-23 132.5q0 70 23 131t64 106t98.5 71t125.5 26q67 0 124 -25.5t98.5 -70.5t64.5 -106.5t23 -131.5q0 -71 -23 -132.5t-64.5 -107t-98.5 -72t-124 -26.5zM343 50q49 0 92.5 21.5t76 58.5t51.5 87.5t19 109.5q0 58 -19 108 t-51.5 86.5t-76 57.5t-91.5 21q-49 0 -92.5 -20.5t-76 -57t-51.5 -86.5t-19 -109q0 -60 19 -111t51 -88t75.5 -57.5t92.5 -20.5zM383 686q-10 0 -21 3.5t-23 12.5l-69 55q-31 22 -31 47q0 28 34 39l148 -141q-6 -7 -16 -11.5t-22 -4.5z"/>
<glyph unicode="Ó" horiz-adv-x="687" d="M344 -11q-68 0 -125.5 26.5t-98.5 72t-64 107t-23 132.5q0 70 23 131t64 106t98.5 71t125.5 26q67 0 124 -25.5t98.5 -70.5t64.5 -106.5t23 -131.5q0 -71 -23 -132.5t-64.5 -107t-98.5 -72t-124 -26.5zM343 50q49 0 92.5 21.5t76 58.5t51.5 87.5t19 109.5q0 58 -19 108 t-51.5 86.5t-76 57.5t-91.5 21q-49 0 -92.5 -20.5t-76 -57t-51.5 -86.5t-19 -109q0 -60 19 -111t51 -88t75.5 -57.5t92.5 -20.5zM283 686q-12 0 -22 4.5t-16 11.5l148 141q34 -11 34 -39q0 -25 -31 -47l-69 -55q-12 -9 -23 -12.5t-21 -3.5z"/>
<glyph unicode="Ô" horiz-adv-x="687" d="M344 -11q-68 0 -125.5 26.5t-98.5 72t-64 107t-23 132.5q0 70 23 131t64 106t98.5 71t125.5 26q67 0 124 -25.5t98.5 -70.5t64.5 -106.5t23 -131.5q0 -71 -23 -132.5t-64.5 -107t-98.5 -72t-124 -26.5zM343 50q49 0 92.5 21.5t76 58.5t51.5 87.5t19 109.5q0 58 -19 108 t-51.5 86.5t-76 57.5t-91.5 21q-49 0 -92.5 -20.5t-76 -57t-51.5 -86.5t-19 -109q0 -60 19 -111t51 -88t75.5 -57.5t92.5 -20.5zM250 689q-12 0 -21 2t-14 4l91 126q12 20 36 20q27 0 39 -20l92 -127q-6 -2 -16 -3.5t-18 -1.5q-21 0 -32 15l-63 90l-61 -89q-11 -16 -33 -16z "/>
<glyph unicode="Õ" horiz-adv-x="687" d="M344 -11q-68 0 -125.5 26.5t-98.5 72t-64 107t-23 132.5q0 70 23 131t64 106t98.5 71t125.5 26q67 0 124 -25.5t98.5 -70.5t64.5 -106.5t23 -131.5q0 -71 -23 -132.5t-64.5 -107t-98.5 -72t-124 -26.5zM343 50q49 0 92.5 21.5t76 58.5t51.5 87.5t19 109.5q0 58 -19 108 t-51.5 86.5t-76 57.5t-91.5 21q-49 0 -92.5 -20.5t-76 -57t-51.5 -86.5t-19 -109q0 -60 19 -111t51 -88t75.5 -57.5t92.5 -20.5zM396 694q-17 0 -32.5 9t-29.5 19.5l-26 19.5t-21 9q-11 0 -16.5 -8t-10.5 -17.5t-11.5 -17.5t-18.5 -8q-16 0 -29 16q11 44 32 67.5t56 23.5 q18 0 33.5 -9t29 -20.5t25 -20.5t22.5 -9q9 0 15 8.5t11 18t12 18t18 8.5q16 0 31 -16q-15 -46 -34.5 -68.5t-55.5 -22.5z"/>
<glyph unicode="Ö" horiz-adv-x="687" d="M344 -11q-68 0 -125.5 26.5t-98.5 72t-64 107t-23 132.5q0 70 23 131t64 106t98.5 71t125.5 26q67 0 124 -25.5t98.5 -70.5t64.5 -106.5t23 -131.5q0 -71 -23 -132.5t-64.5 -107t-98.5 -72t-124 -26.5zM343 50q49 0 92.5 21.5t76 58.5t51.5 87.5t19 109.5q0 58 -19 108 t-51.5 86.5t-76 57.5t-91.5 21q-49 0 -92.5 -20.5t-76 -57t-51.5 -86.5t-19 -109q0 -60 19 -111t51 -88t75.5 -57.5t92.5 -20.5zM258 706q-18 0 -30.5 12.5t-12.5 30.5t12.5 31t30.5 13t31 -13t13 -31t-13 -30.5t-31 -12.5zM427 706q-18 0 -30.5 12.5t-12.5 30.5t12.5 31 t30.5 13q19 0 31.5 -13t12.5 -31t-12.5 -30.5t-31.5 -12.5z"/>
<glyph unicode="×" d="M471 32l-169 170l-157 -157q-8 -8 -16 -8q-12 0 -25 14q-7 6 -11 12t-7 11l172 172l-156 155q-8 9 -8 18q0 10 14 23q6 6 12 10.5t11 6.5l171 -169l155 156q9 9 18 9q10 0 23 -15q6 -6 10.5 -12t6.5 -11l-169 -171l154 -156q9 -9 9 -17q0 -10 -15 -24q-6 -6 -12 -10.5 t-11 -6.5z"/>
<glyph unicode="Ø" horiz-adv-x="695" d="M108 -26q-8 0 -17.5 2.5t-15.5 5.5l63 90q-48 47 -74.5 112.5t-26.5 142.5q0 70 23 131t64 106t98 71t125 26q48 0 89 -13t76 -36l28 40q7 11 16 18.5t25 7.5q8 0 18 -2t18 -5l-62 -91q48 -46 75.5 -111t27.5 -142q0 -71 -23 -132.5t-64.5 -107t-98.5 -72t-125 -26.5 q-47 0 -89 13.5t-77 36.5l-26 -36q-8 -12 -18.5 -20.5t-28.5 -8.5zM347 50q48 0 91.5 21t76 58.5t52 88t19.5 109.5q0 54 -18.5 106t-54.5 88l-295 -429q28 -20 60.5 -31t68.5 -11zM179 129l294 429q-27 20 -59 31t-67 11q-49 0 -92 -20.5t-75.5 -57t-51.5 -86.5t-19 -109 q0 -61 18.5 -111.5t51.5 -86.5z"/>
<glyph unicode="Ù" horiz-adv-x="646" d="M322 -12q-64 0 -112 22t-80 60t-48 89t-16 110v356q0 12 8.5 19.5t28.5 7.5q9 0 18 -1t14 -3v-384q0 -47 12 -86.5t35.5 -67.5t58.5 -43.5t81 -15.5q44 0 79.5 15.5t60 43t37.5 67t13 87.5v361q0 12 8 19.5t28 7.5q9 0 18 -1t14 -3v-380q0 -58 -16.5 -109t-49 -89 t-81 -60t-111.5 -22zM368 686q-10 0 -21 3.5t-23 12.5l-69 55q-31 22 -31 47q0 28 34 39l148 -141q-6 -7 -16 -11.5t-22 -4.5z"/>
<glyph unicode="Ú" horiz-adv-x="646" d="M322 -12q-64 0 -112 22t-80 60t-48 89t-16 110v356q0 12 8.5 19.5t28.5 7.5q9 0 18 -1t14 -3v-384q0 -47 12 -86.5t35.5 -67.5t58.5 -43.5t81 -15.5q44 0 79.5 15.5t60 43t37.5 67t13 87.5v361q0 12 8 19.5t28 7.5q9 0 18 -1t14 -3v-380q0 -58 -16.5 -109t-49 -89 t-81 -60t-111.5 -22zM311 686q-12 0 -22 4.5t-16 11.5l148 141q34 -11 34 -39q0 -25 -31 -47l-69 -55q-12 -9 -23 -12.5t-21 -3.5z"/>
<glyph unicode="Û" horiz-adv-x="646" d="M322 -12q-64 0 -112 22t-80 60t-48 89t-16 110v356q0 12 8.5 19.5t28.5 7.5q9 0 18 -1t14 -3v-384q0 -47 12 -86.5t35.5 -67.5t58.5 -43.5t81 -15.5q44 0 79.5 15.5t60 43t37.5 67t13 87.5v361q0 12 8 19.5t28 7.5q9 0 18 -1t14 -3v-380q0 -58 -16.5 -109t-49 -89 t-81 -60t-111.5 -22zM244 689q-12 0 -21 2t-14 4l91 126q12 20 36 20q27 0 39 -20l92 -127q-6 -2 -16 -3.5t-18 -1.5q-21 0 -32 15l-63 90l-61 -89q-11 -16 -33 -16z"/>
<glyph unicode="Ü" horiz-adv-x="646" d="M322 -12q-64 0 -112 22t-80 60t-48 89t-16 110v356q0 12 8.5 19.5t28.5 7.5q9 0 18 -1t14 -3v-384q0 -47 12 -86.5t35.5 -67.5t58.5 -43.5t81 -15.5q44 0 79.5 15.5t60 43t37.5 67t13 87.5v361q0 12 8 19.5t28 7.5q9 0 18 -1t14 -3v-380q0 -58 -16.5 -109t-49 -89 t-81 -60t-111.5 -22zM252 705q-18 0 -30.5 12.5t-12.5 30.5t12.5 31t30.5 13t31 -13t13 -31t-13 -30.5t-31 -12.5zM421 705q-18 0 -30.5 12.5t-12.5 30.5t12.5 31t30.5 13q19 0 31.5 -13t12.5 -31t-12.5 -30.5t-31.5 -12.5z"/>
<glyph unicode="Ý" horiz-adv-x="534" d="M266 -6q-9 0 -18 1t-14 3v286l-235 358q8 5 19 7.5t22 2.5q14 0 25 -4.5t19 -15.5l185 -287l183 285q9 14 20.5 19t26.5 5q22 0 38 -8l-234 -361v-264q0 -12 -8.5 -19.5t-28.5 -7.5zM260 686q-12 0 -22 4.5t-16 11.5l148 141q34 -11 34 -39q0 -25 -31 -47l-69 -55 q-12 -9 -23 -12.5t-21 -3.5z"/>
<glyph unicode="Þ" horiz-adv-x="529" d="M112 -6q-9 0 -18 1t-14 3v627q0 12 8.5 19.5t28.5 7.5q8 0 17.5 -1t14.5 -3v-102h116q58 0 102.5 -16.5t75.5 -45t47 -67.5t16 -84q0 -46 -16.5 -84.5t-47.5 -66t-75 -43t-99 -15.5h-119v-103q0 -12 -8.5 -19.5t-28.5 -7.5zM149 185h110q86 0 131 39t45 109t-45.5 110.5 t-128.5 40.5h-112v-299z"/>
<glyph unicode="ß" horiz-adv-x="593" d="M371 -7q-41 0 -81 8t-76 24q-5 22 3.5 36t23.5 14q10 0 21.5 -4t26.5 -9t35 -9t49 -4q63 0 91.5 22.5t28.5 57.5q0 25 -16.5 41t-41.5 28t-54 24t-54 29t-41.5 42t-16.5 65q0 50 35.5 84t95.5 43q2 8 3 15.5t1 15.5q0 49 -35.5 83t-104.5 34q-131 0 -131 -120v-492 q0 -12 -7.5 -19.5t-27.5 -7.5q-9 0 -17.5 1t-13.5 3v523q0 44 15 76t41 53t62 31t77 10q52 0 90 -14.5t63 -39.5t37 -57t12 -68q0 -19 -4 -41.5t-12 -36.5q-57 -2 -85 -21.5t-28 -50.5q0 -29 16.5 -47.5t41.5 -31.5t54.5 -24t54.5 -27t41.5 -39.5t16.5 -61.5q0 -28 -11 -53 t-34.5 -44t-59 -30t-84.5 -11z"/>
<glyph unicode="à" horiz-adv-x="512" d="M204 -9q-42 0 -73.5 11.5t-52.5 31.5t-31 46.5t-10 55.5q0 69 48.5 111t156.5 42q61 0 142 -15v41q0 61 -28 87.5t-96 26.5q-36 0 -61 -4t-42.5 -9t-29.5 -9t-22 -4q-15 0 -23 13.5t-4 39.5q25 8 74.5 19t109.5 11q55 0 91 -13t57 -37.5t29.5 -60t8.5 -80.5v-104 q0 -33 1 -58t4.5 -46t9.5 -41t15 -43q-7 -4 -14.5 -6.5t-18.5 -2.5q-14 0 -23 6t-13 15q-5 10 -9.5 28.5t-7.5 44.5h-2q-26 -41 -71.5 -69t-114.5 -28zM215 47q58 0 100 27t69 78v75q-76 14 -128 14q-78 0 -115.5 -27t-37.5 -75q0 -41 30 -66.5t82 -25.5zM302 542 q-10 0 -21 3.5t-23 12.5l-69 55q-31 22 -31 47q0 28 34 39l148 -141q-6 -7 -16 -11.5t-22 -4.5z"/>
<glyph unicode="á" horiz-adv-x="512" d="M204 -9q-42 0 -73.5 11.5t-52.5 31.5t-31 46.5t-10 55.5q0 69 48.5 111t156.5 42q61 0 142 -15v41q0 61 -28 87.5t-96 26.5q-36 0 -61 -4t-42.5 -9t-29.5 -9t-22 -4q-15 0 -23 13.5t-4 39.5q25 8 74.5 19t109.5 11q55 0 91 -13t57 -37.5t29.5 -60t8.5 -80.5v-104 q0 -33 1 -58t4.5 -46t9.5 -41t15 -43q-7 -4 -14.5 -6.5t-18.5 -2.5q-14 0 -23 6t-13 15q-5 10 -9.5 28.5t-7.5 44.5h-2q-26 -41 -71.5 -69t-114.5 -28zM215 47q58 0 100 27t69 78v75q-76 14 -128 14q-78 0 -115.5 -27t-37.5 -75q0 -41 30 -66.5t82 -25.5zM215 542 q-12 0 -22 4.5t-16 11.5l148 141q34 -11 34 -39q0 -25 -31 -47l-69 -55q-12 -9 -23 -12.5t-21 -3.5z"/>
<glyph unicode="â" horiz-adv-x="512" d="M204 -9q-42 0 -73.5 11.5t-52.5 31.5t-31 46.5t-10 55.5q0 69 48.5 111t156.5 42q61 0 142 -15v41q0 61 -28 87.5t-96 26.5q-36 0 -61 -4t-42.5 -9t-29.5 -9t-22 -4q-15 0 -23 13.5t-4 39.5q25 8 74.5 19t109.5 11q55 0 91 -13t57 -37.5t29.5 -60t8.5 -80.5v-104 q0 -33 1 -58t4.5 -46t9.5 -41t15 -43q-7 -4 -14.5 -6.5t-18.5 -2.5q-14 0 -23 6t-13 15q-5 10 -9.5 28.5t-7.5 44.5h-2q-26 -41 -71.5 -69t-114.5 -28zM215 47q58 0 100 27t69 78v75q-76 14 -128 14q-78 0 -115.5 -27t-37.5 -75q0 -41 30 -66.5t82 -25.5zM163 541 q-12 0 -21 2t-14 4l91 126q12 20 36 20q27 0 39 -20l92 -127q-6 -2 -16 -3.5t-18 -1.5q-21 0 -32 15l-63 90l-61 -89q-11 -16 -33 -16z"/>
<glyph unicode="ã" horiz-adv-x="512" d="M204 -9q-42 0 -73.5 11.5t-52.5 31.5t-31 46.5t-10 55.5q0 69 48.5 111t156.5 42q61 0 142 -15v41q0 61 -28 87.5t-96 26.5q-36 0 -61 -4t-42.5 -9t-29.5 -9t-22 -4q-15 0 -23 13.5t-4 39.5q25 8 74.5 19t109.5 11q55 0 91 -13t57 -37.5t29.5 -60t8.5 -80.5v-104 q0 -33 1 -58t4.5 -46t9.5 -41t15 -43q-7 -4 -14.5 -6.5t-18.5 -2.5q-14 0 -23 6t-13 15q-5 10 -9.5 28.5t-7.5 44.5h-2q-26 -41 -71.5 -69t-114.5 -28zM215 47q58 0 100 27t69 78v75q-76 14 -128 14q-78 0 -115.5 -27t-37.5 -75q0 -41 30 -66.5t82 -25.5zM309 555 q-17 0 -32.5 9t-29.5 19.5l-26 19.5t-21 9q-11 0 -16.5 -8t-10.5 -17.5t-11.5 -17.5t-18.5 -8q-16 0 -29 16q11 44 32 67.5t56 23.5q18 0 33.5 -9t29 -20.5t25 -20.5t22.5 -9q9 0 15 8.5t11 18t12 18t18 8.5q16 0 31 -16q-15 -46 -34.5 -68.5t-55.5 -22.5z"/>
<glyph unicode="ä" horiz-adv-x="512" d="M204 -9q-42 0 -73.5 11.5t-52.5 31.5t-31 46.5t-10 55.5q0 69 48.5 111t156.5 42q61 0 142 -15v41q0 61 -28 87.5t-96 26.5q-36 0 -61 -4t-42.5 -9t-29.5 -9t-22 -4q-15 0 -23 13.5t-4 39.5q25 8 74.5 19t109.5 11q55 0 91 -13t57 -37.5t29.5 -60t8.5 -80.5v-104 q0 -33 1 -58t4.5 -46t9.5 -41t15 -43q-7 -4 -14.5 -6.5t-18.5 -2.5q-14 0 -23 6t-13 15q-5 10 -9.5 28.5t-7.5 44.5h-2q-26 -41 -71.5 -69t-114.5 -28zM215 47q58 0 100 27t69 78v75q-76 14 -128 14q-78 0 -115.5 -27t-37.5 -75q0 -41 30 -66.5t82 -25.5zM171 565 q-18 0 -30.5 12.5t-12.5 30.5t12.5 31t30.5 13t31 -13t13 -31t-13 -30.5t-31 -12.5zM340 565q-18 0 -30.5 12.5t-12.5 30.5t12.5 31t30.5 13q19 0 31.5 -13t12.5 -31t-12.5 -30.5t-31.5 -12.5z"/>
<glyph unicode="å" horiz-adv-x="512" d="M204 -9q-42 0 -73.5 11.5t-52.5 31.5t-31 46.5t-10 55.5q0 69 48.5 111t156.5 42q61 0 142 -15v41q0 61 -28 87.5t-96 26.5q-36 0 -61 -4t-42.5 -9t-29.5 -9t-22 -4q-15 0 -23 13.5t-4 39.5q25 8 74.5 19t109.5 11q55 0 91 -13t57 -37.5t29.5 -60t8.5 -80.5v-104 q0 -33 1 -58t4.5 -46t9.5 -41t15 -43q-7 -4 -14.5 -6.5t-18.5 -2.5q-14 0 -23 6t-13 15q-5 10 -9.5 28.5t-7.5 44.5h-2q-26 -41 -71.5 -69t-114.5 -28zM215 47q58 0 100 27t69 78v75q-76 14 -128 14q-78 0 -115.5 -27t-37.5 -75q0 -41 30 -66.5t82 -25.5zM257 528 q-42 0 -71 27t-29 70q0 21 8 38.5t22 30.5t32.5 20.5t39.5 7.5q42 0 70.5 -27.5t28.5 -69.5q0 -43 -29.5 -70t-71.5 -27zM258 567q23 0 39 16.5t16 41.5q0 26 -16 42.5t-39 16.5t-39.5 -16.5t-16.5 -42.5t16.5 -42t39.5 -16z"/>
<glyph unicode="æ" horiz-adv-x="844" d="M614 -11q-76 0 -126 31t-74 74q-30 -42 -81 -72.5t-128 -30.5q-44 0 -75.5 10.5t-52 29t-30.5 43t-10 52.5q0 32 12 58.5t40.5 45.5t77 29.5t121.5 10.5q39 0 89 -3q3 42 -5 73t-25 50.5t-43 29t-57 9.5q-32 0 -54.5 -4t-39.5 -9t-29 -9t-22 -4q-14 0 -22 13.5t-5 39.5 q23 8 66 19t101 11q72 0 114 -29t57 -80q23 45 68.5 77t113.5 32q54 0 95 -20.5t68 -54.5t41 -76.5t14 -86.5v-16t-2 -15h-373q1 -40 15 -71.5t37 -53t54.5 -33t67.5 -11.5q30 0 53 4.5t40.5 10.5t30.5 10.5t24 4.5q14 0 22.5 -12.5t4.5 -34.5q-28 -14 -73.5 -28t-99.5 -14z M212 47q116 0 175 99q-5 13 -8 34.5t-3 37.5q-47 3 -82 3q-56 0 -92.5 -6t-58.5 -18t-30.5 -29.5t-8.5 -39.5q0 -38 28 -59.5t80 -21.5zM439 266h310q-2 34 -13.5 64t-31 52.5t-47 35.5t-62.5 13q-34 0 -61.5 -12.5t-47.5 -35t-32 -52.5t-15 -65z"/>
<glyph unicode="ç" horiz-adv-x="449" d="M240 -207q-25 0 -48.5 7.5t-40.5 16.5q0 11 6 21.5t17 10.5q13 0 27.5 -7t40.5 -7q23 0 40 12t17 35q0 16 -14.5 29t-50.5 13h-5q-17 0 -23 10.5t-1 22.5l13 40q-43 8 -77.5 30t-58.5 53.5t-36.5 71.5t-12.5 85q0 51 16.5 96t47.5 78.5t75 52.5t98 19q51 0 86.5 -10.5 t64.5 -26.5q2 -23 -7 -36t-23 -13q-9 0 -18.5 4.5t-22.5 9.5t-31.5 9.5t-45.5 4.5q-35 0 -66 -12.5t-54.5 -36.5t-37.5 -59t-14 -80q0 -44 14 -78.5t37.5 -58.5t54.5 -36.5t66 -12.5q28 0 48.5 4.5t35 10t24.5 10t18 4.5q16 0 24 -12.5t6 -37.5q-17 -9 -34 -16t-36 -12 t-40.5 -7.5t-48.5 -2.5h-11l-10 -30q27 -1 46 -8.5t30 -19.5t16 -25.5t5 -26.5q0 -44 -31.5 -66.5t-74.5 -22.5z"/>
<glyph unicode="è" horiz-adv-x="509" d="M279 -11q-58 0 -104 19t-77.5 53t-48 79t-16.5 98t17.5 98.5t48.5 78.5t72.5 52t89.5 19q55 0 96 -21.5t67.5 -54.5t39.5 -73t13 -77q0 -32 -3 -44h-375q2 -41 16.5 -72t38.5 -52.5t55.5 -32.5t67.5 -11q30 0 52.5 5t40 11t30.5 11t24 5q14 0 23 -13.5t5 -35.5 q-27 -14 -72.5 -28t-100.5 -14zM100 266h314q-2 34 -13.5 64t-31 52.5t-47 35.5t-61.5 13t-62.5 -12.5t-49.5 -35t-33.5 -52.5t-15.5 -65zM306 542q-10 0 -21 3.5t-23 12.5l-69 55q-31 22 -31 47q0 28 34 39l148 -141q-6 -7 -16 -11.5t-22 -4.5z"/>
<glyph unicode="é" horiz-adv-x="509" d="M279 -11q-58 0 -104 19t-77.5 53t-48 79t-16.5 98t17.5 98.5t48.5 78.5t72.5 52t89.5 19q55 0 96 -21.5t67.5 -54.5t39.5 -73t13 -77q0 -32 -3 -44h-375q2 -41 16.5 -72t38.5 -52.5t55.5 -32.5t67.5 -11q30 0 52.5 5t40 11t30.5 11t24 5q14 0 23 -13.5t5 -35.5 q-27 -14 -72.5 -28t-100.5 -14zM100 266h314q-2 34 -13.5 64t-31 52.5t-47 35.5t-61.5 13t-62.5 -12.5t-49.5 -35t-33.5 -52.5t-15.5 -65zM224 542q-12 0 -22 4.5t-16 11.5l148 141q34 -11 34 -39q0 -25 -31 -47l-69 -55q-12 -9 -23 -12.5t-21 -3.5z"/>
<glyph unicode="ê" horiz-adv-x="509" d="M279 -11q-58 0 -104 19t-77.5 53t-48 79t-16.5 98t17.5 98.5t48.5 78.5t72.5 52t89.5 19q55 0 96 -21.5t67.5 -54.5t39.5 -73t13 -77q0 -32 -3 -44h-375q2 -41 16.5 -72t38.5 -52.5t55.5 -32.5t67.5 -11q30 0 52.5 5t40 11t30.5 11t24 5q14 0 23 -13.5t5 -35.5 q-27 -14 -72.5 -28t-100.5 -14zM100 266h314q-2 34 -13.5 64t-31 52.5t-47 35.5t-61.5 13t-62.5 -12.5t-49.5 -35t-33.5 -52.5t-15.5 -65zM161 541q-12 0 -21 2t-14 4l91 126q12 20 36 20q27 0 39 -20l92 -127q-6 -2 -16 -3.5t-18 -1.5q-21 0 -32 15l-63 90l-61 -89 q-11 -16 -33 -16z"/>
<glyph unicode="ë" horiz-adv-x="509" d="M279 -11q-58 0 -104 19t-77.5 53t-48 79t-16.5 98t17.5 98.5t48.5 78.5t72.5 52t89.5 19q55 0 96 -21.5t67.5 -54.5t39.5 -73t13 -77q0 -32 -3 -44h-375q2 -41 16.5 -72t38.5 -52.5t55.5 -32.5t67.5 -11q30 0 52.5 5t40 11t30.5 11t24 5q14 0 23 -13.5t5 -35.5 q-27 -14 -72.5 -28t-100.5 -14zM100 266h314q-2 34 -13.5 64t-31 52.5t-47 35.5t-61.5 13t-62.5 -12.5t-49.5 -35t-33.5 -52.5t-15.5 -65zM169 565q-18 0 -30.5 12.5t-12.5 30.5t12.5 31t30.5 13t31 -13t13 -31t-13 -30.5t-31 -12.5zM338 565q-18 0 -30.5 12.5t-12.5 30.5 t12.5 31t30.5 13q19 0 31.5 -13t12.5 -31t-12.5 -30.5t-31.5 -12.5z"/>
<glyph unicode="ì" horiz-adv-x="214" d="M104 -6q-9 0 -18 1t-14 3v453q0 12 7.5 19.5t27.5 7.5q9 0 18 -1t14 -3v-453q0 -12 -7.5 -19.5t-27.5 -7.5zM136 542q-10 0 -21 3.5t-23 12.5l-69 55q-31 22 -31 47q0 28 34 39l148 -141q-6 -7 -16 -11.5t-22 -4.5z"/>
<glyph unicode="í" horiz-adv-x="214" d="M104 -6q-9 0 -18 1t-14 3v453q0 12 7.5 19.5t27.5 7.5q9 0 18 -1t14 -3v-453q0 -12 -7.5 -19.5t-27.5 -7.5zM96 542q-12 0 -22 4.5t-16 11.5l148 141q34 -11 34 -39q0 -25 -31 -47l-69 -55q-12 -9 -23 -12.5t-21 -3.5z"/>
<glyph unicode="î" horiz-adv-x="214" d="M104 -6q-9 0 -18 1t-14 3v453q0 12 7.5 19.5t27.5 7.5q9 0 18 -1t14 -3v-453q0 -12 -7.5 -19.5t-27.5 -7.5zM23 541q-12 0 -21 2t-14 4l91 126q12 20 36 20q27 0 39 -20l92 -127q-6 -2 -16 -3.5t-18 -1.5q-21 0 -32 15l-63 90l-61 -89q-11 -16 -33 -16z"/>
<glyph unicode="ï" horiz-adv-x="214" d="M104 -6q-9 0 -18 1t-14 3v453q0 12 7.5 19.5t27.5 7.5q9 0 18 -1t14 -3v-453q0 -12 -7.5 -19.5t-27.5 -7.5zM33 565q-18 0 -30.5 12.5t-12.5 30.5t12.5 31t30.5 13t31 -13t13 -31t-13 -30.5t-31 -12.5zM202 565q-18 0 -30.5 12.5t-12.5 30.5t12.5 31t30.5 13 q19 0 31.5 -13t12.5 -31t-12.5 -30.5t-31.5 -12.5z"/>
<glyph unicode="ð" horiz-adv-x="586" d="M268 -9q-53 0 -96.5 18.5t-74 51t-47.5 77t-17 96.5q0 50 17.5 93t48.5 75t73.5 50t93.5 18q49 0 91 -16.5t77 -47.5q-13 54 -40.5 94.5t-70.5 69.5l-122 -63q-9 -5 -14 -5q-7 0 -14 16q-7 13 -7 26l105 54q-14 7 -29.5 12.5t-32.5 10.5q-20 5 -20 26q0 15 13 35 q77 -20 131 -52l76 39q9 5 14 5t8.5 -3t8.5 -14q3 -6 4 -13t1 -11l-66 -34q68 -55 100 -134.5t32 -180.5q0 -65 -17.5 -119t-49 -92.5t-76.5 -60t-100 -21.5zM267 48q49 0 83 20.5t55.5 53.5t31 75t9.5 84q0 14 -1 27t-3 26q-31 38 -76.5 59.5t-92.5 21.5q-32 0 -63 -11.5 t-56 -34t-40 -56.5t-15 -79q0 -47 15 -81.5t39 -58t54 -35t60 -11.5z"/>
<glyph unicode="ñ" horiz-adv-x="540" d="M99 -6q-9 0 -18 1t-14 3v475q15 5 28 5q38 0 38 -44v-28h2q26 35 66.5 57.5t95.5 22.5q87 0 133 -55.5t46 -146.5v-263q0 -12 -7.5 -19.5t-27.5 -7.5q-9 0 -18 1t-14 3v279q0 78 -35.5 114.5t-95.5 36.5q-20 0 -41.5 -6t-41 -17.5t-35.5 -27.5t-26 -36v-320 q0 -12 -7.5 -19.5t-27.5 -7.5zM323 555q-17 0 -32.5 9t-29.5 19.5l-26 19.5t-21 9q-11 0 -16.5 -8t-10.5 -17.5t-11.5 -17.5t-18.5 -8q-16 0 -29 16q11 44 32 67.5t56 23.5q18 0 33.5 -9t29 -20.5t25 -20.5t22.5 -9q9 0 15 8.5t11 18t12 18t18 8.5q16 0 31 -16 q-15 -46 -34.5 -68.5t-55.5 -22.5z"/>
<glyph unicode="ò" horiz-adv-x="540" d="M272 -9q-54 0 -98 19t-75.5 52t-48.5 78t-17 98q0 50 17 95t48.5 79t75.5 54t98 20t97 -20t74 -54t47.5 -79t16.5 -95q0 -51 -16.5 -95.5t-47 -78.5t-74 -53.5t-97.5 -19.5zM272 48q30 0 60 11.5t54 35t39.5 59.5t15.5 84q0 45 -14 80.5t-37 60t-53.5 37.5t-64.5 13 q-32 0 -63 -13t-55.5 -37.5t-39.5 -60t-15 -80.5q0 -48 15 -83.5t39.5 -59.5t55.5 -35.5t63 -11.5zM317 542q-10 0 -21 3.5t-23 12.5l-69 55q-31 22 -31 47q0 28 34 39l148 -141q-6 -7 -16 -11.5t-22 -4.5z"/>
<glyph unicode="ó" horiz-adv-x="540" d="M272 -9q-54 0 -98 19t-75.5 52t-48.5 78t-17 98q0 50 17 95t48.5 79t75.5 54t98 20t97 -20t74 -54t47.5 -79t16.5 -95q0 -51 -16.5 -95.5t-47 -78.5t-74 -53.5t-97.5 -19.5zM272 48q30 0 60 11.5t54 35t39.5 59.5t15.5 84q0 45 -14 80.5t-37 60t-53.5 37.5t-64.5 13 q-32 0 -63 -13t-55.5 -37.5t-39.5 -60t-15 -80.5q0 -48 15 -83.5t39.5 -59.5t55.5 -35.5t63 -11.5zM226 542q-12 0 -22 4.5t-16 11.5l148 141q34 -11 34 -39q0 -25 -31 -47l-69 -55q-12 -9 -23 -12.5t-21 -3.5z"/>
<glyph unicode="ô" horiz-adv-x="540" d="M272 -9q-54 0 -98 19t-75.5 52t-48.5 78t-17 98q0 50 17 95t48.5 79t75.5 54t98 20t97 -20t74 -54t47.5 -79t16.5 -95q0 -51 -16.5 -95.5t-47 -78.5t-74 -53.5t-97.5 -19.5zM272 48q30 0 60 11.5t54 35t39.5 59.5t15.5 84q0 45 -14 80.5t-37 60t-53.5 37.5t-64.5 13 q-32 0 -63 -13t-55.5 -37.5t-39.5 -60t-15 -80.5q0 -48 15 -83.5t39.5 -59.5t55.5 -35.5t63 -11.5zM177 541q-12 0 -21 2t-14 4l91 126q12 20 36 20q27 0 39 -20l92 -127q-6 -2 -16 -3.5t-18 -1.5q-21 0 -32 15l-63 90l-61 -89q-11 -16 -33 -16z"/>
<glyph unicode="õ" horiz-adv-x="540" d="M272 -9q-54 0 -98 19t-75.5 52t-48.5 78t-17 98q0 50 17 95t48.5 79t75.5 54t98 20t97 -20t74 -54t47.5 -79t16.5 -95q0 -51 -16.5 -95.5t-47 -78.5t-74 -53.5t-97.5 -19.5zM272 48q30 0 60 11.5t54 35t39.5 59.5t15.5 84q0 45 -14 80.5t-37 60t-53.5 37.5t-64.5 13 q-32 0 -63 -13t-55.5 -37.5t-39.5 -60t-15 -80.5q0 -48 15 -83.5t39.5 -59.5t55.5 -35.5t63 -11.5zM322 554q-17 0 -32.5 9t-29.5 19.5l-26 19.5t-21 9q-11 0 -16.5 -8t-10.5 -17.5t-11.5 -17.5t-18.5 -8q-16 0 -29 16q11 44 32 67.5t56 23.5q18 0 33.5 -9t29 -20.5 t25 -20.5t22.5 -9q9 0 15 8.5t11 18t12 18t18 8.5q16 0 31 -16q-15 -46 -34.5 -68.5t-55.5 -22.5z"/>
<glyph unicode="ö" horiz-adv-x="540" d="M272 -9q-54 0 -98 19t-75.5 52t-48.5 78t-17 98q0 50 17 95t48.5 79t75.5 54t98 20t97 -20t74 -54t47.5 -79t16.5 -95q0 -51 -16.5 -95.5t-47 -78.5t-74 -53.5t-97.5 -19.5zM272 48q30 0 60 11.5t54 35t39.5 59.5t15.5 84q0 45 -14 80.5t-37 60t-53.5 37.5t-64.5 13 q-32 0 -63 -13t-55.5 -37.5t-39.5 -60t-15 -80.5q0 -48 15 -83.5t39.5 -59.5t55.5 -35.5t63 -11.5zM185 565q-18 0 -30.5 12.5t-12.5 30.5t12.5 31t30.5 13t31 -13t13 -31t-13 -30.5t-31 -12.5zM354 565q-18 0 -30.5 12.5t-12.5 30.5t12.5 31t30.5 13q19 0 31.5 -13 t12.5 -31t-12.5 -30.5t-31.5 -12.5z"/>
<glyph unicode="÷" d="M304 35q-19 0 -33 14.5t-14 33.5q0 20 14 34t33 14q20 0 34 -14t14 -34q0 -19 -14 -33.5t-34 -14.5zM58 231q-1 5 -2 13t-1 17q0 18 7.5 25t20.5 7h461q1 -5 2 -13t1 -17q0 -18 -7.5 -25t-20.5 -7h-461zM303 394q-18 0 -32.5 14.5t-14.5 32.5q0 20 14.5 34t32.5 14 q20 0 34 -14t14 -34q0 -18 -14 -32.5t-34 -14.5z"/>
<glyph unicode="ø" horiz-adv-x="555" d="M85 -33q-6 0 -14 2.5t-13 5.5l56 79q-35 34 -54.5 80.5t-19.5 103.5q0 50 17.5 95t49 79t75.5 54t97 20q34 0 63.5 -8.5t54.5 -22.5l25 36q9 14 17.5 19t24.5 5q8 0 17 -2.5t14 -5.5l-58 -81q38 -35 58 -83.5t20 -104.5q0 -51 -16.5 -95.5t-47 -78.5t-74.5 -53.5 t-98 -19.5q-72 0 -126 33l-23 -33q-9 -14 -18 -19t-27 -5zM279 48q30 0 60.5 11.5t55 35.5t39.5 59.5t15 83.5q0 37 -12 74t-37 61l-212 -299q21 -14 44.5 -20t46.5 -6zM151 107l212 299q-18 11 -39.5 17t-44.5 6q-32 0 -63 -13t-55 -37.5t-39 -60t-15 -80.5q0 -43 12 -75.5 t32 -55.5z"/>
<glyph unicode="ù" horiz-adv-x="543" d="M245 -9q-38 0 -70.5 12t-57.5 36.5t-39 62.5t-14 90v259q0 12 7.5 19.5t27.5 7.5q9 0 18 -1t14 -3v-280q0 -74 36.5 -109.5t90.5 -35.5q42 0 80.5 22.5t67.5 70.5v309q0 12 7.5 19.5t27.5 7.5q9 0 18 -1t14 -3v-253q0 -48 3 -101.5t20 -116.5q-6 -3 -16 -5.5t-20 -2.5 q-27 0 -34 22q-2 6 -6 23t-7 40h-1q-29 -41 -70 -65t-97 -24zM332 542q-10 0 -21 3.5t-23 12.5l-69 55q-31 22 -31 47q0 28 34 39l148 -141q-6 -7 -16 -11.5t-22 -4.5z"/>
<glyph unicode="ú" horiz-adv-x="543" d="M245 -9q-38 0 -70.5 12t-57.5 36.5t-39 62.5t-14 90v259q0 12 7.5 19.5t27.5 7.5q9 0 18 -1t14 -3v-280q0 -74 36.5 -109.5t90.5 -35.5q42 0 80.5 22.5t67.5 70.5v309q0 12 7.5 19.5t27.5 7.5q9 0 18 -1t14 -3v-253q0 -48 3 -101.5t20 -116.5q-6 -3 -16 -5.5t-20 -2.5 q-27 0 -34 22q-2 6 -6 23t-7 40h-1q-29 -41 -70 -65t-97 -24zM240 542q-12 0 -22 4.5t-16 11.5l148 141q34 -11 34 -39q0 -25 -31 -47l-69 -55q-12 -9 -23 -12.5t-21 -3.5z"/>
<glyph unicode="û" horiz-adv-x="543" d="M245 -9q-38 0 -70.5 12t-57.5 36.5t-39 62.5t-14 90v259q0 12 7.5 19.5t27.5 7.5q9 0 18 -1t14 -3v-280q0 -74 36.5 -109.5t90.5 -35.5q42 0 80.5 22.5t67.5 70.5v309q0 12 7.5 19.5t27.5 7.5q9 0 18 -1t14 -3v-253q0 -48 3 -101.5t20 -116.5q-6 -3 -16 -5.5t-20 -2.5 q-27 0 -34 22q-2 6 -6 23t-7 40h-1q-29 -41 -70 -65t-97 -24zM179 541q-12 0 -21 2t-14 4l91 126q12 20 36 20q27 0 39 -20l92 -127q-6 -2 -16 -3.5t-18 -1.5q-21 0 -32 15l-63 90l-61 -89q-11 -16 -33 -16z"/>
<glyph unicode="ü" horiz-adv-x="543" d="M245 -9q-38 0 -70.5 12t-57.5 36.5t-39 62.5t-14 90v259q0 12 7.5 19.5t27.5 7.5q9 0 18 -1t14 -3v-280q0 -74 36.5 -109.5t90.5 -35.5q42 0 80.5 22.5t67.5 70.5v309q0 12 7.5 19.5t27.5 7.5q9 0 18 -1t14 -3v-253q0 -48 3 -101.5t20 -116.5q-6 -3 -16 -5.5t-20 -2.5 q-27 0 -34 22q-2 6 -6 23t-7 40h-1q-29 -41 -70 -65t-97 -24zM187 565q-18 0 -30.5 12.5t-12.5 30.5t12.5 31t30.5 13t31 -13t13 -31t-13 -30.5t-31 -12.5zM356 565q-18 0 -30.5 12.5t-12.5 30.5t12.5 31t30.5 13q19 0 31.5 -13t12.5 -31t-12.5 -30.5t-31.5 -12.5z"/>
<glyph unicode="ý" horiz-adv-x="447" d="M157 -193q-9 0 -19 2.5t-18 5.5l78 182l-194 473q8 3 16.5 5.5t18.5 2.5q16 0 27 -6t17 -22l146 -376h1l143 377q6 15 16.5 21t21.5 6q9 0 19 -2.5t18 -5.5l-253 -636q-6 -15 -16.5 -21t-21.5 -6zM212 542q-12 0 -22 4.5t-16 11.5l148 141q34 -11 34 -39q0 -25 -31 -47 l-69 -55q-12 -9 -23 -12.5t-21 -3.5z"/>
<glyph unicode="þ" horiz-adv-x="554" d="M99 -192q-9 0 -18 1t-14 3v841q0 12 7.5 19.5t27.5 7.5q9 0 18 -1.5t14 -3.5v-265q21 29 63.5 52.5t103.5 23.5q43 0 82.5 -16t70 -46.5t49 -76t18.5 -104.5q0 -54 -16 -100t-45 -79.5t-70.5 -53t-92.5 -19.5q-54 0 -97.5 23.5t-65.5 59.5v-239q0 -12 -7.5 -19.5 t-27.5 -7.5zM288 49q34 0 63.5 12.5t52 36.5t35.5 60t13 83q0 45 -13 79.5t-35 58.5t-52.5 36.5t-64.5 12.5q-51 0 -92 -25t-61 -67v-137q0 -32 12 -59.5t32.5 -47.5t48.5 -31.5t61 -11.5z"/>
<glyph unicode="ÿ" horiz-adv-x="447" d="M157 -193q-9 0 -19 2.5t-18 5.5l78 182l-194 473q8 3 16.5 5.5t18.5 2.5q16 0 27 -6t17 -22l146 -376h1l143 377q6 15 16.5 21t21.5 6q9 0 19 -2.5t18 -5.5l-253 -636q-6 -15 -16.5 -21t-21.5 -6zM144 565q-18 0 -30.5 12.5t-12.5 30.5t12.5 31t30.5 13t31 -13t13 -31 t-13 -30.5t-31 -12.5zM313 565q-18 0 -30.5 12.5t-12.5 30.5t12.5 31t30.5 13q19 0 31.5 -13t12.5 -31t-12.5 -30.5t-31.5 -12.5z"/>
<glyph unicode="ı" horiz-adv-x="214" d="M104 -6q-9 0 -18 1t-14 3v453q0 12 7.5 19.5t27.5 7.5q9 0 18 -1t14 -3v-453q0 -12 -7.5 -19.5t-27.5 -7.5z"/>
<glyph unicode="Œ" horiz-adv-x="871" d="M344 -9q-68 0 -125.5 26t-98.5 71.5t-64 106.5t-23 132q0 70 23 131t64 105.5t98.5 70t125.5 25.5q22 0 40.5 -1.5t35 -3t32.5 -3t33 -1.5h336q3 -11 3 -30q0 -18 -8 -25t-19 -7h-279v-233h276q2 -4 2.5 -12t0.5 -17q0 -18 -7.5 -24.5t-18.5 -6.5h-253v-233h309 q2 -5 2.5 -13t0.5 -16q0 -19 -7.5 -26t-18.5 -7h-317q-23 0 -64 -4.5t-79 -4.5zM345 52q31 0 54.5 3.5t49.5 11.5v517q-47 14 -104 14q-50 0 -93.5 -20.5t-76 -56.5t-51.5 -85.5t-19 -108.5q0 -60 19 -110.5t51.5 -87t76 -57t93.5 -20.5z"/>
<glyph unicode="œ" horiz-adv-x="916" d="M685 -11q-42 0 -76 10.5t-60.5 27.5t-45.5 38.5t-31 42.5q-12 -21 -29.5 -42t-42 -37.5t-56.5 -27t-72 -10.5q-54 0 -98 19t-75.5 52t-48.5 78t-17 98q0 50 17 95t48.5 79t75.5 54t98 20q40 0 72.5 -11.5t57.5 -28.5t42.5 -38.5t27.5 -40.5q10 19 28 40.5t43.5 38.5 t56.5 28.5t67 11.5q54 0 94.5 -20.5t68 -54.5t41.5 -76.5t14 -86.5q0 -8 -0.5 -16t-1.5 -15h-378q2 -41 16.5 -72t38.5 -53t55.5 -33t67.5 -11q30 0 53 4.5t40.5 10.5t31 10.5t24.5 4.5q14 0 22 -12.5t4 -34.5q-27 -14 -72.5 -28t-100.5 -14zM272 48q30 0 60 11.5t54 35 t39.5 59.5t15.5 84q0 45 -14 80.5t-37 60t-53.5 37.5t-64.5 13q-32 0 -63 -13t-55.5 -37.5t-39.5 -60t-15 -80.5q0 -48 15 -83.5t39.5 -59.5t55.5 -35.5t63 -11.5zM506 266h315q-3 34 -14.5 64t-31 52.5t-47 35.5t-61.5 13t-62.5 -12.5t-49.5 -35t-33.5 -52.5t-15.5 -65z "/>
<glyph unicode="Š" horiz-adv-x="525" d="M250 -11q-46 0 -99 8.5t-111 29.5q-2 25 9 38.5t30 13.5q12 0 28 -4.5t37.5 -10t49.5 -10t64 -4.5q42 0 72.5 10t49.5 26.5t28 39t9 46.5q0 50 -32 74.5t-86 39.5l-90 26q-46 13 -77.5 31t-51 40.5t-28.5 49t-9 56.5q0 29 10.5 59.5t35.5 55t66.5 40.5t103.5 16 q49 0 97 -8.5t101 -28.5q2 -25 -9 -38.5t-30 -13.5q-10 0 -24 4.5t-33.5 9.5t-45.5 9.5t-59 4.5q-41 0 -69 -10t-45 -26t-24 -35.5t-7 -37.5q0 -42 26.5 -67.5t95.5 -44.5l92 -26q84 -24 123.5 -68t39.5 -107q0 -42 -14.5 -76.5t-43.5 -59t-74 -38.5t-106 -14zM280 685 q-24 0 -36 20l-91 126q5 2 14 4t21 2t19 -3.5t13 -12.5l61 -89l62 90q11 15 34 15q8 0 18 -1.5t16 -3.5l-92 -127q-12 -20 -39 -20z"/>
<glyph unicode="š" horiz-adv-x="457" d="M228 -7q-50 0 -97 10t-93 27q-5 22 2.5 36t23.5 14q11 0 26 -5t35.5 -10.5t46 -10.5t56.5 -5q41 0 65.5 7.5t37.5 19.5t17 26t4 26q0 30 -21.5 45.5t-74.5 30.5l-84 23q-72 20 -103 52t-31 75q0 25 9 49t31 42.5t57 29.5t88 11q45 0 86 -8t86 -24q6 -49 -28 -49 q-9 0 -22 4t-30.5 9t-40 9t-51.5 4q-65 0 -92 -21t-27 -50q0 -12 3 -22.5t12.5 -19.5t27 -17t46.5 -16l81 -22q41 -11 68.5 -24t44.5 -29t24.5 -35.5t7.5 -44.5q0 -23 -7.5 -47t-28.5 -44t-58.5 -33t-96.5 -13zM220 521q-24 0 -36 20l-91 126q5 2 14 4t21 2t19 -3.5 t13 -12.5l61 -89l62 90q11 15 34 15q8 0 18 -1.5t16 -3.5l-92 -127q-12 -20 -39 -20z"/>
<glyph unicode="Ÿ" horiz-adv-x="534" d="M266 -6q-9 0 -18 1t-14 3v286l-235 358q8 5 19 7.5t22 2.5q14 0 25 -4.5t19 -15.5l185 -287l183 285q9 14 20.5 19t26.5 5q22 0 38 -8l-234 -361v-264q0 -12 -8.5 -19.5t-28.5 -7.5zM181 736q-18 0 -30.5 12.5t-12.5 30.5t12.5 31t30.5 13t31 -13t13 -31t-13 -30.5 t-31 -12.5zM350 736q-18 0 -30.5 12.5t-12.5 30.5t12.5 31t30.5 13q19 0 31.5 -13t12.5 -31t-12.5 -30.5t-31.5 -12.5z"/>
<glyph unicode="Ž" horiz-adv-x="519" d="M47 0q-2 6 -3.5 17.5t-1.5 21.5q0 16 4.5 29.5t15.5 29.5l343 491h-339q-12 0 -20 6.5t-8 25.5q0 9 1 16.5t2 12.5h434q1 -5 2.5 -15.5t1.5 -19.5q0 -13 -3.5 -28.5t-14.5 -27.5l-349 -498h367q2 -5 3 -12t1 -16q0 -19 -8 -26t-19 -7h-409zM266 686q-24 0 -36 20l-91 126 q5 2 14 4t21 2t19 -3.5t13 -12.5l61 -89l62 90q11 15 34 15q8 0 18 -1.5t16 -3.5l-92 -127q-12 -20 -39 -20z"/>
<glyph unicode="ž" horiz-adv-x="437" d="M32 0q-1 5 -2 12.5t-1 15.5q0 11 2.5 21.5t11.5 21.5l280 348h-262q-11 0 -18 6.5t-7 23.5q0 8 1 15t2 11h362q1 -4 2 -11.5t1 -14.5q0 -9 -2.5 -20.5t-10.5 -20.5l-284 -352h299q2 -10 2 -25q0 -18 -6.5 -24.5t-17.5 -6.5h-352zM216 518q-24 0 -36 20l-91 126q5 2 14 4 t21 2t19 -3.5t13 -12.5l61 -89l62 90q11 15 34 15q8 0 18 -1.5t16 -3.5l-92 -127q-12 -20 -39 -20z"/>
<glyph unicode="ƒ" horiz-adv-x="343" d="M-57 -151q-35 0 -66.5 10t-48.5 18q1 23 9.5 36t22.5 13q7 0 15 -2.5t17.5 -6t21.5 -6t28 -2.5q39 0 62 17.5t31 65.5l68 426h-99v11.5t1 13.5q3 17 10.5 23.5t18.5 6.5h77l11 62q14 81 61.5 118.5t114.5 37.5q37 0 71 -7.5t54 -15.5q-3 -27 -12.5 -38.5t-25.5 -11.5 q-7 0 -15.5 2.5t-19.5 5t-25.5 5t-34.5 2.5q-42 0 -69 -28.5t-35 -82.5l-8 -49h147q3 -9 3 -25q0 -17 -6.5 -23.5t-16.5 -6.5h-135l-67 -418q-7 -45 -22 -74t-36 -46.5t-47 -24t-55 -6.5z"/>
<glyph unicode="ˆ" horiz-adv-x="462" d="M151 541q-12 0 -21 2t-14 4l91 126q12 20 36 20q27 0 39 -20l92 -127q-6 -2 -16 -3.5t-18 -1.5q-21 0 -32 15l-63 90l-61 -89q-11 -16 -33 -16z"/>
<glyph unicode="˜" horiz-adv-x="407" d="M260 555q-17 0 -32.5 9t-29.5 19.5l-26 19.5t-21 9q-11 0 -16.5 -8t-10.5 -17.5t-11.5 -17.5t-18.5 -8q-16 0 -29 16q11 44 32 67.5t56 23.5q18 0 33.5 -9t29 -20.5t25 -20.5t22.5 -9q9 0 15 8.5t11 18t12 18t18 8.5q16 0 31 -16q-15 -46 -34.5 -68.5t-55.5 -22.5z"/>
<glyph unicode=" " horiz-adv-x="439"/>
<glyph unicode=" " horiz-adv-x="879"/>
<glyph unicode=" " horiz-adv-x="439"/>
<glyph unicode=" " horiz-adv-x="879"/>
<glyph unicode=" " horiz-adv-x="293"/>
<glyph unicode=" " horiz-adv-x="219"/>
<glyph unicode=" " horiz-adv-x="146"/>
<glyph unicode=" " horiz-adv-x="146"/>
<glyph unicode=" " horiz-adv-x="109"/>
<glyph unicode=" " horiz-adv-x="175"/>
<glyph unicode=" " horiz-adv-x="48"/>
<glyph unicode="‐" horiz-adv-x="339" d="M30 223q-1 5 -2.5 13.5t-1.5 16.5q0 17 8 24.5t19 7.5h256q2 -5 2.5 -13t0.5 -16q0 -19 -7.5 -26t-18.5 -7h-256z"/>
<glyph unicode="‑" horiz-adv-x="339" d="M30 223q-1 5 -2.5 13.5t-1.5 16.5q0 17 8 24.5t19 7.5h256q2 -5 2.5 -13t0.5 -16q0 -19 -7.5 -26t-18.5 -7h-256z"/>
<glyph unicode="‒" horiz-adv-x="339" d="M30 223q-1 5 -2.5 13.5t-1.5 16.5q0 17 8 24.5t19 7.5h256q2 -5 2.5 -13t0.5 -16q0 -19 -7.5 -26t-18.5 -7h-256z"/>
<glyph unicode="–" horiz-adv-x="433" d="M30 223q-1 5 -2.5 13.5t-1.5 16.5q0 17 8 24.5t19 7.5h350q1 -5 2 -13t1 -16q0 -19 -7.5 -26t-18.5 -7h-350z"/>
<glyph unicode="—" horiz-adv-x="630" d="M30 223q-1 5 -2.5 13.5t-1.5 16.5q0 17 8 24.5t19 7.5h547q1 -5 2 -13t1 -16q0 -19 -7.5 -26t-18.5 -7h-547z"/>
<glyph unicode="‘" horiz-adv-x="156" d="M63 467q-11 0 -18.5 7.5t-7.5 21.5q0 16 5.5 35t10.5 33q20 52 44 79.5t56 29.5l-61 -182q-4 -13 -12.5 -18.5t-16.5 -5.5z"/>
<glyph unicode="’" horiz-adv-x="156" d="M16 461l61 182q4 13 12 18.5t16 5.5q10 0 18 -7.5t8 -21.5q0 -17 -5 -35.5t-10 -32.5q-20 -52 -44 -79.5t-56 -29.5z"/>
<glyph unicode="‚" horiz-adv-x="186" d="M5 -121l61 182q4 13 12 18.5t16 5.5q10 0 18 -7.5t8 -21.5q0 -17 -5 -35.5t-10 -32.5q-20 -52 -44 -79.5t-56 -29.5z"/>
<glyph unicode="“" horiz-adv-x="299" d="M65 467q-11 0 -18.5 7.5t-7.5 21.5q0 16 5.5 35t10.5 33q20 52 44 79.5t56 29.5l-61 -182q-4 -13 -12.5 -18.5t-16.5 -5.5zM207 467q-11 0 -18.5 7.5t-7.5 21.5q0 16 5.5 35t10.5 33q20 52 44 79.5t56 29.5l-61 -182q-4 -13 -12.5 -18.5t-16.5 -5.5z"/>
<glyph unicode="”" horiz-adv-x="298" d="M19 461l61 182q4 13 12 18.5t16 5.5q10 0 18 -7.5t8 -21.5q0 -17 -5 -35.5t-10 -32.5q-20 -52 -44 -80t-56 -29zM160 461l61 182q4 13 12.5 18.5t16.5 5.5q11 0 18.5 -7.5t7.5 -21.5q0 -17 -5 -35.5t-10 -32.5q-20 -52 -44.5 -80t-56.5 -29z"/>
<glyph unicode="„" horiz-adv-x="298" d="M0 -121l61 182q4 13 12.5 18.5t16.5 5.5q11 0 18.5 -7.5t7.5 -21.5q0 -17 -5 -35.5t-10 -32.5q-20 -52 -44.5 -79.5t-56.5 -29.5zM142 -121l61 182q4 13 12.5 18.5t16.5 5.5q11 0 18.5 -7.5t7.5 -21.5q0 -17 -5 -35.5t-10 -32.5q-20 -52 -44.5 -79.5t-56.5 -29.5z"/>
<glyph unicode="†" horiz-adv-x="500" d="M242 -160q-10 0 -20 2l-10 406l5 131l-171 -5q-2 5 -2.5 14t-0.5 17q0 31 25 31l149 -9l-8 186q-1 15 6.5 27t30.5 12q8 0 17 -1.5t14 -3.5l-8 -220l168 9q2 -5 2.5 -13.5t0.5 -16.5q0 -32 -25 -32l-145 5l5 -131l-10 -389q-1 -9 -5.5 -14t-17.5 -5z"/>
<glyph unicode="‡" horiz-adv-x="614" d="M356 -160q-10 0 -20 2l-6 292l-170 -4q-1 5 -2 14t-1 17q0 16 7 23.5t18 7.5l148 -8l-4 94l5 103l-171 -5q-1 5 -2 14t-1 17q0 16 7 24t18 7l149 -8l-8 183q-1 15 7.5 27t31.5 12q19 0 29 -5l-8 -217l169 9q1 -5 1.5 -13.5t0.5 -16.5q0 -16 -6.5 -24.5t-17.5 -7.5l-146 4 l5 -102l-4 -95l167 8q1 -5 1.5 -13.5t0.5 -16.5q0 -32 -25 -32l-144 3l-6 -274q0 -19 -23 -19z"/>
<glyph unicode="•" horiz-adv-x="370" d="M186 186q-25 0 -47.5 9.5t-39 26t-26 39t-9.5 47.5t9.5 47t26 38t39 25.5t47.5 9.5t47 -9.5t38.5 -25.5t26 -38t9.5 -47t-9.5 -47.5t-26 -39t-38.5 -26t-47 -9.5z"/>
<glyph unicode="…" horiz-adv-x="695" d="M333 -7q-19 0 -33.5 14.5t-14.5 33.5q0 20 14.5 34.5t33.5 14.5q21 0 35.5 -14.5t14.5 -34.5q0 -19 -14.5 -33.5t-35.5 -14.5zM585 -7q-19 0 -33.5 14.5t-14.5 33.5q0 20 14.5 34.5t33.5 14.5q21 0 35.5 -14.5t14.5 -34.5q0 -19 -14.5 -33.5t-35.5 -14.5zM83 -7 q-19 0 -33.5 14.5t-14.5 33.5q0 20 14.5 34.5t33.5 14.5q21 0 35.5 -14.5t14.5 -34.5q0 -19 -14.5 -33.5t-35.5 -14.5z"/>
<glyph unicode=" " horiz-adv-x="175"/>
<glyph unicode="‰" horiz-adv-x="1015" d="M163 -5q-10 0 -18 3.5t-15 8.5l364 626q5 8 13 14t21 6t21 -5t13 -7l-363 -626q-11 -20 -36 -20zM534 -4q-58 0 -95.5 43.5t-37.5 131.5t37.5 131t95.5 43q57 0 95.5 -43t38.5 -131t-38.5 -131.5t-95.5 -43.5zM851 -4q-58 0 -95.5 43.5t-37.5 131.5t37.5 131t95.5 43 q57 0 95.5 -43t38.5 -131t-38.5 -131.5t-95.5 -43.5zM534 45q35 0 57 30.5t22 95.5t-22 95t-57 30t-56.5 -30t-21.5 -95t21.5 -95.5t56.5 -30.5zM851 45q35 0 57 30.5t22 95.5t-22 95t-57 30t-56.5 -30t-21.5 -95t21.5 -95.5t56.5 -30.5zM163 312q-58 0 -95.5 43.5 t-37.5 131.5t37.5 131t95.5 43q57 0 95.5 -43t38.5 -131t-38.5 -131.5t-95.5 -43.5zM163 361q35 0 57 30.5t22 95.5t-22 95t-57 30t-56.5 -30t-21.5 -95t21.5 -95.5t56.5 -30.5z"/>
<glyph unicode="‹" horiz-adv-x="336" d="M259 86l-228 151v55l228 151q3 -8 5 -19t2 -19q0 -29 -17 -39l-153 -100l153 -100q17 -11 17 -40q0 -9 -2 -20.5t-5 -19.5z"/>
<glyph unicode="›" horiz-adv-x="336" d="M77 88q-3 8 -5 19t-2 19q0 29 17 39l153 100l-153 100q-17 11 -17 40q0 9 2 20.5t5 19.5l228 -151v-55z"/>
<glyph unicode=" " horiz-adv-x="219"/>
<glyph unicode="€" horiz-adv-x="580" d="M367 -12q-106 0 -168.5 68t-79.5 189h-68q-4 10 -4 25q0 14 7 20.5t17 6.5h44q-1 11 -1 26.5t1 27.5h-64q-4 10 -4 25q0 14 7 20.5t17 6.5h49q9 67 31 116t54.5 80.5t73.5 46.5t88 15q82 0 160 -35q2 -31 -7.5 -41.5t-24.5 -10.5q-9 0 -20 4t-26 8.5t-35 8.5t-48 4 q-74 0 -120.5 -52t-57.5 -144h228q1 -4 2 -11t1 -14q0 -16 -6.5 -21.5t-15.5 -5.5h-214q-1 -12 -1 -27.5t1 -26.5h233q1 -4 2 -11t1 -14q0 -16 -6.5 -21.5t-15.5 -5.5h-209q11 -92 58 -143.5t119 -51.5q30 0 51.5 4t36.5 8.5t25.5 8.5t18.5 4q14 0 23 -10.5t7 -40.5 q-37 -17 -73 -26.5t-87 -9.5z"/>
<glyph unicode="™" horiz-adv-x="617" d="M150 353q-5 0 -10.5 1t-8.5 2v255h-92q-2 10 -2 18q0 12 4 16.5t12 4.5h213q0 -2 1 -6.5t1 -12.5q0 -20 -17 -20h-79v-241q0 -17 -22 -17zM301 354q-6 0 -10.5 1t-8.5 3l30 288q5 2 13.5 3.5t13.5 1.5q17 0 24.5 -4.5t11.5 -16.5l62 -208l63 208q4 12 11.5 16.5t21.5 4.5 q8 0 15 -1t12 -3l31 -290q-4 -1 -8.5 -2t-10.5 -1q-19 0 -20 13l-24 240l-68 -217q-5 -15 -25 -15q-5 0 -12 1t-10 3l-69 227l-23 -238q-1 -14 -20 -14z"/>
<glyph unicode="" horiz-adv-x="480" d="M0 480h480v-480h-480v480z"/>
<glyph horiz-adv-x="437" d="M216 518q-24 0 -36 20l-91 126q5 2 14 4t21 2t19 -3.5t13 -12.5l61 -89l62 90q11 15 34 15q8 0 18 -1.5t16 -3.5l-92 -127q-12 -20 -39 -20z"/>
</font>
</defs>
</svg>
