<svg xmlns="http://www.w3.org/2000/svg" width="16" height="14.598" viewBox="0 0 16 14.598"><path fill="#0073C5" d="M15.487 7.729l-1.679-3.833c-1.002-2.291-3.562-3.381-5.854-2.568-.07-.141-.187-.343-.365-.555-.298-.364-.809-.773-1.524-.773-.532 0-1.123.226-1.761.743-1.328 1.086-2.254 1.559-2.889 1.547-.275-.001-.513-.072-.775-.236-.197-.123-.456-.062-.578.138-.121.2-.062.464.135.586.369.234.78.364 1.21.364h.008c1.017-.012 2.037-.625 3.414-1.73.541-.439.943-.559 1.236-.559.383-.001.667.21.885.471.107.125.186.256.239.354-2.091 1.194-2.982 3.831-1.988 6.103l1.679 3.832c1.057 2.414 3.84 3.5 6.215 2.429 2.378-1.074 3.448-3.899 2.392-6.313zm-6.143-4.322l.295.671c.187.421-.004.915-.418 1.103-.416.188-.902-.001-1.087-.424l-.294-.67c-.185-.423.002-.917.418-1.104.416-.188.9.002 1.086.424zm3.935 1.885l-6.688 3.019-.17.037c-.161 0-.314-.094-.383-.254-.095-.215 0-.465.213-.561l6.688-3.021c.211-.094.461.003.552.218.097.215-.001.466-.212.562z"/></svg>