<svg xmlns="http://www.w3.org/2000/svg" width="20" height="20" viewBox="0 0 20 20"><path fill="#FAFAFA" d="M16.625 13.25c-1.004 0-1.891.466-2.487 1.182l-7.074-3.322c.035-.198.062-.4.062-.608 0-.383-.077-.745-.19-1.09l7.502-3.522c.578.53 1.343.861 2.188.861 1.795 0 3.25-1.455 3.25-3.25s-1.455-3.25-3.25-3.25c-1.794 0-3.25 1.455-3.25 3.25 0 .145.024.282.042.421l-7.834 3.678c-.559-.378-1.233-.599-1.959-.599-1.934 0-3.5 1.566-3.5 3.5 0 1.933 1.566 3.5 3.5 3.5.921 0 1.752-.363 2.377-.944l7.375 3.464c.012 1.785 1.461 3.229 3.248 3.229 1.795 0 3.25-1.455 3.25-3.25 0-1.794-1.455-3.25-3.25-3.25z"/></svg>