<?xml version="1.0" encoding="utf-8"?>
<!-- Generator: Adobe Illustrator 16.0.0, SVG Export Plug-In . SVG Version: 6.00 Build 0)  -->
<!DOCTYPE svg PUBLIC "-//W3C//DTD SVG 1.1//EN" "http://www.w3.org/Graphics/SVG/1.1/DTD/svg11.dtd">
<svg version="1.1" id="Layer_1" xmlns="http://www.w3.org/2000/svg" xmlns:xlink="http://www.w3.org/1999/xlink" x="0px" y="0px"
	 width="20px" height="20px" viewBox="0 0 20 20" enable-background="new 0 0 20 20" xml:space="preserve">
<path fill="#13110C" d="M19.456,8.823H4.088l6.69-6.69c0.143-0.143,0.111-0.406-0.07-0.587L9.743,0.579
	c-0.182-0.181-0.445-0.212-0.587-0.07L0.006,9.658c-0.066,0.066-0.091,0.16-0.084,0.258C-0.079,9.921-0.079,9.925-0.08,9.93
	c0,0.004,0,0.008,0.001,0.012c-0.007,0.098,0.019,0.192,0.085,0.258l9.149,9.149c0.143,0.143,0.406,0.111,0.587-0.069l0.966-0.967
	c0.181-0.182,0.213-0.444,0.07-0.587L4.17,11.118h15.286c0.256,0,0.464-0.208,0.464-0.465V9.288
	C19.92,9.031,19.712,8.823,19.456,8.823z"/>
</svg>
