<?xml version="1.0" encoding="utf-8"?>
<!-- Generator: Adobe Illustrator 15.1.0, SVG Export Plug-In . SVG Version: 6.00 Build 0)  -->
<!DOCTYPE svg PUBLIC "-//W3C//DTD SVG 1.1//EN" "http://www.w3.org/Graphics/SVG/1.1/DTD/svg11.dtd">
<svg version="1.1" id="Layer_1" xmlns="http://www.w3.org/2000/svg" xmlns:xlink="http://www.w3.org/1999/xlink" x="0px" y="0px"
	 width="36px" height="36px" viewBox="0 0 36 36" enable-background="new 0 0 36 36" xml:space="preserve">
<g>
	<path fill="#010101" d="M16.938,22.99c0,0.291-0.237,0.531-0.529,0.531H14.25c-0.292,0-0.531-0.24-0.531-0.531v-9.98
		c0-0.292,0.239-0.531,0.531-0.531h2.159c0.292,0,0.529,0.239,0.529,0.531V22.99z"/>
	<path fill="#010101" d="M22.281,22.99c0,0.291-0.237,0.531-0.529,0.531h-2.159c-0.292,0-0.53-0.24-0.53-0.531v-9.98
		c0-0.292,0.238-0.531,0.53-0.531h2.159c0.292,0,0.529,0.239,0.529,0.531V22.99z"/>
</g>
</svg>
