<?xml version="1.0" encoding="utf-8"?>  <!DOCTYPE svg PUBLIC "-//W3C//DTD SVG 1.1//EN" "http://www.w3.org/Graphics/SVG/1.1/DTD/svg11.dtd"> <svg version="1.1" id="Layer_1" xmlns:x="&amp;ns_extend;" xmlns:i="&amp;ns_ai;" xmlns:graph="&amp;ns_graphs;" xmlns="http://www.w3.org/2000/svg" xmlns:xlink="http://www.w3.org/1999/xlink" x="0px" y="0px" width="841" height="595" viewBox="0 0 841 595" enable-background="new 0 0 841 595" xml:space="preserve" data-tags="sky" style="margin-left: 5px; margin-top: 8px;"><path d="M 562.526,547.712c 6.457,3.274, 19.711,7.318, 36.443,7.771c 28.547,0.623, 44.146-10.354, 55.712-35.933l 153.452-342.384 c-6.321-3.421-20.3-7.182-31.821-7.488c-19.711-0.306-46.219,3.693-63.132,44.112l-49.697,117.281l-97.468-158.731 c-6.287-1.937-21.603-4.69-32.931-4.69c-34.347,0-53.571,12.699-73.588,34.347l-94.738,103.608l 76.205,119.977 c 14.081,21.818, 32.648,33.033, 62.781,33.033c 19.745,0, 36.137-4.52, 43.761-8.179l-91.804-138.408l 65.058-68.921l 106.723,167.465L 562.526,547.712z M 361.133,418.219c0,25.228-9.935,39.796-59.122,39.796c-6.525,0-12.223-0.521-17.706-1.28l0-334.76 c0-25.398, 8.666-51.94, 58.431-51.94 c 6.242,0, 12.597,0.657, 18.431,1.903L 361.167,418.219 z M 259.495,367.684c0,47.114-30.79,81.45-93.186,88.224 c-45.279,4.871-110.824-0.895-141.92-4.418c-1.178-5.109-2.107-11.419-2.107-16.358c0-41.178, 22.26-50.569, 43.138-50.569 c 21.603,0, 55.712,3.761, 81.144,3.761c 27.89,0, 36.409-9.459, 36.409-18.465c0-11.838-11.317-16.675-32.965-20.844l-59.19-11.419 c-49.323-9.425-75.661-43.625-75.661-79.762c0-44.010, 31.164-80.872, 92.393-87.635c 46.355-5.041, 102.713,0.657, 133.605,4.452 c 1.144,5.313, 1.756,10.354, 1.756,15.837c0,41.008-21.637,49.878-42.492,49.878c-16.086,0-40.895-3.002-69.306-3.002 c-28.887,0-40.895,8.009-40.895,17.706c0,10.286, 11.464,14.5, 29.544,17.672l 56.641,10.524C 234.607,293.961, 259.495,327.027, 259.495,367.684" ></path></svg>
