<?xml version="1.0" encoding="utf-8"?>
<!-- Generator: Adobe Illustrator 16.0.0, SVG Export Plug-In . SVG Version: 6.00 Build 0)  -->
<!DOCTYPE svg PUBLIC "-//W3C//DTD SVG 1.0//EN" "http://www.w3.org/TR/2001/REC-SVG-20010904/DTD/svg10.dtd">
<svg version="1.0" id="Layer_1" xmlns="http://www.w3.org/2000/svg" xmlns:xlink="http://www.w3.org/1999/xlink" x="0px" y="0px"
	 width="20px" height="20px" viewBox="0 0 20 20" style="enable-background:new 0 0 20 20;" xml:space="preserve">
<g>
	<path style="fill:#12110C;" d="M12.904,9.852c0.337-0.423,0.508-0.966,0.508-1.633c0-0.444-0.08-0.835-0.244-1.172
		s-0.393-0.617-0.686-0.839c-0.295-0.222-0.649-0.391-1.062-0.506c-0.416-0.115-0.879-0.174-1.392-0.174H8.054
		c-0.239,0-0.434,0.026-0.582,0.077C7.321,5.656,7.206,5.727,7.124,5.816c-0.081,0.09-0.136,0.199-0.165,0.327
		c-0.03,0.128-0.046,0.265-0.046,0.41v7.265c0.12,0.025,0.267,0.047,0.442,0.062c0.176,0.018,0.352,0.025,0.532,0.025
		c0.427,0,0.718-0.086,0.872-0.262c0.152-0.177,0.229-0.388,0.229-0.636v-2.088h0.315l1.645,2.358
		c0.171,0.248,0.351,0.422,0.538,0.518c0.189,0.1,0.427,0.148,0.719,0.148c0.289,0,0.557-0.029,0.803-0.09
		c0.244-0.059,0.459-0.137,0.646-0.23l-2.217-2.921C12.078,10.559,12.566,10.276,12.904,9.852z M11.039,9.065
		c-0.205,0.213-0.563,0.32-1.076,0.32H8.988V7.22h1.077c0.418,0,0.737,0.096,0.955,0.288c0.219,0.192,0.328,0.45,0.328,0.775
		C11.348,8.59,11.243,8.851,11.039,9.065z"/>
	<path style="fill:#12110C;" d="M10.001,0C4.478,0,0,4.477,0,10c0,5.521,4.478,10,10.001,10C15.523,20,20,15.521,20,10
		C20,4.477,15.523,0,10.001,0z M10.001,18.105c-4.503,0-8.154-3.648-8.154-8.154c0-4.502,3.651-8.153,8.154-8.153
		s8.153,3.651,8.153,8.153C18.154,14.457,14.504,18.105,10.001,18.105z"/>
</g>
</svg>
