<svg xmlns="http://www.w3.org/2000/svg"
	 width="20px" height="20px" viewBox="0 0 20 20" >
<path style="fill:#44AD3A;" d="M18.229,0H1.771C0.793,0,0,0.793,0,1.772v16.457C0,19.207,0.793,20,1.771,20h16.458
	C19.207,20,20,19.207,20,18.229V1.772C20,0.793,19.207,0,18.229,0z M12.625,14.062c0,0-1.079-0.971-2.734-0.971
	c-1.364,0-2.547,0.984-2.547,0.984L6.313,12.92c0,0,1.281-1.352,3.627-1.352c2.498,0,3.639,1.383,3.639,1.383L12.625,14.062z
	 M14.766,11.609c0,0-1.719-1.859-4.891-1.859c-2.795,0-4.791,1.882-4.791,1.882l-1.021-1.304c0,0,1.906-2.163,5.829-2.163
	c4.327,0,6.015,2.241,6.015,2.241L14.766,11.609z M17.047,9.047c0,0-2.938-2.594-7.062-2.594c-4.124,0-7.063,2.609-7.063,2.609
	l-1-1.141c0,0,2.906-2.984,8.094-2.984c5,0,7.984,3.016,7.984,3.016L17.047,9.047z"/>
</svg>
