<?xml version="1.0" encoding="UTF-8" standalone="no"?>
<!-- Generator: Adobe Illustrator 16.0.0, SVG Export Plug-In . SVG Version: 6.00 Build 0)  -->

<svg xmlns:ns="http://ns.adobe.com/SaveForWeb/1.0/" xmlns:dc="http://purl.org/dc/elements/1.1/" xmlns:cc="http://creativecommons.org/ns#" xmlns:rdf="http://www.w3.org/1999/02/22-rdf-syntax-ns#" xmlns:svg="http://www.w3.org/2000/svg" xmlns="http://www.w3.org/2000/svg" xmlns:sodipodi="http://sodipodi.sourceforge.net/DTD/sodipodi-0.dtd" xmlns:inkscape="http://www.inkscape.org/namespaces/inkscape" version="1.1" id="Layer_1" x="0px" y="0px" width="20px" height="20px" viewBox="0 0 20 20" enable-background="new 0 0 20 20" xml:space="preserve" inkscape:version="0.48.3.1 r9886" sodipodi:docname="close.svg"><defs id="defs10" /><sodipodi:namedview pagecolor="#ffffff" bordercolor="#666666" borderopacity="1" objecttolerance="10" gridtolerance="10" guidetolerance="10" inkscape:pageopacity="0" inkscape:pageshadow="2" inkscape:window-width="640" inkscape:window-height="480" id="namedview8" showgrid="false" inkscape:zoom="11.8" inkscape:cx="10" inkscape:cy="10" inkscape:window-x="0" inkscape:window-y="24" inkscape:window-maximized="0" inkscape:current-layer="Layer_1" />
<metadata id="metadata3">
	<ns:sfw>
		<ns:slices />
		<ns:sliceSourceBounds height="20" width="20" bottomLeftOrigin="true" x="787" y="566.5" />
	</ns:sfw>
<rdf:RDF><cc:Work rdf:about=""><dc:format>image/svg+xml</dc:format><dc:type rdf:resource="http://purl.org/dc/dcmitype/StillImage" /></cc:Work></rdf:RDF></metadata>
<g id="g2987"><g id="Close">
	<path d="M 11.415,10.001 C 12.24,9.176 13.065,8.351 13.89,7.526 14.325419,6.9811386 13.600439,6.5875783 13.289994,6.2189943 12.85678,5.6476679 12.319271,6.2302882 11.995899,6.5919076 11.330599,7.2569384 10.6653,7.9219692 10,8.587 9.175,7.762 8.35,6.937 7.525,6.112 6.980178,5.6766108 6.5865607,6.4015456 6.2179943,6.7120057 5.6465307,7.1451333 6.2293243,7.6827585 6.5910045,8.0060045 7.256003,8.671003 7.9210015,9.3360015 8.586,10.001 c -0.825,0.825 -1.65,1.65 -2.475,2.475 -0.4354185,0.544861 0.2895607,0.938422 0.6000057,1.307006 0.4332289,0.571341 0.9707286,-0.01129 1.2939988,-0.373011 C 8.670003,12.744997 9.3350015,12.079998 10,11.415 c 0.825,0.825 1.65,1.65 2.475,2.475 0.544686,0.435307 0.938526,-0.289538 1.307006,-0.600006 0.571448,-0.433112 -0.01134,-0.970747 -0.372914,-1.294096 C 12.744395,11.330932 12.079697,10.665966 11.415,10.001 z m 5.656,7.07 C 19.890734,14.329426 20.785251,9.8603815 19.268125,6.2369687 17.843123,2.6119775 14.137321,0.04476284 10.239911,0.00249645 6.3897821,-0.13911773 2.6059199,2.1872574 0.97951577,5.677156 -0.77122106,9.2301681 -0.1218464,13.790534 2.5743495,16.69785 5.1215383,19.597917 9.4228479,20.741261 13.078845,19.516578 14.579459,19.034653 15.958609,18.187068 17.071,17.071 z M 4.268,4.269 C 6.7831131,1.6616708 11.089265,1.121223 14.177253,3.0093694 17.226877,4.7466145 18.840655,8.5815705 17.954797,11.976689 17.145988,15.541552 13.689937,18.254869 10.034,18.189 6.3777425,18.254883 2.9216338,15.541088 2.112759,11.976012 1.4281975,9.2572866 2.2644609,6.234848 4.268,4.269 z" id="path6" inkscape:connector-curvature="0" />
</g></g>
</svg>