<?xml version="1.0" encoding="utf-8"?>
<!-- Generator: Adobe Illustrator 16.0.0, SVG Export Plug-In . SVG Version: 6.00 Build 0)  -->
<!DOCTYPE svg PUBLIC "-//W3C//DTD SVG 1.1//EN" "http://www.w3.org/Graphics/SVG/1.1/DTD/svg11.dtd">
<svg version="1.1" id="Sky_Talk" xmlns="http://www.w3.org/2000/svg" xmlns:xlink="http://www.w3.org/1999/xlink" x="0px" y="0px"
	 width="16px" height="19.234px" viewBox="0 0 16 19.234" enable-background="new 0 0 16 19.234" xml:space="preserve">
<path fill="#0073C5" d="M11.592,6.785c1.194,1.128-0.556,3.203-1.207,4.193c-0.576,0.875-1.546,2.014-1.546,2.014
	s-1.35,1.812-2.39,1.217c0,0-0.567-0.391-1.096-0.725l-0.867-0.637c-0.674-0.227-0.984-0.273-1.701,0.316l-2.207,1.871
	c-0.773,0.779-0.659,1.145-0.304,1.865c0.527,0.756,0.882,1.594,1.754,2.039c0.734,0.373,1.589,0.332,2.381,0.207
	c1.51-0.236,2.894-0.738,4.142-1.629c0.766-0.545,1.362-1.236,2.012-1.902c0,0,1.414-1.441,2.477-3.018
	c1.061-1.574,1.521-2.836,1.521-2.836c2.674-5.871,0.453-9.005,0.453-9.005S14.708,0.43,14.4,0.364
	c-0.312-0.064-2.004-0.157-2.004-0.157c-0.744-0.021-1.021-0.159-1.498,0.825c0,0-1.266,2.8-1.27,2.808
	C9.527,4.062,9.376,4.43,9.463,4.677C9.546,4.915,9.78,5.143,9.949,5.323c0.176,0.19,0.363,0.39,0.568,0.549
	c0.265,0.204,0.486,0.442,0.748,0.643C11.383,6.604,11.493,6.692,11.592,6.785z"/>
</svg>
