<?xml version="1.0" encoding="utf-8"?>
<!-- Generator: Adobe Illustrator 16.0.0, SVG Export Plug-In . SVG Version: 6.00 Build 0)  -->
<!DOCTYPE svg PUBLIC "-//W3C//DTD SVG 1.1//EN" "http://www.w3.org/Graphics/SVG/1.1/DTD/svg11.dtd">
<svg version="1.1" id="Sky_TV" xmlns="http://www.w3.org/2000/svg" xmlns:xlink="http://www.w3.org/1999/xlink" x="0px" y="0px"
	 width="16px" height="12.074px" viewBox="0 0 16 12.074" enable-background="new 0 0 16 12.074" xml:space="preserve">
<path fill="#0073C5" d="M12.828,1.894L3.022,1.895c0,0-1.06,0-1.06,1.055v4.979c0,0,0,1.058,1.06,1.058h9.804
	c0,0,1.062,0,1.062-1.058V2.95C13.887,2.952,13.887,1.894,12.828,1.894 M13.271,0H2.579C1.687,0,0,0.538,0,2.571v6.752
	c0,0.892,0.54,2.57,2.579,2.57h10.693c0.895,0,2.579-0.539,2.579-2.57V2.571C15.851,1.68,15.312,0,13.271,0 M9.543,11.345H6.308
	v-0.729h3.237v0.729H9.543z M14.963,8.345c0,1.623-1.52,1.687-1.691,1.688H2.579c-1.628,0-1.689-1.515-1.691-1.688V2.571
	c0-1.621,1.519-1.684,1.692-1.686h10.691c1.63,0,1.69,1.516,1.692,1.688V8.345L14.963,8.345z"/>
</svg>
