<svg xmlns="http://www.w3.org/2000/svg" width="16" height="17.125" viewBox="0 0 16 17.125"><path fill="#0073C5" d="M12.007 4.385l-.284-.111c-.676-.264-1.604-.425-2.645-.363-3.407.198-5.646 3.114-5.476 6.154.119 1.976 1.502 3.194 3.056 3.109 1.216-.064 2.214-.629 2.947-1.621.128.353.329.641.581.855.424.362.961.503 1.482.471 2.423-.141 4.33-2.531 4.126-6.098-.116-2.001-.925-3.726-2.242-4.913-1.316-1.188-3.136-1.827-5.217-1.704-5.314.321-8.485 4.823-8.209 9.714.276 4.616 3.819 7.35 7.766 7.126l.014-.001c1.567-.091 2.91-.436 4.187-1.208l.296-.179-.141-.316-.608-1.382-.386.247c-.835.535-1.972.869-3.223.94-3.19.166-5.59-1.849-5.825-5.486-.246-4.468 2.542-7.391 6.052-7.605 3.349-.171 5.24 1.867 5.457 5.026.071 1.254-.178 2.245-.561 2.911-.381.671-.877.987-1.274 1.005l-.021.001c-.271-.016-.404-.062-.496-.877-.021-.312 0-.711.07-1.199l.574-4.496zm-4.918 6.735c-.777.021-1.106-.391-1.197-1.282-.117-2.037 1.278-3.808 3.029-3.915.273-.017.506-.001.695.021l-.283 2.245c-.13 1.306-1.258 2.934-2.244 2.931z"/></svg>