<svg xmlns="http://www.w3.org/2000/svg" width="16" height="12.107" viewBox="0 0 16 12.107"><path fill="#0073C5" d="M6.249 2.631c-.38-.36-.891-.583-1.454-.583-1.077 0-1.962.805-2.094 1.845-1.482.179-2.63 1.439-2.63 2.968 0 1.652 1.338 2.992 2.993 2.992.652 0 1.254-.213 1.747-.566.706.818 1.747 1.341 2.914 1.341 1.015 0 1.936-.396 2.623-1.039l2.178 2.52-.469-2.628c.303.104.627.165.965.165 1.617 0 2.931-1.312 2.931-2.93 0-1.617-1.312-2.931-2.931-2.931l-.078.005.012-.201c0-1.89-1.532-3.42-3.421-3.42-1.56-.001-2.871 1.039-3.286 2.462"/></svg>