<svg xmlns="http://www.w3.org/2000/svg" width="16" height="19.094" viewBox="0 0 16 19.094"><path fill="#48AC3B" d="M8.043.022s.006 3.162 0 3.162c-1.986 0-4.055.883-5.544 2.359-1.49 1.477-2.399 3.55-2.399 5.535 0 1.98.612 3.945 2.268 5.602 1.703 1.705 3.836 2.299 5.674 2.299 1.963 0 3.992-.6 5.703-2.311 1.715-1.715 2.156-3.625 2.156-5.609 0-.623-.154-1.121-.154-1.121l-2.24.359c.311 2.596-.574 3.76-1.395 4.668-.867.961-2.014 1.609-4.07 1.617-1.979.006-3.062-.734-3.946-1.617-.883-.881-1.563-2.406-1.563-3.887 0-1.521.799-2.938 1.683-3.808.884-.87 2.371-1.645 3.815-1.645.02 0 .014 2.916.014 2.916l4.451-4.066-4.453-4.453z"/></svg>