<svg xmlns="http://www.w3.org/2000/svg" width="16" height="16" viewBox="0 0 16 16"><path fill="#010101" d="M11.365 10.371c.073.073.073.192 0 .265l-.677.679c-.073.072-.192.072-.266 0l-3.034-3.036-.018-.027-.022-.033-.015-.072v-5.375c0-.103.084-.188.188-.188h.958c.104 0 .188.084.188.188v4.901l2.698 2.698zm4.635-2.371c0 4.418-3.582 8-8 8-4.419 0-8-3.582-8-8s3.582-8 8-8 8 3.582 8 8zm-1.477-.038c0-3.602-2.921-6.523-6.523-6.523-3.603 0-6.524 2.921-6.524 6.523 0 3.603 2.921 6.523 6.524 6.523s6.523-2.921 6.523-6.523z"/></svg>