<?xml version="1.0" encoding="utf-8"?>
<!-- Generator: Adobe Illustrator 16.0.0, SVG Export Plug-In . SVG Version: 6.00 Build 0)  -->
<!DOCTYPE svg PUBLIC "-//W3C//DTD SVG 1.1//EN" "http://www.w3.org/Graphics/SVG/1.1/DTD/svg11.dtd">
<svg version="1.1" id="Layer_1" xmlns="http://www.w3.org/2000/svg" xmlns:xlink="http://www.w3.org/1999/xlink" x="0px" y="0px"
	 width="20px" height="20px" viewBox="0 0 20 20" enable-background="new 0 0 20 20" xml:space="preserve">
<path d="M10,2c-4.418,0-8,3.582-8,8s3.582,8,8,8c4.418,0,8-3.582,8-8S14.418,2,10,2 M10,16.485c-3.603,0-6.523-2.921-6.523-6.523
	c0-3.602,2.92-6.523,6.523-6.523s6.523,2.921,6.523,6.523C16.523,13.564,13.603,16.485,10,16.485 M8.603,13.873
	c-0.47,0-0.851-0.382-0.851-0.852V6.979c0-0.47,0.381-0.851,0.851-0.851c0.47,0,0.851,0.381,0.851,0.851v6.043
	C9.454,13.491,9.072,13.873,8.603,13.873z M11.666,13.873c-0.47,0-0.852-0.382-0.852-0.852V6.979c0-0.47,0.382-0.851,0.852-0.851
	c0.471,0,0.852,0.381,0.852,0.851v6.043C12.518,13.491,12.137,13.873,11.666,13.873z"/>
</svg>
