<?xml version="1.0" encoding="utf-8"?>
<!-- Generator: Adobe Illustrator 16.0.0, SVG Export Plug-In . SVG Version: 6.00 Build 0)  -->
<!DOCTYPE svg PUBLIC "-//W3C//DTD SVG 1.1//EN" "http://www.w3.org/Graphics/SVG/1.1/DTD/svg11.dtd">
<svg version="1.1" id="Layer_1" xmlns="http://www.w3.org/2000/svg" xmlns:xlink="http://www.w3.org/1999/xlink" x="0px" y="0px"
	 width="16px" height="16px" viewBox="0 0 16 16" enable-background="new 0 0 16 16" xml:space="preserve">
<path fill="#0070A5" d="M15.216,2.606l0.562-0.563c0.277-0.276,0.161-0.846-0.26-1.267l-0.13-0.129
	c-0.421-0.42-0.989-0.539-1.265-0.262l-0.565,0.563"/>
<polygon fill="#0070A5" points="14.734,3.085 13.079,1.43 4.955,9.554 6.527,7.981 6.485,8.024 6.414,8.096 6.414,8.095 
	4.832,9.678 4.379,11.75 6.487,11.334 6.511,11.31 "/>
<path fill="#0070A5" d="M13.473,6.519v7.735H1.747V2.777h7.485l1.995-1.746H0.998C0.499,1.031,0,1.529,0,2.028v13.14
	C0,15.502,0.499,16,0.833,16h13.639c0.249,0,0.748-0.356,0.748-0.746V4.773L13.473,6.519z"/>
</svg>
