<svg xmlns="http://www.w3.org/2000/svg" width="20" height="20" viewBox="0 0 20 20"><path fill="#13110C" d="M9.938 6.344c-.354 0-.656-.122-.906-.367s-.375-.544-.375-.898.125-.656.375-.906.552-.375.906-.375.656.125.906.375.375.553.375.906c0 .354-.125.653-.375.898s-.552.367-.906.367m-.172 8.734c-.198 0-.401-.013-.609-.039l-.469-.07v-6.86c0-.271.096-.474.29-.609.192-.136.564-.203 1.117-.203.198 0 .401.014.609.039l.469.07v6.859c0 .271-.097.474-.289.609s-.566.204-1.118.204m.234-15.078c-5.523 0-10 4.478-10 10s4.477 10 10 10c5.522 0 10-4.478 10-10s-4.478-10-10-10"/></svg>