<?xml version="1.0" encoding="utf-8"?>
<!-- Generator: Adobe Illustrator 16.0.0, SVG Export Plug-In . SVG Version: 6.00 Build 0)  -->
<!DOCTYPE svg PUBLIC "-//W3C//DTD SVG 1.1//EN" "http://www.w3.org/Graphics/SVG/1.1/DTD/svg11.dtd">
<svg version="1.1" id="Sky_Broadband" xmlns="http://www.w3.org/2000/svg" xmlns:xlink="http://www.w3.org/1999/xlink" x="0px"
	 y="0px" width="16px" height="14.598px" viewBox="0 0 16 14.598" enable-background="new 0 0 16 14.598" xml:space="preserve">
<path fill="#0073C5" d="M15.487,7.729l-1.679-3.833c-1.002-2.291-3.562-3.381-5.854-2.568C7.884,1.187,7.767,0.985,7.589,0.773
	C7.291,0.409,6.78,0,6.065,0C5.533,0,4.942,0.226,4.304,0.743C2.976,1.829,2.05,2.302,1.415,2.29C1.14,2.289,0.902,2.218,0.64,2.054
	C0.443,1.931,0.184,1.992,0.062,2.192C-0.059,2.392,0,2.656,0.197,2.778c0.369,0.234,0.78,0.364,1.21,0.364h0.008
	c1.017-0.012,2.037-0.625,3.414-1.73C5.37,0.973,5.772,0.853,6.065,0.853c0.383-0.001,0.667,0.21,0.885,0.471
	c0.107,0.125,0.186,0.256,0.239,0.354C5.098,2.872,4.207,5.509,5.201,7.781l1.679,3.832c1.057,2.414,3.84,3.5,6.215,2.429
	C15.473,12.968,16.543,10.143,15.487,7.729z M9.344,3.407l0.295,0.671c0.187,0.421-0.004,0.915-0.418,1.103
	C8.805,5.369,8.319,5.18,8.134,4.757L7.84,4.087C7.655,3.664,7.842,3.17,8.258,2.983C8.674,2.795,9.158,2.985,9.344,3.407z
	 M13.279,5.292L6.591,8.311c-0.055,0.024-0.113,0.037-0.17,0.037c-0.161,0-0.314-0.094-0.383-0.254
	c-0.095-0.215,0-0.465,0.213-0.561l6.688-3.021C13.15,4.418,13.4,4.515,13.491,4.73C13.588,4.945,13.49,5.196,13.279,5.292z"/>
</svg>
