<?xml version="1.0" encoding="utf-8"?>
<!-- Generator: Adobe Illustrator 16.0.0, SVG Export Plug-In . SVG Version: 6.00 Build 0)  -->
<!DOCTYPE svg PUBLIC "-//W3C//DTD SVG 1.1//EN" "http://www.w3.org/Graphics/SVG/1.1/DTD/svg11.dtd">
<svg version="1.1" id="on_demand" xmlns="http://www.w3.org/2000/svg" xmlns:xlink="http://www.w3.org/1999/xlink" x="0px" y="0px"
	 width="16px" height="15.928px" viewBox="0 0 16 15.928" enable-background="new 0 0 16 15.928" xml:space="preserve">
<path fill="#0073C5" d="M4.33,12.23c-0.229-0.168-0.434-0.371-0.607-0.606l-0.187-0.247l-3.417,3.417l1.054,1.057l0.178-0.203
	l3.231-3.229L4.33,12.23z M15.943,7.388L15.92,7.007l-0.251-0.001H11.9l3.729-1.545l-0.572-1.378l-0.242,0.118l-3.439,1.425
	l2.823-2.818l-1.058-1.056l-0.178,0.201L10.309,4.61l1.539-3.717l-1.377-0.574l-0.089,0.253L8.951,4.026V0.043L8.6,0.021L8.217,0
	L7.833,0.02L7.479,0.043v0.251v3.741L5.941,0.327L4.565,0.901L4.683,1.14L6.116,4.6L3.279,1.763L2.225,2.819l0.201,0.178
	l2.655,2.655l-3.715-1.54L0.79,5.49l0.256,0.085l3.452,1.431H0.511L0.487,7.402L0.474,7.743l0.013,0.341l0.024,0.395l0.252,0.002
	h3.723l-3.691,1.526l0.573,1.38l0.241-0.119l4.218-1.746L5.669,9.255C5.523,9.012,5.414,8.743,5.34,8.457L5.293,8.27L5.251,7.743
	l0.042-0.532L5.34,7.023c0.073-0.281,0.183-0.549,0.332-0.795L5.75,6.094l0.089-0.119C6.01,5.745,6.215,5.539,6.447,5.368
	l0.135-0.102l0.113-0.065C6.947,5.051,7.213,4.94,7.491,4.87l0.196-0.05l0.529-0.043L8.74,4.82l0.195,0.049
	C9.217,4.939,9.486,5.05,9.73,5.197l0.121,0.074l0.133,0.098c0.23,0.172,0.438,0.377,0.606,0.606L10.68,6.09l0.071,0.126
	c0.149,0.248,0.263,0.517,0.333,0.794l0.055,0.206l0.043,0.527l-0.043,0.527L11.088,8.47c-0.07,0.278-0.186,0.547-0.333,0.795
	l-0.084,0.139l-0.08,0.109c-0.171,0.229-0.378,0.436-0.608,0.608L9.87,10.206l-0.138,0.082c-0.248,0.146-0.517,0.257-0.793,0.327
	l-0.196,0.051l-0.527,0.045l-0.529-0.045L7.49,10.615c-0.282-0.07-0.549-0.185-0.797-0.329l-0.267-0.16l-1.85,4.467l1.379,0.571
	l0.085-0.252l1.437-3.47v4.002l0.368,0.023l0.37,0.018l0.37-0.018l0.366-0.023v-0.252V11.45l1.537,3.711l1.379-0.575l-0.119-0.238
	l-1.432-3.461l2.836,2.84l1.057-1.06l-0.201-0.175l-2.64-2.642l3.696,1.531l0.574-1.376l-0.255-0.087L11.91,8.48h4.008l0.023-0.38
	l0.016-0.355L15.943,7.388z"/>
</svg>
