<?xml version="1.0" encoding="utf-8"?>
<!-- Generator: Adobe Illustrator 15.1.0, SVG Export Plug-In . SVG Version: 6.00 Build 0)  -->
<!DOCTYPE svg PUBLIC "-//W3C//DTD SVG 1.1//EN" "http://www.w3.org/Graphics/SVG/1.1/DTD/svg11.dtd">
<svg version="1.1" id="Layer_1" xmlns="http://www.w3.org/2000/svg" xmlns:xlink="http://www.w3.org/1999/xlink" x="0px" y="0px"
	 width="20px" height="20px" viewBox="0 0 20 20" enable-background="new 0 0 20 20" xml:space="preserve">
<path d="M9.994,14.774l4.997-4.781h-2.39v-4.78H7.388v4.78H4.997L9.994,14.774z"/>
<path d="M9.994,0C4.475,0,0,4.474,0,9.994c0,5.519,4.475,9.994,9.994,9.994s9.994-4.475,9.994-9.994C19.987,4.474,15.513,0,9.994,0
	 M9.994,18.094c-4.5,0-8.15-3.647-8.15-8.148c0-4.5,3.65-8.147,8.15-8.147c4.501,0,8.149,3.647,8.149,8.147
	C18.143,14.446,14.495,18.094,9.994,18.094"/>
</svg>
