<?xml version="1.0" encoding="utf-8"?>
<!-- Generator: Adobe Illustrator 16.0.0, SVG Export Plug-In . SVG Version: 6.00 Build 0)  -->
<!DOCTYPE svg PUBLIC "-//W3C//DTD SVG 1.1//EN" "http://www.w3.org/Graphics/SVG/1.1/DTD/svg11.dtd">
<svg version="1.1" id="Layer_1" xmlns="http://www.w3.org/2000/svg" xmlns:xlink="http://www.w3.org/1999/xlink" x="0px" y="0px"
	 width="20px" height="20px" viewBox="0 0 20 20" enable-background="new 0 0 20 20" xml:space="preserve">
		<path d="M12.624,9.949h2.41l-5.04,4.821l-5.04-4.821h2.412l0.003-4.822h5.255V9.949z M19.988,9.972
			c0,5.52-4.475,9.994-9.994,9.994S0,15.491,0,9.972s4.475-9.994,9.994-9.994S19.988,4.452,19.988,9.972z M18.117,9.972
			c0-4.486-3.638-8.123-8.123-8.123c-4.486,0-8.123,3.637-8.123,8.123c0,4.484,3.637,8.123,8.123,8.123
			C14.479,18.095,18.117,14.456,18.117,9.972z"/>
</svg>
