<svg xmlns="http://www.w3.org/2000/svg" width="30" height="30" viewBox="0 0 30 30"><path fill="#0073C5" d="M23.906 5.593c0 .774-.633 1.407-1.406 1.407h-.938c-.773 0-1.406-.633-1.406-1.406v-4.188c0-.773.633-1.406 1.406-1.406h.938c.773 0 1.406.633 1.406 1.406v4.187zM9.844 5.625c0 .774-.633 1.406-1.406 1.406h-.938c-.773 0-1.406-.633-1.406-1.406v-4.219c0-.773.633-1.406 1.406-1.406h.938c.773 0 1.406.633 1.406 1.406v4.219zM26.25 2.344c-.773 0-1.406.633-1.406 1.406v2.969c0 .774-.633 1.406-1.406 1.406h-2.812c-.773 0-1.406-.633-1.406-1.406v-2.969c0-.774-.633-1.406-1.406-1.406h-5.406c-.776 0-1.408.632-1.408 1.406v2.812c0 .774-.633 1.406-1.406 1.406h-3.032c-.773 0-1.406-.633-1.406-1.406v-2.812c0-.774-.633-1.406-1.406-1.406h-2.344c-.773 0-1.406.632-1.406 1.406v24.844c0 .773.633 1.406 1.406 1.406h27.188c.773 0 1.406-.633 1.406-1.406v-24.844c0-.774-.633-1.406-1.406-1.406h-2.344zm-12.104 22.15l-.238.213c-.334.059-1.24.107-2.013.107h-4.695c-.774 0-1.447-.147-1.496-.328l-.032-.205c-.032-.206-.047-.416-.047-.627 0-.149.015-.317.047-.505.032-.187.084-.379.158-.58.076-.199.183-.398.321-.599l.137-.2c.212-.198.864-.775 1.448-1.282l.204-.177c.584-.507 1.404-1.207 1.822-1.554l.281-.251c.282-.25.512-.485.696-.703.181-.22.309-.433.384-.64.075-.206.113-.428.113-.666 0-.325-.113-.625-.338-.901-.226-.276-.601-.413-1.127-.413-.324 0-.616.041-.873.123-.256.081-.491.167-.704.262l-.6.254c-.188.074-.381.112-.581.112-.188 0-.37-.049-.545-.15-.174-.101-.324-.244-.449-.431-.125-.189-.219-.417-.282-.685l-.061-.27c.003-.352.506-.953 1.12-1.335l.688-.262c.687-.266 1.5-.395 2.439-.395.674 0 1.283.094 1.828.282.545.187 1.006.453 1.381.797.374.344.667.761.872 1.248.206.488.311 1.027.311 1.613 0 .889-.225 1.666-.678 2.329-.449.663-.783.922-.783.922-.612.473-1.598 1.224-2.191 1.667-.594.444-.447.807.326.807h1.956c.774 0 1.431.144 1.462.32l.038.224c.037.226.057.463.057.714 0 .564-.118.953-.356 1.165m10.229-10.905c0 .537-.27 1.548-.6 2.247l-3.209 6.804c-.33.699-.826 1.614-1.103 2.032l-.324.131c-.326.131-.707.197-1.145.197-.314 0-.636-.03-.967-.094l-.333-.061c-.266-.1-.2-.747.148-1.438l3.42-6.797c.347-.691-.001-1.256-.775-1.256h-1.461c-.773 0-1.685-.045-2.025-.101l-.226-.2c-.223-.201-.337-.581-.337-1.144 0-.252.014-.495.037-.732l.027-.238c.027-.179.682-.325 1.457-.325h6.008c.775-.001 1.408.438 1.408.975"/></svg>