<svg xmlns="http://www.w3.org/2000/svg" width="16" height="16" viewBox="0 0 16 16"><path fill="#0070A5" d="M15.216 2.606l.562-.563c.277-.276.161-.846-.26-1.267l-.13-.129c-.421-.42-.989-.539-1.265-.262l-.565.563"/><path fill="#0070A5" d="M14.734 3.085l-1.655-1.655-8.124 8.124 1.572-1.573-.042.043-.071.072v-.001l-1.582 1.583-.453 2.072 2.108-.416.024-.024zM13.473 6.519v7.735h-11.726v-11.477h7.485l1.995-1.746h-10.229c-.499 0-.998.498-.998.997v13.14c0 .334.499.832.833.832h13.639c.249 0 .748-.356.748-.746v-10.481l-1.747 1.746z"/></svg>