<svg xmlns="http://www.w3.org/2000/svg" width="16" height="15.928" viewBox="0 0 16 15.928"><path fill="#0073C5" d="M4.33 12.23c-.229-.168-.434-.371-.607-.606l-.187-.247-3.417 3.417 1.054 1.057.178-.203 3.231-3.229-.252-.189zm11.613-4.842l-.023-.381-.251-.001h-3.769l3.729-1.545-.572-1.378-.242.118-3.439 1.425 2.823-2.818-1.058-1.056-.178.201-2.654 2.657 1.539-3.717-1.377-.574-.089.253-1.431 3.454v-3.983l-.351-.022-.383-.021-.384.02-.354.023v3.992l-1.538-3.708-1.376.574.118.239 1.433 3.46-2.837-2.837-1.054 1.056.201.178 2.655 2.655-3.715-1.54-.576 1.378.256.085 3.452 1.431h-3.987l-.024.396-.013.341.013.341.024.395.252.002h3.723l-3.691 1.526.573 1.38.241-.119 4.218-1.746-.158-.267c-.146-.243-.255-.512-.329-.798l-.047-.187-.042-.527.042-.532.047-.188c.073-.281.183-.549.332-.795l.078-.134.089-.119c.171-.23.376-.436.608-.607l.135-.102.113-.065c.252-.15.518-.261.796-.331l.196-.05.529-.043.524.043.195.049c.282.07.551.181.795.328l.121.074.133.098c.23.172.438.377.606.606l.09.115.071.126c.149.248.263.517.333.794l.055.206.043.527-.043.527-.051.2c-.07.278-.186.547-.333.795l-.084.139-.08.109c-.171.229-.378.436-.608.608l-.113.085-.138.082c-.248.146-.517.257-.793.327l-.196.051-.527.045-.529-.045-.197-.051c-.282-.07-.549-.185-.797-.329l-.267-.16-1.85 4.467 1.379.571.085-.252 1.437-3.47v4.002l.368.023.37.018.37-.018.366-.023v-3.9939999999999998l1.537 3.711 1.379-.575-.119-.238-1.432-3.461 2.836 2.84 1.057-1.06-.201-.175-2.64-2.642 3.696 1.531.574-1.376-.255-.087-3.473-1.438h4.008l.023-.38.016-.355-.014-.357z"/></svg>