<svg xmlns="http://www.w3.org/2000/svg" width="16" height="20.68" viewBox="0 0 16 20.68"><path fill="#0073C5" d="M.297 18.585c-.336-.474-.203-2.092.472-2.632.674-.538 2.495-1.752 3.306-2.022.809-.27 1.819.067 2.495.471.675.407 1.349-.199 1.349-.199s1.957-2.429 2.766-3.644c.81-1.216.337-2.362.337-2.362s-.877-.945-1.282-1.485l-.404-1.417s.336-3.035.403-3.303c.067-.271.539-1.755 2.091-1.755 1.553 0 3.373 2.564 3.373 2.564s2.496 4.18-2.562 11.33c-5.06 7.152-8.435 6.408-8.435 6.408-2.358.001-3.573-1.481-3.909-1.954z"/></svg>