<svg xmlns="http://www.w3.org/2000/svg" width="40" height="40" viewBox="0 0 40 40"><g fill="#13110C"><path d="M21.298 35.083l.434 4.917c4.202-.371 8.119-2.022 11.324-4.778l-3.228-3.744c-2.415 2.075-5.365 3.323-8.53 3.605m10.063-5.126l3.726 3.25c2.842-3.256 4.532-7.242 4.883-11.537l-4.925-.402c-.27 3.23-1.54 6.241-3.684 8.689m3.704-10.914l4.935-.306c-.255-4.104-1.749-7.978-4.308-11.195l-3.871 3.063c1.93 2.432 3.052 5.351 3.244 8.438m-1.64-13.92c-3.299-2.99-7.385-4.757-11.813-5.123l-.407 4.927c3.337.274 6.415 1.605 8.902 3.856l3.318-3.66zm-26.479 30.099c3.203 2.756 7.122 4.407 11.326 4.778l.431-4.917c-3.167-.282-6.117-1.53-8.531-3.605l-3.226 3.744zm-1.99-13.954l-4.927.402c.357 4.295 2.043 8.281 4.882 11.537l3.724-3.25c-2.137-2.448-3.411-5.459-3.679-8.689m3.222-10.663l-3.875-3.063c-2.555 3.218-4.043 7.091-4.303 11.195l4.933.306c.196-3.087 1.317-6.006 3.245-8.438m10.617-5.678l-.402-4.927c-4.429.366-8.514 2.133-11.817 5.123l3.317 3.66c2.486-2.251 5.567-3.582 8.902-3.856"/><path d="M16.01 12.767c-.212-.146-.386-.056-.386.202v14.688c0 .258.172.348.384.201l10.481-7.312c.211-.147.21-.388-.001-.534l-10.478-7.245z"/></g></svg>