<svg xmlns="http://www.w3.org/2000/svg" width="20" height="20" viewBox="0 0 20 20"><g fill="#FAFAFA"><path d="M12.696 13.798c-.358-.419-.31-1.047.108-1.406.67-.576 1.087-1.422 1.087-2.373 0-.969-.432-1.826-1.121-2.403-.421-.35-.481-.98-.129-1.403.352-.425.979-.482 1.402-.129 1.124.937 1.843 2.356 1.84 3.936.003 1.553-.689 2.953-1.783 3.888-.188.163-.417.24-.646.24-.28-.001-.56-.118-.758-.35M15.97 16.474c-.396-.387-.4-1.017-.015-1.411 1.271-1.308 2.052-3.085 2.052-5.057 0-1.976-.787-3.756-2.068-5.066-.384-.394-.375-1.024.017-1.409.393-.389 1.021-.381 1.411.011 1.625 1.666 2.633 3.952 2.633 6.464 0 2.507-.999 4.788-2.618 6.449v.001c-.195.2-.455.301-.713.301-.25 0-.505-.095-.699-.283M9.852 2.125l-5.457 4.944h-4.395v5.86h4.396l5.441 4.951c.4.429.419.031.419-.556v-14.651c0-.587-.012-.985-.404-.548"/></g></svg>