<svg xmlns="http://www.w3.org/2000/svg" width="76" height="122" viewBox="0 0 76 122"><path d="M47.289 6.004c7.204.348 12.729 6.585 16.973 11.896 3.544 4.436 5.836 9.66 6.698 15.259 1.676 10.878-3.628 21.593-9.437 30.394-12.593 19.085-31.386 33.219-48.302 48.201-2.04 1.807-.745 5.38 1.731 3.188 18.784-16.636 39.353-32.367 52.499-54.176 5.899-9.787 9.624-21.355 7.072-32.772-1.306-5.84-4.498-10.953-8.32-15.465-4.629-5.467-10.034-10.608-17.492-10.967-2.19-.106-4.229 4.307-1.422 4.442zM11.459 115.663c8.587-15.468.054-35.054-5.901-49.95-.914-2.287-4.642 1.02-3.812 3.096 5.246 13.124 13.892 31.979 6.273 45.703-1.601 2.884 2.104 3.557 3.44 1.151zM74.769 112.019c1.246-.372 2.3-1.449 2.417-2.785.064-.73-.236-1.276-.891-1.587-2.145-1.017-6.357-.093-8.597-.014-6.83.241-13.656.625-20.477 1.061-7.55.483-15.096 1.066-22.62 1.866-4.854.516-9.995.899-14.674 2.378-2.114.668-3.298 5.222-.377 4.299 10.973-3.468 23.809-3.272 35.189-4.03 6.672-.445 13.352-.806 20.033-1.074 2.137-.086 4.274-.156 6.412-.196.741-.014 2.862.068 2.723.002l-.891-1.587-.002.023 1.737-2.497.393-.158c-2.13.636-3.317 5.177-.375 4.299z"/></svg>