<svg xmlns="http://www.w3.org/2000/svg" width="20" height="20" viewBox="0 0 20 20"><path d="M10 2c-4.418 0-8 3.582-8 8s3.582 8 8 8 8-3.582 8-8-3.582-8-8-8m0 14.485c-3.603 0-6.523-2.921-6.523-6.523s2.92-6.523 6.523-6.523 6.523 2.921 6.523 6.523-2.92 6.523-6.523 6.523m-1.397-2.612c-.47 0-.851-.382-.851-.852v-6.042c0-.47.381-.851.851-.851s.851.381.851.851v6.043c0 .469-.382.851-.851.851zm3.063 0c-.47 0-.852-.382-.852-.852v-6.042c0-.47.382-.851.852-.851.471 0 .852.381.852.851v6.043c0 .469-.381.851-.852.851z"/></svg>