<svg xmlns="http://www.w3.org/2000/svg" width="32" height="32" viewBox="0 0 32 32"><path d="M17.487 2.657c-2.965.02-5.933-.041-8.896.033-3.029.308-6.216 2.473-6.577 5.676-.256 3.006 2.131 5.852 5.112 6.205.468.325 2.266-.303 1.78.452-.916 1.137.481 3.066.591 3.434-2.591-.134-5.341.407-7.311 2.202-1.636 1.351-2.666 3.982-1.232 5.833 1.883 2.271 5.044 2.821 7.843 2.866 3.072.057 6.602-1.241 7.761-4.335.735-2.24.153-4.991-1.79-6.453-1.079-.911-2.623-1.625-2.969-3.115.007-1.685 1.898-2.296 2.76-3.499 1.899-2.139 1.466-5.939-.881-7.575-1.184-.445.077-.266.627-.301.513-.066 1.122.135 1.573-.105l1.61-1.317zm-2.844 20.223c.6 1.874-.63 3.984-2.493 4.544-2.637.878-6.043.81-7.966-1.471-1.292-1.407-1.196-3.79.322-4.999 1.852-1.621 4.696-2.187 6.981-1.275 1.175.906 2.791 1.626 3.156 3.201zm-5.056-9.006c-2.312-.128-3.83-2.387-4.408-4.428-.579-1.976-.077-4.751 2.074-5.538 2.126-.67 4.035 1.209 4.867 2.987 1.09 2.081.956 5.177-1.128 6.589-.421.256-.912.392-1.405.39zm16.273-5.372v-5.846h-1.896v6.004h-6.004v1.896h6.004v6.004h1.896v-6.004h6.004v-1.896h-6.004v-.158z"/></svg>