<svg xmlns="http://www.w3.org/2000/svg" width="20" height="20" viewBox="0 0 20 20"><path d="M14.172 9.062h-3.281v-3.281c0-.258-.211-.469-.469-.469h-.938c-.258 0-.469.211-.469.469v3.281h-3.281c-.258 0-.469.211-.469.469v.938c0 .258.211.469.469.469h3.281v3.281c0 .258.211.469.469.469h.938c.258 0 .469-.211.469-.469v-3.281h3.281c.258 0 .469-.211.469-.469v-.938c0-.258-.211-.469-.469-.469zM10 0c-5.523 0-10 4.477-10 10 0 5.522 4.477 10 10 10 5.522 0 10-4.478 10-10 0-5.523-4.478-10-10-10zm0 18.106c-4.502 0-8.155-3.65-8.155-8.154 0-4.503 3.652-8.154 8.155-8.154 4.502 0 8.153 3.651 8.153 8.154 0 4.504-3.651 8.154-8.153 8.154z"/></svg>