<svg version="1" xmlns="http://www.w3.org/2000/svg" width="20" height="20" viewBox="0 0 20 20"><g fill="#12110C"><path d="M12.904 9.852c.337-.423.508-.966.508-1.633 0-.444-.08-.835-.244-1.172s-.393-.617-.686-.839c-.295-.222-.649-.391-1.062-.506-.416-.115-.879-.174-1.392-.174h-1.974c-.239 0-.434.026-.582.077-.151.051-.266.122-.348.211-.081.09-.136.199-.165.327-.03.128-.046.265-.046.41v7.265c.12.025.267.047.442.062.176.018.352.025.532.025.427 0 .718-.086.872-.262.152-.177.229-.388.229-.636v-2.088h.315l1.645 2.358c.171.248.351.422.538.518.189.1.427.148.719.148.289 0 .557-.029.803-.09.244-.059.459-.137.646-.23l-2.217-2.921c.641-.143 1.129-.426 1.467-.85zm-1.865-.787c-.205.213-.563.32-1.076.32h-.975v-2.165h1.077c.418 0 .737.096.955.288.219.192.328.45.328.775 0 .307-.105.568-.309.782zM10.001 0c-5.523 0-10.001 4.477-10.001 10 0 5.521 4.478 10 10.001 10 5.522 0 9.999-4.479 9.999-10 0-5.523-4.477-10-9.999-10zm0 18.105c-4.503 0-8.154-3.648-8.154-8.154 0-4.502 3.651-8.153 8.154-8.153s8.153 3.651 8.153 8.153c0 4.506-3.65 8.154-8.153 8.154z"/></g></svg>