<svg xmlns="http://www.w3.org/2000/svg" width="20" height="20" viewBox="0 0 20 20"><path d="M18.2 0h-16.4c-1 0-1.8.8-1.8 1.8v16.5c0 1 .8 1.8 1.8 1.8h16.5c1 0 1.8-.8 1.8-1.8v-16.5c-.1-1-.9-1.8-1.9-1.8zm-5.6 14.1s-1.1-1-2.7-1c-1.4 0-2.5 1-2.5 1l-1-1.2s1.3-1.4 3.6-1.4c2.5 0 3.6 1.4 3.6 1.4l-1 1.2zm2.2-2.5s-1.7-1.9-4.9-1.9c-2.8 0-4.8 1.9-4.8 1.9l-1-1.3s1.9-2.2 5.8-2.2c4.3 0 6 2.2 6 2.2l-1.1 1.3zm2.2-2.6s-2.9-2.6-7.1-2.6c-4.1 0-7.1 2.6-7.1 2.6l-1-1.1s2.9-3 8.1-3c5 0 8 3 8 3l-.9 1.1z" fill="#44AD3A"/></svg>