<svg width="342.667" height="202" viewBox="0 0 342.667 202"><rect x="162.384" y="94.721" fill="#fff" width="16.751" height="9.973"/><rect x="162.449" y="94.795" fill="#fff" width="16.693" height="9.883"/><path fill="#FFFAD0" d="M162.449 95.381"/><path fill="#E30613" d="M164.222 97.212"/><polygon fill="#2C3672" points="162.449,95.772 162.449,98.535 167.142,98.535"/><polygon fill="#E30613" points="167.819,98.535 168.78,98.535 162.449,94.795 162.449,95.381"/><polygon fill="#2B366F" points="164.299,94.795 169.66,98.094 169.66,94.795"/><polygon fill="#2C3672" points="179.144,103.692 179.144,100.955 174.5,100.955"/><polygon fill="#E30613" points="173.822,100.955 172.862,100.955 179.144,104.676 179.144,104.083"/><polygon fill="#2B366F" points="177.341,104.719 171.98,101.419 171.98,104.719"/><polygon fill="#2C3672" points="179.144,95.797 179.144,98.535 174.5,98.531"/><polygon fill="#E30613" points="171.982,98.535 173.072,98.535 179.144,94.795 178.041,94.795"/><polygon fill="#2B366F" points="177.295,94.795 171.982,98.069 171.982,94.795"/><polygon fill="#2C3672" points="162.449,103.715 162.449,100.954 167.143,100.954"/><polygon fill="#E30613" points="169.658,100.953 168.567,100.953 162.446,104.721 163.549,104.721"/><polygon fill="#2B366F" points="164.297,104.717 169.658,101.418 169.658,104.717"/><polygon fill="#E30613" points="179.145,98.962 171.519,98.962 171.519,94.795 170.107,94.795 170.107,98.962 162.449,98.962 162.449,100.56 170.107,100.56 170.107,104.719 171.519,104.719 171.519,100.56 179.145,100.56"/></svg>