<?xml version="1.0" encoding="utf-8"?>
<!-- Generator: Adobe Illustrator 15.1.0, SVG Export Plug-In . SVG Version: 6.00 Build 0)  -->
<!DOCTYPE svg PUBLIC "-//W3C//DTD SVG 1.1//EN" "http://www.w3.org/Graphics/SVG/1.1/DTD/svg11.dtd">
<svg version="1.1" id="Layer_1" xmlns="http://www.w3.org/2000/svg" xmlns:xlink="http://www.w3.org/1999/xlink" x="0px" y="0px"
	 width="36px" height="36px" viewBox="0 0 36 36" enable-background="new 0 0 36 36" xml:space="preserve">
<path d="M35.801,6.958c-1.312,0.58-2.719,0.975-4.194,1.149c1.507-0.902,2.665-2.333,3.209-4.041
	c-1.409,0.837-2.972,1.445-4.635,1.772c-1.334-1.419-3.234-2.305-5.334-2.305c-4.033,0-7.303,3.27-7.303,7.302
	c0,0.573,0.064,1.13,0.189,1.667C11.663,12.195,6.28,9.29,2.677,4.87C2.05,5.947,1.688,7.203,1.688,8.542
	c0,2.533,1.29,4.769,3.249,6.079c-1.197-0.039-2.322-0.368-3.308-0.913C1.628,13.738,1.628,13.77,1.628,13.8
	c0,3.539,2.519,6.491,5.861,7.161c-0.614,0.168-1.26,0.256-1.926,0.256c-0.47,0-0.929-0.047-1.372-0.131
	c0.928,2.902,3.624,5.013,6.821,5.072c-2.498,1.961-5.649,3.128-9.069,3.128c-0.592,0-1.171-0.036-1.744-0.104
	c3.233,2.073,7.071,3.284,11.197,3.284c13.434,0,20.779-11.131,20.779-20.784c0-0.314-0.006-0.629-0.02-0.944
	C33.585,9.709,34.821,8.421,35.801,6.958z"/>
</svg>
