<?xml version="1.0" standalone="no"?> 
<!DOCTYPE svg PUBLIC "-//W3C//DTD SVG 1.1//EN" "http://www.w3.org/Graphics/SVG/1.1/DTD/svg11.dtd" >
<svg xmlns="http://www.w3.org/2000/svg">
<defs>
  <font id="skycons" horiz-adv-x="1024">
    <font-face font-family="skycons"
      units-per-em="1024" ascent="1024"
      descent="0" />
    <missing-glyph horiz-adv-x="0" />
    <glyph glyph-name="arrow-down-left"
      unicode="&#xE001;"
      horiz-adv-x="637.9016393442623" d="M384.6127213114755 973.6057704918032C445.0790819672131 970.6848524590164 491.4528524590164 918.3349508196721 527.0746229508197 873.7573770491804C556.8209836065574 836.5240655737705 576.0587540983606 792.6767213114754 583.2939016393443 745.6818360655737C597.3613114754099 654.3779672131147 552.8424918032788 564.4422295081968 504.0849836065574 490.5715409836065C398.3863606557378 330.3826885245901 240.648393442623 211.7497704918031 98.6649180327869 85.999213114754C81.5422950819672 70.8322622950818 92.4118032786885 40.8424918032787 113.1939672131148 59.2409180327868C270.856393442623 198.8742295081966 443.5011147540984 330.911475409836 553.84131147541 513.9640655737704C603.3542295081968 596.1106885245902 634.6198032786886 693.2060327868852 613.1997377049181 789.0339672131147C602.2379016393444 838.0516721311475 575.4460327868853 880.967344262295 543.3662950819672 918.8385573770493C504.5130491803279 964.7255081967214 459.1464918032787 1007.8761967213114 396.5481967213115 1010.8894426229508C378.1665573770493 1011.7791475409836 361.0523278688525 974.7388852459017 384.6127213114755 973.6057704918032L384.6127213114755 973.6057704918032zM83.8756721311475 53.1892459016393C155.9501639344262 183.0190163934426 84.3289180327869 347.4129836065574 34.3459672131148 472.4417049180328C26.6743606557377 491.6375081967213 -4.616393442623 463.880393442623 2.3501639344262 446.455606557377C46.3821639344262 336.3000655737706 118.951868852459 178.0417049180328 55.0022295081967 62.8500983606557C41.5643278688525 38.6434098360655 72.6620327868853 32.9946229508196 83.8756721311475 53.1892459016393L83.8756721311475 53.1892459016393zM615.264524590164 83.7749508196721C625.7227540983607 86.8973114754098 634.5694426229509 95.9370491803278 635.5514754098361 107.15068852459C636.0886557377049 113.2779016393441 633.5706229508197 117.8607213114752 628.0729180327869 120.471081967213C610.0689836065575 129.007213114754 574.7158032786886 121.2516721311475 555.9144918032788 120.5885901639343C498.5872786885247 118.5657704918032 441.2936393442624 115.34268852459 384.0419672131148 111.6831475409834C320.6714754098362 107.6291147540982 257.3345573770492 102.7357377049178 194.1822950819673 96.0209836065571C153.440524590164 91.6899672131145 110.2898360655738 88.4752786885244 71.0169180327869 76.0613770491801C53.2731803278689 70.4545573770489 43.3353442622951 32.230819672131 67.8525901639345 39.9779672131145C159.9538360655738 69.086426229508 267.6920655737705 67.4413114754096 363.2094426229509 73.8035409836064C419.2104918032788 77.5386229508193 475.2786885245903 80.5686557377047 531.3552786885247 82.8180983606555C549.2920655737705 83.5399344262293 567.2288524590165 84.1274754098358 585.1740327868854 84.4632131147538C591.3935737704919 84.5807213114752 609.1960655737706 83.8924590163932 608.0293770491804 84.446426229508C605.536524590164 88.8865573770489 603.0436721311477 93.3266885245899 600.5508196721312 97.766819672131C600.5424262295082 97.6996721311474 600.5424262295082 97.6409180327867 600.5340327868854 97.5737704918031C605.3938360655739 104.5655081967211 610.2536393442624 111.5488524590163 615.1134426229509 118.5321967213113C616.2129836065575 118.9770491803277 617.312524590164 119.4135081967212 618.4120655737705 119.8583606557376C600.5340327868853 114.520131147541 590.5710163934426 76.4055081967213 615.264524590164 83.7749508196721L615.264524590164 83.7749508196721z" />
    <glyph glyph-name="arrow-left"
      unicode="&#xE002;"
      horiz-adv-x="1024" d="M1000.2434999999998 565.043H213.4014999999999L555.9294999999998 907.571C563.2514999999999 914.893 561.6124999999998 928.307 552.3454999999999 937.625L502.8864999999999 987.084C493.5685 996.402 480.1024999999999 997.99 472.8325 990.668L4.4035 522.239C1.0245 518.86 -0.2555 514.047 0.1025 509.029C0.0515 508.773 0.0515 508.568 0.0005 508.312C0.0515 508.107 0.0515 507.902 0.0515 507.698C-0.3065 502.6799999999999 1.0245 497.8679999999999 4.4035 494.4879999999999L472.8325 26.059C480.1545 18.737 493.6194999999999 20.376 502.8864999999999 29.592L552.3454999999999 79.102C561.6125 88.42 563.2514999999999 101.886 555.9294999999998 109.156L217.5994999999999 447.4859999999999H1000.2425C1013.3495 447.4859999999999 1023.9995 458.1359999999999 1023.9995 471.2939999999999V541.1819999999999C1023.9995 554.3919999999998 1013.3495 565.0409999999999 1000.2425000000002 565.0409999999999z" />
    <glyph glyph-name="arrow-right"
      unicode="&#xE003;"
      horiz-adv-x="1024" d="M23.7568 458.9568H810.5984000000001L468.0704000000001 116.4288C460.7488000000001 109.1071999999999 462.3872000000001 95.6927999999999 471.6544000000001 86.3744L521.1136 36.9151999999999C530.4320000000001 27.5968 543.8976000000001 26.0095999999999 551.168 33.3312L1019.5968 501.7599999999999C1022.976 505.1392 1024.2559999999999 509.9519999999999 1023.8976 514.9695999999999C1023.9488000000002 515.2256 1023.9488000000002 515.4304 1024 515.6863999999999C1023.9487999999998 515.8911999999999 1023.9487999999998 516.0959999999999 1023.9487999999998 516.3008C1024.3072 521.3184 1022.976 526.1312 1019.5967999999998 529.5103999999999L551.1679999999999 997.9392C543.8463999999998 1005.2608 530.3807999999998 1003.6223999999997 521.1135999999999 994.4063999999998L471.6544 944.896C462.3872000000001 935.5776 460.7488000000001 922.112 468.0704 914.8416L806.4 576.512H23.7568C10.6496 576.512 0 565.8624 0 552.704V482.8159999999999C0 469.6064 10.6496 458.9568 23.7568 458.9568z" />
    <glyph glyph-name="at"
      unicode="&#xE004;"
      horiz-adv-x="956.7299270072992" d="M720.3578394160583 761.7962043795621L703.3758832116786 768.4335182481752C662.9540437956202 784.2195620437956 607.4637080291969 793.8466569343066 545.2164671532845 790.1393284671533C341.4927883211678 778.299795620438 207.6103941605838 603.9357664233577 217.7756496350363 422.1570802919709C224.8913284671531 304.0009343065693 307.5886715328467 231.1698686131387 400.5110656934306 236.2524963503651C473.2225401459852 240.0794160583943 532.8985693430656 273.8639416058395 576.7287591240874 333.181197080292C584.3825985401459 312.0733430656935 596.4015182481751 294.8522043795621 611.4700145985399 282.0559416058395C636.8233576642334 260.4099270072993 668.9336058394159 251.9787445255476 700.0871240875911 253.8922043795622C844.971912408759 262.3233868613139 959.0021605839416 405.2349197080292 946.8038540145986 618.525897810219C939.8675620437954 738.1769343065694 891.4929051094889 841.3243795620438 812.7420729927005 912.3017810218978C734.0510364963501 983.3389781021898 625.22300729927 1021.5483795620438 500.7883211678832 1014.1935182481752C183.0343941605839 994.9991240875912 -6.5775182481752 725.7992408759123 9.9260729927007 433.3388613138686C26.4296642335766 157.3222773722628 238.2855474452554 -6.1589489051096 474.2988613138685 7.2352700729926C474.5978394160584 7.2950656934307 474.9566131386861 7.2950656934307 475.136 7.2950656934307C568.8357372262773 12.7364671532847 649.1412554744525 33.3659562043796 725.5002627737225 79.5281751824817L743.1997664233575 90.231591240876L734.7685839416056 109.1270072992701L698.4128467153282 191.7645547445255L675.3317372262771 176.9950364963504C625.4023941605839 145.0043795620437 557.4147737226276 125.0326423357665 482.6104525547444 120.7871532846715C291.8624233576642 110.8610802919708 148.3529343065693 231.3492554744526 134.3009635036495 448.8259270072994C119.5912408759124 715.9927591240876 286.3014306569343 890.7753576642335 496.1840583941604 903.5716204379562C696.4395912408758 913.7966715328467 809.5131094890509 791.933197080292 822.4887591240874 603.0388321167884C826.7342481751823 528.0551240875914 811.8451386861311 468.7976642335766 788.943416058394 428.973781021898C766.1612846715327 388.8509197080293 736.5026569343064 369.9555036496352 712.7637956204377 368.8791824817519C712.345226277372 368.8791824817519 711.7472700729925 368.819386861314 711.5080875912406 368.819386861314C695.3034744525544 369.7761167883213 687.3506569343064 372.5267153284672 681.8494598540143 421.2601459854016C680.5937518248172 439.9163795620439 681.8494598540143 463.7748321167885 686.0351532846713 492.9550948905111L720.3578394160583 761.7962043795621zM426.2829781021898 359.0727007299271C379.8217810218978 357.81699270073 360.1490218978102 382.452788321168 354.7076204379562 435.730686131387C347.7115328467153 557.5343649635037 431.1264233576642 663.4324087591241 535.8285547445254 669.8305401459854C552.1527591240874 670.8470656934307 566.0851386861312 669.8903357664234 577.386510948905 668.5748321167883L560.4643503649634 534.3336642335767C552.690919708029 456.2405839416059 485.2414598540145 358.8933138686132 426.2829781021898 359.0727007299271z" />
    <glyph glyph-name="calender"
      unicode="&#xE005;"
      horiz-adv-x="1024" d="M815.9914666666666 833.0922666666667C815.9914666666666 806.6730666666667 794.3850666666666 785.0666666666666 768 785.0666666666666H735.9829333333333C709.5978666666667 785.0666666666666 687.9914666666667 806.6730666666667 687.9914666666667 833.0581333333333V976.0085333333334C687.9914666666666 1002.3936 709.5978666666667 1024 735.9829333333333 1024H768C794.3850666666666 1024 815.9914666666666 1002.3936 815.9914666666666 976.0085333333334V833.0922666666667zM336.0085333333334 832C336.0085333333334 805.5808 314.4021333333333 784.0085333333334 288.0170666666666 784.0085333333334H256C229.6149333333334 784.0085333333334 208.0085333333333 805.6149333333333 208.0085333333333 832V976.0085333333334C208.0085333333333 1002.3936 229.6149333333334 1024 256 1024H288.0170666666667C314.4021333333333 1024 336.0085333333334 1002.3936 336.0085333333334 976.0085333333334V832zM896 943.9914666666666C869.6149333333333 943.9914666666666 848.0085333333334 922.3850666666668 848.0085333333334 896V794.6581333333334C848.0085333333334 768.2389333333333 826.4021333333334 746.6666666666667 800.0170666666668 746.6666666666667H704.0341333333333C677.6490666666667 746.6666666666667 656.0426666666667 768.2730666666666 656.0426666666667 794.6581333333334V896C656.0426666666667 922.4192 634.4362666666668 943.9914666666666 608.0512000000001 943.9914666666666H423.5264000000002C397.0389333333333 943.9914666666666 375.4666666666667 922.4192 375.4666666666667 896V800.0170666666667C375.4666666666667 773.5978666666667 353.8602666666667 752.0256 327.4752 752.0256H223.9829333333333C197.5978666666667 752.0256 175.9914666666667 773.6320000000001 175.9914666666667 800.0170666666667V896C175.9914666666667 922.4192 154.3850666666667 943.9914666666666 128 943.9914666666666H47.9914666666667C21.6064 943.9914666666666 0 922.4192 0 896V47.9914666666666C0 21.6064 21.6064 0 47.9914666666667 0H976.0085333333332C1002.3936 0 1024 21.6064 1024 47.9914666666666V896C1024 922.4192 1002.3936 943.9914666666666 976.0085333333334 943.9914666666666C976.0085333333334 943.9914666666666 896 943.9914666666666 896 943.9914666666666zM482.8501333333334 187.9381333333333L474.7264 180.6677333333333C463.3258666666667 178.6538666666667 432.4010666666667 177.0154666666667 406.016 177.0154666666667H245.76C219.3408 177.0154666666667 196.3690666666667 182.0330666666666 194.6965333333334 188.2112L193.6042666666667 195.2085333333333C192.512 202.2399999999999 192 209.4079999999999 192 216.6101333333333C192 221.6959999999999 192.512 227.4303999999999 193.6042666666667 233.8474666666665C194.6965333333334 240.2303999999999 196.4714666666667 246.7839999999999 198.9973333333334 253.6447999999998C201.5914666666667 260.4373333333332 205.2437333333334 267.2298666666665 209.9541333333334 274.0906666666665L214.6304 280.9173333333331C221.8666666666667 287.6757333333332 244.1216 307.3706666666664 264.0554666666667 324.6762666666665L271.0186666666667 330.7178666666664C290.9525333333334 348.0234666666666 318.9418666666668 371.9167999999998 333.2096 383.7610666666664L342.8010666666667 392.3285333333331C352.4266666666667 400.8618666666664 360.2773333333334 408.8831999999998 366.5578666666667 416.3242666666664C372.736 423.8335999999997 377.1050666666667 431.1039999999997 379.6650666666667 438.1695999999997C382.2250666666667 445.2010666666664 383.5221333333334 452.7786666666665 383.5221333333334 460.9023999999997C383.5221333333334 471.9957333333331 379.6650666666667 482.2357333333331 371.9850666666668 491.6565333333331C364.2709333333334 501.0773333333331 351.4709333333334 505.7535999999998 333.5168000000001 505.7535999999998C322.4576 505.7535999999998 312.4906666666667 504.354133333333 303.7184000000001 501.5551999999998C294.9802666666667 498.7903999999999 286.9589333333334 495.8549333333332 279.6885333333334 492.6122666666664C272.4522666666667 489.4378666666664 265.6597333333334 486.5365333333331 259.2085333333334 483.9423999999998C252.7914666666667 481.4165333333332 246.2037333333334 480.1194666666664 239.3770666666667 480.1194666666664C232.9600000000001 480.1194666666664 226.7477333333334 481.7919999999998 220.7744000000001 485.2394666666664C214.8352000000001 488.6869333333332 209.7152000000001 493.5679999999998 205.4485333333334 499.9509333333331C201.1818666666667 506.4021333333332 197.9733333333334 514.1845333333331 195.8229333333334 523.3322666666664L193.7408000000001 532.5482666666664C193.8432000000001 544.5631999999998 211.0122666666667 565.0773333333332 231.9701333333334 578.1162666666664L255.4538666666668 587.0591999999998C278.9034666666667 596.1386666666665 306.6538666666667 600.5418666666665 338.7050666666667 600.5418666666665C361.7109333333334 600.5418666666665 382.4981333333334 597.3333333333331 401.1008000000001 590.9162666666664C419.7034666666667 584.5333333333331 435.4389333333334 575.4538666666665 448.2389333333334 563.7119999999998C461.0048 551.9701333333331 471.0058666666667 537.7365333333332 478.0032 521.1135999999998C485.0346666666667 504.4565333333331 488.6186666666667 486.0586666666665 488.6186666666667 466.056533333333C488.6186666666667 435.7119999999998 480.9386666666667 409.1903999999998 465.4762666666667 386.5599999999997C450.1504 363.9295999999997 438.7498666666667 355.0890666666665 438.7498666666667 355.0890666666665C417.8602666666667 338.9439999999998 384.2048 313.3098666666664 363.9637333333333 298.1887999999997C343.6885333333334 283.0335999999998 348.7061333333334 270.6431999999998 375.0912 270.6431999999998H441.856C468.2752 270.6431999999998 490.7008 265.7279999999997 491.7589333333333 259.7205333333331L493.056 252.0746666666664C494.3189333333333 244.360533333333 495.0016 236.270933333333 495.0016 227.7034666666664C495.0016 208.4522666666667 490.9738666666667 195.1744 482.8501333333334 187.9381333333333M832 560.1621333333333C832 541.8325333333332 822.784 507.3237333333333 811.52 483.4645333333333L701.9861333333333 251.2213333333333C690.7221333333333 227.3621333333333 673.7919999999999 196.1301333333333 664.3370666666666 181.8624L653.2778666666666 177.3909333333334C642.1504 172.9194666666666 629.1456 170.6666666666666 614.1952 170.6666666666666C603.4773333333333 170.6666666666666 592.4864 171.6906666666668 581.1882666666667 173.8752000000001L569.8218666666668 175.9573333333334C560.7424000000001 179.3706666666668 562.9952000000001 201.4549333333334 574.8736000000001 225.0410666666667L691.6096 457.0453333333334C703.4538666666667 480.6314666666667 691.5754666666667 499.9168000000001 665.1562666666667 499.9168000000001H615.2874666666668C588.9024000000002 499.9168000000001 557.7728000000002 501.4528 546.1674666666668 503.3642666666667L538.4533333333335 510.1909333333334C530.8416000000001 517.0517333333335 526.9504000000002 530.0224000000001 526.9504000000002 549.2394666666667C526.9504000000002 557.8410666666667 527.4282666666668 566.1354666666666 528.2133333333335 574.2250666666666L529.1349333333335 582.3488C530.0565333333334 588.4586666666667 552.4138666666668 593.4421333333332 578.8672000000001 593.4421333333332H783.9402666666667C810.3936 593.4762666666667 832 578.4917333333333 832 560.1621333333333" />
    <glyph glyph-name="carousel-pause"
      unicode="&#xE006;"
      horiz-adv-x="1024" d="M512 921.6C285.7984 921.6 102.4 738.2016 102.4 512S285.7984 102.4 512 102.4C738.2016 102.4 921.6 285.7984 921.6 512S738.2016 921.6 512 921.6M512 179.968C327.5264 179.968 178.0224 329.5232 178.0224 513.9456C178.0224 698.3679999999999 327.5264 847.9232 512 847.9232S845.9776 698.3679999999999 845.9776 513.9456C845.9776 329.5232 696.4736 179.968 512 179.968M440.4736000000001 313.7024C416.4096 313.7024 396.9024 333.2608 396.9024 357.3248V666.6751999999999C396.9024 690.7392 416.4096 710.2464 440.4736000000001 710.2464C464.5376000000001 710.2464 484.0448000000001 690.7392 484.0448000000001 666.6751999999999V357.2736C484.0448000000001 333.2608 464.4864 313.7024 440.4736000000001 313.7024zM597.2992 313.7024C573.2352 313.7024 553.6768000000001 333.2608 553.6768000000001 357.3248V666.6751999999999C553.6768000000001 690.7392 573.2352 710.2464 597.2992 710.2464C621.4144000000001 710.2464 640.9216000000001 690.7392 640.9216000000001 666.6751999999999V357.2736C640.9216000000001 333.2608 621.4144000000001 313.7024 597.2992 313.7024z" />
    <glyph glyph-name="carousel-play"
      unicode="&#xE007;"
      horiz-adv-x="1024" d="M512 921.6C285.7984 921.6 102.4 738.2016 102.4 512S285.7984 102.4 512 102.4C738.2016 102.4 921.6 285.7984 921.6 512S738.2016 921.6 512 921.6M512 179.968C327.5264 179.968 178.0224 329.5232 178.0224 513.9456C178.0224 698.3679999999999 327.5264 847.9232 512 847.9232S845.9776 698.3679999999999 845.9776 513.9456C845.9776 329.5232 696.4736 179.968 512 179.968M702.2080000000001 512.9216L424.192 311.1936000000001V712.8063999999999L702.2080000000001 512.9216z" />
    <glyph glyph-name="chevron-down"
      unicode="&#xE008;"
      horiz-adv-x="1021" d="M489.0085 363.736C500.5995 352.2080000000001 519.6845000000001 352.2080000000001 531.2765 363.736L867.6695000000001 700.325C879.3285000000001 711.8530000000001 898.3455 711.8530000000001 910.0685 700.325L990.1775 620.021C1001.8365 608.362 1001.8365 589.4739999999999 990.1775 577.7529999999999L653.5245000000001 241.555C641.8655000000001 230.027 622.8485000000001 211.0079999999999 611.1905 199.222L531.0165000000001 119.18C519.3575000000001 107.4559999999999 500.4695 107.4559999999999 488.8125 119.18L30.8225 576.9739999999999C19.0345 588.6979999999999 19.0345 607.7819999999999 30.8225 619.5029999999999L110.8645 699.5459999999999C122.5235 711.334 141.6075 711.334 153.1975 699.5459999999999L489.0035 363.74z" />
    <glyph glyph-name="chevron-left"
      unicode="&#xE009;"
      horiz-adv-x="614.4" d="M604.6890666666667 886.5109333333334C616.6698666666666 898.6624 616.6698666666666 918.6645333333335 604.6890666666667 930.9184L522.4277333333333 1014.8181333333334C510.4469333333334 1027.0378666666668 490.9568 1027.0378666666668 479.0442666666665 1014.8181333333334L8.9941333333334 534.7669333333333C-2.9866666666666 522.5813333333333 -2.9866666666666 502.5450666666667 8.9941333333334 490.3936L91.2213333333334 406.3914666666666C103.2021333333334 394.2399999999999 122.6581333333334 374.2378666666666 134.6389333333334 362.0522666666667L479.7269333333332 9.1477333333333C491.6735999999999 -3.0378666666666 511.1978666666666 -3.0378666666666 523.1786666666666 9.1136L605.4058666666666 93.1498666666666C617.3866666666665 105.3696 617.3866666666665 125.3717333333333 605.4058666666666 137.5573333333333L260.1130666666667 490.1888C248.1322666666667 502.3402666666667 248.1322666666667 522.3424 260.1130666666667 534.5621333333333L604.6890666666667 886.5109333333334z" />
    <glyph glyph-name="chevron-up"
      unicode="&#xE00A;"
      horiz-adv-x="1014" d="M527.9865 468.789C516.6675 480.047 498.0295000000001 480.047 486.7095000000001 468.789L158.2005000000001 140.089C146.8145000000001 128.8309999999999 128.2435000000001 128.8309999999999 116.7955000000001 140.089L38.5645000000001 218.511C27.1785000000001 229.897 27.1785000000001 248.342 38.5645000000001 259.788L367.3275000000001 588.106C378.7135000000001 599.364 397.2845000000001 617.937 408.6695000000001 629.447L486.9645000000001 707.613C498.3505000000001 719.062 516.7955 719.062 528.1795 707.613L975.4355 260.549C986.9474999999998 249.1 986.9474999999998 230.463 975.4355 219.017L897.2694999999999 140.8499999999999C885.8835 129.338 867.2475 129.338 855.9285 140.8499999999999L527.9925 468.7859999999998z" />
    <glyph glyph-name="chevron"
      unicode="&#xE00B;"
      horiz-adv-x="727.9093222299327" d="M672.8364561647003 495.1228313671063L177.7728429331483 990.0680083275502L55.0728660652325 867.2495951885265L427.0811936155448 495.1228313671063L55.0728660652325 122.936849410132L177.8320610687023 1e-13L650.3927827897293 472.7383761276892z" />
    <glyph glyph-name="close"
      unicode="&#xE00C;"
      horiz-adv-x="1024" d="M578.1083962879999 511.9488C620.348396288 554.1887999999999 662.5883962879999 596.4287999999999 704.828396288 638.6687999999999C727.121849088 666.56570368 690.0028730879999 686.7159910400001 674.1080890879999 705.58749184C651.927532288 734.8394035199999 624.4070714879999 705.00924416 607.850425088 686.49433088C573.7870650879998 652.44475392 539.7237562879999 618.39517696 505.6603962879998 584.3456C463.4203962879998 626.5856 421.1803962879999 668.8255999999999 378.940396288 711.0655999999999C351.045509888 733.3575270399999 330.8923041279999 696.24086528 312.0217044479999 680.3453081600001C282.7627681279999 658.16917504 312.601800448 630.6427647999999 331.119826688 614.0925695999999C365.1677498879999 580.0446463999999 399.2156730879999 545.9967231999999 433.2635962879999 511.9488C391.0235962879999 469.7088 348.7835962879999 427.4688 306.543596288 385.2288C284.250169088 357.3319168 321.369104128 337.1815936000001 337.263888128 318.3100928C359.4452078079999 289.0574336 386.9651924479999 318.8881408000001 403.5166266879999 337.4082560000001C437.5645498879998 371.4561536 471.6124730879998 405.5041024 505.6603962879998 439.552C547.9003962879999 397.312 590.1403962879999 355.072 632.3803962879999 312.832C660.268319488 290.5442816 680.4329274879999 327.6563456 699.2991034879999 343.5523072000001C728.557241088 365.7276416000001 698.7184954879999 393.2545536 680.2059066879999 409.8100224000001C646.173420288 443.8562816 612.1408826879999 477.9025408 578.1083962879999 511.9488zM867.6955962879998 149.9648000000001C1012.065977088 290.3333888 1057.8652474879998 519.1484671999999 980.1883962880001 704.66720256C907.228293888 890.266752 717.4912314879999 1021.708142592 517.9438394879999 1023.87218176C320.8172398079999 1031.122827776 127.0834951679999 912.01242112 43.8116037119999 733.3296128C-45.8261219840001 551.41539328 -12.5781393920001 317.9246592 125.4670906879999 169.07008C255.8831572479999 20.5866496 476.1102087679998 -37.9525632000002 663.297260288 24.7512064C740.128697088 49.4257664 810.7411770879999 92.8221183999999 867.695596288 149.9647999999999zM212.1819962879999 805.4272C340.9557870079999 938.92245504 561.4307642879999 966.5933824 719.5357498879999 869.9202867199999C875.676498688 780.9733376 958.3019322879998 584.6235904 912.946002688 410.7935232C871.534981888 228.2725376 694.585170688 89.3507072 507.4011962879999 92.7231999999999C320.200812288 89.3499904 143.2480468479998 228.2962944 101.8336570879999 410.8281856C66.7841082879999 550.02692608 109.6007943679998 704.7757824 212.1819962879999 805.4272z" />
    <glyph glyph-name="cloud"
      unicode="&#xE00D;"
      horiz-adv-x="1353.2667052118609" d="M527.5202775253985 801.4722061617247C495.3801932766168 831.9207070289915 452.160237878913 850.7818617328818 404.5421656892707 850.7818617328818C313.4504005946973 850.7818617328818 238.5978359626662 782.6956306269101 227.4333856446684 694.7332947881391C102.0870570744198 679.5936235235814 4.9901709754687 573.0238704881474 4.9901709754687 443.702320971339C4.9901709754687 303.9775336582144 118.1570991988106 190.641447096721 258.1356240191625 190.641447096721C313.2812422565458 190.641447096721 364.1979020401421 208.6568101098537 405.8954323944825 238.5132567935906C465.6083257619558 169.3274964896342 553.6552407698025 125.0925910630216 652.3591310811926 125.0925910630216C738.20698769307 125.0925910630216 816.1044024118278 158.5859420170152 874.210291566862 212.9703477327167L1058.4237218138267 -0.1691583381514L1018.756091517304 222.1048979928969C1044.3835797472536 213.3086644090198 1071.7872305277938 208.1493350953996 1100.3749896753943 208.1493350953996C1237.139506070868 208.1493350953996 1348.276534236392 319.1172049227721 1348.276534236392 455.9663004873216C1348.276534236392 592.7308168827954 1237.3086644090195 703.8678450483194 1100.374989675394 703.8678450483194L1093.7778144874865 703.4449492029407C1094.2007103328651 709.196332700091 1094.7927645163954 714.77855785909 1094.7927645163954 720.4453621871646C1094.7927645163954 880.2999917403157 965.2174774923596 1009.7061204262 805.4474271082844 1009.7061204262C673.5039233501279 1009.7906995952754 562.620632691831 921.8283637565044 527.5202775253985 801.4722061617247" />
    <glyph glyph-name="download"
      unicode="&#xE00E;"
      horiz-adv-x="1060.5714285714284" d="M530.2857142857142 320L911.4331428571428 672L729.1611428571427 672L729.1611428571427 1024L331.4468571428572 1024L331.4468571428572 672L149.1382857142857 672zM1010.870857142857 448H977.7371428571428C950.3817142857142 448 928.0365714285712 426.4228571428572 928.0365714285712 400.0182857142858V128H132.5714285714286V400.0182857142858C132.5714285714286 426.4228571428572 110.1897142857143 448 82.8708571428571 448H49.7005714285714C22.3817142857143 448 0 426.4228571428572 0 400.0182857142858V128V90.7337142857144C0 40.5942857142858 42.0571428571429 0 93.952 0H966.656C1018.5142857142858 0 1060.5714285714284 40.5942857142858 1060.5714285714284 90.7337142857144V128V400.0182857142858C1060.5714285714284 426.4228571428572 1038.1897142857142 448 1010.870857142857 448z" />
    <glyph glyph-name="edit"
      unicode="&#xE00F;"
      horiz-adv-x="1024" d="M980.9279999999998 857.216L1016.896 893.248C1034.624 910.912 1027.1999999999998 947.392 1000.256 974.336L991.9359999999996 982.592C964.992 1009.472 928.6399999999998 1017.088 910.9759999999998 999.36L874.8159999999998 963.328M950.08 826.56L844.1600000000001 932.48L324.224 412.544L424.832 513.216L422.144 510.4640000000001L417.6 505.856L417.6 505.92L316.352 404.608L287.36 272L422.272 298.624L423.808 300.1600000000001zM869.376 606.784V111.7439999999999H118.912V846.2719999999999H597.952L725.6320000000001 958.016H70.976C39.04 958.016 7.104 926.144 7.104 894.208V53.2479999999999C7.104 31.872 39.04 0 60.416 0H933.3119999999998C949.248 0 981.184 22.784 981.184 47.744V718.528L869.376 606.784z" />
    <glyph glyph-name="expand"
      unicode="&#xE010;"
      horiz-adv-x="1024" d="M152.704 935.3728L475.0592 613.0688L402.6624 540.6207999999999L88.5504 854.7328L88.192 560.2303999999999L2.9952 560.1792L3.4048 935.2192H2.9952V1020.4672H3.5072V1020.9792H88.704V1020.5696L463.7952 1020.9792L463.744 935.7312L152.704 935.3728zM1021.0048 463.8208H935.7568L935.3984 161.0239999999999L612.9920000000001 483.4304L540.5952 411.0336L863.0015999999999 88.6272L560.2048000000001 88.3200000000001V3.0208L935.2448 3.4304V3.0208H1020.4928000000002V3.5328000000001H1020.9536L1021.0048 88.7808H1020.5952L1021.0048 463.8208z" />
    <glyph glyph-name="facebook"
      unicode="&#xE011;"
      horiz-adv-x="1024" d="M390.1440000000001 0V480.5119999999999H263.1168V653.5168H390.144C390.144 653.5168 390.144 724.4287999999999 390.144 801.28C390.1440000000001 917.3504 465.2032 1024 638.1568000000001 1024C708.1472000000001 1024 759.9616 1017.2928 759.9616 1017.2928L755.8656 855.7568C755.8656 855.7568 703.0784 856.2688 645.4784 856.2688C583.0656 856.2688 573.0816 827.5456 573.0816 779.8272C573.0816 742.0927999999999 573.0816 860.2112 573.0816 653.5167999999999H760.8832L752.6912 480.5119999999999H573.0816V0H390.1440000000001z" />
    <glyph glyph-name="gallery"
      unicode="&#xE012;"
      horiz-adv-x="1408" d="M1315.2960000000003 871.488H966.4320000000002L968.672 866.048L917.792 986.56C909.088 1007.36 885.0880000000001 1024 864.416 1024H567.3280000000001C546.528 1024 523.0400000000001 1007.36 514.7840000000001 986.624L466.784 866.112L468.96 871.5519999999999H92.64C41.504 871.5519999999999 0.032 830.144 0.032 778.88V92.5439999999999C0.032 41.5359999999998 41.504 0.0639999999999 92.64 0.0639999999999H1315.3600000000001C1366.496 0.0639999999999 1407.968 41.5359999999998 1407.968 92.5439999999999V778.816C1407.968 830.0799999999999 1366.4320000000002 871.488 1315.2960000000003 871.488M704.3520000000001 126.144C523.8720000000001 126.144 377.504 271.616 377.504 451.264C377.504 630.848 523.936 776.512 704.3520000000001 776.512C884.7040000000001 776.512 1031.0720000000003 630.848 1031.0720000000003 451.264C1031.1360000000002 271.616 884.768 126.144 704.3520000000001 126.144M1227.7440000000001 594.24C1182.112 594.24 1145.248 630.976 1145.248 676.48C1145.248 721.856 1182.112 758.592 1227.7440000000001 758.592S1310.2400000000002 721.856 1310.2400000000002 676.48C1310.2400000000002 630.976 1273.3760000000002 594.24 1227.7440000000001 594.24" />
    <glyph glyph-name="google-plus"
      unicode="&#xE013;"
      horiz-adv-x="1071.5428571428572" d="M650.6971428571429 1024.7314285714285H382.9942857142859C347.5200000000001 1024.7314285714285 309.3028571428572 1020.5257142857142 268.7085714285716 1012.2971428571428C227.7485714285716 1002.6057142857142 188.0685714285715 982.1257142857143 150.0342857142858 950.6742857142858C94.6285714285715 896.9142857142857 66.8342857142858 837.12 66.8342857142858 771.1085714285714C66.8342857142858 716.4342857142857 86.4 668.5257142857142 125.5314285714286 627.5657142857142C162.8342857142858 583.4971428571429 217.1428571428572 560.8228571428572 288.4571428571429 560.0914285714285C301.9885714285714 560.0914285714285 316.2514285714286 561.0057142857142 331.4285714285715 562.6514285714286C328.8685714285715 555.702857142857 326.1257142857144 548.0228571428572 323.2 539.6114285714285C319.9085714285714 531.7485714285714 318.08 521.8742857142856 318.08 509.9885714285714C318.08 490.24 322.4685714285714 473.2342857142856 331.2457142857143 459.1542857142857C338.7428571428572 444.7085714285714 347.3371428571429 430.9942857142858 357.0285714285715 418.1942857142857C325.76 417.28 286.6285714285715 413.44 239.2685714285714 406.4914285714287C191.5428571428571 398.2628571428573 146.0114285714285 381.6228571428572 102.6742857142857 356.7542857142858C64.0914285714286 333.7142857142858 37.3942857142857 306.8342857142858 22.5828571428571 276.297142857143C7.4057142857142 245.7600000000001 -0.2742857142858 217.9657142857144 -0.2742857142858 193.0971428571429C-0.2742857142858 142.0800000000002 23.1314285714286 98.1942857142858 69.76 61.6228571428572C116.0228571428572 22.3085714285716 186.0571428571429 2.377142857143 279.8628571428572 1.4628571428573C391.9542857142858 3.2914285714287 477.5314285714287 30.1714285714288 536.96 82.1028571428574C594.1942857142857 132.3885714285716 622.9028571428571 189.9885714285716 622.9028571428571 255.2685714285716C622.1714285714286 301.1657142857145 611.5657142857142 338.2857142857145 591.6342857142856 366.8114285714288C570.4228571428571 394.7885714285716 545.5542857142857 420.3885714285716 517.3942857142856 443.6114285714288L472.0457142857142 480.9142857142858C465.4628571428571 487.497142857143 458.6971428571428 495.1771428571431 451.7485714285713 503.9542857142859C443.52 513.097142857143 439.4971428571428 524.8000000000002 439.4971428571428 538.697142857143C439.4971428571428 553.1428571428573 443.52 565.7600000000002 451.3828571428571 576.7314285714288C458.1485714285714 587.1542857142858 465.4628571428571 596.6628571428573 473.5085714285714 604.8914285714288C487.4057142857143 617.1428571428573 500.5714285714286 629.2114285714288 513.0057142857142 640.9142857142858C524.16 652.8000000000002 534.7657142857142 665.6000000000001 544.64 679.6800000000001C564.9371428571428 708.5714285714287 575.5428571428571 746.9714285714288 576.2742857142857 795.0628571428573C576.2742857142857 821.2114285714287 573.3485714285714 844.2514285714287 567.4971428571429 864.0000000000001C560.3657142857143 883.7485714285715 552.1371428571429 900.7542857142859 542.9942857142858 915.2000000000002C533.3028571428572 930.5600000000002 523.4285714285714 943.3600000000002 513.3714285714286 953.9657142857144C502.9485714285716 964.0228571428572 493.4400000000001 971.7028571428572 485.0285714285715 976.8228571428572H568.0457142857143L650.6971428571429 1024.7314285714285zM503.8628571428572 291.4742857142857C525.9885714285714 266.057142857143 537.1428571428571 236.4342857142857 537.1428571428571 202.24C537.1428571428571 160.3657142857143 520.8685714285714 125.9885714285714 488.5028571428571 99.2914285714285C455.2228571428571 72.2285714285715 407.1314285714285 58.1485714285714 344.0457142857143 57.2342857142857C273.6457142857143 58.1485714285714 218.24 73.8742857142858 177.8285714285714 104.4114285714286C135.222857142857 134.9485714285714 113.8285714285714 173.8971428571429 113.8285714285714 221.0742857142857C113.8285714285714 245.2114285714286 118.7657142857142 265.6914285714286 128.4571428571428 282.6971428571428C137.0514285714285 298.7885714285715 147.4742857142856 312.5028571428571 159.7257142857142 323.2914285714286C172.5257142857143 333.7142857142857 185.1428571428571 341.9428571428571 197.3942857142857 347.6114285714285C209.8285714285715 352.9142857142856 219.3371428571429 356.7542857142857 226.1028571428571 359.4971428571428C254.9942857142857 368.2742857142857 283.3371428571429 374.4914285714285 311.1314285714285 378.5142857142856C339.2914285714285 381.0742857142856 356.6628571428571 381.9885714285713 363.6114285714286 381.0742857142856C375.1314285714285 381.0742857142856 385.1885714285714 380.7085714285713 393.6 379.7942857142856C443.8857142857144 345.0514285714286 480.457142857143 315.6114285714287 503.8628571428572 291.4742857142857zM460.5257142857144 687.1771428571428C457.2342857142857 669.2571428571429 449.9200000000001 651.7028571428572 438.7657142857144 634.6971428571429C415.177142857143 610.5600000000001 385.9200000000002 597.9428571428573 350.6285714285716 596.6628571428571C322.6514285714287 596.6628571428571 297.9657142857144 605.2571428571429 276.2057142857145 622.2628571428572C254.4457142857145 639.2685714285715 236.7085714285715 660.1142857142856 222.9942857142858 684.6171428571429C194.6514285714287 737.0971428571429 180.5714285714287 787.7485714285715 180.5714285714287 836.3885714285715C179.657142857143 873.1428571428571 189.3485714285716 906.4228571428572 209.6457142857144 936.2285714285714C233.6000000000002 964.7542857142859 263.7714285714287 979.3828571428572 300.1600000000001 980.2971428571428C327.5885714285715 979.3828571428572 351.9085714285716 971.337142857143 372.937142857143 955.9771428571428C393.6000000000001 939.7028571428572 410.2400000000001 918.6742857142858 422.857142857143 892.8914285714286C449.9200000000002 838.9485714285714 463.2685714285716 785.5542857142857 463.2685714285716 732.5257142857143C463.4514285714287 720.0914285714287 462.3542857142858 705.0971428571429 460.5257142857144 687.1771428571428zM1068.3428571428572 605.6228571428571V606.3542857142857H927.542857142857V749.8971428571429H845.0742857142857V606.3542857142857H703.36V526.2628571428572H704.2742857142857V523.1542857142858H845.0742857142857V382.3542857142858H927.542857142857V523.1542857142858H1071.817142857143V605.6228571428571H1068.3428571428572z" />
    <glyph glyph-name="home"
      unicode="&#xE014;"
      horiz-adv-x="1092.0725204408106" d="M1092.0725204408106 477.9637397795947L546.0362602204053 1024L0 477.9637397795947H170.6545325275507V13.8329185922502C170.6545325275507 6.3340206185566 176.8065410593672 0.18201208674 184.3054390330608 0.18201208674H430.0217561322432C437.5206541059368 0.18201208674 443.6726626377533 6.3340206185566 443.6726626377533 13.8329185922502V310.7310344827585C443.6726626377533 318.2299324564521 449.8246711695699 324.3819409882687 457.3235691432635 324.3819409882687H634.7853537148952C642.2842516885887 324.3819409882687 648.4362602204053 318.2299324564521 648.4362602204053 310.7310344827585V13.8329185922502C648.4362602204053 6.3340206185566 654.5882687522219 0.18201208674 662.0871667259154 0.18201208674H907.8034838250978C915.3023817987914 0.18201208674 921.454390330608 6.3340206185566 921.454390330608 13.8329185922502V477.9637397795947H1092.0725204408106z" />
    <glyph glyph-name="info"
      unicode="&#xE015;"
      horiz-adv-x="1024" d="M508.8878431372549 695.516862745098C491.1184313725491 695.516862745098 475.9592156862745 701.6407843137255 463.4101960784315 713.9388235294118S444.5866666666668 741.2454901960784 444.5866666666668 759.0149019607843S450.8611764705882 791.9435294117646 463.4101960784315 804.4925490196078S491.1184313725491 823.3160784313725 508.8878431372549 823.3160784313725S541.8164705882355 817.0415686274509 554.3654901960787 804.4925490196078S573.1890196078433 776.7341176470588 573.1890196078433 759.0149019607843C573.1890196078433 741.2454901960784 566.9145098039218 726.236862745098 554.3654901960787 713.9388235294118S526.657254901961 695.516862745098 508.8878431372549 695.516862745098M500.2541176470589 257.1043137254902C490.3152941176472 257.1043137254902 480.1254901960785 257.7568627450981 469.6847058823529 259.0619607843138L446.1427450980394 262.5756862745098V606.9207843137256C446.1427450980394 620.5239215686275 450.9615686274511 630.7137254901961 460.6996078431372 637.4901960784314C470.3372549019609 644.3168627450982 489.0101960784315 647.6800000000001 516.7686274509805 647.6800000000001C526.7074509803923 647.6800000000001 536.8972549019609 646.9772549019608 547.3380392156863 645.7223529411765L570.8800000000001 642.2086274509804V297.9137254901962C570.8800000000001 284.3105882352942 566.010980392157 274.1207843137256 556.3733333333334 267.3443137254904S527.9623529411765 257.1043137254902 500.2541176470589 257.1043137254902M511.9999999999999 1013.9607843137256C234.7670588235295 1013.9607843137256 10.0392156862745 789.1827450980393 10.0392156862745 512S234.7670588235295 10.0392156862746 511.9999999999999 10.0392156862746C789.1827450980393 10.0392156862746 1013.9607843137256 234.8172549019609 1013.9607843137256 512.0000000000002S789.1827450980393 1013.9607843137258 511.9999999999998 1013.9607843137258" />
    <glyph glyph-name="mail"
      unicode="&#xE016;"
      horiz-adv-x="1024" d="M862.7199999999999 814.08L156.16 814.08L509.44 481.28zM929.28 778.24V276.4799999999999C929.28 235.5199999999999 898.56 204.8 857.6 204.8H166.4C125.44 204.8 94.72 235.52 94.72 276.48V778.24L488.9600000000001 409.5999999999999C494.08 404.48 499.2 399.36 509.44 399.36C519.68 399.36 524.8000000000001 404.48 529.92 409.5999999999999L929.28 778.24z" />
    <glyph glyph-name="menu"
      unicode="&#xE017;"
      horiz-adv-x="1005" d="M-2.251 716.6089999999999H1007.251V590.421H-2.251V716.6089999999999zM-2.251 464.234H1007.251V338.0460000000001H-2.251V464.234zM-2.251 211.86H1007.251V85.672H-2.251V211.86z" />
    <glyph glyph-name="minify"
      unicode="&#xE018;"
      horiz-adv-x="1024" d="M358.4000000000001 1024H460.8V563.2H358.4000000000001zM0 665.5999999999999H460.8V563.2H0zM404.992 679.3216L344.6784 619.008L12.8 950.8864L73.1136 1011.2zM563.2 460.8H665.6V0H563.2zM563.2 460.8H1024V358.4H563.2zM619.008 344.6783999999999L679.3216000000001 404.992L1011.2 73.1136L950.8864 12.8z" />
    <glyph glyph-name="mouse"
      unicode="&#xE019;"
      horiz-adv-x="1122.3455267844909" d="M1102.1783806000822 481.8369639676669L984.4022468831344 750.7088642279765C914.1153582682558 911.4147143444308 734.5400739827372 987.8745033566242 573.7640772708588 930.8453212768871C568.8538155911767 940.7359912316756 560.6466639265652 954.9056035073298 548.1605699410877 969.7766817372242C527.2568845047266 995.3100424715714 491.4119742430469 1024 441.257158514865 1024C403.9391697492807 1024 362.4825318536786 1008.146869434169 317.729003973147 971.8810795999452C224.5743252500342 895.7018769694479 159.6185778873818 862.5225373338814 115.0754897931223 863.3642964789698C95.7851760515139 863.4344430743938 79.0902863405946 868.4148513494999 60.7118783394985 879.918892999041C46.8929990409645 888.5469242361968 28.7250308261405 884.2679819153309 20.1671461844088 870.2386628305247C11.6794081381011 856.2093437457186 15.8180572681189 837.6906425537745 29.6369365666529 829.1327579120427C55.5210302781203 812.7184545828196 84.3512809973969 803.5993971776957 114.5143170297301 803.5993971776957H115.0754897931223C186.4145773393615 804.441156322784 257.9641046718728 847.4410193177148 354.5559665707631 924.9530072612686C392.5052746951638 955.7473626524182 420.704206055624 964.1649541033019 441.257158514865 964.1649541033019C468.1233045622688 964.2351006987258 488.0449376626935 949.4341690642555 503.3368954651321 931.1259076585834C510.8425811755034 922.3575832305796 516.3841622140019 913.1683792300316 520.1019317714755 906.2940128784766C373.4254007398273 822.5389779421839 310.9247842170161 637.562405809015 380.6505000685026 478.1893410056173L498.42663378545 209.3875873407318C572.5715851486503 40.0537059871217 767.7895602137277 -36.1254966433755 934.3877243458006 39.0015070557612C1101.1963282641457 114.3389505411701 1176.2531853678584 312.5030826140568 1102.1783806000822 481.8369639676669zM671.2678449102615 785.0105493903275L691.9610905603505 737.9421838608029C705.0785039046442 708.4104671872859 691.6805041786545 673.7580490478148 662.6398136731058 660.570489108097C633.458829976709 647.3829291683793 599.3675846006302 660.6406357035212 586.3904644471844 690.3126455678861L565.7673653925194 737.3108645019867C552.7902452390738 766.9828743663516 565.9076585833674 801.6352925058227 595.0886422797641 814.7527058501165C624.2696259761609 827.9402657898343 658.2205781613918 814.6124126592684 671.2678449102615 785.0105493903275zM947.2946979038222 652.7842170160297L478.1542677079051 441.011645430881C474.2962049595834 439.3281271407044 470.2277024249896 438.4162214001919 466.2293464858199 438.4162214001919C454.9357446225511 438.4162214001919 444.2033155226743 445.0100013700507 439.3632004384163 456.2334566378956C432.6992738731333 471.3149746540622 439.3632004384163 488.8516235100699 454.3044252637347 495.5856966707768L923.4448554596518 707.4985614467735C938.2457870941224 714.0923414166325 955.78243595013 707.2881216605015 962.1657761337166 692.2066036443348C968.9699958898478 677.1250856281683 962.0956295382927 659.5182901767366 947.2946979038222 652.7842170160297z" />
    <glyph glyph-name="never-miss"
      unicode="&#xE01A;"
      horiz-adv-x="1024" d="M206.4128 1024C96.0768 1019.5968 -3.712 919.7056 0.0256 806.4C0.128 796.4672 0.2816 785.8176 1.6128 775.9872C9.344 737.9967999999999 21.632 686.1823999999999 56.0384 668.7744C92.544 751.7696 151.3728 825.7536 225.664 878.3872C258.688 918.1696 350.4896000000001 926.8736 368.0512000000001 956.7744C341.1200000000001 986.4704 297.7536 1013.76 254.4384000000001 1020.7744C238.5152000000001 1024.3072 222.1824000000001 1024.6144 206.4128000000001 1024zM793.6256000000001 1024C785.6896000000002 1023.3344 777.5999999999999 1022.5152 769.6128000000001 1020.7744C729.7280000000001 1010.5344 666.0864000000001 989.184 656 948.7872C796.1344000000001 909.5168 908.1600000000004 800.3072 969.6 670.3616C1000.5248 689.6128 1015.2704000000002 738.6112 1022.3871999999998 775.9872C1023.7184 785.8176000000001 1023.872 796.4672 1023.9744 806.4000000000001C1027.9679999999998 927.7952 912.8704 1034.1376 793.5744 1024zM502.4000000000001 985.6C487.8080000000001 984.3712 474.2400000000001 979.0976 462.4128000000001 967.9872C432.3072000000001 933.632 434.8160000000001 890.0608 377.6256000000001 891.1872C186.9568000000001 828.672 54.5024000000001 625.9712 80.0000000000001 425.5744000000001C91.0592000000001 321.6896000000001 140.4672000000001 223.5392000000001 214.4000000000001 150.3744C187.4688000000001 122.1120000000001 158.1824000000001 96.6656 132.7872000000001 67.1744C131.7120000000001 41.1136 162.1248000000001 27.8528 176.0000000000001 7.9872C200.3200000000001 -16.0767999999998 221.1584000000001 22.3232000000002 238.4128000000001 36.8128L294.4256000000001 91.2384C425.7024 12.1344 597.9392 13.0559999999999 729.6256000000001 91.2384C760.6528000000001 61.7471999999999 789.6831999999999 27.2384 822.4512 0.0512C851.7888 -2.5599999999999 865.3568 32.4096000000001 886.4512 48.0767999999999C900.6336000000001 74.8543999999999 861.3119999999999 89.5999999999999 848.0511999999999 108.9023999999999L806.4256 148.8895999999999C959.3599999999998 284.6207999999998 992.6400000000002 530.0735999999999 883.2256 702.5151999999998C819.8400000000001 807.2703999999999 711.1936000000001 884.4799999999999 590.4128000000001 905.7279999999998C594.2528 953.8047999999998 546.2272 989.3888 502.4 985.7535999999998zM496.0000000000001 814.3872C637.2096000000001 821.3504 780.1088 731.4944 828.8000000000002 596.7872C888.4480000000001 447.2832 829.8240000000001 259.6864000000001 689.5872000000002 177.5616C637.1072000000001 145.2543999999999 575.2064 128.1023999999999 513.5616 127.9487999999999C343.6288000000001 124.1599999999999 189.2096000000001 266.3935999999999 175.9488000000001 435.1488C155.4176000000001 600.7295999999999 273.1776000000001 769.7407999999999 436.7616000000001 804.7615999999999C456.6272000000001 809.8303999999999 475.7760000000001 813.3632 495.9488000000001 814.3871999999999zM478.3872000000001 743.9872C452.4288000000001 738.048 468.6080000000001 701.44 464.0000000000001 681.5744V451.1744H465.5872000000001V443.1872L614.3744000000002 295.9872000000001C635.8784 290.8159999999999 655.2320000000002 323.8912000000001 667.1616000000001 340.7872C648.2176000000002 370.8928 617.6000000000001 392.1408 593.5360000000001 419.1744C576.4864000000002 435.6608 559.1808000000001 453.6320000000001 542.3360000000002 470.3744C542.1312000000003 483.4816000000001 540.4416000000001 496.64 542.3360000000002 508.7744V731.1872000000001H543.9232000000002C533.5296000000003 754.2784 499.3280000000001 739.3792000000001 478.3360000000001 743.9872z" />
    <glyph glyph-name="on-demand"
      unicode="&#xE01B;"
      horiz-adv-x="1028.6288297338021" d="M275.9296835760926 237.741838272225C261.2074334505275 248.5424409844299 248.0281265695631 261.5931692616776 236.9060773480664 276.7011551983927L224.8839779005525 292.5806127574083L5.2074334505274 72.9040683073831L72.9683576092417 4.9502762430939L84.4118533400302 18.0010045203414L292.1305876443999 225.5911602209944L275.9296835760926 237.741838272225zM1022.5213460572576 549.0306378704169L1021.0426921145154 573.5248618784531L1004.9060773480664 573.5891511803114H762.5996986438976L1002.334505273732 672.9161225514817L965.5610246107486 761.5067805123053L950.0030135610245 753.9206428930186L728.9121044701157 662.3083877448519L910.4008036162734 843.4756403817178L842.3827222501257 911.3651431441488L830.9392265193371 898.4429934706178L660.3154193872425 727.6263184329482L759.2566549472626 966.5896534404822L670.7302862882972 1003.4917127071822L665.0085384229029 987.2265193370164L573.0105474635861 765.1712707182321V1021.2355600200904L550.4450025113008 1022.6499246609744L525.822199899548 1024L501.1351079859368 1022.7142139628328L478.3766951280763 1021.2355600200904V1005.0989452536414V764.5926670015067L379.4997488699147 1002.9773982923155L291.0376695128077 966.0753390256152L298.6238071320945 950.7101958814666L390.7503766951281 728.2692114515319L208.3616273229534 910.6579608237068L140.6007031642392 842.7684580612757L153.5228528377701 831.3249623304872L324.2109492717228 660.6368658965345L85.3761928679056 759.6423907584128L48.3455549974888 671.0517327975891L64.8036162732296 665.5871421396283L286.7302862882975 573.5891511803113H30.4088397790055L28.8658965344048 548.1305876443998L28.0301356102461 526.2079357106982L28.8658965344048 504.2852837769965L30.4088397790055 478.8910095429433L46.609743847313 478.7624309392265H285.9588146659971L48.6670015067806 380.6569563033652L85.5047714716224 291.9377197388247L100.9984932194878 299.5881466599698L372.1707684580614 411.8372677046711L362.0130587644401 429.0025113008539C352.6268206931191 444.624811652436 345.6192867905576 461.9186338523355 340.8618784530388 480.3053741838271L337.8402812656958 492.327473631341L335.1401305876446 526.2079357106982L337.8402812656958 560.409844299347L340.8618784530388 572.4962330487192C345.5549974886993 590.5615268709191 352.6268206931191 607.7910597689604 362.2059266700152 623.6062280261176L367.2204922149675 632.220994475138L372.9422400803617 639.8714213962833C383.9357106981418 654.6579608237066 397.1150175791061 667.9015570065294 412.0301356102462 678.8950276243094L420.7091913611252 685.4525364138624L427.9738824711202 689.631341034656C444.1747865394276 699.2747363134104 461.275740833752 706.4108488196886 479.1481667503767 710.911099949774L491.7488699146157 714.1255650426921L525.7579105976896 716.8900050226017L559.4455047714716 714.1255650426921L571.9819186338524 710.9753892516324C590.1115017579107 706.4751381215469 607.4053239578102 699.3390256152687 623.0919136112507 689.8884982420893L630.8709191361125 685.1310899045706L639.4213962832748 678.830738322451C654.2079357106983 667.7729784028127 667.5801104972377 654.5936715218484 678.3807132094425 639.8714213962833L684.1667503766951 632.4781516825716L688.7312908086388 624.3776996484178C698.3103967855349 608.4339527875438 705.6393771973882 591.1401305876443 710.1396283274736 573.331993972878L713.6755399296835 560.0883977900553L716.439979909593 526.2079357106982L713.6755399296835 492.327473631341L710.396785534907 479.4696132596684C705.8965344048216 461.5971873430436 698.4389753892516 444.303365143144 688.9884480160723 428.3596182822702L683.5881466599699 419.4234053239578L678.4450025113008 412.4158714213962C667.4515318935208 397.6936212958313 654.1436464088397 384.3857358111502 639.3571069814163 373.3279758915118L632.0924158714214 367.863385233551L623.2204922149673 362.5916624811653C607.2767453540935 353.2054244098443 589.9829231541938 346.069311903566 572.2390758412857 341.5690607734806L559.6383726770467 338.2903063787042L525.7579105976897 335.3972877950778L491.748869914616 338.2903063787042L479.0838774485184 341.5690607734806C460.9542943244601 346.069311903566 443.7890507282774 353.4625816172777 427.8453038674035 362.720241084882L410.6800602712206 373.0065293822201L291.7448518332498 85.8262179809141L380.3997990959318 49.117026619789L385.8643897538926 65.3179306880965L478.2481165243597 288.4018081366148V31.1160220994475L501.9065796082372 29.6373681567052L525.6936212958312 28.4801607232547L549.4806629834253 29.6373681567052L573.010547463586 31.1160220994475V47.316926167755V287.8874937217479L671.8232044198895 49.3098945253641L760.4781516825715 86.2762430939226L752.8277247614263 101.5770969362129L660.7654445002511 324.082370668006L843.0899045705675 141.5007533902561L911.0436966348568 209.6474133601205L898.1215469613259 220.898041185334L728.3977900552485 390.7503766951281L966.0110497237569 292.3234555499748L1002.913108990457 380.7855349070818L986.5193370165744 386.3787041687594L763.2425916624812 478.8267202410848H1020.9141135107986L1022.3927674535408 503.2566549472626L1023.4213962832748 526.0793571069814L1022.5213460572576 549.0306378704169z" />
    <glyph glyph-name="pending"
      unicode="&#xE01C;"
      horiz-adv-x="1024" d="M727.36 360.256C732.032 355.584 732.032 347.968 727.36 343.296L684.032 299.8399999999999C679.36 295.2320000000001 671.744 295.2320000000001 667.008 299.8399999999999L472.832 494.144C472.32 494.6559999999999 472.064 495.36 471.68 495.872C471.168 496.64 470.592 497.216 470.272 497.984C469.696 499.456 469.312 501.056 469.312 502.592V846.592C469.312 853.184 474.688 858.624 481.344 858.624H542.656C549.3119999999999 858.624 554.688 853.248 554.688 846.592V532.928L727.36 360.256zM1024 512C1024 229.2480000000001 794.752 0 512 0C229.1840000000001 0 0 229.2480000000001 0 512C0 794.752 229.248 1024 512 1024C794.752 1024 1024 794.752 1024 512zM929.472 514.432C929.472 744.96 742.528 931.904 512 931.904C281.408 931.904 94.464 744.96 94.464 514.432C94.464 283.8400000000001 281.408 96.96 512 96.96C742.592 96.96 929.472 283.904 929.472 514.432z" />
    <glyph glyph-name="phone"
      unicode="&#xE01D;"
      horiz-adv-x="792.2630560928434" d="M27.085493230174 103.7369439071566C10.4479690522243 127.2077369439071 17.0336557059961 207.3253384912957 50.4572533849129 234.0642166344293C83.8313346228239 260.7040618955512 174.0007736943907 320.8170212765957 214.1586073500967 334.1864603481625C254.2174081237911 347.5558994197292 304.2290135396518 330.8688588007737 337.7021276595744 310.8642166344294C371.1257253384913 290.7110251450676 404.4998065764023 320.7179883945841 404.4998065764023 320.7179883945841S501.4034816247582 440.9934235976789 541.4622823984525 501.1558994197292C581.5705996131528 561.3678916827852 558.149323017408 618.1137330754351 558.149323017408 618.1137330754351S514.7234042553191 664.9067698259187 494.669245647969 691.6456479690522S474.6646034816248 761.8104448742747 474.6646034816248 761.8104448742747S491.3021276595745 912.092843326886 494.6197292069633 925.363249516441C497.9373307543521 938.7822050290137 521.3090909090909 1012.2646034816248 598.1586073500968 1012.2646034816248C675.0576402321084 1012.2646034816248 765.1775628626693 885.3044487427466 765.1775628626693 885.3044487427466S888.7705996131529 678.3257253384913 638.3164410058029 324.2831721470019C387.7632495164412 -29.8584139264992 220.645261121857 6.9818181818181 220.645261121857 6.9818181818181C103.885493230174 6.9323017408124 43.7230174081237 80.315667311412 27.085493230174 103.7369439071566z" />
    <glyph glyph-name="plus-circle"
      unicode="&#xE01E;"
      horiz-adv-x="1024" d="M725.6064000000001 560.0255999999999H557.6192V728.0128C557.6192 741.2224 546.816 752.0255999999999 533.6064 752.0255999999999H485.5808C472.3712 752.0255999999999 461.568 741.2224 461.568 728.0128V560.0255999999999H293.5808C280.3712 560.0255999999999 269.568 549.2224 269.568 536.0128V487.9872C269.568 474.7776 280.3712 463.9744000000001 293.5808 463.9744000000001H461.568V295.9872000000001C461.568 282.7775999999999 472.3712 271.9744000000001 485.5808 271.9744000000001H533.6064C546.816 271.9744000000001 557.6192 282.7776 557.6192 295.9872000000001V463.9744000000001H725.6064000000001C738.816 463.9744000000001 749.6192000000001 474.7776 749.6192000000001 487.9872V536.0128C749.6192000000001 549.2224 738.816 560.0255999999999 725.6064000000001 560.0255999999999zM512 1024C229.2224 1024 0 794.7776 0 512C0 229.2736 229.2224 0 512 0C794.7264 0 1024 229.2736 1024 512C1024 794.7776 794.7264 1024 512 1024zM512 96.9727999999999C281.4976000000001 96.9727999999999 94.464 283.8527999999999 94.464 514.4576C94.464 745.0111999999999 281.4464000000001 931.9424 512 931.9424C742.5024 931.9424 929.4336 745.0111999999999 929.4336 514.4576C929.4336 283.8528 742.5024000000001 96.9727999999999 512 96.9727999999999z" />
    <glyph glyph-name="remote-download"
      unicode="&#xE01F;"
      horiz-adv-x="1024" d="M646.6560000000002 514.6112H770.048L512 267.776L253.9520000000001 514.6112H377.4464000000001L377.6 761.4975999999999H646.656V514.6112zM1023.6928 513.4336000000001C1023.6928 230.8096000000001 794.5728000000001 1.7407999999999 512 1.7407999999999S0.3072 230.8608 0.3072 513.4336000000001S229.4272000000001 1025.1264 512 1025.1264S1023.6928 796.0576 1023.6928 513.4336000000001zM927.8976 513.4336000000001C927.8976 743.1168 741.6320000000001 929.3312 512.0000000000001 929.3312C282.3168000000001 929.3312 96.1024000000001 743.1168 96.1024000000001 513.4336000000001C96.1024000000001 283.8528 282.3168000000003 97.5360000000001 512.0000000000001 97.5360000000001C741.6320000000001 97.5360000000001 927.8976 283.8528 927.8976 513.4336000000001z" />
    <glyph glyph-name="remote-record"
      unicode="&#xE020;"
      horiz-adv-x="1024" d="M660.6848 519.5776C677.9392 541.2352 686.6944 569.0367999999999 686.6944 603.1871999999998C686.6944 625.9199999999998 682.5984 645.9391999999999 674.2016 663.1935999999998S654.0799999999999 694.7839999999999 639.0784 706.1503999999999C623.9744000000001 717.5167999999999 605.8495999999999 726.1696 584.7040000000001 732.0575999999999C563.4048 737.9455999999999 539.6992 740.9663999999999 513.4336000000001 740.9663999999999H412.3648000000001C400.1280000000001 740.9663999999999 390.144 739.6351999999999 382.5664000000001 737.0239999999999C374.8352 734.4128000000001 368.9472000000001 730.7775999999999 364.7488 726.2208C360.6016 721.6128 357.7856 716.0319999999999 356.3008 709.4784C354.7648 702.9248 353.9456 695.9104 353.9456 688.4864V316.5184C360.0896 315.2384 367.616 314.112 376.576 313.3440000000001C385.5872 312.4224 394.5984000000001 312.064 403.8144 312.064C425.6768 312.064 440.576 316.4672000000001 448.4608000000001 325.4784C456.2432 334.5408 460.1856 345.3440000000001 460.1856 358.0416V464.9472H476.3136L560.5376 344.2176C569.2927999999999 331.52 578.5088 322.6111999999999 588.0831999999999 317.6959999999999C597.76 312.5759999999999 609.9455999999999 310.1183999999999 624.896 310.1183999999999C639.6927999999999 310.1183999999999 653.4144 311.6031999999999 666.0096 314.7263999999999C678.5024 317.7471999999998 689.5104 321.7407999999999 699.0848000000001 326.5023999999999L585.5744 476.0575999999999C618.3936 483.3792 643.3792000000001 497.8688 660.6848 519.5776zM565.1968 559.8720000000001C554.7008 548.9664 536.3711999999999 543.488 510.1056 543.488H460.1856V654.336H515.328C536.7296 654.336 553.0624 649.4208 564.224 639.5904C575.4368 629.76 581.0176 616.5504 581.0176 599.9104C581.0176 584.192 575.6416 570.8288 565.1968 559.8720000000001zM512.0512 1024C229.2736 1024 0 794.7776 0 512C0 229.3247999999999 229.2736 0 512.0512 0C794.7776 0 1024 229.3247999999999 1024 512C1024 794.7776 794.7776 1024 512.0512 1024zM512.0512 97.0239999999999C281.4976 97.0239999999999 94.5664 283.8015999999999 94.5664 514.5088C94.5664 745.0111999999999 281.4976 931.9424 512.0512 931.9424S929.4848 745.0111999999999 929.4848 514.5088C929.4848 283.8015999999999 742.6048000000001 97.0239999999999 512.0512 97.0239999999999z" />
    <glyph glyph-name="search"
      unicode="&#xE021;"
      horiz-adv-x="1024" d="M1021.7216 106.7008L703.7183999999999 423.9359999999999C745.6511999999999 485.4784 770.2783999999999 559.8208 770.2783999999999 640C770.2783999999999 852.1727999999999 598.4512 1024 386.2784 1024C384.9472000000001 1024 383.6672000000001 1023.7952 382.3360000000001 1023.7952C284.5952000000001 1025.1264 186.4448 988.7744 111.8976 914.2272C36.8384 839.2704 0.5376 740.4032 2.3808 642.1504C2.3808 641.4336 2.2784 640.768 2.2784 640C2.2784 427.8784 174.1568 256 386.2784000000001 256C465.9456 256 539.9295999999999 280.2688 601.2671999999999 321.7408000000001L919.3727999999998 4.5567999999998C925.3631999999998 -1.4848 935.2448 -1.4848 941.2352 4.5055999999998L1021.7216 84.8895999999999C1027.712 90.8799999999999 1027.712 100.7615999999999 1021.7216 106.7008zM573.3119999999999 453.2224C479.4112 359.2703999999999 334.9248 347.136 227.5584 416C155.9296 469.9136 104.6784 554.6496 104.6784 640C104.6784 781.4144 244.864 921.6 386.2784 921.6C472.0896 921.6 557.2352 869.8368 611.1487999999999 797.6448C679.3471999999999 690.3296 666.9568 546.7647999999999 573.3119999999999 453.2224z" />
    <glyph glyph-name="share"
      unicode="&#xE022;"
      horiz-adv-x="1024" d="M851.1744 345.5999999999999C799.7696 345.5999999999999 754.3552 321.7408000000001 723.84 285.0816L361.6512 455.168C363.4432000000001 465.3056 364.8256000000001 475.648 364.8256000000001 486.2976C364.8256000000001 505.9072 360.8832000000001 524.4416 355.0976 542.1056000000001L739.1999999999999 722.432C768.7935999999999 695.296 807.9616 678.3488 851.2255999999999 678.3488C943.1296 678.3488 1017.6256 752.8448000000001 1017.6256 844.7488000000001S943.1296 1011.1488 851.2255999999999 1011.1488C759.3727999999999 1011.1488 684.8255999999999 936.6528 684.8255999999999 844.7488000000001C684.8255999999999 837.3248000000001 686.0543999999999 830.3104000000001 686.9759999999999 823.1936000000001L285.8752 634.88C257.2544000000001 654.2336 222.7456 665.5488 185.5744 665.5488C86.5536 665.5488 6.3744 585.3696 6.3744 486.3487999999999C6.3744 387.3791999999999 86.5536 307.1488 185.5744 307.1488C232.7296000000001 307.1488 275.2768 325.7343999999998 307.2768000000001 355.4815999999999L684.8767999999999 178.1247999999999C685.4911999999999 86.7327999999999 759.68 12.8 851.1744 12.8C943.0784000000002 12.8 1017.5744 87.2959999999998 1017.5744 179.1999999999999C1017.5744 271.0528 943.0784000000002 345.5999999999999 851.1744 345.5999999999999z" />
    <glyph glyph-name="sky-go"
      unicode="&#xE023;"
      horiz-adv-x="1024" d="M929.28 1024H89.5999999999999C38.3999999999999 1024 -2.5600000000001 983.04 -2.5600000000001 931.84V87.04C-2.5600000000001 35.8399999999999 38.3999999999999 -5.1200000000001 89.5999999999999 -5.1200000000001H934.4C985.6 -5.1200000000001 1026.56 35.8399999999999 1026.56 87.04V931.84C1021.44 983.04 980.48 1024 929.28 1024zM642.56 302.08C642.56 302.08 586.24 353.28 504.3199999999998 353.28C432.64 353.28 376.32 302.08 376.32 302.08L325.12 363.52C325.12 363.52 391.68 435.2 509.4399999999998 435.2C637.4399999999999 435.2 693.7599999999999 363.52 693.7599999999999 363.52L642.56 302.08zM755.2 430.0800000000001C755.2 430.0800000000001 668.1600000000001 527.36 504.3200000000001 527.36C360.9600000000001 527.36 258.5600000000001 430.0800000000001 258.5600000000001 430.0800000000001L207.3600000000001 496.64C207.3600000000001 496.64 304.6400000000001 609.2800000000001 504.3200000000001 609.2800000000001C724.4799999999999 609.2800000000001 811.52 496.6400000000001 811.52 496.6400000000001L755.2 430.0800000000001zM867.84 563.2C867.84 563.2 719.36 696.3199999999999 504.3200000000001 696.3199999999999C294.4000000000001 696.3199999999999 140.8000000000001 563.2 140.8000000000001 563.2L89.5999999999999 619.52C89.5999999999999 619.52 238.0800000000001 773.12 504.3200000000001 773.12C760.32 773.12 913.92 619.52 913.92 619.52L867.84 563.2z" />
    <glyph glyph-name="sky-plus"
      unicode="&#xE024;"
      horiz-adv-x="1024.256064016004" d="M392.4821205301327 632.2860715178795C328.7861965491374 632.2860715178795 277.1252813203302 580.8172043010752 277.1252813203302 517.12128032008C277.1252813203302 453.4893723430858 328.7861965491374 401.9564891222806 392.4821205301327 401.9564891222806C456.2420605151289 401.9564891222806 507.838959739935 453.5533883470869 507.838959739935 517.12128032008C507.838959739935 580.8172043010752 456.1780445111278 632.2860715178795 392.4821205301327 632.2860715178795zM586.7706926731684 620.1870467616905V415.2718179544886C586.7706926731684 406.2455613903476 592.6601650412604 403.3648412103026 599.6379094773695 408.6141535383846L735.1597899474871 508.031007751938C742.3295823955991 513.28032008002 742.3295823955991 521.922480620155 735.1597899474871 527.2358089522381L599.6379094773695 626.7166791697923C592.4681170292574 632.0300075018754 586.7706926731684 629.0852713178294 586.7706926731684 620.1870467616905zM212.5971492873219 755.2608152038009L114.3965991497876 832.9122280570143C49.6124031007753 751.291822955739 11.9069767441861 653.1552888222055 5.3133283320831 549.1292823205802L130.4006001500376 541.3833458364591C135.3938484621156 619.6109027256814 163.7529382345587 693.6134033508376 212.5971492873219 755.2608152038009zM481.6564141035259 899.1687921980495L471.413853463366 1023.935983995999C359.1937984496125 1014.653663415854 255.6799199799951 969.9064766191548 172.0750187546888 894.1755438859715L256.1280320080021 801.3523380845211C319.0557639409854 858.3905976494124 397.2193048262067 892.1270317579394 481.6564141035259 899.1687921980495zM130.9127281820456 485.0492623155789L6.0175043760941 474.8707176794198C15.1077769442362 366.0435108777195 57.8064516129033 264.8982245561391 129.7604401100276 182.5096274068517L224.184046011503 264.7701925481371C170.0265066266568 326.8657164291073 137.7624406101526 403.1727931982995 130.9127281820456 485.0492623155789zM893.9194798699676 541.3833458364591L1018.942735683921 549.1292823205802C1012.2850712678172 653.1552888222056 974.7716929232308 751.291822955739 909.7954488622156 832.9122280570143L811.7229307326832 755.260815203801C860.6951737934485 693.6134033508376 889.0542635658917 619.6109027256814 893.9194798699676 541.3833458364591zM545.0962740685172 134.8177044261064L556.1070267566893 10.3065766441609C662.6936734183547 19.6529132283071 761.7904476119031 61.7114278569642 843.1547886971745 131.3608402100524L761.3423355838961 226.2325581395347C700.1430357589398 173.7394348587146 625.3083270817705 142.1155288822205 545.0962740685172 134.8177044261064zM181.4213553388348 131.3608402100524C262.5936484121032 61.7114278569642 361.8824706176545 19.716929232308 468.46911727932 10.3065766441609L479.3518379594901 134.8177044261064C399.1397849462367 142.0515128782195 324.3690922730685 173.6754188547135 263.1697924481122 226.2325581395349L181.4213553388348 131.3608402100524zM852.5011252813204 894.1755438859715C768.7681920480121 969.9704926231558 665.2543135783948 1014.653663415854 553.0982745686422 1024L542.7276819204802 899.1687921980495C627.2288072018006 892.3190797699425 705.3923480870219 858.4546136534134 768.2560640160041 801.4163540885221L852.5011252813204 894.1755438859715zM800.2000500125032 264.7701925481371L894.7516879219805 182.5096274068517C966.7056764191047 264.898224556139 1009.596399099775 366.0435108777195 1018.686671667917 474.8707176794198L893.7914478619655 485.049262315579C886.6856714178546 403.1727931982995 854.4216054013505 326.8657164291073 800.2000500125032 264.7701925481371z" />
    <glyph glyph-name="sky"
      unicode="&#xE025;"
      horiz-adv-x="1048.576" d="M721.2994560000001 51.769344C729.7361920000002 47.51872 747.0735360000001 42.208256 768.9338880000001 41.6849920000001C806.2443520000002 40.9067520000001 826.6096640000001 55.1772160000002 841.7187840000001 88.4664320000001L1042.17088 533.871616C1033.939968 538.343424 1015.583744 543.198208 1000.623104 543.619072C974.8490240000002 543.632384 940.2675200000002 538.820608 918.1788160000002 486.175744L853.2797440000002 333.5464960000001L725.9893760000001 540.141568C717.7758720000002 542.6851839999999 697.7361920000002 546.272256 683.0376960000001 546.272256C638.210048 546.272256 613.0749440000001 529.75616 586.9342720000001 501.532672L463.168512 366.7681280000001L562.7228160000001 210.643968C581.0749440000001 182.2597119999999 605.3652480000001 167.719936 644.7206400000001 167.719936C670.4988160000001 167.719936 691.8993920000001 173.584384 701.8035200000002 178.330624L581.8593280000001 358.469632L666.861568 448.1239039999999L806.2771200000001 230.178816L721.4970880000001 51.8328319999999zM458.232832 220.248064C458.232832 187.3848320000001 445.2526080000001 168.452096 381.0058240000002 168.452096C372.4574720000001 168.452096 365.0662400000001 169.1156480000001 357.7968640000001 170.123264V605.594624C357.7968640000001 638.669824 369.0895360000001 673.202176 434.153472 673.202176C442.3147520000001 673.202176 450.607104 672.398336 458.26048 670.7251200000001L458.259456 220.249088zM325.489664 285.9694080000001C325.489664 224.678912 285.2915200000001 179.970048 203.78112 171.204608C144.714752 164.873216 58.979328 172.310528 18.424832 176.9615359999999C16.886784 183.590912 15.699968 191.873024 15.699968 198.268928C15.699968 251.83232 44.83072 264.065024 72.024064 264.065024C100.277248 264.065024 144.80896 259.156992 178.057216 259.156992C214.480896 259.156992 225.6424960000001 271.4869760000001 225.6424960000001 283.235328C225.6424960000001 298.6598399999999 210.8815360000001 304.959488 182.6232320000001 310.4368639999999L105.2753920000001 325.348352C40.845312 337.6732159999999 6.40512 382.0943359999999 6.40512 429.083648C6.40512 486.2412799999998 47.1173120000001 534.2279679999999 127.0446080000001 543.085568C187.577344 549.629952 261.2480000000001 542.2817279999999 301.5690240000002 537.3214719999999C303.0886400000001 530.3613439999999 303.8658560000001 523.8292479999999 303.8658560000001 516.6981119999999C303.8658560000001 463.3845759999999 275.5317760000001 451.8440959999999 248.4070400000001 451.8440959999999C227.4713600000001 451.8440959999999 194.9450240000001 455.7731839999999 157.8977280000001 455.7731839999999C120.1674240000001 455.7731839999999 104.4357120000001 445.3631999999998 104.4357120000001 432.750592C104.4357120000001 419.35872 119.3922560000001 413.937664 143.0077440000001 409.7617919999999L217.0613760000001 396.1098239999999C293.0186240000001 382.1823999999999 325.4753280000001 339.1272959999999 325.4753280000001 286.199808V286.199808V286.199808z" />
    <glyph glyph-name="speech-bubble"
      unicode="&#xE026;"
      horiz-adv-x="1024" d="M512.0255999999999 946.7904C229.0943999999999 946.7904 0.0255999999999 764.8768 0.0255999999999 540.3648000000001C0.0255999999999 419.9424 65.9711999999999 311.9104 170.6751999999999 237.4656V77.1584L274.0479999999999 180.5824C345.1648 150.9376 426.0608 134.0927999999999 511.9744 134.0927999999999C794.8543999999999 134.0927999999999 1023.9744 315.8528 1023.9744 540.3647999999998C1024.0256 764.8768 794.9056 946.7904 512.0255999999999 946.7904z" />
    <glyph glyph-name="tick"
      unicode="&#xE027;"
      horiz-adv-x="851.8248934179057" d="M834.5488197982738 847.7254861183321L769.8101278985131 896.1730269314755C760.3335759592388 903.253821358012 747.1835291670999 901.1774981803057 740.1027347405636 891.5944681293543L276.0711240511594 250.489757720703L103.0974316314859 441.6712072371843C95.2180513673703 450.4556514505564 81.6420921285224 451.0945201206198 73.1238431943434 443.0554226889883L13.9752521576376 387.6868046168245C5.4037641676199 379.7009462410316 4.8713736092337 365.9120307788293 12.8039929291879 357.1808256212958L272.1846729749402 70.2223146511387C276.3373193303526 65.6969949048561 281.2353124675055 63.9933451180202 285.9203493813039 64.6854528439224C290.6586253509411 64.4192575647294 295.4501403764168 66.7085369657899 299.0171571176043 71.6597691587815L839.0209004887179 817.5389414578351C845.8887386918997 827.1219715087866 843.759176458355 840.6979307476345 834.5488197982738 847.7254861183321" />
    <glyph glyph-name="tv"
      unicode="&#xE028;"
      horiz-adv-x="1300.9369541051294" d="M1232.5564554549785 1012.5354930919486H67.81133873273C27.5636017151025 1012.5354930919486 8.1308559631572 992.5335874225822 8.1308559631572 952.3671589645865V69.1935842464666C8.1308559631572 34.8000635223121 33.4991265682072 8.9439415594728 68.380498650151 8.9439415594728H1232.5564554549785C1272.7228839129743 8.9439415594728 1292.8060981419721 29.1084643481022 1292.8060981419721 69.1935842464666V952.3671589645865C1292.8060981419724 992.5335874225822 1272.7228839129746 1012.5354930919486 1232.5564554549785 1012.5354930919486M831.1360965539146 89.2767984754645C831.1360965539146 78.1375258059393 822.2734635540735 69.1935842464666 811.1341908845483 69.1935842464666H489.9653803398443C478.9074162299507 69.1935842464666 469.8821661108465 78.1375258059393 469.8821661108465 89.2767984754645V109.3600127044624C469.8821661108465 120.4992853739876 478.9074162299507 129.4432269334603 489.9653803398443 129.4432269334603H811.1341908845483C822.2734635540735 129.4432269334603 831.1360965539146 120.4992853739876 831.1360965539146 109.3600127044624V89.2767984754645zM1172.4694298872478 189.6115610608226H128.5488327775132V892.1175162775926H1172.4694298872478V189.6115610608226z" />
    <glyph glyph-name="twitter-favourite"
      unicode="&#xE029;"
      horiz-adv-x="1024" d="M512 1016.888888888889L628.9635555555554 612.9777777777779L1016.8888888888888 612.9777777777779L701.3262222222221 394.0693333333334L824.1208888888888 7.1111111111112L512 249.3724444444445L199.8791111111111 7.1111111111112L322.6737777777779 394.0693333333334L7.1111111111111 612.9777777777779L395.0364444444446 612.9777777777779z" />
    <glyph glyph-name="twitter-follow"
      unicode="&#xE02A;"
      horiz-adv-x="1024" d="M842.24 772.4373333333333C811.2924444444444 758.784 778.1262222222223 749.4257777777779 743.3386666666668 745.3582222222223C778.8373333333334 766.6062222222222 806.1724444444445 800.3982222222223 819.0293333333334 840.6755555555555C785.7777777777778 820.9351111111112 748.8853333333334 806.5991111111111 709.688888888889 798.8622222222223C678.2293333333333 832.3413333333333 633.3724444444445 853.248 583.8506666666667 853.248C488.7040000000001 853.248 411.5626666666668 776.1066666666667 411.5626666666668 680.9884444444444C411.5626666666668 667.4488888888889 413.0702222222223 654.3075555555556 416.0000000000001 641.6497777777778C272.8391111111112 648.9031111111112 145.8346666666668 717.4257777777777 60.8711111111112 821.6746666666667C46.0800000000001 796.2737777777778 37.5466666666668 766.6346666666667 37.5466666666668 735.0613333333333C37.5466666666668 675.2995555555556 67.9822222222223 622.5635555555555 114.2044444444446 591.6728888888888C85.9591111111112 592.5831111111111 59.4204444444446 600.3484444444443 36.152888888889 613.2053333333333C36.1244444444446 612.5226666666667 36.1244444444446 611.7546666666667 36.1244444444446 611.0435555555555C36.1244444444446 527.5591111111111 95.544888888889 457.927111111111 174.392888888889 442.1404444444445C159.9146666666668 438.1582222222222 144.6684444444446 436.1102222222222 128.9386666666668 436.1102222222222C117.8453333333335 436.1102222222222 107.0364444444445 437.1911111111112 96.5973333333334 439.1822222222222C118.4995555555557 370.7164444444444 182.072888888889 320.9102222222222 257.4791111111112 319.5164444444444C198.5991111111112 273.2657777777779 124.3022222222223 245.7600000000001 43.6053333333334 245.7600000000001C29.6391111111112 245.7600000000001 15.9573333333334 246.6133333333335 2.4746666666668 248.2346666666668C78.7342222222223 199.3102222222224 169.2444444444446 170.7520000000001 266.609777777778 170.7520000000001C583.4808888888889 170.7520000000001 756.7360000000001 433.2942222222223 756.7360000000001 661.0204444444445C756.7360000000001 668.416 756.5937777777779 675.8400000000001 756.2524444444446 683.2640000000001C789.9875555555557 707.5555555555557 819.1431111111111 737.9342222222222 842.24 772.4373333333333zM1021.5253333333332 350.0373333333335L911.8435555555556 350.0373333333335L911.8435555555556 459.7191111111111L842.24 459.7191111111111L842.24 350.0373333333335L732.5582222222223 350.0373333333335L732.5582222222223 280.4337777777779L842.24 280.4337777777779L842.24 170.7520000000001L911.8435555555556 170.7520000000001L911.8435555555556 280.4337777777779L1021.5253333333332 280.4337777777779z" />
    <glyph glyph-name="twitter-reply"
      unicode="&#xE02B;"
      horiz-adv-x="1024" d="M414.6915555555556 893.0417777777777V658.5742222222223C821.76 656.1279999999999 1019.648 297.6711111111111 1019.648 297.6711111111111S867.2142222222221 425.0737777777777 414.6915555555556 365.4542222222222V130.9866666666667L4.352 512L414.6915555555556 893.0417777777777z" />
    <glyph glyph-name="twitter-retweet"
      unicode="&#xE02C;"
      horiz-adv-x="1024" d="M209.7351111111112 251.3920000000001C188.9137777777778 251.3920000000001 171.960888888889 266.3253333333334 171.960888888889 284.5582222222223V554.6382222222223L6.272 554.6666666666667L231.352888888889 770.304L456.5475555555556 554.6382222222222H290.6880000000001V355.6693333333334H468.8355555555556L585.5146666666666 251.392H209.7351111111112zM1017.728 469.2764444444445H852.0106666666667V739.4417777777778C852.0106666666667 757.7031111111112 835.0577777777778 772.6080000000001 814.2364444444445 772.6080000000001H438.5137777777779L555.1928888888889 668.3306666666667H733.312V469.3902222222223L567.4808888888889 469.2764444444445L792.6471111111111 253.6675555555556L1017.728 469.2764444444445z" />
    <glyph glyph-name="twitter"
      unicode="&#xE02D;"
      horiz-adv-x="1024" d="M1018.3395555555556 826.0835555555556C981.0204444444444 809.5857777777778 940.9991111111112 798.3502222222222 899.0435555555556 793.4008888888889C941.9093333333334 819.0577777777778 974.848 859.7617777777778 990.3217777777778 908.344888888889C950.2435555555556 884.5368888888889 905.7848888888888 867.2426666666668 858.4817777777779 857.9413333333334C820.5368888888889 898.3040000000001 766.4924444444445 923.5057777777778 706.7591111111112 923.5057777777778C592.0426666666667 923.5057777777778 499.0293333333333 830.4924444444445 499.0293333333333 715.8044444444445C499.0293333333333 699.5057777777779 500.8497777777778 683.6622222222222 504.4053333333333 668.3875555555555C331.7475555555556 677.12 178.6311111111111 759.7511111111112 76.1457777777778 885.4755555555555C58.3111111111111 854.8408888888889 48.0142222222222 819.1146666666666 48.0142222222222 781.0275555555556C48.0142222222222 708.9777777777779 84.7075555555556 645.376 140.4302222222222 608.1137777777778C106.3822222222222 609.2231111111112 74.3822222222222 618.5813333333334 46.336 634.0835555555557C46.3075555555556 633.2302222222222 46.3075555555556 632.32 46.3075555555556 631.4666666666667C46.3075555555556 530.8017777777777 117.9591111111111 446.8337777777778 213.0204444444443 427.7760000000001C195.5555555555556 422.9973333333335 177.1804444444445 420.4942222222224 158.2364444444444 420.4942222222224C144.8675555555556 420.4942222222224 131.8115555555556 421.8311111111113 119.2106666666667 424.2204444444445C145.6071111111111 341.6746666666667 222.2933333333332 281.6284444444446 313.2302222222222 279.9502222222224C242.176 224.1706666666669 152.5475555555555 190.9760000000001 55.2675555555554 190.9760000000001C38.4284444444444 190.9760000000001 21.9591111111111 192.0000000000001 5.6604444444444 193.9342222222223C97.6213333333333 134.968888888889 206.791111111111 100.5226666666667 324.1528888888889 100.5226666666667C706.2755555555555 100.5226666666667 915.1999999999998 417.1377777777779 915.1999999999998 691.712C915.1999999999998 700.6435555555555 915.0293333333332 709.6035555555554 914.6311111111108 718.5635555555555C955.3066666666666 747.8328888888889 990.464 784.4693333333333 1018.3395555555556 826.0835555555556z" />
    <glyph glyph-name="user-profile"
      unicode="&#xE02E;"
      horiz-adv-x="752" d="M563.994 708.086C563.994 604.162 479.728 519.984 375.808 519.984C271.888 519.984 187.664 604.2040000000001 187.664 708.086C187.664 811.9680000000001 271.8840000000001 896.272 375.808 896.272C479.732 896.272 563.994 812.0060000000001 563.994 708.086M754.0540000000001 102.5460000000001C752.4399999999999 310.13 583.7819999999999 477.918 375.762 477.918C167.828 477.918 -0.874 310.0900000000001 -2.484 102.5460000000001L-2.572 102.5460000000001L-2.572 83.888C-2.572 75.2560000000001 4.534 68.0640000000001 13.206 68.0640000000001L738.794 68.0640000000001C747.4259999999999 68.0640000000001 754.572 75.258 754.572 83.888L754.572 102.5460000000001L754.054 102.5460000000001z" />
    <glyph glyph-name="video-play"
      unicode="&#xE02F;"
      horiz-adv-x="1024" d="M545.2288 125.8752L556.3392 0C663.9104 9.4976 764.1856 51.7631999999999 846.2336 122.3168L763.5967999999999 218.1632C701.7728000000001 165.0432000000001 626.2528000000001 133.0944 545.2288 125.8752M802.8416000000001 257.1008L898.2272000000002 173.9007999999999C970.9824 257.2543999999999 1014.2464 359.296 1023.2320000000002 469.2479999999999L897.1520000000003 479.5391999999999C890.24 396.8512 857.7280000000001 319.7696000000001 802.8416000000001 257.1008M897.664 536.4992L1024 544.3328C1017.472 649.3951999999999 979.2256 748.5696 913.7152 830.9248L814.6176 752.512C864.0255999999999 690.2528 892.7488 615.5264 897.664 536.4992M855.68 892.8512C771.2256000000001 969.3952 666.624 1014.6304 553.2672 1024L542.848 897.8688C628.2752 890.8543999999999 707.072 856.7808 770.7392 799.1552L855.68 892.8512zM177.8176 122.3168C259.8144 51.7631999999999 360.1408 9.4975999999998 467.7632 0L478.7968 125.8752C397.7216 133.0944 322.2016 165.0432000000001 260.4032000000001 218.1632L177.8176 122.3168zM126.8736 479.5391999999999L0.7424 469.2479999999999C9.8816 359.2959999999998 53.0432 257.2543999999999 125.7216 173.9007999999999L221.056 257.1008C166.3488 319.7696000000001 133.7344 396.8512 126.8736 479.5391999999999M209.3568 752.512L110.1568 830.9248C44.7488 748.544 6.656 649.3951999999999 0 544.3328L126.2848 536.4992C131.3024 615.5264 160 690.2528 209.3568 752.512M481.152 897.8688L470.8608 1024C357.4784 1014.6304 252.9024 969.3952 168.3456 892.8512L253.2608 799.1551999999999C316.9024 856.7808 395.7760000000001 890.8543999999999 481.152 897.8688M409.8560000000001 697.1648C404.4288000000001 700.9024 399.9744000000001 698.5984 399.9744000000001 691.9936V315.9808C399.9744000000001 309.376 404.3776000000001 307.072 409.8048000000001 310.8352L678.1184000000002 498.0223999999999C683.5200000000001 501.7855999999999 683.4944000000002 507.9552 678.0928000000001 511.6927999999999L409.8560000000001 697.1648z" />
    <glyph glyph-name="volume"
      unicode="&#xE030;"
      horiz-adv-x="1024" d="M650.0352 317.5424C631.7056 338.9952 634.1632 371.1488 655.5648000000001 389.5296C689.8688000000001 419.0208 711.2192 462.336 711.2192 511.0272000000001C711.2192 560.6400000000001 689.1008 604.5184000000002 653.8240000000001 634.0608000000001C632.2688 651.9808 629.1968 684.2368000000001 647.2192 705.8944000000001C665.2416000000001 727.6544000000001 697.344 730.5728000000001 719.0016 712.4992000000001C776.5504000000001 664.5248000000001 813.3632 591.8720000000001 813.2096 510.9760000000001C813.3632 431.4624000000001 777.9328 359.7824000000001 721.9200000000001 311.9104000000001C712.2944 303.5648000000001 700.5696 299.6224000000001 688.8448 299.6224000000001C674.5088000000001 299.6736 660.1728 305.664 650.0352 317.5424M817.6640000000001 180.5311999999999C797.3888000000001 200.3456 797.1840000000001 232.6016 816.8960000000001 252.7743999999999C881.9712 319.7439999999999 921.9584 410.7263999999999 921.9584 511.6927999999999C921.9584 612.8639999999999 881.6640000000002 704 816.0768000000002 771.072C796.4160000000002 791.2447999999999 796.8768000000001 823.5008 816.9472000000001 843.2128C837.0688 863.1296 869.2224000000001 862.72 889.1904000000001 842.6496C972.3904000000002 757.3504 1024 640.3072 1024 511.6927999999999C1024 383.3344 972.8512 266.5472 889.9584000000001 181.504V181.4528C879.9744000000001 171.2128 866.6624000000002 166.0416 853.4528 166.0416C840.6528000000001 166.0415999999999 827.5968000000001 170.9056000000001 817.6640000000001 180.5311999999999M504.4224 915.2L225.024 662.0672H0V362.0351999999999H225.0752L503.6544 108.544C524.1344 86.5792000000001 525.1072 106.9568000000001 525.1072 137.0112V887.1424C525.1072 917.1968 524.4928 937.5744 504.4224 915.2" />
    <glyph glyph-name="warning"
      unicode="&#xE031;"
      horiz-adv-x="1024" d="M512 10.039C789.183 10.039 1013.961 234.817 1013.961 512S789.183 1013.961 512 1013.961S10.039 789.183 10.039 512S234.817 10.039 512 10.039zM512 918.889C738.033 918.889 921.249 735.623 921.249 509.59C921.249 283.5070000000001 738.033 100.2910000000001 512 100.2910000000001S102.701 283.5070000000001 102.701 509.59C102.701 735.623 285.967 918.889 512 918.889zM512 368.2380000000001C530.221 368.2380000000001 545.732 361.913 558.582 349.3140000000001C571.432 336.7650000000001 577.857 321.3550000000002 577.857 303.1340000000002C577.857 284.9630000000001 571.432 269.4020000000002 558.582 256.5520000000002S530.221 237.2270000000001 512 237.2270000000001C493.829 237.2270000000001 478.268 243.7020000000001 465.418 256.5520000000002S446.1430000000001 284.9130000000001 446.1430000000001 303.1340000000002S452.568 336.7650000000001 465.418 349.3140000000001C478.268 361.9130000000001 493.779 368.2380000000001 512 368.2380000000001zM520.835 817.142C531.0250000000001 817.142 541.466 816.439 552.157 815.134S570.9300000000001 812.574 576.2510000000001 811.52V458.943C576.2510000000001 445.089 571.282 434.648 561.3930000000001 427.671S532.3800000000001 417.18 503.9690000000002 417.18C493.8290000000002 417.18 483.3890000000002 417.8829999999999 472.6470000000002 419.238C461.9550000000002 420.5429999999999 453.9240000000001 421.7979999999999 448.5530000000002 422.852V775.3789999999999C448.5530000000002 789.2829999999999 453.5220000000002 799.7239999999999 463.4110000000002 806.701S492.4240000000001 817.1419999999999 520.8350000000002 817.1419999999999z" />
    <glyph glyph-name="whatsapp"
      unicode="&#xE032;"
      horiz-adv-x="1017.3506493506493" d="M517.8181818181818 1024C241.8701298701299 1024 19.1168831168831 801.2467532467533 19.1168831168831 525.2987012987014C19.1168831168831 430.5454545454545 45.7142857142857 342.4415584415586 90.5974025974026 267.6363636363638L0.8311688311688 1e-13L276.7792207792209 88.1038961038961C348.2597402597404 48.2077922077923 429.7142857142857 26.5974025974026 517.8181818181818 26.5974025974026C793.7662337662338 26.5974025974026 1016.5194805194805 249.3506493506493 1016.5194805194805 525.2987012987012C1018.181818181818 801.2467532467533 793.7662337662338 1024 517.8181818181818 1024zM517.8181818181818 109.7142857142858C433.038961038961 109.7142857142858 354.909090909091 134.6493506493507 290.0779220779222 177.87012987013L130.4935064935066 126.3376623376624L182.0259740259741 280.935064935065C132.1558441558441 349.0909090909091 102.2337662337662 433.87012987013 102.2337662337662 525.2987012987013C102.2337662337662 754.7012987012987 288.4155844155844 940.8831168831168 517.8181818181818 940.8831168831168C747.2207792207793 940.8831168831168 933.4025974025974 754.7012987012987 933.4025974025974 525.2987012987013C933.4025974025974 295.896103896104 747.2207792207791 109.7142857142858 517.8181818181818 109.7142857142858zM752.2077922077922 412.2597402597404C738.909090909091 418.909090909091 679.0649350649351 452.1558441558442 667.4285714285714 457.1428571428573C655.7922077922077 462.1298701298703 647.4805194805194 463.7922077922079 639.168831168831 452.1558441558443C630.8571428571428 440.5194805194807 604.2597402597402 412.2597402597405 597.6103896103896 403.9480519480522C589.2987012987012 395.6363636363639 582.6493506493506 395.6363636363639 569.3506493506492 402.2857142857145C556.051948051948 408.9350649350652 516.1558441558441 423.896103896104 469.6103896103895 468.779220779221C433.038961038961 503.688311688312 409.7662337662337 546.9090909090911 401.4545454545454 560.2077922077924C394.8051948051948 573.5064935064937 401.4545454545454 580.1558441558443 408.1038961038961 586.805194805195C414.7532467532467 591.792207792208 421.4025974025974 601.7662337662339 428.051948051948 608.4155844155846C434.7012987012986 615.0649350649353 436.3636363636363 620.0519480519483 441.3506493506493 628.3636363636365C446.3376623376623 636.6753246753249 444.6753246753246 644.9870129870133 441.3506493506493 649.9740259740262C438.025974025974 656.6233766233768 414.7532467532467 719.792207792208 406.4415584415583 746.3896103896107C396.4675324675324 772.9870129870133 386.4935064935064 768.0000000000002 378.181818181818 768.0000000000002C371.5324675324674 768.0000000000002 361.5584415584414 769.6623376623379 353.2467532467532 769.6623376623379C344.9350649350648 769.6623376623379 331.6363636363635 768.0000000000002 318.3376623376622 754.7012987012989C306.7012987012986 743.0649350649353 271.7922077922077 713.1428571428573 270.1298701298701 649.9740259740262C268.4675324675324 586.805194805195 311.6883116883116 525.2987012987015 316.6753246753246 516.9870129870133C323.3246753246753 508.6753246753249 399.7922077922077 372.3636363636366 527.7922077922076 315.8441558441562C655.7922077922076 259.3246753246756 655.7922077922076 277.6103896103899 679.0649350649348 277.6103896103899C702.3376623376621 279.2727272727276 755.5324675324673 305.8701298701302 767.1688311688309 334.1298701298705C778.8051948051946 364.0519480519484 780.4675324675321 388.9870129870133 777.1428571428569 393.9740259740263C773.8181818181818 400.6233766233767 765.5064935064935 403.948051948052 752.2077922077922 412.2597402597404z" />
  </font>
</defs>
</svg>
