<?xml version="1.0" standalone="no"?> 
<!DOCTYPE svg PUBLIC "-//W3C//DTD SVG 1.1//EN" "http://www.w3.org/Graphics/SVG/1.1/DTD/svg11.dtd" >
<svg xmlns="http://www.w3.org/2000/svg">
<defs>
  <font id="skycons" horiz-adv-x="376">
    <font-face font-family="skycons"
      units-per-em="512" ascent="448"
      descent="64" />
    <missing-glyph horiz-adv-x="0" />
    <glyph glyph-name="arrow-down-left"
      unicode="&#xF101;"
      horiz-adv-x="318.95081967213116" d=" M198.46295081967213 422.8028852459016C228.69193442622952 421.3424262295082 251.87881967213116 395.1674754098361 269.6897049180328 372.8786885245902C284.56288524590167 354.26203278688524 294.18177049180326 332.3383606557377 297.7993442622951 308.83672131147546C304.8330491803279 263.1889836065574 282.57363934426235 218.22111475409838 258.1948852459017 181.28577049180325C205.34557377049185 101.19134426229505 126.47659016393447 41.87068852459015 55.484852459016444 -20.99619672131149C46.92354098360661 -28.58386885245909 52.362491803278736 -43.57455737704919 62.75357377049185 -34.383737704918076C141.58478688524593 35.43711475409833 227.90714754098366 101.45573770491808 283.0814426229509 192.98203278688524C307.8337049180328 234.05534426229508 323.46649180327876 282.6030163934426 312.75226229508195 330.51698360655735C307.2755409836065 355.0258360655738 293.87960655737703 376.4836721311475 277.83554098360656 395.41927868852457C258.4131147540984 418.3711475409836 235.72983606557378 439.9422950819672 204.43488524590165 441.45311475409835C195.2440655737705 441.8979672131147 186.68275409836068 423.3778360655738 198.46295081967213 422.81127868852457zM48.0944262295082 -37.405377049180345C84.12747540983607 27.5095081967213 48.3168524590164 109.70649180327871 23.325377049180332 172.22085245901638C19.48957377049181 181.81875409836067 3.844196721311477 167.9401967213115 7.32747540983607 159.2278032786885C29.34347540983607 104.15422950819669 65.62832786885247 25.025049180327812 33.65350819672131 -32.57075409836068C26.930360655737704 -44.67409836065576 42.4792131147541 -47.49849180327868 48.09022950819672 -37.3969836065574zM313.78885245901637 -22.11672131147543C319.0137704918033 -20.55134426229506 323.4413114754098 -16.031475409836048 323.92813114754097 -10.424655737704938C324.19672131147536 -7.361049180327825 322.93770491803275 -5.0696393442623275 320.1930491803279 -3.7644590163934026C311.18688524590164 0.5036065573770543 293.5102950819672 -3.3741639344261785 284.1096393442623 -3.7057049180327795C255.44603278688524 -4.712918032786888 226.79921311475408 -6.328655737704935 198.1733770491803 -8.15422950819675C166.48813114754097 -10.185442622950802 134.823868852459 -12.632131147540974 103.24354098360651 -15.989508196721317C82.87685245901636 -18.15501639344268 61.301508196721265 -19.766557377049253 41.66504918032782 -25.96931147540988C32.793180327868804 -28.772721311475493 27.82426229508192 -47.88459016393443 40.08288524590159 -44.01521311475415C86.13350819672127 -29.452590163934474 140.00681967213112 -30.279344262295126 187.76550819672127 -27.10242622950824C215.75763934426226 -25.230688524590164 243.79173770491798 -23.715672131147528 271.83422950819664 -22.590950819672116C280.8026229508196 -22.23003278688526 289.77101639344255 -21.936262295081974 298.743606557377 -21.768393442622937C301.8491803278688 -21.709639344262314 310.7546229508196 -22.053770491803277 310.1712786885245 -21.776786885245883L306.43619672131143 -15.112393442622988L306.423606557377 -15.208918032786869L313.7133114754098 -4.72970491803278L315.3668196721311 -4.066622950819692C306.4278032786885 -6.7357377049179945 301.44629508196715 -25.79304918032784 313.79304918032784 -22.1125245901639z" />
    <glyph glyph-name="arrow-left"
      unicode="&#xF102;"
      horiz-adv-x="623.1079333688294" d=" M610.4121092264395 236.06541416292688H157.87997261732716L323.39301741842246 392.037118734312C328.0663269186887 396.4378185137293 328.0663269186887 403.72039248497754 323.39301741842246 408.16003651023044L286.6685935954971 442.8204153038716C281.9952840952309 447.29900357496007 274.20643492812053 447.29900357496007 269.5331254278543 442.8204153038716L50.82224081539515 236.92218757130902C49.18658249030197 236.2990796379402 47.43409142770214 236.22119114626912 46.148931315128934 234.97497527953144L9.42450749220355 200.39248497756142C6.69841028371492 197.86110899825053 6.03635810451054 194.434015364722 6.4258005628660575 191.04586597702894C6.036358104510539 187.69666083517149 6.659466037879368 184.23062295580735 9.42450749220355 181.6992469764965L46.148931315128934 147.03886818285537C47.39514718186659 145.8705408077888 49.26447098197308 145.7537080702822 50.822240815395155 145.2084886285844L269.57206967368984 -60.80657184148481C274.2453791739561 -65.16832737506661 281.9563398493953 -65.16832737506661 286.7075378413327 -60.80657184148481L323.3151289267514 -26.146193047843667C328.1831596561954 -21.667604776755184 328.10527116452425 -14.346086559671448 323.3151289267514 -9.945386780254069L157.8020841256561 146.10420628280212H610.4121092264396C617.3441849851679 146.10420628280212 623.1079333688294 152.41317410816157 623.1079333688294 160.31885601277855V221.85076443295048C623.1079333688294 229.71750209173194 617.3441849851678 236.10435840876244 610.4121092264395 236.10435840876244z" />
    <glyph glyph-name="arrow-right"
      unicode="&#xF103;"
      horiz-adv-x="512" d=" M9.830400000000001 165.47840000000002H403.25120000000004L231.98720000000003 -5.785599999999988C228.32640000000004 -9.44640000000004 229.17120000000006 -16.15360000000004 233.77920000000006 -20.81279999999998L258.5088 -45.54240000000004C263.16800000000006 -50.15039999999999 269.90080000000006 -50.969600000000014 273.536 -47.33440000000002L507.77600000000007 186.9056C509.44000000000005 188.59520000000003 510.08000000000004 191.0016 509.9008 193.5104C509.9008 193.63840000000005 509.9008 193.7664 509.952 193.8688V194.17600000000002C510.1056 196.68480000000002 509.44 199.09120000000001 507.7504 200.7808L273.5104 435.0208C269.9008 438.6048 263.168 437.76 258.56 433.152L233.83040000000003 408.3968C229.22240000000002 403.7376 228.37760000000003 397.0048 232.03840000000002 393.3696L401.15200000000004 224.25599999999997H9.830400000000001C3.2768 224.25599999999997 -2.0480000000000005 218.9312 -2.0480000000000005 212.35199999999998V177.40799999999996C-2.0480000000000005 170.8032 3.2767999999999997 165.47840000000002 9.830400000000001 165.47840000000002z" />
    <glyph glyph-name="at"
      unicode="&#xF104;"
      horiz-adv-x="478.3649635036496" d=" M358.98300729927007 316.89810218978107L350.4920291970802 320.18686131386863C330.28110948905106 328.1097810218978 302.5359416058394 332.9233284671533 271.4123211678832 331.06966423357665C169.5504817518248 325.090102189781 102.60928467153283 237.93798540145985 107.69191240875911 147.0486423357665C111.27964963503648 87.97056934306579 152.59842335766422 51.55503649635045 199.05962043795617 54.066452554744615C235.41535766423357 56.009810218978146 265.2533722627737 72.90207299270082 287.16846715328467 102.56070072992708C290.9953868613139 92.00677372262783 297.03474452554747 83.42610218978103 304.509197080292 76.99807299270077C317.2157664233577 66.17506569343072 333.2708905109489 61.95947445255479 348.84764963503653 62.94610218978107C421.2900437956205 67.13179562043803 478.3051678832117 138.58756204379563 472.20601459854015 245.23305109489056C468.7378686131387 305.0286715328467 444.5505401459854 356.60239416058397 405.1751240875912 392.091094890511C365.82960583941605 427.6694890510949 311.4155912408759 446.8040875912409 249.1982481751825 443.0967591240876C90.29138686131387 433.5294598540146 -4.484671532846715 298.8996204379562 3.7372262773722627 152.6694306569343C12.018919708029197 14.66113868613138 117.94686131386861 -67.07947445255479 235.9535182481752 -60.382364963503676H236.3720875912409C283.2219562043796 -57.6317664233577 323.3747153284672 -47.31702189781021 361.5542189781022 -24.20601459854015L370.4039708029197 -18.884204379561993L366.1584817518248 -9.436496350364905L347.9806131386861 31.88227737226282L336.4400583941606 24.497518248175197C311.47538686131384 8.502189781021912 277.48157664233577 -1.5135766423356927 240.07941605839417 -3.606423357664198C144.70540145985404 -8.569459854014553 72.95065693430661 51.704525547445314 65.95456934306573 160.41296350364968C58.59970802919712 294.05617518248175 141.95480291970804 381.4175766423358 246.8961167883212 387.8157080291971C347.0537810218978 392.8983357664234 403.56064233576643 331.99649635036496 410.04846715328466 237.54931386861315C412.1413138686131 200.05745985401464 404.7266569343065 170.42872992700734 393.3056934306569 150.54668613138688C381.8847299270073 130.4553576642336 367.05541605839414 121.0076496350365 355.1859854014598 120.46948905109491H354.5880291970803C346.4558248175182 120.9179562043796 342.4794160583942 122.26335766423358 339.72881751824815 146.6599708029197C339.1308613138686 155.98808759124086 339.72881751824815 167.8874160583942 341.8216642335766 182.5373430656934L358.98300729927007 316.928zM211.97547445255472 115.53635036496354C188.71497810218975 114.93839416058398 178.87859854014596 127.19649635036501 176.15789781021897 153.86534306569348C172.65985401459855 214.79708029197081 214.36729927007298 267.71620437956204 266.7482627737226 270.9152700729927C274.8804671532847 271.4235328467154 281.8466569343066 270.9152700729927 287.4973430656934 270.31731386861316L279.0362627737226 203.13693430656937C275.14954744525545 164.12029197080295 241.42481751824815 115.44665693430659 211.94557664233577 115.53635036496354z" />
    <glyph glyph-name="calender"
      unicode="&#xF105;"
      horiz-adv-x="512" d=" M407.9957333333333 352.54613333333333C407.9957333333333 339.33653333333336 397.1925333333333 328.5333333333333 384 328.5333333333333H367.99146666666667C354.79893333333337 328.5333333333333 343.99573333333336 339.33653333333336 343.99573333333336 352.52906666666667V424.0042666666667C343.9957333333333 437.1968 354.816 448 367.99146666666667 448H384C397.1925333333333 448 407.9957333333333 437.1968 407.9957333333333 424.0042666666667V352.54613333333333zM168.00426666666667 352C168.00426666666667 338.7904 157.20106666666663 328.0042666666667 144.0085333333333 328.0042666666667H128C114.80746666666667 328.0042666666667 104.00426666666667 338.7904 104.00426666666667 351.98293333333334V424.0042666666667C104.00426666666667 437.17973333333333 114.80746666666667 448 128 448H144.00853333333333C157.20106666666666 448 168.0042666666667 437.1968 168.0042666666667 424.0042666666667V351.98293333333334zM448 407.9957333333333C434.80746666666664 407.9957333333333 424.0042666666667 397.19253333333336 424.0042666666667 384V333.312C424.0042666666667 320.11946666666665 413.2010666666667 309.33333333333337 400.0085333333334 309.33333333333337H352.01706666666666C338.82453333333336 309.33333333333337 328.02133333333336 320.1365333333333 328.02133333333336 333.3290666666667V384C328.02133333333336 397.2096 317.2181333333334 407.9957333333333 304.02560000000005 407.9957333333333H211.76320000000007C198.51946666666674 407.9957333333333 187.73333333333343 397.2096 187.73333333333343 384V336.00853333333333C187.73333333333343 322.79893333333337 176.9301333333334 312.0128 163.73760000000007 312.0128H111.99146666666667C98.79893333333334 312.0128 87.99573333333335 322.81600000000003 87.99573333333335 336.00853333333333V384C87.99573333333335 397.2096 77.19253333333334 407.9957333333333 64.00000000000001 407.9957333333333H23.99573333333333C10.8032 407.9957333333333 0 397.2096 0 384V-40.004266666666695C0 -53.196799999999996 10.8032 -64 23.99573333333333 -64H488.00426666666664C501.19679999999994 -64 511.99999999999994 -53.196799999999996 511.99999999999994 -40.004266666666695V384C511.99999999999994 397.2096 501.19679999999994 407.9957333333333 488.00426666666664 407.9957333333333H448zM241.42506666666668 29.969066666666663L237.3632 26.333866666666665C231.66293333333337 25.309866666666665 216.20053333333334 24.507733333333363 203.008 24.507733333333363H122.88C109.6704 24.507733333333363 98.18453333333333 27.016533333333314 97.34826666666667 30.10559999999998L96.80213333333334 33.60426666666666C96.25600000000001 37.10293333333328 96.00000000000001 40.686933333333286 96.00000000000001 44.28800000000001C96.00000000000001 46.847999999999956 96.25600000000001 49.69813333333332 96.80213333333334 52.90666666666664S98.23573333333334 59.39199999999994 99.49866666666668 62.805333333333294C100.79573333333335 66.21866666666659 102.62186666666668 69.63199999999989 104.96000000000002 73.0453333333333L107.31520000000002 76.4586666666666C110.93333333333335 79.83786666666663 122.06080000000001 89.68533333333323 132.02773333333334 98.3381333333333L135.50933333333333 101.35893333333325C145.47626666666667 109.9946666666666 159.47093333333336 121.94133333333326 166.6048 127.86346666666662L171.38346666666666 132.13013333333328C176.2133333333333 136.39679999999998 180.13866666666667 140.42453333333333 183.27893333333333 144.14506666666665C186.3509333333333 147.8997333333333 188.53546666666665 151.5349333333333 189.81546666666665 155.0677333333333C191.09546666666665 158.58346666666665 191.744 162.37226666666663 191.744 166.4341333333333C191.744 171.9808 189.81546666666665 177.1008 185.97546666666668 181.79413333333332C182.11839999999998 186.52159999999998 175.73546666666667 188.85973333333334 166.74133333333333 188.85973333333334C161.22879999999998 188.85973333333334 156.24533333333332 188.1770666666667 151.8592 186.76053333333334C147.49013333333332 185.3952 143.49653333333333 183.91039999999998 139.84426666666664 182.28906666666666C136.2261333333333 180.70186666666666 132.8469333333333 179.25119999999998 129.60426666666666 177.95413333333335C126.39573333333333 176.69119999999998 123.11893333333332 176.04266666666666 119.70559999999999 176.04266666666666C116.46293333333331 176.04266666666666 113.39093333333332 176.89600000000002 110.38719999999998 178.60266666666666C107.41759999999998 180.3093333333333 104.85759999999999 182.76693333333333 102.70719999999999 185.94133333333332C100.59093333333333 189.18399999999997 98.98666666666665 193.0752 97.9285333333333 197.64906666666667L96.87039999999998 202.25706666666665C96.92159999999997 208.26453333333333 105.50613333333331 218.52159999999998 115.98506666666664 225.04106666666667L127.7269333333333 229.51253333333335C139.4517333333333 234.03520000000003 153.3269333333333 236.23680000000002 169.36959999999996 236.23680000000002C180.85546666666662 236.23680000000002 191.24906666666664 234.63253333333336 200.55039999999997 231.424C209.86879999999994 228.23253333333335 217.73653333333328 223.69280000000003 224.1365333333333 217.82186666666666C230.51946666666663 211.95093333333335 235.51999999999995 204.8512 239.0186666666666 196.52266666666668C242.53439999999995 188.19413333333335 244.30933333333329 178.9952 244.30933333333329 168.99413333333337C244.30933333333329 153.8048 240.48639999999995 140.5610666666667 232.75519999999997 129.22880000000004C225.07519999999997 117.93066666666675 219.39199999999997 113.52746666666667 219.39199999999997 113.52746666666667C208.94719999999998 105.43786666666671 192.11946666666663 92.62079999999997 182.016 85.06026666666668C171.8613333333333 77.48266666666672 174.3701333333333 71.28746666666672 187.56266666666664 71.28746666666672H220.92799999999997C234.13759999999996 71.28746666666672 245.3333333333333 68.81280000000004 245.87946666666664 65.82613333333336L246.52799999999996 61.986133333333385C247.15946666666665 58.12906666666669 247.50079999999997 54.08426666666668 247.50079999999997 49.80053333333336C247.50079999999997 40.192000000000064 245.4869333333333 33.553066666666666 241.42506666666665 29.93493333333339M416.0170666666666 216.04693333333336C416.0170666666666 206.89920000000004 411.4090666666666 189.64480000000003 405.7770666666666 177.71519999999998L350.9930666666666 61.59360000000004C345.3610666666666 49.64693333333338 336.8959999999999 34.048 332.16853333333324 26.914133333333382L326.63893333333317 24.695466666666732C321.05813333333316 22.442666666666696 314.55573333333325 21.316266666666706 307.08053333333316 21.316266666666706C301.72159999999985 21.316266666666706 296.2261333333332 21.828266666666707 290.57706666666655 22.920533333333424L284.89386666666655 23.944533333333368C280.3541333333332 25.651200000000074 281.48053333333326 36.71040000000005 287.4197333333332 48.52053333333339L345.7877333333333 164.50560000000007C351.7098666666666 176.28160000000003 345.7877333333333 185.94133333333338 332.5610666666666 185.94133333333338H307.6437333333333C294.43413333333325 185.94133333333338 278.86933333333326 186.7093333333334 273.0666666666666 187.64800000000002L269.22666666666663 191.06133333333338C265.42079999999993 194.50880000000004 263.4752 200.9941333333334 263.4752 210.6026666666667C263.4752 214.92053333333337 263.7141333333333 219.06773333333336 264.1066666666666 223.11253333333337L264.56746666666663 227.17440000000002C265.0282666666666 230.24640000000002 276.20693333333327 232.73813333333337 289.43359999999996 232.73813333333337H391.9530666666666C405.1797333333332 232.73813333333337 415.9829333333332 225.26293333333336 415.9829333333332 216.09813333333338" />
    <glyph glyph-name="carousel-pause"
      unicode="&#xF106;"
      horiz-adv-x="512" d=" M256 396.8C142.8992 396.8 51.2 305.1008 51.2 192S142.8992 -12.800000000000011 256 -12.800000000000011S460.8 78.89920000000001 460.8 192S369.1008 396.8 256 396.8M256 25.98399999999998C163.7632 25.98399999999998 89.01120000000002 100.73599999999999 89.01120000000002 192.9728C89.0112 285.18399999999997 163.7632 359.936 256 359.936S422.9888 285.18399999999997 422.9888 192.9728C422.9888 100.76159999999999 348.2368 25.98399999999998 256 25.98399999999998M220.23680000000002 92.8512C208.20479999999998 92.8512 198.47680000000003 102.63040000000001 198.47680000000003 114.66239999999999V269.312C198.47680000000003 281.34399999999994 208.20480000000003 291.1232 220.23680000000002 291.1232S241.9968 281.3952 241.9968 269.3632V114.6368C241.9968 102.60480000000001 232.26879999999997 92.8768 220.23680000000002 92.8768zM298.6496 92.8768C286.6176 92.8768 276.83840000000004 102.656 276.83840000000004 114.68800000000005V269.312C276.83840000000004 281.34399999999994 286.6176 291.1232 298.6496 291.1232S320.46080000000006 281.3952 320.46080000000006 269.3632V114.6368C320.46080000000006 102.60480000000001 310.7328 92.8768 298.6496 92.8768z" />
    <glyph glyph-name="carousel-play"
      unicode="&#xF107;"
      horiz-adv-x="512" d=" M256 396.8C142.8992 396.8 51.2 305.1008 51.2 192S142.8992 -12.800000000000011 256 -12.800000000000011S460.8 78.89920000000001 460.8 192S369.1008 396.8 256 396.8M256 25.98399999999998C163.7632 25.98399999999998 89.01120000000002 100.73599999999999 89.01120000000002 192.9728C89.0112 285.18399999999997 163.7632 359.936 256 359.936S422.9888 285.18399999999997 422.9888 192.9728C422.9888 100.76159999999999 348.2368 25.98399999999998 256 25.98399999999998M351.10400000000004 192.4608L212.096 91.59680000000003V292.40319999999997L351.10400000000004 192.4608z" />
    <glyph glyph-name="chevron-down"
      unicode="&#xF108;"
      horiz-adv-x="819.2" d=" M392.704 176.64C401.92 167.52640000000002 416.8704 167.52640000000002 425.98400000000004 176.64L690.432 441.1392C699.648 450.2016 714.4960000000001 450.2016 723.712 441.1392L786.6880000000001 378.0096C795.904 368.79359999999997 795.904 353.9456 786.6880000000001 344.7296L522.0864 80.5376C512.8704 71.42399999999998 498.02239999999995 56.47360000000003 488.80639999999994 47.25759999999997L425.83039999999994 -15.718400000000031C416.61439999999993 -24.93440000000004 401.7664 -24.93440000000004 392.5503999999999 -15.718400000000031L32.61439999999989 344.2176C23.29599999999989 353.43359999999996 23.29599999999989 368.384 32.61439999999989 377.6L95.4368 440.6272C104.65280000000001 449.8432 119.60320000000002 449.8432 128.7168 440.6272L392.704 176.5376z" />
    <glyph glyph-name="chevron-left"
      unicode="&#xF109;"
      horiz-adv-x="307.2" d=" M302.336 379.2554666666667C308.30933333333337 385.3312 308.30933333333337 395.33226666666667 302.336 401.44213333333335L261.20533333333333 443.4261333333333C255.232 449.51893333333334 245.46986666666666 449.51893333333334 239.53066666666666 443.4261333333333L4.471466666666667 203.3664C-1.501866666666666 197.27360000000002 -1.501866666666666 187.25546666666668 4.471466666666667 181.17973333333333L45.602133333333335 139.1957333333333L67.27680000000001 117.00906666666663L239.8208 -59.46026666666671C245.79413333333332 -65.53600000000006 255.57333333333332 -65.53600000000006 261.56373333333335 -59.46026666666671L302.69440000000003 -17.442133333333345C308.6677333333334 -11.34933333333339 308.6677333333334 -1.3482666666666887 302.69440000000003 4.744533333333322L130.048 181.07733333333334C124.07466666666667 187.1701333333333 124.07466666666667 197.1712 130.048 203.264L302.336 379.27253333333334z" />
    <glyph glyph-name="chevron-up"
      unicode="&#xF10A;"
      horiz-adv-x="819.2" d=" M128.768 -15.20640000000003C119.65440000000001 -24.42240000000004 104.70400000000001 -24.42240000000004 95.48800000000001 -15.20640000000003L32.512000000000015 47.76959999999997C23.296000000000014 56.98559999999998 23.296000000000014 71.98719999999997 32.512000000000015 81.20319999999998L392.704 441.1392C401.92 450.3552 416.76800000000003 450.3552 425.8816 441.1392L488.85760000000005 378.1632L522.1376 344.8832L786.8416000000001 80.58879999999999C796.0576000000001 71.37279999999998 796.0576000000001 56.52479999999997 786.8416000000001 47.30879999999996L723.8656000000001 -15.769600000000025C714.6496000000001 -24.831999999999994 699.6992 -24.831999999999994 690.5856 -15.769600000000025L425.98400000000004 248.832C416.8704 257.8432 401.9200000000001 257.8432 392.704 248.832L128.8192 -15.257600000000025z" />
    <glyph glyph-name="chevron"
      unicode="&#xF10B;"
      horiz-adv-x="363.95466111496637" d=" M333.6941938468655 183.59102475133017L86.16238723108951 431.0043950959982L24.812398797131618 369.62479759426327L210.81656257228772 183.59102475133017L24.812398797131618 -2.5611843627110034L86.19199629886651 -64.02960906777696L322.47235715938 172.33957899606764z" />
    <glyph glyph-name="close"
      unicode="&#xF10C;"
      horiz-adv-x="512" d=" M292.224 192L355.584 255.3344C366.72 269.28639999999996 348.16 279.3472 340.224 288.79359999999997C329.1392 303.4368 315.392 288.5376 307.0976 279.2704L256 228.1728L192.64000000000001 291.53279999999995C178.68800000000002 302.6688 168.62720000000002 284.1088 159.1808 276.1728C144.5888 265.08799999999997 159.4368 251.3408 168.7296 243.04639999999998L219.8272 192L156.41600000000003 128.5888C145.3056 114.6368 163.84000000000003 104.57599999999996 171.776 95.12959999999998C182.8864 80.53759999999994 196.65920000000003 95.38559999999995 204.928 104.67839999999995L256 155.776L319.36 92.416C333.312 81.27999999999997 343.424 99.83999999999997 352.8192 107.77600000000001C367.4112 118.86079999999998 352.56320000000005 132.608 343.27040000000005 140.9024L292.1984 192zM436.992 11.007999999999981C509.184 81.15199999999999 532.096 195.584 493.2608 288.3328C456.7808 381.1328 361.93280000000004 446.848 262.144 447.9488C163.584 451.5328 66.7136 392.01279999999997 25.088 302.66880000000003C-19.712000000000003 211.712 -3.1232 94.976 65.8944 20.55680000000001C131.1232 -53.68319999999994 241.2544 -82.96960000000001 334.8224 -51.6352C373.22240000000005 -39.29600000000005 408.5504 -17.58719999999994 436.9664000000001 10.982400000000041zM109.312 338.688C173.69600000000003 405.4528 283.904 419.32800000000003 363.00800000000004 370.944C441.088 326.4768 482.3808 228.30079999999998 459.6992 141.3888C438.9632000000001 50.12479999999999 350.51520000000005 -19.327999999999975 256.9472 -17.638400000000047C163.32800000000003 -19.302400000000034 74.85440000000001 50.201599999999985 54.144000000000034 141.44C36.608000000000025 211.072 57.98400000000003 288.384 109.31200000000004 338.7392z" />
    <glyph glyph-name="cloud"
      unicode="&#xF10D;"
      horiz-adv-x="676.6333526059304" d=" M264.30990336169157 336.7783926654002C248.23986123730074 352.0026430990336 226.58759395391095 361.3909308664409 202.77855785908977 361.3909308664409C157.2326753118031 361.3909308664409 119.80639299578756 327.34781531345504 114.22416783678864 283.36664739406956C51.59329313620219 275.75452217725285 2.960270917650946 222.46964565953581 2.960270917650946 157.89345007020734C2.960270917650946 87.98876682910713 59.628314198397625 31.32072354836049 129.57528702403567 31.32072354836049C157.14809614272735 31.32072354836049 182.60642603452547 40.32840505492686 203.4551912116957 55.25662839679529C233.35392747997025 20.6637482448171 277.3773849838936 -1.4114148839513518 326.7293301395887 -1.4114148839513518C369.65325844552734 -1.4114148839513518 408.60196580490623 15.292971008507493 437.6549103824234 42.485173866358366L529.7616255059057 -64.08457916907571L509.88552077310646 47.1370281655241C522.7415544726192 42.6966217890477 536.4433798628893 40.11695713223759 550.7372594366894 40.11695713223759C619.1195176344264 40.11695713223759 674.6457421326505 95.60089204592384 674.6457421326505 164.02543982819856C674.6457421326505 232.40769802593542 619.2463863880399 287.9339225241596 550.7372594366894 287.9339225241596L547.4386718427356 287.7647641860081C547.650119765425 290.6404559345833 547.9461468571901 293.43156851408276 547.9461468571901 296.22268109358225C547.9461468571901 376.1499958701578 483.1585033451722 440.85306021309987 403.31576773767245 440.85306021309987C337.3440158585942 440.93763938217563 281.86008094490796 396.95647146279015 264.3099033616916 336.82068224993805" />
    <glyph glyph-name="download"
      unicode="&#xF10E;"
      horiz-adv-x="530.2857142857142" d=" M265.1428571428571 96L455.7165714285714 272H364.58057142857143V448H165.72342857142857V272H74.56914285714286zM505.41714285714284 160H488.8685714285714C475.1908571428571 160 464 149.2114285714286 464 136.00914285714288V0H66.30399999999999V136.00914285714288C66.30399999999999 149.2114285714286 55.11314285714285 160 41.43542857142857 160H24.86857142857143C11.190857142857144 160 0 149.21142857142854 0 136.00914285714288V-18.651428571428596C0 -43.70285714285711 21.028571428571425 -64 46.99428571428571 -64H483.2914285714285C509.25714285714287 -64 530.2857142857142 -43.70285714285711 530.2857142857142 -18.65142857142854V136.04571428571433C530.2857142857142 149.24800000000005 519.0948571428571 160.03657142857145 505.41714285714284 160.03657142857145z" />
    <glyph glyph-name="edit"
      unicode="&#xF10F;"
      horiz-adv-x="512" d=" M486.912 364.608L504.89599999999996 382.624C513.76 391.456 510.01599999999996 409.696 496.57599999999996 423.168L492.41599999999994 427.328C478.97599999999994 440.768 460.73599999999993 444.544 451.9359999999999 435.64799999999997L433.85599999999994 417.664 M471.488 349.28L418.56 402.24L158.528 142.272L208.864 192.64L207.52 191.23199999999997L205.28 188.928L154.56 138.336L140.16 72L207.584 85.31200000000001L208.352 86.07999999999998zM431.136 239.36V-8.127999999999986H55.904V359.13599999999997H295.42400000000004L359.264 415.008H31.904C16 415.04 0 399.04 0 383.04V-37.44C0 -48.127999999999986 16 -64.06399999999996 26.656 -64.06399999999996H463.136C471.072 -64.06399999999996 487.04 -52.67199999999997 487.04 -40.19199999999995V295.23199999999997L431.136 239.392z" />
    <glyph glyph-name="expand"
      unicode="&#xF110;"
      horiz-adv-x="512" d=" M77.82400000000001 403.712L239.0272 242.5344L202.8288 206.336L45.772800000000004 363.3408L45.568000000000005 216.1152H3.0208L3.2256 403.6096H2.9952000000000005V446.208H3.2512000000000003V446.464H45.824000000000005V446.2848L233.4208 446.464V403.8656L77.82400000000001 403.712zM512 167.93599999999998H469.37600000000003L469.1968 16.511999999999944L307.9936 177.71519999999998L271.82079999999996 141.5168L433.024 -19.686399999999992L281.6256 -19.814399999999978V-62.46399999999994L469.14560000000006 -62.284799999999905V-62.48959999999988H511.7696V-62.23359999999985H512V-19.635199999999827H511.7952L512 167.93599999999998z" />
    <glyph glyph-name="facebook"
      unicode="&#xF111;"
      horiz-adv-x="512" d=" M195.072 -64V176.25599999999997H131.584V262.784H195.072V336.64C195.072 394.6752 232.65279999999998 448 319.1296 448C354.1248 448 380.05760000000004 444.672 380.05760000000004 444.672L378.00960000000003 363.8784S351.59040000000005 364.13439999999997 322.79040000000003 364.13439999999997C291.5584 364.13439999999997 286.59200000000004 349.7984 286.59200000000004 325.9136V262.784H380.4928L376.3968 176.25599999999997H286.59200000000004V-64H195.072z" />
    <glyph glyph-name="gallery"
      unicode="&#xF112;"
      horiz-adv-x="704" d=" M657.6640000000001 371.744H483.26400000000007L484.3520000000001 369.024L458.9120000000001 429.28C454.592 439.68 442.592 448 432.192 448H283.712C273.28 448 261.536 439.68 257.408 429.312L233.408 369.056L234.49599999999998 371.77599999999995H46.33599999999999C20.735999999999986 371.77599999999995 0.03199999999998626 351.072 0.03199999999998626 325.44V-17.728000000000065C0.03200000000000003 -43.200000000000045 20.768 -64 46.336000000000006 -64H657.696C683.296 -64 704 -43.200000000000045 704 -17.727999999999952V325.44C704 351.03999999999996 683.2 371.744 657.664 371.744M352.192 -0.9600000000000364C261.952 -0.9600000000000364 188.768 71.80799999999999 188.768 161.59999999999997C188.768 251.42399999999998 261.984 324.256 352.192 324.256C442.368 324.256 515.5520000000001 251.42399999999998 515.5520000000001 161.63199999999995S442.4000000000001 -0.928000000000111 352.19200000000006 -0.928000000000111M613.8880000000001 233.15199999999993C591.0720000000001 233.15199999999993 572.6080000000002 251.51999999999992 572.6080000000002 274.27199999999993C572.6080000000002 296.99199999999996 591.0720000000001 315.3279999999999 613.8880000000001 315.3279999999999S655.1680000000001 296.9599999999999 655.1680000000001 274.27199999999993C655.1680000000001 251.5519999999999 636.7040000000002 233.15199999999993 613.8880000000001 233.15199999999993" />
    <glyph glyph-name="google-plus"
      unicode="&#xF113;"
      horiz-adv-x="512" d=" M279.792 405.488C232.35199999999998 405.168 184.87999999999997 406.128 137.45599999999996 404.976C89.00799999999995 400.064 38.01599999999996 365.408 32.23999999999997 314.176C28.143999999999966 266.08 66.35199999999998 220.54399999999998 114.03199999999997 214.88C121.51999999999997 209.68 150.30399999999997 219.712 142.51199999999997 207.648C127.87199999999997 189.45600000000002 150.19199999999998 158.59199999999998 151.95199999999997 152.704C110.51199999999997 154.848 66.51199999999997 146.192 34.991999999999976 117.47199999999998C8.832 95.87200000000001 -7.68 53.75999999999999 15.312 24.160000000000025C45.424 -12.20799999999997 95.984 -20.991999999999962 140.784 -21.727999999999952C189.93599999999998 -22.623999999999967 246.416 -1.8559999999999377 264.94399999999996 47.63200000000006C276.71999999999997 83.4720000000001 267.39199999999994 127.4720000000001 236.30399999999997 150.89600000000007C219.05599999999998 165.48800000000006 194.35199999999998 176.9120000000001 188.81599999999997 200.75200000000007C188.91199999999998 227.71200000000007 219.16799999999998 237.48800000000006 232.97599999999997 256.75200000000007C263.344 290.96000000000004 256.416 351.76000000000005 218.86399999999998 377.93600000000004C199.92 385.05600000000004 220.07999999999998 382.2080000000001 228.896 382.73600000000005C237.10399999999998 383.82400000000007 246.81599999999997 380.59200000000004 254.048 384.4320000000001L279.808 405.5040000000001zM224.928 10.84800000000007C234.528 -19.13599999999991 214.84799999999998 -52.89599999999996 185.024 -61.85599999999994C142.832 -75.90399999999988 88.336 -74.81599999999992 57.568 -38.335999999999956C36.928 -15.807999999999936 38.432 22.30400000000003 62.72 41.664000000000044C92.32 67.58400000000006 137.856 76.65600000000006 174.4 62.06400000000002C193.20000000000002 47.584 219.04000000000002 36.06400000000002 224.89600000000002 10.864000000000033zM177.392 392.48C140.4 394.496 116.112 430.656 106.86399999999999 463.312C80.896 376.15999999999997 88.96 420.544 123.36 433.152C157.376 443.872 187.92000000000002 413.79200000000003 201.232 385.344C218.672 352.06399999999996 216.528 302.528 183.184 279.93600000000004C176.432 275.84000000000003 168.576 273.664 160.688 273.696zM450.768 306.736V400.272H420.416V304.224H324.368V273.888H420.416V177.82399999999996H450.752V273.8879999999999H546.816V304.224H450.75200000000007V306.75199999999995z" />
    <glyph glyph-name="home"
      unicode="&#xF114;"
      horiz-adv-x="546.0362602204053" d=" M546.0362602204053 174.98186988979734L273.01813011020266 448L0 174.98186988979734H85.32726626377533V-57.08354070387492C85.32726626377533 -60.83298969072172 88.42147173835762 -63.90899395663001 92.1527195165304 -63.90899395663001H215.0108780661216C218.76032705296836 -63.90899395663001 221.83633131887666 -60.814788482047675 221.83633131887666 -57.08354070387492V91.36551724137922C221.83633131887666 95.11496622822602 224.93053679345894 98.19097049413432 228.66178457163173 98.19097049413432H317.3926768574476C321.14212584429436 98.19097049413432 324.21813011020265 95.13316743690007 324.21813011020265 91.38371845005327V-57.06533949520099C324.21813011020265 -60.81478848204773 327.312335584785 -63.89079274795603 331.0435833629577 -63.89079274795603H453.9017419125489C457.6511908993957 -63.89079274795603 460.727195165304 -60.79658727337369 460.727195165304 -57.06533949520099V174.98186988979734H546.0362602204053z" />
    <glyph glyph-name="info"
      unicode="&#xF115;"
      horiz-adv-x="512" d=" M254.44392156862747 283.758431372549C245.55921568627457 283.758431372549 237.97960784313727 286.82039215686274 231.7050980392157 292.9694117647059S222.29333333333335 306.6227450980392 222.29333333333335 315.50745098039215S225.43058823529412 331.99686274509804 231.7050980392157 338.2713725490196S245.5592156862745 347.68313725490196 254.44392156862747 347.68313725490196S270.9082352941177 344.54588235294113 277.1827450980393 338.2713725490196S286.5945098039216 324.3921568627451 286.5945098039216 315.5325490196078S283.43215686274516 299.16862745098035 277.1576470588236 293.01960784313724S263.30352941176477 283.80862745098034 254.4188235294118 283.80862745098034M250.10196078431375 64.60235294117643C245.13254901960786 64.60235294117643 240.06274509803924 64.92862745098034 234.79215686274514 65.60627450980388L223.04627450980396 67.36313725490191V239.43529411764703C223.04627450980396 246.2117647058823 225.45568627450984 251.30666666666662 230.32470588235296 254.69490196078428C235.14352941176472 258.1082352941176 244.48000000000002 259.7898039215686 258.3592156862746 259.7898039215686C263.32862745098043 259.7898039215686 268.39843137254906 259.43843137254896 273.66901960784315 258.78588235294114L285.41490196078433 257.0290196078431V84.90666666666658C285.41490196078433 78.13019607843131 282.98039215686276 73.0101960784313 278.13647058823534 69.59686274509801S263.9560784313726 64.50196078431367 250.10196078431375 64.50196078431367M256 442.98039215686276C117.38352941176471 442.98039215686276 5.019607843137256 330.5913725490196 5.019607843137256 192S117.38352941176473 -58.98039215686282 256 -58.98039215686282C394.59137254901964 -58.98039215686282 506.9803921568628 53.40862745098036 506.9803921568628 192S394.59137254901964 442.98039215686276 256 442.98039215686276" />
    <glyph glyph-name="mail"
      unicode="&#xF116;"
      horiz-adv-x="512" d=" M440.32 343.04H87.04L263.68 176.64zM473.6 325.12V74.23999999999995C473.6 53.759999999999934 458.24 38.39999999999998 437.76000000000005 38.39999999999998H92.16000000000001C71.67999999999999 38.39999999999998 56.32000000000001 53.75999999999999 56.32000000000001 74.24000000000001V325.12L253.44000000000003 140.79999999999995C256 138.24 258.56 135.68 263.68 135.68S271.36000000000007 138.24 273.92 140.79999999999995L473.6 325.12z" />
    <glyph glyph-name="menu"
      unicode="&#xF117;"
      horiz-adv-x="819.2" d=" M0 448H819.2V345.6H0zM0 243.2H819.2V140.8H0zM0 38.39999999999998H819.2V-64H0z" />
    <glyph glyph-name="minify"
      unicode="&#xF118;"
      horiz-adv-x="512" d=" M179.20000000000002 448H230.4V217.6H179.20000000000002zM0 268.79999999999995H230.4V217.6H0zM202.496 275.6608L172.3392 245.504L6.4 411.4432L36.5568 441.6zM281.6 166.39999999999998H332.8V-64H281.6zM281.6 166.39999999999998H512V115.19999999999999H281.6zM309.504 108.33919999999995L339.66080000000005 138.49599999999998L505.6 -27.44319999999999L475.4432 -57.60000000000002z" />
    <glyph glyph-name="mouse"
      unicode="&#xF119;"
      horiz-adv-x="561.1727633922454" d=" M543.1801616659816 176.8834086861214L484.2570215097958 311.3544321139882C449.1837237977805 391.67228387450336 359.3960816550212 429.90217838060005 278.97301000137 401.42266063844363C276.5178791615289 406.3329223181258 272.4143033292232 413.45280175366486 266.1712563364844 420.88834086861215C255.68434032059182 433.6199479380737 237.796958487464 448 212.68447732566102 448C194.02548294286885 448 173.2971639950678 440.0734347170845 150.95547335251402 421.9405397999726C104.30798739553363 383.85093848472394 71.86518701191945 367.22619536922866 49.593642964789694 367.6821482394849C39.94848609398548 367.6821482394849 31.601041238525827 370.20742567474997 22.411837237977807 375.9594464995205C15.502397588710783 380.27346211809834 6.418413481298811 378.13399095766545 2.1394711604329415 371.11933141526237C-2.069324565008899 364.1046718728593 -0.03507329771200953 354.84532127688726 6.874366351555013 350.56637895602137C19.85148650500069 342.3592272914098 34.23153856692698 337.79969858884783 49.31305658309357 337.79969858884783H49.593642964789694C85.2631867379093 338.220578161392 121.03795040416493 359.7205096588574 169.33388135361008 398.47650363063434C188.27346211809837 413.9087546239211 202.37292779832853 418.11755034936294 212.64940402794903 418.11755034936294C226.0824770516509 418.11755034936294 236.04329360186324 410.7521578298397 243.68927250308258 401.5629538292917C247.44211535826824 397.1787916152898 250.21290587751744 392.58418961501576 252.10686395396627 389.1470064392383C178.7685984381422 347.26948897109196 147.51829017673654 254.8162762022195 182.38114810247978 175.12974380052066L241.30428825866554 40.69379367036589C278.37676394026573 -43.97314700643915 375.9857514728044 -82.06274832168776 459.2848335388408 -44.53431976983137C542.6891354980133 -6.830524729414947 580.2175640498697 92.25154130702845 543.1801616659815 176.9184819838335zM327.7248938210713 328.54034799287575L338.0715166461158 305.04123852582546C344.5951500205507 290.240306891355 337.8961501575557 272.9140978216194 323.3407316070694 266.32031785176054C308.78531305658305 259.65639128647763 291.7747636662556 266.32031785176054 285.25113029182074 281.156322783943L274.93958076448826 304.6554322509933C268.4510206877654 319.4914371831758 275.00972735991223 336.81764625291135 289.6002192081107 343.3763529250582C304.19071105630906 349.9701328949171 321.16618714892445 343.3062063296342 327.6898205233593 328.50527469516373zM465.7032470201397 262.39210850801476L231.06288532675705 156.47074941772848C229.16892725030823 155.66406357035214 227.13467598301133 155.20811070009592 225.10042471571444 155.20811070009592C219.488697081792 155.20811070009592 214.12248253185365 158.50500068502532 211.7024249897246 164.11672831894782C208.37046170708317 171.6574873270311 211.7024249897246 180.42581175503494 219.17303740238387 183.75777503767642L453.8133990957665 289.74928072338673C461.17879161528975 293.04617070831625 469.9471160432936 289.64406083025074 473.1037128373749 282.1033018221674C476.54089601315246 274.56254281408417 473.1037128373749 265.7591450883683 465.7383203178517 262.39210850801476z" />
    <glyph glyph-name="never-miss"
      unicode="&#xF11A;"
      horiz-adv-x="512" d=" M103.168 448C48.0512 445.7984 -1.8432 395.8528 0 339.2C0.0512 334.2336 0.128 328.9088 0.768 323.9936C4.6592 304.99839999999995 10.803200000000002 279.09119999999996 28.006400000000003 270.3872C46.2592 311.8592 75.67360000000001 348.8768 112.81920000000001 375.1936C129.3312 395.0848 175.23200000000003 399.4368 183.9872 414.3616C170.57280000000003 429.2352 148.8896 442.88 127.232 446.3872C119.2448 448.1792 111.104 448.3328 103.16799999999999 448.0256zM396.8 448C392.83200000000005 447.6672 388.7872 447.232 384.76800000000003 446.3872C364.8512 441.2672 333.05600000000004 430.592 327.98720000000003 410.3936C398.0544 390.784 454.06719999999996 336.1536 484.7872 271.2064C500.24959999999993 280.832 507.62239999999997 305.33119999999997 511.1552 324.0192C511.8464 328.9344 511.9232 334.2592 511.9744 339.2256C513.9456 399.8976 456.42240000000004 453.0944 396.7744 448.0256zM251.1872 428.8C243.8912 428.1856 237.10719999999998 425.5488 231.2192 419.9936C216.11520000000002 402.84159999999997 217.39520000000005 381.0304 188.8 381.5936C93.4656 350.3616 27.26400000000001 248.9856 39.98720000000001 148.78720000000004C45.51680000000001 96.81920000000002 70.1952 47.769600000000025 107.18720000000002 11.187200000000018C93.72160000000002 -2.94399999999996 79.07840000000002 -15.692800000000034 66.38080000000001 -30.412800000000004C65.86880000000001 -43.468800000000044 81.0496 -50.0736 87.9872 -60.006399999999985C100.1472 -72.03839999999991 110.5664 -52.83839999999992 119.2192 -45.59359999999998L147.20000000000002 -18.432000000000016C212.8384 -57.98400000000004 298.95680000000004 -57.52320000000003 364.8 -18.432000000000016C380.3136 -33.177599999999984 394.8288 -50.432000000000016 411.2128 -64C425.8816 -65.33119999999997 432.66560000000004 -47.87200000000007 443.2128 -40.01279999999997C450.30400000000003 -26.64960000000002 430.66880000000003 -19.276800000000037 424.01279999999997 -9.625599999999963L403.2 10.342400000000055C479.6672 78.23360000000008 496.30719999999997 200.96000000000006 441.6 287.1808000000001C409.90720000000005 339.5840000000001 355.58400000000006 378.18880000000007 295.16800000000006 388.8128000000001C297.1136000000001 412.8768000000001 273.10080000000005 430.6432000000001 251.18720000000005 428.8256000000001zM247.98720000000003 343.2192000000001C318.59200000000004 346.7008000000001 390.06720000000007 301.7472000000001 414.38720000000006 234.41920000000007C444.2112 159.6672000000001 414.89920000000006 65.86880000000008 344.75520000000006 24.806399999999996C318.54080000000005 8.67840000000001 287.5904 0.07679999999999154 256.76800000000003 -0.025599999999940337C171.77600000000004 -1.894399999999962 94.59200000000004 69.22240000000005 87.96160000000003 153.57440000000003C77.72160000000002 236.39040000000003 136.60160000000002 320.8960000000001 218.36800000000005 338.4064000000001C228.30080000000004 340.9664 237.87520000000006 342.70720000000006 247.96160000000006 343.21920000000006zM239.1808 307.96799999999996C226.2016 305.024 234.31680000000003 286.72 232.01280000000003 276.7872V161.5872H232.7808V157.59359999999998L307.20000000000005 83.96799999999996C317.952 81.40799999999996 327.6032 97.94559999999996 333.568 106.39359999999994C324.096 121.44639999999993 308.7872 132.07039999999995 296.7552 145.56159999999994C288.2304 153.83039999999994 279.60319999999996 162.81599999999992 271.1552 171.16159999999996C271.0528 177.74079999999992 270.20799999999997 184.31999999999994 271.1552 190.36159999999995V301.6192H271.92319999999995C266.75199999999995 313.19039999999995 249.6512 305.7152 239.15519999999998 308.01919999999996z" />
    <glyph glyph-name="on-demand"
      unicode="&#xF11B;"
      horiz-adv-x="514.3144148669011" d=" M139.18633852335512 54.87091913611249C131.7930688096434 60.27122049221492 125.2355600200904 66.76443997990953 119.67453540934204 74.35057759919636L113.66348568558514 82.29030637870414L3.857358111501758 -27.547965846308443L37.705675539929686 -61.524861878453066L43.42742340532396 -55.03164239075846L147.31893520843798 48.79558011049721L139.2184831742843 54.83877448518331zM512.5143144148669 210.48317428427924L511.7749874434957 222.69814163736814L503.7388247112004 222.7624309392265H382.5213460572577L502.42089402310404 272.42591662481163L484.0020090406831 316.6891009542943L476.22300351582123 312.8960321446509L365.64540431943755 267.05775991963833L456.45404319437466 357.7378201908589L422.3807132094425 391.6825715720743L416.6911099949774 385.2536413862381L331.4113510798594 299.8131592164741L380.81767955801104 419.2948267202411L336.5544952285284 437.71371170266195L333.7257659467605 429.6132596685083L287.7589151180312 318.58563535911605V446.6177800100452L276.4439979909593 447.3571069814164L264.1325966850829 448L251.78905072827726 447.3571069814164L240.40984429934707 446.6177800100452V318.29633350075335L190.93922651933704 437.4886991461577L146.7724761426419 419.0698141637368L150.5655449522853 411.3550979407333L196.59668508287294 300.13460572576594L105.43445504771472 391.32898041185337L71.48970366649925 357.3520843797087L77.91863385233553 351.6624811652436L163.2948267202411 266.31843294826723L43.90959316926168 315.8211953792064L25.394274234053242 271.52586639879456L33.62330487192366 268.79357106981416L144.58663987945758 222.82672024108487H16.393771973882473L15.6544450025113 210.0652938221999L15.236564540431944 199.13611250627824L15.6544450025113 188.14264188849825L16.425916624811652 175.44550477147163H144.23304871923656L25.619286790557513 126.36062280261177L44.00602712204923 82.00100452034155L51.720743345052746 85.8583626318433L187.37117026619788 141.95077850326464L182.22802611752888 150.53340030135604C177.5670517327976 158.3445504771471 174.0632847815168 166.9914615770969 171.6845806127574 176.18483174284273L170.17378201908588 182.19588146659964L168.82370668006027 199.13611250627818L170.20592667001506 216.23706680060263L171.71672526368658 222.24811652435957C174.06328478151684 231.24861878453035 177.59919638372676 239.9276745354093 182.38874937217477 247.80311401305872L184.89603214465092 252.110497237569L187.78905072827723 255.9678553490708C193.25364138623806 263.3611250627825 199.84329482672024 269.95077850326464 207.3008538422903 275.4475138121546L211.64038171772978 278.7262682069312L215.27272727272728 280.81567051732793C223.37317930688096 285.6373681567052 231.9236564540432 289.1732797589151 240.8598694123556 291.4234053239578L247.19236564540435 293.03063787041685L264.22903063787044 294.4128578603717L281.04068307383227 293.03063787041685L287.30889000502265 291.4234053239578C296.3736815670518 289.1732797589151 304.98844801607237 285.6373681567052 312.8638874937218 280.91210447011554L316.7212456052235 278.5334003013561L321.0286288297338 275.318935208438C328.42189854344554 269.85434455047715 335.10798593671524 263.2325464590658 340.50828729281767 255.87142139628327L343.401305876444 252.1747865394274L345.6514314414867 248.12456052235055C350.47312908086394 240.15268709191358 354.13761928679054 231.5057759919638 356.38774485183325 222.6017076845806L358.1557006529382 215.97990959316922L359.50577599196384 199.03967855349066L358.1235560020091 182.09944751381215L356.4520341536916 175.67051732797592C354.20190858864896 166.73430436966345 350.47312908086394 158.0873932697137 345.74786539427424 150.11551983927677L343.047714716223 145.61526870919135L340.47614264188854 142.14364640883974C335.0115519839277 134.750376695128 328.35760924158717 128.12857860371668 320.9643395278755 122.59969864389751L317.331993972878 119.83525866398787L312.896032144651 117.19939728779502C304.92415871421406 112.5062782521345 296.2772476142643 108.9382219989954 287.40532395781025 106.6880964339527L281.07282772476157 105.08086388749359L264.132596685083 103.60220994475128L247.09593169261692 105.01657458563528L240.79558011049738 106.62380713209438C231.73078854846824 108.87393269713709 223.11602209944766 112.60271220492211 215.17629331993987 117.2315419387242L206.59367152184845 122.37468608739323L147.126067302863 -21.215469613259756L191.4856855851332 -39.537920642893084L194.18583626318443 -31.501757910597746L240.377699648418 80.04018081366144V-48.53842290306386L252.20693119035673 -49.30989452536414L264.1004520341538 -49.88849824208944L275.99397287795085 -49.30989452536414L287.7589151180312 -48.57056755399299V79.94374686087394L337.1973882471121 -39.312908086388745L381.55700652938225 -20.861878453038685L377.69964841788055 -13.211451531893545L331.66850828729287 98.00904068307375L422.8307383224511 6.718232044198828L456.8076343545958 40.79156202913106L450.31441486690113 46.449020592666955L365.45253641386245 131.375188347564L484.25916624811657 82.1938724259166L502.71019588146663 126.3927674535409L494.5133098945254 129.18935208437966L382.8427925665495 175.4133601205424H511.67855349070817L512.4178804620793 187.62832747363132L512.9643395278754 199.03967855349072L512.5143144148669 210.51531893520846z" />
    <glyph glyph-name="pending"
      unicode="&#xF11C;"
      horiz-adv-x="512" d=" M363.68 116.16000000000003C366.016 113.79200000000003 366.016 109.98400000000004 363.68 107.64800000000002L342.016 85.88800000000003C339.68 83.64800000000002 335.872 83.64800000000002 333.504 85.88800000000003L236.416 183.10399999999998C236.16 183.42399999999998 236.032 183.74399999999997 235.84 184C235.584 184.38400000000001 235.296 184.64 235.136 185.05599999999998C234.816 185.82399999999996 234.656 186.656 234.656 187.392V359.296C234.656 362.592 237.344 365.312 240.672 365.312H271.392C274.688 365.312 277.376 362.624 277.376 359.296V202.49599999999998L363.712 116.096zM512 192C512 50.624000000000024 397.376 -64 256 -64C114.56 -64 0 50.624000000000024 0 192S114.624 448 256 448S512 333.376 512 192zM464.736 193.216C464.736 308.48 371.296 401.952 256 401.952C140.704 401.952 47.232 308.512 47.232 193.248C47.232 77.952 140.672 -15.488 256 -15.488C371.296 -15.488 464.736 77.952 464.736 193.248z" />
    <glyph glyph-name="phone"
      unicode="&#xF11D;"
      horiz-adv-x="396.1315280464217" d=" M7.353191489361702 -12.131528046421693C-0.9655705996131537 -0.39613152804645324 2.3272727272727267 39.66266924564786 19.039071566731142 53.032108317214636C35.701353965183756 66.35203094777557 80.78607350096712 96.40851063829786 100.86499032882011 103.09323017408121C120.91914893617023 109.77794970986457 145.9249516441006 101.4096711798839 162.636750483559 91.40735009671175C179.3485493230174 81.33075435203091 196.06034816247586 96.35899419729202 196.06034816247586 96.35899419729202S244.48742746615088 156.47195357833647 264.5168278529981 186.5531914893616C284.5709864603482 216.68394584139259 272.8603481624759 245.05686653771753 272.8603481624759 245.05686653771753S251.14738878143135 268.45338491295934 241.12030947775634 281.82282398452605S231.1179883945842 316.90522243713724 231.1179883945842 316.90522243713724S239.43675048355905 392.04642166344286 241.09555125725345 398.68162475822044C242.72959381044495 405.3663442940038 254.41547388781436 442.1323017408123 292.84023210831725 442.1323017408123C331.28974854932306 442.1323017408123 376.34970986460354 378.6522243713732 376.34970986460354 378.6522243713732S438.220502901354 275.18762088974853 312.94390715667316 98.1663442940038C187.6673114119923 -78.92920696324961 104.13307543520314 -60.53384912959382 104.13307543520314 -60.53384912959382C45.75319148936173 -60.53384912959382 15.671953578336591 -23.842166344294014 7.32843326885883 -12.131528046421693z" />
    <glyph glyph-name="plus-circle"
      unicode="&#xF11E;"
      horiz-adv-x="512" d=" M362.80320000000006 216.0128H278.83520000000004V299.9808C278.83520000000004 306.6368 273.4080000000001 312.01279999999997 266.8032 312.01279999999997H242.7904C236.1856 312.01279999999997 230.7584 306.6368 230.7584 299.9808V216.0128H146.7904C140.1856 216.0128 134.75840000000002 210.6368 134.75840000000002 203.9808V179.99360000000001C134.75840000000002 173.4144 140.1856 168.01280000000003 146.7904 168.01280000000003H230.7584V84.04480000000001C230.7584 77.3888 236.1856 72.01279999999997 242.7904 72.01279999999997H266.8032C273.408 72.01279999999997 278.83520000000004 77.3888 278.83520000000004 84.04480000000001V168.01280000000003H362.80320000000006C369.408 168.01280000000003 374.83520000000004 173.3888 374.83520000000004 180.0448V204.032C374.83520000000004 210.6112 369.4080000000001 216.0128 362.80320000000006 216.0128zM256 448C114.61120000000001 448 0 333.3888 0 192C0 50.636799999999994 114.61120000000001 -64 256 -64C397.3632 -64 512 50.636799999999994 512 192C512 333.3888 397.3632 448 256 448zM256 -15.513600000000054C140.74880000000002 -15.513600000000054 47.23200000000002 77.92639999999994 47.23200000000002 193.22879999999995C47.23200000000002 308.50559999999996 140.72320000000002 401.97119999999995 256 401.97119999999995C371.2512 401.97119999999995 464.7168 308.5311999999999 464.7168 193.22879999999995S371.2768 -15.513600000000054 255.99999999999997 -15.513600000000054z" />
    <glyph glyph-name="remote-download"
      unicode="&#xF11F;"
      horiz-adv-x="512" d=" M323.17440000000005 193.28H384.8704L255.84640000000002 69.88799999999998L126.8224 193.28H188.5696L188.6464 316.7488H323.1488V193.28zM511.6672 192.7168C511.6672 51.40480000000002 397.1072 -63.12960000000004 255.82079999999996 -63.12960000000004S0 51.45599999999996 0 192.7168S114.56 448.5632 255.84640000000002 448.5632S511.69280000000003 334.0288 511.69280000000003 192.7168zM463.82079999999996 192.7168C463.82079999999996 307.5584 370.6368 400.6656 255.84639999999996 400.6656C141.00479999999996 400.6656 47.89759999999997 307.58399999999995 47.89759999999997 192.74239999999998C47.89759999999997 77.952 141.03039999999996 -15.20640000000003 255.87199999999999 -15.20640000000003C370.68800000000005 -15.20640000000003 463.82079999999996 77.97759999999994 463.82079999999996 192.74239999999995z" />
    <glyph glyph-name="remote-record"
      unicode="&#xF120;"
      horiz-adv-x="512" d=" M330.3424 195.78879999999998C338.9696 206.61759999999998 343.3472 220.51839999999996 343.3472 237.59359999999995C343.3472 248.98559999999998 341.2992 258.99519999999995 337.1008 267.62239999999997S327.03999999999996 283.4176 319.5392 289.1264C311.98720000000003 294.75839999999994 302.8992 299.1103999999999 292.35200000000003 302.0544C281.7024 304.99839999999995 269.824 306.50879999999995 256.71680000000003 306.50879999999995H206.18240000000003C200.03840000000002 306.50879999999995 195.072 305.84319999999997 191.28320000000002 304.5376C187.44320000000002 303.25759999999997 184.47360000000003 301.4144 182.37440000000004 299.16159999999996C180.32640000000004 296.85759999999993 178.89280000000002 294.04159999999996 178.15040000000002 290.7647999999999C177.38240000000002 287.48799999999994 176.94720000000004 283.98079999999993 176.94720000000004 280.26879999999994V94.28479999999996C180.01920000000004 93.64479999999998 183.78240000000005 93.08159999999998 188.26240000000004 92.69759999999997C192.76800000000003 92.23679999999996 197.27360000000004 92.05759999999998 201.88160000000005 92.05759999999998C212.81280000000004 92.05759999999998 220.26240000000004 94.25919999999996 224.20480000000003 98.76479999999998C228.04480000000004 103.29599999999999 230.04160000000002 108.69759999999997 230.04160000000002 115.04639999999995V168.44799999999998H238.1056L280.2176 108.10879999999997C284.5696 101.75999999999999 289.1776 97.30559999999991 293.9904 94.84799999999996C298.8544 92.28799999999995 304.9216 91.05919999999992 312.42240000000004 91.05919999999992C319.7952 91.05919999999992 326.65600000000006 91.82719999999995 332.95360000000005 93.36319999999995C339.20000000000005 94.89919999999995 344.72960000000006 96.87039999999996 349.49120000000005 99.25119999999993L292.73600000000005 174.00319999999994C309.12000000000006 177.68959999999998 321.66400000000004 184.93439999999993 330.29120000000006 195.76319999999996zM282.54720000000003 215.91039999999998C277.27360000000004 210.45759999999999 268.10880000000003 207.71839999999997 254.97600000000003 207.71839999999997H230.01600000000005V263.168H257.58720000000005C268.288 263.168 276.4544 260.7104 282.03520000000003 255.7952C287.66720000000004 250.88 290.432 244.27519999999998 290.432 235.9552C290.432 228.096 287.744 221.4144 282.49600000000004 215.936zM256 448C114.68800000000002 448 0 333.3888 0 192C0 50.68799999999999 114.6368 -64 256 -64C397.3888 -64 512 50.68799999999999 512 192C512 333.3888 397.3888 448 256 448zM256 -15.488000000000056C140.74880000000002 -15.488000000000056 47.283199999999994 77.90079999999995 47.283199999999994 193.25439999999998C47.2832 308.48 140.7232 401.92 256 401.92S464.74240000000003 308.48 464.74240000000003 193.20319999999995C464.74240000000003 77.82399999999996 371.30240000000003 -15.564800000000048 256.0256 -15.564800000000048z" />
    <glyph glyph-name="search"
      unicode="&#xF121;"
      horiz-adv-x="512" d=" M509.7472 -10.64960000000002L350.77119999999996 147.96799999999996C371.712 178.73919999999998 384 215.91039999999998 384 256C384 362.0864 298.0864 448 192 448C191.30880000000002 448 190.66880000000003 447.8976 190.0032 447.8976C141.1072 448.5632 92.0576 430.3872 54.78399999999999 393.1136C17.305600000000002 355.6352 -0.8448000000000001 306.176 0.0512 257.0752V256C0 149.93919999999997 85.93920000000001 64 192 64C231.808 64 268.8 76.13439999999997 299.46880000000004 96.87040000000002L458.52160000000003 -61.72160000000008C461.5168000000001 -64.79360000000008 466.4576 -64.79360000000008 469.4528 -61.77280000000002L509.696 -21.58080000000001C512.6912000000001 -18.5856 512.6912000000001 -13.644800000000032 509.696 -10.675200000000075zM285.49120000000005 162.58559999999994C238.54080000000005 115.60959999999994 166.29760000000005 109.54239999999999 112.61440000000003 143.97439999999995C76.8768 170.9568 51.2 213.32479999999998 51.2 256C51.2 326.7072 121.34400000000001 396.8 192 396.8C234.9312 396.8 277.504 370.944 304.4608 334.848C338.56000000000006 281.1648 332.36480000000006 209.408 285.51680000000005 162.6112z" />
    <glyph glyph-name="share"
      unicode="&#xF122;"
      horiz-adv-x="512" d=" M425.6 108.79999999999995C399.8976 108.79999999999995 377.216 96.87040000000002 361.93280000000004 78.54079999999999L180.8384 163.584C181.73440000000002 168.6528 182.42560000000003 173.824 182.42560000000003 179.1488C182.42560000000003 188.9536 180.45440000000002 198.2208 177.5616 207.05280000000002L369.6128 297.216C384.40959999999995 283.648 403.9936 275.20000000000005 425.62559999999996 275.20000000000005C471.5776 275.20000000000005 508.82559999999995 312.42240000000004 508.82559999999995 358.40000000000003S471.5520000000001 441.6 425.6256000000001 441.6C379.6992 441.6 342.42560000000003 404.3264 342.42560000000003 358.4C342.42560000000003 354.6624 343.04 351.1552 343.5008 347.5968L142.9504 253.44C128.6144 263.1168 111.38559999999998 268.79999999999995 92.7744 268.79999999999995C43.28959999999999 268.79999999999995 3.1743999999999915 228.6848 3.1743999999999915 179.2C3.1743999999999915 129.68959999999998 43.28959999999999 89.59999999999997 92.7744 89.59999999999997C116.37759999999999 89.59999999999997 137.6512 98.86719999999997 153.65120000000002 113.74079999999998L342.4512 25.06239999999997C342.7584 -20.659200000000055 379.8272 -57.62560000000008 425.6 -57.62560000000008C471.5520000000001 -57.62560000000008 508.8 -20.37760000000003 508.8 25.57439999999997C508.8 71.50079999999997 471.5520000000001 108.77439999999996 425.6 108.77439999999996z" />
    <glyph glyph-name="sky-go"
      unicode="&#xF123;"
      horiz-adv-x="512" d=" M465.92 448H46.080000000000005C20.480000000000004 448 0 427.52 0 401.92V-20.480000000000018C0 -46.08000000000004 20.480000000000004 -66.56000000000006 46.080000000000005 -66.56000000000006H468.48C494.08000000000004 -66.56000000000006 514.5600000000001 -46.08000000000004 514.5600000000001 -20.480000000000018V401.92C512 427.52 491.52 448 465.92 448zM322.56 87.03999999999996S294.40000000000003 112.63999999999999 253.43999999999997 112.63999999999999C217.59999999999997 112.63999999999999 189.43999999999997 87.03999999999996 189.43999999999997 87.03999999999996L163.83999999999997 117.75999999999999S197.11999999999998 153.59999999999997 255.99999999999997 153.59999999999997C320 153.59999999999997 348.15999999999997 117.75999999999999 348.15999999999997 117.75999999999999L322.55999999999995 87.03999999999996zM378.87999999999994 151.04000000000002S335.35999999999996 199.68 253.43999999999994 199.68C181.75999999999993 199.68 130.55999999999992 151.04000000000002 130.55999999999992 151.04000000000002L104.95999999999992 184.32S153.60000000000002 240.64 253.44000000000003 240.64C363.52 240.64 407.04 184.32 407.04 184.32L378.88000000000005 151.03999999999996zM435.20000000000005 217.6S360.96000000000004 284.15999999999997 253.44000000000003 284.15999999999997C148.48 284.15999999999997 71.67999999999999 217.6 71.67999999999999 217.6L46.08 245.76S120.32 322.56 253.43999999999997 322.56C381.44 322.56 458.24 245.76 458.24 245.76L435.20000000000005 217.6z" />
    <glyph glyph-name="sky-plus"
      unicode="&#xF124;"
      horiz-adv-x="512.128032008002" d=" M195.5688922230558 252.11102775693922C163.72093023255815 252.11102775693922 137.89047261815455 226.4086021505376 137.89047261815455 194.56064016003998C137.89047261815455 162.74468617154287 163.72093023255815 136.94623655913978 195.56889222305577 136.94623655913978C227.4488622155539 136.94623655913978 253.24731182795696 162.77669417354338 253.24731182795696 194.56064016003998C253.24731182795696 226.4086021505376 227.41685421355336 252.1750437609402 195.56889222305577 252.1750437609402zM292.71317829457365 246.1575393848462V143.73193298324577C292.71317829457365 139.1867966991748 295.65791447861966 137.74643660915228 299.11477869467365 140.37109277319325L366.90772693173295 190.07951987997C370.492623155789 192.70417604401098 370.492623155789 197.0252563140785 366.90772693173295 199.68192048012L299.1467866966742 249.35833958489619C295.5618904726182 252.01500375093772 292.7451862965742 250.5426356589147 292.7451862965742 246.09352338084517zM105.62640660165042 313.63040760190046L56.52613153288323 352.45611402850716C24.134033508377097 311.6459114778695 5.313328332083022 262.57764441110277 1.984496124031008 210.56464116029005L64.52813203300826 206.72368092023004C67.02475618904727 245.7734433608402 81.17229307326832 282.8067016754188 105.62640660165042 313.63040760190046zM240.15603900975245 385.58439609902473L235.03475868967243 448C178.9247311827957 443.2948237059265 127.167791947987 420.9212303075769 85.36534133533384 383.0237559389848L127.39184796199049 336.6121530382596C158.85571392848212 365.09927481870466 197.93748437109275 381.99949987496876 240.15603900975245 385.52038009502377zM64.75218804701174 178.42860715178796L2.336584146036501 173.37134283570896C6.881720430107518 118.95773943485875 28.263065766441606 68.38509627406859 64.20805201300325 27.190797699424877L111.38784696174044 68.38509627406853C84.34108527131782 99.43285821455368 68.17704426106526 137.58639659914974 64.78419604901225 178.49262315578892zM446.31957989497374 206.65966491622905L508.8312078019505 210.56464116029005C505.5023755938985 262.57764441110277 486.7456864216054 311.6459114778695 454.25756439109773 352.4561140285071L405.2853213303326 313.63040760190046C429.7394348587147 282.8067016754188 443.9189797449363 245.7734433608402 446.35158789697425 206.72368092023004zM271.9079769942485 3.472868217054213L277.445361340335 -58.78269567391851C330.7386846711678 -54.10952738184545 380.2870717679419 -33.08027006751689 420.9692423105776 1.7124281070267102L380.06301575393843 49.180295073768434C349.4633658414603 22.933733433358327 312.0460115028757 7.121780445111256 271.939984996249 3.4728682170542697zM90.13453363340827 1.7444361090272764C130.7206801700424 -33.080270067516835 180.39709927481863 -54.077519379844944 233.65841460365084 -58.750687671918L239.09977494373587 3.4728682170542697C198.9937484371092 7.089772443110803 161.64041010252555 22.901725431357875 131.00875218804694 49.18029507376849L90.13453363340827 1.7444361090273333zM425.57839459864965 383.08777194298574C383.71192798199553 420.9852463115779 331.9229807451863 443.326831707927 275.9089772443111 448L270.69167291822953 385.58439609902473C312.9422355588897 382.15953988497125 351.9919979994999 365.2273068267067 383.45586396599145 336.70817704426105L425.57839459864965 383.11977994498625zM399.4278569642411 68.41710427606893L446.67166791697923 27.28682170542629C482.6486621655414 68.48112028006989 504.09402350587646 119.05376344086017 508.6391597899475 173.46736684171037L446.2235558889722 178.5886471617904C442.63865966491625 137.61840460115025 426.5066266566642 99.46486621655407 399.3958489622405 68.41710427606893z" />
    <glyph glyph-name="sky"
      unicode="&#xF125;"
      horiz-adv-x="830.628474432421" d=" M574.9000636537238 -53.71582148666812C581.6716882382063 -57.15595162317004 595.6132682650824 -61.392743475493376 613.1760379093288 -61.863498125751505C643.1594879411557 -62.51531225687819 659.5272650116699 -50.999929273640305 671.6944621260344 -24.13070231275202L832.8736119951907 335.4534266921281C826.2468349954029 339.07461630949854 811.5085932527053 342.9855010962586 799.4500318268618 343.3114081618219C778.7368272155032 343.60110333121156 750.9260909540985 339.4005233750619 733.1822618289837 296.9601810594809L680.9284956503288 173.76731027654006L578.5574651672678 340.486880260273C571.9669000636537 342.5147464460004 555.8526062663555 345.4116981398967 543.9751043213805 345.4116981398967C507.9080557323714 345.4116981398967 487.70181766744463 332.0857203479737 466.69891788669634 309.3446495508876L367.188627201358 200.56411344508095L447.21691774524373 74.54671476059121C461.9913713841149 51.62458448263658 481.50958342174135 39.85571822618283 513.1225687813849 39.85571822618283C533.908197185091 39.85571822618283 551.145059763774 44.56326472876441 559.1116769219889 48.40172572317698L462.6793974114152 193.79248886059835L531.0112454911946 266.2162812080062L643.123276044982 90.22646580380501L574.9000636537238 -53.78824527901554zM363.4225899992928 82.22363674941647C363.4225899992928 55.78895254261255 352.9211401089187 40.471320461135804 301.2829761652169 40.471320461135804C294.4027158922131 40.471320461135804 288.46396491972564 41.014498903741355 282.670061531933 41.811160619562884V393.4286724662282C282.67006153193296 420.116839946248 291.72303557535895 448 344.0130136501874 448C350.60357875380157 448 357.2665676497631 447.2757620765259 363.42258999929277 446.0083457104463V82.25984864559018zM256.5974962868661 135.34648843624018C256.5974962868661 85.8810382629606 224.29648489992218 49.813989673951426 158.75295282551807 42.64403423155807C111.20673314944479 37.57436876723949 42.36791852323359 43.621755428248036 9.704788174552649 47.35158073413959C8.473583704646714 52.674729471674084 7.532074404130412 59.30150647146189 7.532074404130412 64.51601952047525C7.532074404130412 107.75302355187773 30.888747436169453 117.63887120729896 52.79694462126034 117.63887120729896C75.50180352217272 117.63887120729896 111.3153688379659 113.65556262819155 138.00353631798572 113.65556262819155C167.33517221868593 113.65556262819155 176.2795105735908 123.61383407596014 176.2795105735908 133.1013508734706C176.2795105735908 145.52203126105104 164.4020086286159 150.62790862154333 141.66093783152982 155.0095480585615L79.52132399745388 166.9594737958838C27.665888676709812 176.88153334747858 0 212.80373435179288 0 250.75380154183463C0 296.9963929556545 32.735554141028366 335.6706980691704 97.04788174552657 342.80444161539003C145.71667020298466 348.0913784567508 204.9593323431643 342.080203691916 237.36897941862932 338.09689511280857C238.56397199236156 332.55647499823186 239.1795742273145 327.23332626069737 239.1795742273145 321.51184666525216C239.1795742273145 278.4196902185445 216.47471532640216 269.1132329019025 194.63894193365869 269.1132329019025C177.72798642053897 269.1132329019025 151.6554211754721 272.26366786901474 121.85303062451376 272.26366786901474C91.43503783860247 272.26366786901474 78.86950986632718 263.8625079567155 78.86950986632718 253.65075323573095C78.86950986632718 242.85960817596717 90.89185939599689 238.4417568427753 109.90310488719146 235.07405049862084L169.39925030058703 224.02942216564114C230.4887191456256 212.80373435179294 256.6699200792135 178.0403140250371 256.6699200792135 135.31027654006647" />
    <glyph glyph-name="speech-bubble"
      unicode="&#xF126;"
      horiz-adv-x="512" d=" M256 409.3952C114.5344 409.3952 0 318.4384 0 206.1824C0 145.9712 32.9728 91.95519999999999 85.32480000000001 54.7328V-25.395200000000045L137.0368 26.316799999999944C172.5696 11.468799999999987 213.01760000000002 3.0207999999999515 255.97439999999997 3.0207999999999515C397.3888 3.0207999999999515 511.9744 93.90079999999995 511.9744 206.18239999999994C511.9744 318.43839999999994 397.4144 409.39519999999993 255.97439999999997 409.39519999999993z" />
    <glyph glyph-name="tick"
      unicode="&#xF127;"
      horiz-adv-x="425.91244670895287" d=" M416.32941665800143 359.8893625870854L383.96007070812107 384.1131329936571C379.22179473848394 387.62691067900596 372.64677134241447 386.5887490901529 369.10637412914633 381.7972340646771L137.0905687844442 61.21825933243218L50.57710304668815 156.86222314651144C46.66403244254965 161.25444525319745 39.876052823125704 161.5738795882292 35.61692835603618 157.55433087241346L6.069252365602572 129.8700218363315C1.756888842674424 125.87709264843505 1.490693563481329 118.95601538941457 5.457003223458452 114.61703233856713L135.1473432463346 -28.862223146511383C137.22366642404077 -31.124883019652714 139.67266299261723 -31.97670791307064 142.01518144951646 -31.630654050119574C144.41093896225433 -31.737132161796865 146.80669647499218 -30.565872933347237 148.56358531766662 -28.11687636477069L418.5920765311427 344.82270978475617C422.052615160653 349.6142248102319 420.9878340438806 356.40220442965585 416.35603618592074 359.9159821150047" />
    <glyph glyph-name="tv"
      unicode="&#xF128;"
      horiz-adv-x="650.4684770525647" d=" M616.3188820073051 442.30840082579005H33.86501508654915C13.822455137367001 442.30840082579005 4.065427981578529 432.2261394314753 4.065427981578529 412.22423376210895V-29.403207876766714C4.065427981578529 -46.59996823884393 16.74956328410354 -59.487374940447864 34.149595045259645 -59.487374940447864H616.3188820073051C636.3614419564873 -59.487374940447864 646.4030490709862 -49.445767825948906 646.4030490709862 -29.403207876766714V412.22423376210895C646.4030490709862 432.2667937112911 636.3614419564873 442.30840082579005 616.3188820073051 442.30840082579005M415.48673971732575 -19.40225504208354C415.48673971732575 -24.971891376846145 411.0147689375894 -29.443862156582497 405.4857868826425 -29.443862156582497H244.90138161029063C239.3723995553438 -29.443862156582497 234.85977449579164 -24.971891376846145 234.85977449579164 -19.40225504208354V-9.36064792758458C234.85977449579164 -3.750357313006191 239.33174527552805 0.7216134667301617 244.86072733047482 0.7216134667301617H405.4451326028267C411.0147689375893 0.7216134667301617 415.4460854375099 -3.750357313006191 415.4460854375099 -9.319993647768797V-19.320946482451973zM586.1127521041766 30.846434810227038H64.23376210894077V382.099412418612H586.2347149436239V30.846434810227038z" />
    <glyph glyph-name="twitter-favourite"
      unicode="&#xF129;"
      horiz-adv-x="512" d=" M256 444.44444444444446L314.4817777777778 242.4888888888889H508.4444444444444L350.66311111111105 133.03466666666668L412.0604444444444 -60.4444444444444L256 60.68622222222223L99.93955555555556 -60.4444444444444L161.3368888888889 133.03466666666668L3.5555555555555554 242.4888888888889H197.51822222222222z" />
    <glyph glyph-name="twitter-follow"
      unicode="&#xF12A;"
      horiz-adv-x="512" d=" M421.11999999999995 322.21866666666665C405.64622222222215 315.392 389.0631111111111 310.69866666666667 371.6693333333333 308.6791111111111C389.41866666666664 319.3031111111111 403.1004444444444 336.19911111111116 409.5004444444444 356.3235555555556C392.88888888888886 346.4675555555556 374.44266666666664 339.29955555555557 354.84444444444443 335.41688888888893C339.1146666666666 352.17066666666665 316.68622222222217 362.624 291.9253333333333 362.624C244.352 362.624 205.78133333333332 324.05333333333334 205.78133333333332 276.4942222222222C205.78133333333332 269.7386666666667 206.52088888888886 263.168 207.98577777777774 256.83911111111115C136.4053333333333 260.4657777777778 72.9031111111111 294.7271111111111 30.421333333333322 346.8657777777778C23.025777777777765 334.15111111111116 18.759111111111103 319.3315555555556 18.759111111111103 303.5448888888889C18.759111111111103 273.6782222222223 33.97688888888888 247.29600000000005 57.08799999999999 231.8648888888889C42.96533333333333 232.29155555555556 29.695999999999987 236.18844444444449 18.062222222222207 242.61688888888892V241.53600000000003C18.062222222222207 199.79377777777782 47.78666666666665 164.97777777777782 87.18222222222221 157.0844444444445C79.95733333333331 155.09333333333336 72.3342222222222 154.06933333333336 64.46933333333332 154.06933333333336C58.92266666666666 154.06933333333336 53.518222222222214 154.60977777777782 48.298666666666655 155.60533333333336C59.249777777777766 121.37244444444451 91.03644444444444 96.4693333333334 128.73955555555554 95.77244444444449C99.29955555555554 72.64711111111114 62.1511111111111 58.894222222222254 21.788444444444444 58.894222222222254C14.819555555555555 58.894222222222254 7.992888888888889 59.32088888888893 1.2373333333333327 60.13155555555562C39.35288888888889 35.669333333333384 84.62222222222222 21.39022222222229 133.30488888888888 21.39022222222229C291.7404444444444 21.39022222222229 378.3537777777778 152.6613333333334 378.3537777777778 266.5244444444445C378.3537777777778 270.2222222222223 378.2968888888889 273.9200000000001 378.1262222222222 277.6177777777778C394.9937777777778 289.7777777777778 409.55733333333336 304.96711111111114 421.12 322.2186666666667zM510.7626666666666 111.01866666666672H455.92177777777766V165.85955555555557H421.11999999999995V111.01866666666666H366.27911111111104V76.21688888888889H421.11999999999995V21.361777777777775H455.9217777777778V76.23111111111115H510.7626666666667z" />
    <glyph glyph-name="twitter-reply"
      unicode="&#xF12B;"
      horiz-adv-x="512" d=" M207.35999999999999 382.52088888888886V265.28711111111113C410.88 264.06399999999996 509.824 84.83555555555552 509.824 84.83555555555552S433.59288888888887 148.55111111111108 207.34577777777778 118.72711111111107V1.4933333333333394L2.1617777777777776 192L207.35999999999999 382.52088888888886z" />
    <glyph glyph-name="twitter-retweet"
      unicode="&#xF12C;"
      horiz-adv-x="512" d=" M104.86044444444444 61.696000000000026C94.44977777777777 61.696000000000026 85.97333333333333 69.16266666666667 85.97333333333333 78.27911111111115V213.33333333333334H3.1288888888888886L115.66933333333334 321.1377777777778L228.26666666666665 213.33333333333334H145.35111111111112V113.83466666666664H234.41066666666666L292.7502222222222 61.69599999999997H104.87466666666666zM508.8711111111111 170.63822222222223H425.99822222222224V305.72088888888885C425.99822222222224 314.8515555555555 417.5217777777778 322.304 407.11111111111114 322.304H219.23555555555558L277.58933333333334 270.1653333333333H366.6488888888889V170.69511111111103L283.73333333333335 170.63822222222217L396.31644444444447 62.8337777777777L508.85688888888893 170.6382222222221z" />
    <glyph glyph-name="twitter"
      unicode="&#xF12D;"
      horiz-adv-x="512" d=" M509.1555555555555 349.0417777777778C490.5244444444443 340.7928888888889 470.49955555555545 335.1751111111111 449.52177777777774 332.6862222222222C470.9546666666666 345.5288888888889 487.424 365.8808888888889 495.1751111111111 390.1724444444444C475.1217777777778 378.2684444444444 452.89244444444444 369.6213333333333 429.2408888888889 364.97066666666666C410.28266666666667 385.1662222222222 383.26044444444443 397.7528888888889 353.39377777777776 397.7528888888889C296.0355555555555 397.7528888888889 249.52888888888884 351.24622222222223 249.52888888888884 293.90222222222224C249.52888888888884 285.7528888888889 250.43911111111106 277.8311111111111 252.2311111111111 270.19377777777777C165.87377777777778 274.56 89.31555555555555 315.8755555555556 38.05866666666667 378.73777777777775C29.141333333333336 363.42044444444446 23.97866666666667 345.5573333333333 23.97866666666667 326.5137777777778C23.97866666666667 290.48888888888894 42.32533333333333 258.6737777777778 70.20088888888888 240.0426666666667C53.17688888888888 240.61155555555555 37.17688888888888 245.30488888888888 23.15377777777778 253.04177777777778C23.125333333333334 252.61511111111113 23.125333333333334 252.16000000000003 23.125333333333334 251.73333333333332C23.125333333333334 201.38666666666668 58.96533333333333 159.43111111111114 106.46755555555556 149.90222222222224C97.74933333333334 147.48444444444442 88.54755555555556 146.2471111111111 79.08977777777778 146.2471111111111C72.40533333333335 146.2471111111111 65.86311111111112 146.91555555555556 59.5768888888889 148.09599999999995C72.80355555555556 106.85155555555554 111.13244444444445 76.81422222222221 156.6008888888889 75.98933333333332C121.07377777777779 48.085333333333324 76.24533333333333 31.47377777777774 27.60533333333334 31.47377777777774C19.214222222222233 31.47377777777774 10.965333333333344 32 2.8160000000000087 32.96711111111108C48.78222222222223 3.4844444444444207 103.36711111111111 -13.738666666666631 162.048 -13.738666666666631C353.1093333333333 -13.738666666666631 457.58577777777776 144.55466666666672 457.58577777777776 281.856C457.58577777777776 286.32177777777775 457.48622222222224 290.81600000000003 457.3013333333333 295.28177777777773C477.63911111111105 309.93066666666664 495.20355555555545 328.2346666666666 509.1413333333333 349.0417777777777z" />
    <glyph glyph-name="user-profile"
      unicode="&#xF12E;"
      horiz-adv-x="376" d=" M283.737 290.043C283.737 238.08100000000002 241.604 195.993 189.644 195.993S95.572 238.103 95.572 290.043S137.68200000000002 384.136 189.644 384.136S283.737 342.00300000000004 283.737 290.043M378.76700000000005 -12.726999999999975C377.96 91.065 293.63 174.95999999999998 189.62 174.95999999999998C85.655 174.95999999999998 1.304 91.04399999999998 0.5 -12.728000000000009H0.454V-22.057999999999993C0.454 -26.37299999999999 4.007 -29.968000000000018 8.344 -29.968000000000018H371.137C375.453 -29.968000000000018 379.027 -26.372000000000014 379.027 -22.057999999999993V-12.728000000000009H378.767z" />
    <glyph glyph-name="video-play"
      unicode="&#xF12F;"
      horiz-adv-x="512" d=" M272.6144 -1.062400000000025L278.1696 -64C331.9552 -59.26400000000007 382.1056 -38.118400000000065 423.1168 -2.841600000000028L381.79839999999996 45.08159999999998C350.8864 18.52159999999992 313.12639999999993 2.5471999999999753 272.61439999999993 -1.062400000000025M401.4208 64.55040000000002L449.12639999999993 22.95040000000006C485.5039999999999 64.62720000000007 507.1359999999999 115.64800000000008 511.62879999999996 170.62400000000008L448.5888 175.76960000000008C445.1328 134.42560000000003 428.8768 95.89760000000001 401.4336 64.53760000000011M448.85760000000005 204.2496000000001L512 208.1664C508.736 260.69759999999997 489.6 310.2848 456.85760000000005 351.4624L407.3216 312.256C432.02560000000005 281.1264 446.3616 243.776 448.832 204.2496M427.84 382.42560000000003C385.6 420.6976 333.312 443.3152 276.6336 448L271.424 384.9344C314.1376 381.42719999999997 353.536 364.3904 385.3696 335.5776L427.84 382.42560000000003zM88.89599999999996 -2.8543999999999983C129.92000000000002 -38.10559999999998 180.096 -59.23840000000001 233.89440000000002 -64L239.3984 -1.062400000000025C198.8736 2.5471999999999753 161.11360000000002 18.521600000000035 130.2144 45.08159999999998L88.92160000000001 -2.841600000000028zM63.449600000000004 175.78239999999994L0.384 170.62399999999997C4.9408 115.64799999999991 26.521599999999996 64.63999999999993 62.848000000000006 22.950399999999945L110.528 64.55039999999997C83.17439999999999 95.88479999999998 66.88 134.4384 63.42400000000001 175.78239999999994M104.70400000000001 312.2432L55.0784 351.4624C22.3744 310.272 3.3280000000000003 260.7104 0 208.1664L63.1424 204.2496C65.6512 243.76319999999998 80 281.1264 104.67840000000001 312.256M240.57600000000002 384.9344L235.43040000000002 448C178.7264 443.3152 126.46400000000001 420.6976 84.1728 382.4256L126.63040000000001 335.57759999999996C158.45120000000003 364.3776 197.88800000000003 381.42719999999997 240.57600000000002 384.9344 M204.92800000000003 284.5824C202.21440000000004 286.4512 199.98720000000003 285.2992 199.98720000000003 281.9968V94.00319999999999C199.98720000000003 90.70080000000002 202.18880000000004 89.54880000000003 204.90240000000006 91.44319999999999L339.04640000000006 185.01119999999997C341.76000000000005 186.9056 341.73440000000005 190.0032 339.04640000000006 191.8592L204.92800000000003 284.5824z" />
    <glyph glyph-name="volume"
      unicode="&#xF130;"
      horiz-adv-x="512" d=" M325.0176 94.77119999999996C315.8528 105.52319999999997 317.0816 121.57439999999997 327.78240000000005 130.76479999999998C344.93440000000004 145.5104 355.6096 167.168 355.6096 191.51360000000005C355.6096 216.34560000000005 344.6016 238.28480000000002 326.93760000000003 253.05600000000004C316.1856 262.016 314.6496 278.144 323.6096 288.9728C332.6464 299.8528 348.6976 301.312 359.5264 292.30080000000004C388.30080000000004 268.288 406.70720000000006 231.96160000000003 406.6304 191.51360000000005C406.70720000000006 151.7568 388.9664 115.91680000000002 360.98560000000003 91.98080000000004C356.17280000000005 87.80799999999999 350.3104000000001 85.83680000000004 344.44800000000004 85.83680000000004C337.28000000000003 85.83680000000004 330.112 88.85760000000005 325.0432 94.79680000000002M408.83200000000005 26.26559999999995C398.69440000000003 36.172799999999995 398.59200000000004 52.30079999999998 408.44800000000004 62.36159999999995C440.96000000000004 95.89760000000001 460.97920000000005 141.3632 460.97920000000005 191.84639999999996C460.97920000000005 242.43199999999996 440.8320000000001 288 408.0384000000001 321.536C398.1824000000001 331.62239999999997 398.41280000000006 347.7504 408.4480000000001 357.632C418.50880000000006 367.5648 434.56000000000006 367.36 444.5440000000001 357.3248C486.2208 314.6752 512 256.1536 512 191.84639999999996C512 127.66719999999998 486.40000000000003 69.27359999999999 444.97920000000005 26.726400000000012C439.98720000000003 21.606400000000008 433.3312000000001 19.04639999999995 426.7264 19.04639999999995C420.32640000000004 19.04639999999995 413.7728 21.452800000000025 408.80640000000005 26.26559999999995M252.21120000000002 393.6L112.512 267.008H0V116.99199999999996H112.5376L251.8016 -9.728000000000009C262.0416 -20.73599999999999 262.5536 -10.496000000000038 262.5536 4.505600000000015V379.5456C262.5536 394.59839999999997 262.2464 404.7872 252.21120000000002 393.6256" />
    <glyph glyph-name="warning"
      unicode="&#xF131;"
      horiz-adv-x="512" d=" M256 -58.98039215686282C394.59137254901964 -58.98039215686282 506.9803921568628 53.40862745098036 506.9803921568628 192S394.59137254901964 442.98039215686276 256 442.98039215686276S5.019607843137238 330.59137254901964 5.019607843137238 192S117.40862745098039 -58.98039215686282 256 -58.98039215686282M256 395.444705882353C369.01647058823534 395.444705882353 460.6243137254903 303.8368627450981 460.6243137254903 190.79529411764707S369.0164705882354 -13.854117647058843 256.00000000000006 -13.854117647058843S51.350588235294154 77.75372549019613 51.350588235294154 190.79529411764707C51.350588235294154 303.8117647058824 142.9584313725491 395.444705882353 256.00000000000006 395.444705882353M256.00000000000006 120.11921568627452C265.1105882352942 120.11921568627452 272.86588235294124 116.95686274509808 279.29098039215694 110.65725490196075C285.71607843137264 104.38274509803921 288.92862745098046 96.65254901960782 288.92862745098046 87.56705882352941C288.92862745098046 78.45647058823528 285.71607843137264 70.6760784313725 279.29098039215694 64.22588235294114S265.1105882352942 54.588235294117624 256.00000000000006 54.588235294117624C246.91450980392162 54.588235294117624 239.13411764705887 57.850980392156885 232.70901960784317 64.25098039215686S223.07137254901963 78.45647058823528 223.07137254901963 87.59215686274507S226.28392156862748 104.40784313725487 232.70901960784317 110.68235294117642S246.8894117647059 120.11921568627446 256.00000000000006 120.11921568627446zM260.41725490196086 344.57098039215686C265.51215686274514 344.57098039215686 270.70745098039225 344.19450980392156 276.0784313725491 343.5670588235294S285.4650980392158 342.2619607843137 288.12549019607854 341.73490196078427V165.44627450980386C288.12549019607854 158.51921568627444 285.6156862745099 153.29882352941172 280.6964705882354 149.81019607843132S266.18980392156874 144.53960784313716 251.9843137254903 144.53960784313716C246.91450980392167 144.53960784313716 241.69411764705893 144.9160784313725 236.32313725490204 145.593725490196C230.9772549019609 146.24627450980387 226.96156862745107 146.84862745098036 224.2760784313726 147.4007843137254V323.6894117647058C224.2760784313726 330.64156862745097 226.78588235294123 335.86196078431374 231.70509803921576 339.3505882352941S246.2117647058824 344.62117647058824 260.41725490196086 344.62117647058824z" />
  </font>
</defs>
</svg>
