<?xml version="1.0" standalone="no"?> 
<!DOCTYPE svg PUBLIC "-//W3C//DTD SVG 1.1//EN" "http://www.w3.org/Graphics/SVG/1.1/DTD/svg11.dtd" >
<svg xmlns="http://www.w3.org/2000/svg">
<defs>
  <font id="skycons" horiz-adv-x="376">
    <font-face font-family="skycons"
      units-per-em="512" ascent="448"
      descent="64" />
    <missing-glyph horiz-adv-x="0" />
    <glyph glyph-name="arrow-down-left"
      unicode="&#xF101;"
      horiz-adv-x="318.95081967213116" d=" M198.45875409836069 422.8028852459016C228.69193442622952 421.3424262295082 251.87881967213116 395.1674754098361 269.6897049180328 372.8786885245902C284.56288524590167 354.26203278688524 294.18177049180326 332.3383606557377 297.7993442622951 308.8409180327869C304.8330491803279 263.1889836065574 282.57363934426235 218.22111475409838 258.1948852459017 181.28577049180325C205.34557377049185 101.19134426229505 126.47659016393447 41.87488524590168 55.484852459016444 -21.000393442622908C46.92354098360661 -28.583868852459034 52.35829508196726 -43.578754098360605 62.749377049180374 -34.379540983606546C141.5805901639345 35.43711475409833 227.9029508196722 101.45573770491808 283.0730491803279 192.98203278688527C307.82950819672135 234.0553442622951 323.4622950819672 282.60301639344266 312.752262295082 330.5169836065574C307.27134426229514 355.0258360655738 293.8754098360656 376.48367213114756 277.83554098360656 395.4192786885246C258.4089180327869 418.3627540983607 235.72563934426233 439.9380983606558 204.42649180327868 441.44472131147546C195.23567213114757 441.88957377049184 186.67855737704917 423.3694426229508 198.45875409836069 422.8028852459017zM48.09022950819672 -37.405377049180345C84.12747540983607 27.5095081967213 48.316852459016395 109.70649180327871 23.32537704918033 172.22085245901638C19.489573770491806 181.81875409836067 3.8441967213114734 167.9401967213115 7.327475409836066 159.2278032786885C29.34347540983607 104.15003278688528 65.62832786885247 25.020852459016396 33.65350819672131 -32.574950819672154C26.93455737704918 -44.678295081967235 42.48340983606558 -47.50268852459021 48.09022950819672 -37.405377049180345zM313.78465573770495 -22.112524590163957C319.0137704918033 -20.551344262295117 323.4371147540984 -16.031475409836105 323.928131147541 -10.424655737704995C324.1967213114754 -7.361049180327939 322.9377049180328 -5.069639344262384 320.1888524590164 -3.7644590163935163C311.1868852459017 0.5036065573769974 293.51029508196723 -3.3741639344262353 284.10963934426235 -3.7057049180328363C255.4460327868853 -4.717114754098418 226.79921311475414 -6.328655737704992 198.17337704918035 -8.15842622950828C166.48813114754103 -10.185442622950916 134.81967213114754 -12.632131147541088 103.24354098360658 -15.989508196721431C82.87265573770493 -18.155016393442736 61.297311475409856 -19.76236065573778 41.66085245901641 -25.96931147540994C32.788983606557395 -28.77272131147555 27.820065573770506 -47.88459016393449 40.07868852459018 -44.01101639344273C86.12931147540985 -29.456786885246004 139.9984262295082 -30.279344262295183 187.75711475409838 -27.098229508196823C215.75763934426232 -25.230688524590335 243.7917377049181 -23.71567213114764 271.8300327868853 -22.59095081967223C280.7984262295082 -22.230032786885374 289.7668196721312 -21.936262295082088 298.73940983606565 -21.768393442623108C301.8491803278689 -21.709639344262428 310.75042622950826 -22.05377049180339 310.16708196721316 -21.776786885245997L306.42780327868854 -15.116590163934518L306.41940983606565 -15.213114754098456L313.7091147540984 -4.733901639344367L315.3584262295082 -4.070819672131222C306.41940983606565 -6.739934426229581 301.43790163934426 -25.797245901639428 313.78465573770495 -22.112524590164014z" />
    <glyph glyph-name="arrow-left"
      unicode="&#xF102;"
      horiz-adv-x="623.1079333688294" d=" M610.4121092264395 236.06541416292688H157.84102837149157L323.3540731725869 392.037118734312C328.1052711645242 396.4378185137293 328.1052711645242 403.72039248497754 323.43196166425804 408.16003651023044L286.6685935954971 442.8204153038716C281.9173956035598 447.29900357496007 274.2064349281205 447.29900357496007 269.49418118201874 442.8204153038716L50.82224081539514 236.88324332547347L46.14893131512891 235.013919525367L9.424507492203531 200.3924849775614C6.698410283714903 197.8611089982505 6.036358104510522 194.43401536472197 6.42580056286604 191.08481022286452C5.997413858674969 187.69666083517149 6.659466037879351 184.23062295580735 9.424507492203531 181.6992469764965L46.14893131512891 147.03886818285537L50.82224081539514 145.2084886285844L269.57206967368984 -60.76762759564929C274.24537917395605 -65.16832737506661 281.9563398493953 -65.16832737506661 286.6685935954971 -60.76762759564929L323.3540731725869 -26.146193047843724C328.18315965619536 -21.667604776755297 328.1052711645242 -14.346086559671505 323.3540731725869 -9.945386780254182L157.76313987982047 146.06526203696654H610.4121092264395C617.3441849851678 146.06526203696654 623.1079333688294 152.374229862326 623.1079333688294 160.27991176694297V221.81182018711488C623.1079333688294 229.67855784589636 617.3441849851678 236.06541416292686 610.4121092264395 236.06541416292686z" />
    <glyph glyph-name="arrow-right"
      unicode="&#xF103;"
      horiz-adv-x="512" d=" M9.830400000000001 165.47840000000002H403.25120000000004L231.98720000000003 -5.785599999999988C228.32640000000004 -9.44640000000004 229.14560000000003 -16.15360000000004 233.77920000000006 -20.81279999999998L258.5088 -45.54240000000004C263.16800000000006 -50.201599999999985 269.90080000000006 -50.99520000000007 273.536 -47.33440000000002L507.7504 186.87999999999994C509.44 188.56959999999998 510.08000000000004 190.97599999999994 509.9008 193.48479999999998L509.952 193.84319999999997L509.92639999999994 194.1504C510.1056 196.6592 509.44 199.0656 507.7503999999999 200.75519999999995L273.53599999999994 434.96959999999996C269.8751999999999 438.63039999999995 263.1423999999999 437.81119999999993 258.50879999999995 433.2031999999999L233.77919999999995 408.4479999999999C229.14559999999997 403.7887999999999 228.32639999999998 397.0559999999999 231.98719999999994 393.42079999999993L401.152 224.25599999999994H9.830399999999964C3.2767999999999633 224.25599999999994 -2.0480000000000373 218.93119999999993 -2.0480000000000373 212.35199999999995V177.40799999999996C-2.0480000000000373 170.8031999999999 3.2767999999999624 165.47839999999997 9.830399999999964 165.47839999999997z" />
    <glyph glyph-name="at"
      unicode="&#xF104;"
      horiz-adv-x="478.3649635036496" d=" M358.98300729927007 316.89810218978107L350.4920291970802 320.2167591240876C330.28110948905106 328.1097810218978 302.5359416058394 332.9233284671533 271.4123211678832 331.06966423357665C169.5504817518248 325.149897810219 102.60928467153283 237.96788321167884 107.69191240875911 147.07854014598541C111.2497518248175 88.00046715328466 152.59842335766422 51.58493430656932 199.05962043795617 54.126248175182525C235.41535766423357 56.03970802919713 265.2533722627737 72.93197080291975 287.16846715328467 102.590598540146C290.9953868613139 92.03667153284675 297.0048467153285 83.42610218978103 304.5390948905109 77.02797080291975C317.21576642335765 66.20496350364965 333.2708905109489 61.98937226277377 348.8476496350365 62.94610218978107C421.2900437956204 67.16169343065695 478.30516788321165 138.6174598540146 472.20601459854015 245.2629489051095C468.7378686131387 305.0884671532847 444.5505401459854 356.6621897810219 405.1751240875912 392.1508905109489C365.829605839416 427.6694890510949 311.4155912408759 446.7741897810219 249.1982481751825 443.0967591240876C90.32128467153287 433.49956204379566 -4.484671532846673 298.8996204379562 3.7671240875912773 152.6694306569343C12.018919708029234 14.66113868613138 117.94686131386864 -67.07947445255479 235.95351824817521 -60.382364963503676L236.3720875912409 -60.352467153284636C283.2219562043796 -57.63176642335765 323.37471532846723 -47.31702189781021 361.55421897810226 -24.235912408759134L370.40397080291973 -18.884204379561993L366.1883795620438 -9.436496350364905L348.0105109489051 31.88227737226282L336.46995620437957 24.497518248175197C311.5052846715329 8.502189781021912 277.5114744525548 -1.483678832116766 240.1093138686132 -3.606423357664198C144.73529927007309 -8.569459854014553 72.98055474452562 51.67462773722633 65.95456934306576 160.41296350364968C58.599708029197146 293.9963795620438 141.95480291970807 381.38767883211676 246.89611678832125 387.7858102189781C347.0238832116789 392.8983357664234 403.5606423357665 331.96659854014604 410.0484671532848 237.5194160583942C412.1712116788322 200.02756204379565 404.7266569343066 170.3988321167883 393.27579562043803 150.48689051094897C381.88472992700736 130.42545985401466 367.05541605839426 120.97775182481757 355.1859854014599 120.43959124087593L354.55813138686136 120.409693430657C346.45582481751825 120.88805839416062 342.4794160583942 122.26335766423358 339.7288175182482 146.63007299270078C339.10096350364967 155.95818978102193 339.7288175182482 167.88741605839425 341.82166423357666 182.47754744525554L358.9830072992701 316.89810218978107zM211.9455766423358 115.5363503649636C188.7149781021898 114.908496350365 178.87859854014602 127.22639416058405 176.157897810219 153.86534306569354C172.65985401459858 214.76718248175192 214.36729927007303 267.7162043795621 266.7183649635037 270.9152700729928C274.8804671532847 271.42353284671543 281.8466569343066 270.94516788321175 287.4973430656935 270.28741605839423L279.0362627737227 203.16683211678844C275.1495474452555 164.120291970803 241.42481751824826 115.44665693430665 211.94557664233582 115.5363503649636z" />
    <glyph glyph-name="calender"
      unicode="&#xF105;"
      horiz-adv-x="512" d=" M407.9957333333333 352.54613333333333C407.9957333333333 339.33653333333336 397.1925333333333 328.5333333333333 384 328.5333333333333H367.99146666666667C354.79893333333337 328.5333333333333 343.99573333333336 339.33653333333336 343.99573333333336 352.52906666666667V424.00426666666664C343.99573333333336 437.1968 354.79893333333337 448 367.99146666666667 448H384C397.1925333333333 448 407.9957333333333 437.1968 407.9957333333333 424.00426666666664V352.54613333333333zM168.00426666666667 352C168.00426666666667 338.7904 157.20106666666663 328.0042666666667 144.0085333333333 328.0042666666667H127.99999999999999C114.80746666666666 328.0042666666667 104.00426666666665 338.80746666666664 104.00426666666665 352V424.0042666666667C104.00426666666665 437.1968 114.80746666666666 448 127.99999999999999 448H144.0085333333333C157.20106666666663 448 168.00426666666667 437.1968 168.00426666666667 424.0042666666667V352zM448 407.9957333333333C434.80746666666664 407.9957333333333 424.0042666666667 397.19253333333336 424.0042666666667 384V333.3290666666667C424.0042666666667 320.11946666666665 413.2010666666667 309.33333333333337 400.0085333333334 309.33333333333337H352.01706666666666C338.82453333333336 309.33333333333337 328.02133333333336 320.1365333333333 328.02133333333336 333.3290666666667V384C328.02133333333336 397.2096 317.2181333333334 407.9957333333333 304.02560000000005 407.9957333333333H211.76320000000007C198.51946666666674 407.9957333333333 187.73333333333343 397.2096 187.73333333333343 384V336.00853333333333C187.73333333333343 322.79893333333337 176.9301333333334 312.0128 163.73760000000007 312.0128H111.99146666666674C98.79893333333342 312.0128 87.99573333333342 322.81600000000003 87.99573333333342 336.00853333333333V384C87.99573333333342 397.2096 77.19253333333342 407.99573333333336 64.00000000000009 407.99573333333336H23.995733333333426C10.803200000000093 407.99573333333336 9.473903143468003e-14 397.2096 9.473903143468003e-14 384V-40.004266666666695C9.473903143468003e-14 -53.196799999999996 10.803200000000095 -64 23.995733333333426 -64H488.00426666666675C501.19680000000005 -64 512 -53.196799999999996 512 -40.004266666666695V384C512 397.2096 501.19680000000005 407.9957333333333 488.00426666666675 407.9957333333333H448.00000000000006zM241.42506666666674 29.969066666666663L237.3632000000001 26.333866666666665C231.66293333333343 25.32693333333333 216.2005333333334 24.507733333333363 203.0080000000001 24.507733333333363H122.88000000000008C109.67040000000007 24.507733333333363 98.1845333333334 27.016533333333314 97.34826666666673 30.10559999999998L96.8021333333334 33.60426666666666C96.25600000000007 37.11999999999995 96.00000000000007 40.70399999999995 96.00000000000007 44.30506666666662C96.00000000000007 46.847999999999956 96.25600000000007 49.715199999999925 96.8021333333334 52.923733333333246C97.34826666666673 56.11519999999996 98.2357333333334 59.39199999999994 99.49866666666674 62.8223999999999C100.7957333333334 66.21866666666659 102.62186666666673 69.61493333333323 104.97706666666674 73.04533333333325L107.31520000000006 76.45866666666655C110.9333333333334 79.83786666666657 122.06080000000006 89.68533333333318 132.0277333333334 98.33813333333325L135.5093333333334 101.3589333333332C145.47626666666673 110.01173333333327 159.47093333333342 121.95839999999987 166.60480000000007 127.88053333333318L171.4005333333334 132.16426666666655C176.21333333333342 136.4309333333332 180.13866666666675 140.44159999999988 183.2789333333334 144.1621333333332C186.36800000000005 147.91679999999985 188.5525333333334 151.55199999999985 189.8325333333334 155.08479999999986C191.1125333333334 158.6005333333332 191.76106666666675 162.38933333333324 191.76106666666675 166.45119999999986C191.76106666666675 171.99786666666654 189.8325333333334 177.11786666666654 185.99253333333343 181.82826666666654C182.13546666666673 186.53866666666653 175.73546666666672 188.8767999999999 166.75840000000008 188.8767999999999C161.22880000000006 188.8767999999999 156.2453333333334 188.17706666666652 151.85920000000007 186.7775999999999C147.4901333333334 185.39519999999993 143.47946666666675 183.9274666666666 139.84426666666673 182.3061333333332L129.60426666666675 177.9711999999999C126.39573333333341 176.7082666666666 123.10186666666674 176.0597333333332 119.68853333333342 176.0597333333332C116.48000000000009 176.0597333333332 113.37386666666676 176.8959999999999 110.38720000000009 178.61973333333322C107.41760000000008 180.3434666666666 104.85760000000009 182.78399999999988 102.72426666666676 185.97546666666653C100.59093333333342 189.20106666666658 98.98666666666675 193.09226666666655 97.91146666666675 197.66613333333322L96.87040000000009 202.27413333333322C96.9216000000001 208.28159999999988 105.50613333333342 218.53866666666656 115.98506666666675 225.05813333333325L127.72693333333342 229.5295999999999C139.4517333333334 234.06933333333325 153.32693333333341 236.27093333333323 169.3525333333334 236.27093333333323C180.85546666666676 236.27093333333323 191.24906666666675 234.66666666666657 200.55040000000008 231.45813333333322C209.8517333333334 228.26666666666657 217.71946666666676 223.72693333333325 224.11946666666674 217.85599999999988C230.50240000000008 211.98506666666657 235.5029333333334 204.86826666666659 239.00160000000008 196.5567999999999C242.5173333333334 188.22826666666657 244.3093333333334 179.02933333333323 244.3093333333334 169.02826666666652C244.3093333333334 153.85599999999988 240.46933333333342 140.59519999999986 232.7381333333334 129.27999999999986C225.07520000000008 117.96479999999985 219.37493333333342 113.54453333333322 219.37493333333342 113.54453333333322C208.9301333333334 105.47199999999987 192.10240000000007 92.65493333333319 181.98186666666672 85.09439999999984C171.84426666666673 77.51679999999988 174.35306666666673 71.32159999999988 187.54560000000006 71.32159999999988H220.92800000000005C234.13760000000008 71.32159999999988 245.35040000000006 68.86399999999986 245.87946666666673 65.86026666666652L246.52800000000005 62.03733333333321C247.15946666666673 58.18026666666651 247.50080000000005 54.1354666666665 247.50080000000005 49.851733333333186C247.50080000000005 40.22613333333322 245.48693333333338 33.58719999999988 241.42506666666674 29.96906666666655M416.00000000000006 216.08106666666654C416.00000000000006 206.91626666666653 411.39200000000005 189.66186666666653 405.76000000000005 177.73226666666653L350.9930666666667 61.61066666666653C345.3610666666667 49.68106666666654 336.896 34.06506666666655 332.16853333333336 26.931199999999876L326.63893333333334 24.69546666666656C321.0752 22.45973333333319 314.5728 21.3333333333332 307.0976 21.3333333333332C301.73866666666663 21.3333333333332 296.2432 21.845333333333258 290.59413333333333 22.937599999999918L284.9109333333334 23.978666666666584C280.37120000000004 25.68533333333329 281.49760000000003 36.727466666666544 287.43680000000006 48.52053333333322L345.8048 164.52266666666657C351.72693333333336 176.31573333333324 345.78773333333334 185.95839999999987 332.57813333333337 185.95839999999987H307.6437333333334C294.4512000000001 185.95839999999987 278.8864000000001 186.7263999999999 273.0837333333334 187.68213333333324L269.22666666666674 191.09546666666654C265.42080000000004 194.5258666666666 263.4752000000001 201.0111999999999 263.4752000000001 210.61973333333324C263.4752000000001 214.92053333333325 263.7141333333334 219.06773333333322 264.10666666666674 223.11253333333323L264.56746666666675 227.17439999999988C265.0282666666667 230.22933333333322 276.2069333333334 232.72106666666653 289.43360000000007 232.72106666666653H391.97013333333337C405.1968 232.7381333333332 416.00000000000006 225.24586666666653 416.00000000000006 216.08106666666654" />
    <glyph glyph-name="carousel-pause"
      unicode="&#xF106;"
      horiz-adv-x="512" d=" M256 396.8C142.8992 396.8 51.2 305.1008 51.2 192S142.8992 -12.800000000000011 256 -12.800000000000011S460.8 78.89920000000001 460.8 192S369.1008 396.8 256 396.8M256 25.98399999999998C163.7632 25.98399999999998 89.01120000000002 100.76159999999999 89.01120000000002 192.9728S163.7632 359.9616 256 359.9616S422.9888 285.18399999999997 422.9888 192.9728S348.2368 25.98399999999998 256 25.98399999999998M220.23680000000002 92.8512C208.20479999999998 92.8512 198.4512 102.63040000000001 198.4512 114.66239999999999V269.3376C198.4512 281.3696 208.20479999999998 291.1232 220.23680000000002 291.1232S242.02240000000003 281.3696 242.02240000000003 269.3376V114.6368C242.02240000000003 102.63040000000001 232.24320000000003 92.85120000000006 220.23680000000004 92.85120000000006zM298.6496000000001 92.85120000000006C286.61760000000004 92.85120000000006 276.83840000000004 102.63040000000001 276.83840000000004 114.66240000000005V269.33760000000007C276.83840000000004 281.36960000000005 286.61760000000004 291.12320000000005 298.6496000000001 291.12320000000005C310.70720000000006 291.12320000000005 320.46080000000006 281.36960000000005 320.46080000000006 269.33760000000007V114.6368C320.46080000000006 102.63040000000001 310.70720000000006 92.85120000000006 298.6496000000001 92.85120000000006z" />
    <glyph glyph-name="carousel-play"
      unicode="&#xF107;"
      horiz-adv-x="512" d=" M256 396.8C142.8992 396.8 51.2 305.1008 51.2 192S142.8992 -12.800000000000011 256 -12.800000000000011S460.8 78.89920000000001 460.8 192S369.1008 396.8 256 396.8M256 25.98399999999998C163.7632 25.98399999999998 89.01120000000002 100.76159999999999 89.01120000000002 192.9728S163.7632 359.9616 256 359.9616S422.9888 285.18399999999997 422.9888 192.9728S348.2368 25.98399999999998 256 25.98399999999998M351.10400000000004 192.4608L212.096 91.59680000000003V292.4032L351.10400000000004 192.4608z" />
    <glyph glyph-name="chevron-down"
      unicode="&#xF108;"
      horiz-adv-x="819.2" d=" M392.75520000000006 176.5888C401.8688 167.52640000000002 416.8704 167.52640000000002 425.98400000000004 176.5888L690.432 441.1904C699.5968 450.2528 714.5472 450.2528 723.7632 441.1904L786.7392 378.0608C795.904 368.89599999999996 795.904 354.048 786.7392 344.832L522.0864 80.5376L488.80639999999994 47.25759999999997L425.77919999999995 -15.667200000000093C416.61439999999993 -24.883200000000045 401.7664 -24.883200000000045 392.60159999999996 -15.667200000000093L32.56319999999996 344.21759999999995C23.295999999999964 353.43359999999996 23.295999999999964 368.43519999999995 32.56319999999996 377.65119999999996L95.48799999999997 440.57599999999996C104.65279999999996 449.84319999999997 119.65439999999997 449.84319999999997 128.76799999999997 440.57599999999996L392.7552 176.5888z" />
    <glyph glyph-name="chevron-left"
      unicode="&#xF109;"
      horiz-adv-x="307.2" d=" M302.336 379.2554666666667C308.3264 385.3312 308.3264 395.33226666666667 302.336 401.4592L261.20533333333333 443.40906666666666C255.21493333333333 449.51893333333334 245.46986666666666 449.51893333333334 239.51359999999997 443.40906666666666L4.488533333333301 203.3834666666667C-1.5018666666666982 197.2906666666667 -1.5018666666666982 187.2725333333334 4.488533333333301 181.1968L45.6021333333333 139.19573333333335L67.3109333333333 117.0261333333334L239.8549333333333 -59.426133333333325C245.82826666666662 -65.51893333333328 255.5904 -65.51893333333328 261.58079999999995 -59.44319999999999L302.6944 -17.42506666666668C308.68479999999994 -11.315200000000004 308.68479999999994 -1.3141333333333591 302.6944 4.778666666666652L130.04799999999994 181.09439999999995C124.05759999999995 187.1701333333333 124.05759999999995 197.17119999999997 130.04799999999994 203.28106666666665L302.33599999999996 379.2554666666666z" />
    <glyph glyph-name="chevron-up"
      unicode="&#xF10A;"
      horiz-adv-x="819.2" d=" M128.768 -15.20640000000003C119.65440000000001 -24.473600000000033 104.65280000000001 -24.473600000000033 95.48800000000001 -15.20640000000003L32.56320000000001 47.76959999999997C23.296000000000006 56.98559999999998 23.296000000000006 71.98719999999997 32.56320000000001 81.20319999999998L392.6016 441.088C401.8176 450.30400000000003 416.66560000000004 450.30400000000003 425.77920000000006 441.088L488.80640000000005 378.1632L522.0864 344.8832L786.7392 80.58879999999999C795.904 71.37279999999998 795.904 56.52479999999997 786.7392 47.35999999999996L723.7632 -15.769600000000025C714.5472 -24.831999999999994 699.5968 -24.831999999999994 690.432 -15.769600000000025L425.98400000000004 248.7808C416.8704 257.8432 401.8688 257.8432 392.75520000000006 248.7808L128.76800000000003 -15.20640000000003z" />
    <glyph glyph-name="chevron"
      unicode="&#xF10B;"
      horiz-adv-x="363.95466111496637" d=" M333.6941938468655 183.56141568355315L86.16238723108951 431.0340041637752L24.81239879713162 369.6247975942633L210.81656257228772 183.5614156835532L24.81239879713162 -2.53157529493393L86.19199629886651 -63.999999999999886L322.47235715938 172.36918806384466z" />
    <glyph glyph-name="close"
      unicode="&#xF10C;"
      horiz-adv-x="512" d=" M292.224 191.9744L355.584 255.3344C366.72 269.28639999999996 348.16 279.3472 340.224 288.79359999999997C329.1392 303.4112 315.3664 288.512 307.0976 279.2448L255.99999999999997 228.1728L192.64 291.53279999999995C178.688 302.6688 168.6272 284.1088 159.18079999999998 276.1728C144.56319999999997 265.08799999999997 159.46239999999997 251.3152 168.72959999999998 243.04639999999998L219.80159999999998 191.97439999999995L156.4416 128.61439999999993C145.3056 114.66239999999993 163.86559999999997 104.60159999999996 171.80159999999998 95.15519999999992C182.88639999999998 80.53759999999994 196.65919999999997 95.43679999999995 204.928 104.70399999999995L256 155.7759999999999L319.36 92.41599999999994C333.312 81.27999999999992 343.39840000000004 99.83999999999992 352.8192 107.7759999999999C367.4368 118.86079999999993 352.53760000000005 132.6335999999999 343.27040000000005 140.90239999999994L292.22400000000005 191.97439999999995zM437.0176000000001 10.982399999999927C509.2096000000001 81.17759999999998 532.096 195.58399999999995 493.2608 288.3327999999999C456.7808 381.1328 361.90720000000005 446.84799999999996 262.144 447.92319999999995C163.58400000000003 451.55839999999995 66.7136 391.9871999999999 25.08800000000001 302.6432C-19.737599999999986 211.68639999999994 -3.097599999999989 94.95039999999995 65.92 20.50559999999996C131.1232 -53.73440000000005 241.2288 -82.99520000000007 334.8224 -51.66080000000005C373.24800000000005 -39.321600000000046 408.5504 -17.612800000000107 437.0176000000001 10.956799999999987zM109.26080000000002 338.688C173.64480000000003 405.4272 283.8784 419.27680000000004 362.93120000000005 370.944C441.01120000000003 326.4768 482.3040000000001 228.30079999999998 459.6480000000001 141.3888C438.93760000000003 50.12479999999999 350.46400000000006 -19.327999999999975 256.8704000000001 -17.638400000000047C163.27680000000007 -19.327999999999975 74.80320000000006 50.15039999999999 54.09280000000006 141.4144C36.55680000000006 211.0208 57.984000000000066 288.384 109.26080000000007 338.71360000000004z" />
    <glyph glyph-name="cloud"
      unicode="&#xF10D;"
      horiz-adv-x="676.6333526059304" d=" M264.2676137771537 336.73610308086234C248.19757165276286 351.96035351449575 226.58759395391095 361.3909308664409 202.77855785908977 361.3909308664409C157.2326753118031 361.3909308664409 119.80639299578756 327.34781531345504 114.22416783678864 283.36664739406956C51.55100355166433 275.7968117617907 3.0025605021888238 222.5119352440737 3.0025605021888238 157.85116048566948C3.0025605021888238 87.98876682910713 59.58602461385976 31.32072354836049 129.57528702403567 31.32072354836049C157.14809614272735 31.32072354836049 182.60642603452547 40.32840505492686 203.4551912116957 55.25662839679529C233.31163789543237 20.6637482448171 277.33509539935574 -1.4537044684892066 326.68704055505077 -1.4537044684892066C369.6109688609895 -1.4537044684892066 408.5596762203684 15.292971008507607 437.6126207978855 42.485173866358366L529.7193359213678 -64.08457916907571L509.88552077310646 47.05244899644845C522.6992648880813 42.6543322045099 536.4010902783514 40.07466754769979 550.6949698521516 40.07466754769979C619.0772280498885 40.07466754769979 674.6457421326505 95.55860246138604 674.6457421326505 163.98315024366082C674.6457421326505 232.36540844139765 619.1618072189642 287.9339225241597 550.6949698521515 287.9339225241597L547.3963822581977 287.72247460147037L547.9038572726522 296.2226810935823C547.9038572726522 376.14999587015785 483.1162137606343 440.8530602131 403.2311885685967 440.8530602131C337.25943668951845 440.89534979763783 281.81779136037 396.91418187825235 264.2676137771537 336.73610308086245" />
    <glyph glyph-name="download"
      unicode="&#xF10E;"
      horiz-adv-x="530.2857142857142" d=" M265.1428571428571 96L455.7165714285714 272H364.58057142857143V448H165.7234285714286V272H74.5691428571429zM505.43542857142853 160H488.8685714285714C475.1908571428571 160 464.01828571428564 149.2114285714286 464.01828571428564 136.00914285714288V0H66.28571428571422V136.00914285714288C66.28571428571422 149.2114285714286 55.09485714285707 160 41.4354285714285 160H24.850285714285647C11.190857142857077 160 -6.496390726949487e-14 149.21142857142854 -6.496390726949487e-14 136.00914285714288V-18.633142857142786C-6.496390726949487e-14 -43.702857142857056 21.02857142857136 -64 46.97599999999993 -64H483.32799999999986C509.25714285714275 -64 530.2857142857142 -43.70285714285711 530.2857142857142 -18.633142857142786V136.00914285714293C530.2857142857142 149.21142857142866 519.0948571428571 160.00000000000006 505.43542857142853 160.00000000000006z" />
    <glyph glyph-name="edit"
      unicode="&#xF10F;"
      horiz-adv-x="512" d=" M486.912 364.608L504.89599999999996 382.624C513.76 391.456 510.04799999999994 409.696 496.57599999999996 423.168L492.41599999999994 427.296C478.94399999999996 440.736 460.7679999999999 444.544 451.9359999999999 435.68L433.85599999999994 417.664 M471.488 349.28L418.528 402.24L158.56 142.272L208.864 192.608L207.52 191.23200000000003L205.24800000000002 188.92800000000005V188.96000000000004L154.62400000000002 138.30400000000003L140.12800000000001 72L207.584 85.31200000000001L208.352 86.07999999999998zM431.136 239.392V-8.128000000000043H55.903999999999996V359.13599999999997H295.424L359.264 415.008H31.936000000000035C15.968000000000035 415.008 3.552713678800501e-14 399.07199999999995 3.552713678800501e-14 383.104V-37.37600000000003C3.552713678800501e-14 -48.06400000000002 15.968000000000035 -64 26.656000000000034 -64H463.10400000000004C471.07200000000006 -64 487.04 -52.608000000000004 487.04 -40.127999999999986V295.264L431.136 239.392z" />
    <glyph glyph-name="expand"
      unicode="&#xF110;"
      horiz-adv-x="512" d=" M77.84960000000001 403.6864L239.0272 242.5344L202.8288 206.31040000000002L45.77280000000001 363.3664L45.59360000000001 216.1152L2.995200000000011 216.08960000000002L3.2000000000000117 403.6096H2.995200000000011V446.2336H3.2512000000000114V446.4896H45.84960000000001V446.2848L233.39520000000005 446.4896L233.36960000000005 403.86560000000003L77.84960000000004 403.68640000000005zM512 167.91040000000004H469.37600000000003L469.1968 16.512000000000057L307.9936 177.7152000000001L271.79519999999997 141.5168000000001L432.99839999999995 -19.686399999999878L281.59999999999997 -19.839999999999918V-62.48959999999988L469.12 -62.284799999999905V-62.48959999999988H511.74399999999997V-62.23359999999985H511.9744L512 -19.609599999999887H511.7952L512 167.9104000000001z" />
    <glyph glyph-name="facebook"
      unicode="&#xF111;"
      horiz-adv-x="512" d=" M195.09760000000003 -64V176.25599999999997H131.58400000000003V262.75839999999994H195.09760000000003V336.64C195.09760000000003 394.67519999999996 232.62720000000002 448 319.10400000000004 448C354.09920000000005 448 380.0064 444.64639999999997 380.0064 444.64639999999997L377.9584 363.8784S351.5648 364.13439999999997 322.7648 364.13439999999997C291.5584 364.13439999999997 286.5664 349.77279999999996 286.5664 325.9136V262.75839999999994H380.4672L376.3712 176.25599999999997H286.5664V-64H195.09759999999997z" />
    <glyph glyph-name="gallery"
      unicode="&#xF112;"
      horiz-adv-x="704" d=" M657.6640000000001 371.744H483.232L484.35200000000003 369.024L458.91200000000003 429.28C454.56000000000006 439.68 442.56000000000006 448 432.22400000000005 448H283.68C273.28000000000003 448 261.536 439.68 257.408 429.312L233.40800000000002 369.056L234.496 371.77599999999995H46.33600000000002C20.768000000000015 371.77599999999995 0.03200000000001468 351.072 0.03200000000001468 325.44V-17.728000000000065C0.03200000000001468 -43.232000000000085 20.768000000000015 -63.968000000000075 46.33600000000002 -63.968000000000075H657.6960000000001C683.2640000000001 -63.968000000000075 704.0000000000001 -43.232000000000085 704.0000000000001 -17.728000000000065V325.40799999999996C704.0000000000001 351.03999999999996 683.2320000000001 371.74399999999997 657.6640000000001 371.74399999999997M352.19200000000006 -0.928000000000111C261.95200000000006 -0.928000000000111 188.76800000000006 71.80799999999988 188.76800000000006 161.6319999999999C188.76800000000006 251.42399999999986 261.98400000000004 324.25599999999986 352.19200000000006 324.25599999999986C442.36800000000005 324.25599999999986 515.5520000000001 251.42399999999986 515.5520000000001 161.6319999999999C515.5840000000002 71.80799999999988 442.4000000000001 -0.928000000000111 352.19200000000006 -0.928000000000111M613.8880000000001 233.1199999999999C591.0720000000001 233.1199999999999 572.6400000000001 251.4879999999999 572.6400000000001 274.2399999999999C572.6400000000001 296.9279999999999 591.0720000000001 315.2959999999999 613.8880000000001 315.2959999999999S655.1360000000002 296.9279999999999 655.1360000000002 274.2399999999999C655.1360000000002 251.4879999999999 636.7040000000002 233.1199999999999 613.8880000000001 233.1199999999999" />
    <glyph glyph-name="google-plus"
      unicode="&#xF113;"
      horiz-adv-x="512" d=" M279.792 405.488C232.35199999999998 405.168 184.86399999999998 406.144 137.45599999999996 404.96C88.99199999999996 400.032 37.99999999999996 365.392 32.22399999999996 314.144C28.12799999999996 266.048 66.31999999999996 220.512 114.01599999999996 214.864C121.50399999999996 209.66400000000002 150.27199999999996 219.71200000000002 142.49599999999995 207.632C127.83999999999995 189.44 150.19199999999995 158.57600000000002 151.95199999999994 152.688C110.49599999999994 154.832 66.49599999999994 146.176 34.97599999999994 117.45600000000002C8.799999999999944 95.84000000000003 -7.680000000000057 53.74400000000003 15.263999999999943 24.128000000000043C45.39199999999994 -12.20799999999997 95.96799999999993 -21.00799999999998 140.75199999999995 -21.727999999999952C189.90399999999994 -22.63999999999993 246.38399999999996 -1.8719999999999573 264.92799999999994 47.63200000000006C276.68799999999993 83.4720000000001 267.3759999999999 127.48800000000006 236.28799999999995 150.88000000000005C219.02399999999994 165.45600000000007 194.31999999999994 176.88000000000005 188.78399999999996 200.72000000000006C188.89599999999996 227.68000000000006 219.15199999999996 237.45600000000005 232.94399999999996 256.70400000000006C263.328 290.92800000000005 256.4 351.72800000000007 218.84799999999996 377.90400000000005C199.90399999999997 385.02400000000006 220.07999999999996 382.1600000000001 228.87999999999997 382.7200000000001C237.08799999999997 383.77600000000007 246.83199999999997 380.56000000000006 254.04799999999997 384.4000000000001L279.808 405.4720000000001zM234.304 81.90400000000011C243.904 51.92000000000013 224.224 18.160000000000082 194.416 9.200000000000102C152.224 -4.8479999999998995 97.728 -3.759999999999877 66.96 32.736000000000104C46.288 55.248000000000104 47.824 93.37600000000009 72.112 112.72000000000008C101.744 138.65600000000006 147.248 147.7120000000001 183.808 133.12000000000006C202.608 118.62400000000008 228.464 107.10400000000004 234.304 81.90400000000005zM153.40800000000002 226.00000000000006C116.41600000000003 228.04800000000006 92.12800000000001 264.19200000000006 82.88000000000001 296.84800000000007C73.61600000000001 328.46400000000006 81.64800000000001 372.8640000000001 116.06400000000001 385.4560000000001C150.08 396.17600000000004 180.62400000000002 366.1120000000001 193.936 337.6640000000001C211.376 304.36800000000005 209.232 254.83200000000008 175.888 232.24000000000007C169.15200000000002 228.14400000000006 161.296 225.96800000000007 153.40800000000002 226.00000000000006zM413.776 311.95200000000006V405.48800000000006H383.44V309.4240000000001H287.376V279.0880000000001H383.43999999999994V183.02400000000011H413.77599999999995V279.0880000000001H509.8399999999999V309.4240000000001H413.77599999999995V311.9520000000001z" />
    <glyph glyph-name="home"
      unicode="&#xF114;"
      horiz-adv-x="546.0362602204053" d=" M546.0362602204053 174.98186988979734L273.01813011020266 448L0 174.98186988979734H85.32726626377533V-57.08354070387492C85.32726626377533 -60.83298969072172 88.40327052968361 -63.90899395663001 92.1527195165304 -63.90899395663001H215.0108780661216C218.76032705296836 -63.90899395663001 221.83633131887666 -60.83298969072172 221.83633131887666 -57.08354070387492V91.36551724137922C221.83633131887666 95.11496622822602 224.91233558478496 98.19097049413432 228.66178457163173 98.19097049413432H317.3926768574476C321.14212584429436 98.19097049413432 324.21813011020265 95.11496622822602 324.21813011020265 91.36551724137922V-57.08354070387492C324.21813011020265 -60.83298969072172 327.29413437611095 -63.90899395663001 331.0435833629577 -63.90899395663001H453.9017419125489C457.6511908993957 -63.90899395663001 460.727195165304 -60.83298969072172 460.727195165304 -57.08354070387492V174.98186988979734H546.0362602204053z" />
    <glyph glyph-name="info"
      unicode="&#xF115;"
      horiz-adv-x="512" d=" M254.44392156862747 283.758431372549C245.55921568627457 283.758431372549 237.97960784313727 286.82039215686274 231.7050980392157 292.9694117647059S222.29333333333335 306.6227450980392 222.29333333333335 315.50745098039215S225.43058823529412 331.9717647058823 231.7050980392157 338.2462745098039S245.5592156862745 347.65803921568624 254.44392156862747 347.65803921568624S270.9082352941177 344.52078431372547 277.1827450980393 338.2462745098039S286.5945098039216 324.3670588235294 286.5945098039216 315.50745098039215C286.5945098039216 306.6227450980392 283.4572549019608 299.118431372549 277.1827450980393 292.9694117647059S263.32862745098043 283.758431372549 254.44392156862747 283.758431372549M250.12705882352944 64.55215686274511C245.15764705882353 64.55215686274511 240.06274509803924 64.87843137254902 234.84235294117647 65.53098039215683L223.07137254901963 67.28784313725487V239.46039215686278C223.07137254901963 246.26196078431377 225.4807843137255 251.35686274509808 230.34980392156862 254.74509803921572C235.1686274509804 258.1584313725491 244.50509803921568 259.84000000000003 258.3843137254902 259.84000000000003C263.3537254901961 259.84000000000003 268.4486274509804 259.4886274509804 273.6690196078431 258.86117647058825L285.44 257.1043137254902V84.95686274509808C285.44 78.15529411764709 283.0054901960784 73.0603921568628 278.18666666666667 69.67215686274517S263.9811764705882 64.55215686274511 250.12705882352938 64.55215686274511M255.99999999999997 442.9803921568628C117.38352941176467 442.9803921568628 5.0196078431371935 330.59137254901964 5.0196078431371935 192.00000000000003S117.38352941176467 -58.980392156862706 255.99999999999997 -58.980392156862706C394.5913725490196 -58.980392156862706 506.9803921568627 53.40862745098042 506.9803921568627 192.00000000000009S394.5913725490196 442.9803921568629 255.99999999999991 442.9803921568629" />
    <glyph glyph-name="mail"
      unicode="&#xF116;"
      horiz-adv-x="512" d=" M440.32 343.04H87.03999999999996L263.68 176.64zM473.6 325.12V74.23999999999995C473.6 53.759999999999934 458.24 38.39999999999998 437.76000000000005 38.39999999999998H92.16000000000004C71.68000000000005 38.39999999999998 56.32000000000004 53.75999999999999 56.32000000000004 74.24000000000001V325.12L253.44000000000005 140.79999999999995C256.00000000000006 138.24 258.56000000000006 135.68 263.68000000000006 135.68S271.36000000000007 138.24 273.9200000000001 140.79999999999995L473.60000000000014 325.12z" />
    <glyph glyph-name="menu"
      unicode="&#xF117;"
      horiz-adv-x="819.2" d=" M0 448H819.2V345.6H0zM0 243.2H819.2V140.8H0zM0 38.39999999999998H819.2V-64H0z" />
    <glyph glyph-name="minify"
      unicode="&#xF118;"
      horiz-adv-x="512" d=" M179.20000000000002 448H230.4V217.6H179.20000000000002zM0 268.79999999999995H230.4V217.6H0zM202.496 275.6608L172.3392 245.504L6.4 411.4432L36.5568 441.6zM281.6 166.39999999999998H332.8V-64H281.6zM281.6 166.39999999999998H512V115.19999999999999H281.6zM309.504 108.33919999999995L339.66080000000005 138.49599999999998L505.6256000000001 -27.468800000000044L475.46880000000004 -57.62560000000008z" />
    <glyph glyph-name="mouse"
      unicode="&#xF119;"
      horiz-adv-x="561.1727633922454" d=" M543.1801616659816 176.91848198383343L484.2920948075078 311.35443211398825C449.1486505000684 391.7073571722154 359.3610083573092 429.9372516783121 278.97301000136997 401.42266063844363C276.5178791615289 406.3679956158378 272.4143033292231 413.4528017536649 266.1712563364844 420.88834086861215C255.71941361830383 433.65502123578574 237.79695848746397 448 212.719550623373 448C194.06055624058087 448 173.33223729277978 440.0734347170845 150.955473352514 421.9405397999726C104.37813399095762 383.85093848472394 71.90026030963142 367.26126866694074 49.62871626250169 367.6821482394849C39.983559391697476 367.7172215371969 31.63611453623782 370.20742567474997 22.446910535689803 375.9594464995205C15.53747088642278 380.2734621180984 6.453486779010807 378.13399095766545 2.1745444581449376 371.1193314152624C-2.0693245650089187 364.10467187285934 -1.3628713934294288e-14 354.84532127688726 6.909439649267009 350.5663789560214C19.85148650500067 342.3592272914098 34.266611864638975 337.79969858884783 49.348129880805566 337.79969858884783H49.62871626250169C85.29826003562128 338.22057816139204 121.07302370187693 359.7205096588574 169.36895465132207 398.4765036306344C188.34360871352237 413.8736813262091 202.4430743937525 418.0824770516509 212.719550623373 418.0824770516509C226.1526236470749 418.11755034936294 236.11344019728725 410.7170845321277 243.75941909850658 401.5629538292917C247.51226195369225 397.1787916152898 250.28305247294142 392.5841896150158 252.14193725167826 389.1470064392383C178.80367173585415 347.26948897109196 147.5533634744485 254.78120290450755 182.41622140019174 175.0946705028087L241.3042882586655 40.69379367036589C278.37676394026573 -43.97314700643915 375.9857514728044 -82.06274832168776 459.2848335388408 -44.49924647211941C542.6891354980133 -6.830524729414947 580.2175640498697 92.25154130702839 543.1801616659815 176.91848198383343zM327.72489382107125 328.50527469516373L338.07151664611575 304.9710919304014C344.6302233182626 290.20523359364296 337.93122345526774 272.8790245239074 323.4108782024934 266.2852445540485C308.820386354295 259.69146458418965 291.7747636662556 266.3203178517606 285.2862035895327 281.15632278394304L274.9746540622002 304.65543225099333C268.4860939854774 319.4914371831758 275.04480065762425 336.81764625291135 289.63529250582263 343.37635292505826C304.225784354021 349.9701328949171 321.20126044663647 343.3062063296342 327.7248938210713 328.50527469516373zM465.7383203178517 262.39210850801487L231.1681052198931 156.5058227154405L225.2056446088505 155.20811070009592C219.55884367721606 155.20811070009592 214.19262912727768 158.50500068502532 211.77257158514863 164.11672831894782C208.44060830250717 171.6574873270311 211.77257158514863 180.42581175503494 219.2431839978079 183.79284833538838L453.8133990957665 289.74928072338673C461.2138649130017 293.0461707083162 469.98218934100555 289.6440608302507 473.1738594327989 282.1033018221674C476.5759693108644 274.5625428140841 473.13878613508695 265.75914508836826 465.7383203178517 262.39210850801476z" />
    <glyph glyph-name="never-miss"
      unicode="&#xF11A;"
      horiz-adv-x="512" d=" M103.1936 448C48.0256 445.7984 -1.8688000000000102 395.8528 0 339.2C0.0512 334.2336 0.128 328.9088 0.7936000000000001 323.9936C4.6592 304.99839999999995 10.803200000000002 279.09119999999996 28.0064 270.3872C46.2592 311.8848 75.67360000000001 348.8768 112.81920000000001 375.1936C129.3312 395.0848 175.23200000000003 399.4368 184.01280000000003 414.3872C170.54720000000003 429.23519999999996 148.864 442.88 127.20640000000003 446.3872C119.24480000000004 448.1536 111.07840000000004 448.30719999999997 103.19360000000005 448zM396.8 448C392.83200000000005 447.6672 388.7872 447.25759999999997 384.7936 446.3872C364.85120000000006 441.2672 333.03040000000004 430.592 327.98720000000003 410.3936C398.05440000000004 390.7584 454.06720000000007 336.1536 484.78720000000004 271.1808C500.24960000000004 280.8064 507.6224 305.3056 511.18080000000003 323.9936C511.8464 328.90880000000004 511.9232 334.2336 511.9744 339.20000000000005C513.9712 399.8976 456.42240000000004 453.0688 396.7744 448zM251.16160000000002 428.8C243.8656 428.1856 237.08159999999998 425.5488 231.168 419.9936C216.11520000000002 402.81600000000003 217.3696 381.03040000000004 188.7744 381.59360000000004C93.44 350.336 27.212799999999994 248.9856 39.961600000000004 148.78720000000004C45.4912 96.84480000000002 70.1952 47.769600000000025 107.1616 11.187200000000018C93.69600000000001 -2.94399999999996 79.0528 -15.66719999999998 66.3552 -30.412800000000004C65.8176 -43.44319999999999 81.024 -50.0736 87.96159999999999 -60.006399999999985C100.1216 -72.03839999999991 110.54079999999999 -52.83839999999992 119.16799999999999 -45.59359999999998L147.1744 -18.380800000000022C212.81279999999998 -57.932799999999986 298.9312 -57.47200000000004 364.7744 -18.380800000000022C380.288 -33.12640000000005 394.8032 -50.38080000000002 411.18719999999996 -63.9744C425.856 -65.27999999999997 432.64 -47.795199999999966 443.18719999999996 -39.96160000000003C450.2784 -26.57280000000003 430.6176 -19.200000000000045 423.9872 -9.548800000000028L403.17439999999993 10.44479999999993C479.6415999999999 78.3103999999999 496.2815999999999 201.03679999999994 441.5743999999999 287.2575999999999C409.88159999999993 339.63519999999994 355.5583999999999 378.23999999999995 295.16799999999984 388.8639999999999C297.08799999999985 412.90239999999994 273.0751999999999 430.6944 251.16159999999988 428.87679999999995zM247.96159999999986 343.27039999999994C318.56639999999993 346.75199999999995 390.0159999999999 301.82399999999996 414.36159999999984 234.47039999999996C444.1855999999998 159.71839999999997 414.87359999999984 65.91999999999996 344.75519999999983 24.857599999999877C318.5151999999998 8.703999999999894 287.5647999999998 0.12799999999987222 256.7423999999998 0.051199999999880674C171.77599999999984 -1.843200000000195 94.56639999999982 69.27359999999987 87.93599999999981 153.65119999999985C77.67039999999982 236.44159999999988 136.55039999999983 320.9471999999999 218.34239999999983 338.4575999999999C228.2751999999998 340.9919999999999 237.84959999999984 342.7583999999999 247.93599999999984 343.2703999999999zM239.12959999999987 308.07039999999984C226.15039999999988 305.1007999999999 234.23999999999984 286.79679999999985 231.93599999999984 276.86399999999986V161.66399999999982H232.72959999999986V157.6703999999998L307.1231999999999 84.07039999999984C317.8751999999999 81.48479999999978 327.5519999999999 98.02239999999983 333.5167999999999 106.47039999999981C324.0447999999999 121.5231999999998 308.7359999999999 132.14719999999983 296.7039999999999 145.66399999999982C288.17919999999987 153.90719999999982 279.5263999999999 162.89279999999985 271.10399999999987 171.26399999999984C271.0015999999999 177.81759999999986 270.15679999999986 184.3967999999998 271.10399999999987 190.46399999999983V301.67039999999986H271.8975999999999C266.7007999999999 313.21599999999984 249.59999999999988 305.76639999999986 239.10399999999987 308.07039999999984z" />
    <glyph glyph-name="on-demand"
      unicode="&#xF11B;"
      horiz-adv-x="514.3144148669011" d=" M139.18633852335512 54.87091913611249C131.82521346057257 60.27122049221492 125.2355600200904 66.79658463083877 119.67453540934204 74.35057759919636L113.66348568558514 82.29030637870414L3.825213460572584 -27.547965846308443L37.70567553992969 -61.524861878453066L43.427423405323964 -54.99949773982928L147.2867905575088 48.79558011049721L139.18633852335512 54.87091913611249zM512.4821697639377 210.5153189352084L511.7428427925666 222.7624309392265L503.67453540934207 222.7945755901557H382.5213460572577L502.38874937217486 272.4580612757408L484.00200904068316 316.75339025615267L476.22300351582123 312.9603214465093L365.67754897036673 267.15419387242594L456.4218985434456 357.7378201908589L422.41285786037173 391.6825715720743L416.69110999497747 385.22149673530885L331.3792064289302 299.8131592164741L380.8498242089403 419.2948267202411L336.58663987945755 437.74585635359114L333.7257659467604 429.61325966850825L287.72677046710197 318.585635359116V446.6177800100452L276.44399799095936 447.32496233048715L264.13259668508294 448L251.78905072827732 447.35710698141634L240.40984429934713 446.6177800100452V318.29633350075335L190.97137117026625 437.4886991461577L146.74033149171277 419.0376695128076L150.53340030135615 411.3550979407333L196.596685082873 300.13460572576594L105.40231039678558 391.32898041185337L71.52184831742848 357.38422903063787L77.98292315419393 351.6624811652436L163.32697137117032 266.31843294826723L43.909593169261726 315.8211953792064L25.394274234053288 271.5258663987946L33.62330487192371 268.7935710698142L144.5866398794576 222.79457559015572H16.425916624811684L15.654445002511332 210.06529382219992L15.236564540431976 199.10396785534908L15.654445002511332 188.14264188849825L16.425916624811684 175.44550477147163L24.526368658965378 175.38121546961327H144.2009040683074L25.554997488699172 126.32847815168259L43.97388247112006 81.96885986941231L51.72074334505277 85.79407332998488L187.30688096433957 141.91863385233552L182.2280261175289 150.5012556504269C177.53490708186843 158.31240582621797 174.03114013058766 166.95931692616773 171.65243596182825 176.15268709191355L170.14163736815675 182.16373681567046L168.79156202913114 199.10396785534903L170.14163736815675 216.20492214967348L171.65243596182825 222.24811652435957C173.9989954796585 231.2807634354595 177.53490708186843 239.8955298844801 182.32446007031646 247.80311401305872L184.8317428427926 252.110497237569L187.69261677548974 255.93571069814158C193.18935208437978 263.3289804118533 199.77900552486193 269.95077850326464 207.23656454043197 275.4475138121546L211.57609241587144 278.7262682069312L215.20843797086894 280.81567051732793C223.30889000502265 285.6373681567052 231.85936715218486 289.2054244098443 240.7955801104973 291.455549974887L247.09593169261683 293.06278252134604L264.10045203415376 294.44500251130086L280.9442491210448 293.06278252134604L287.21245605223515 291.4876946258162C296.2772476142643 289.23756906077347 304.92415871421406 285.6695128076343 312.7674535409343 280.94424912104466L316.65695630336523 278.5655449522852L320.9321948769463 275.4153691612255C328.32546459065804 269.88648920140633 335.01155198392775 263.2968357609241 340.4118533400302 255.9357106981416L343.3048719236565 252.23907584128577L345.5871421396284 248.1888498242089C350.3766951280764 240.21697639377192 354.04118533400305 231.57006529382215 356.29131089904575 222.66599698643893L358.0592667001507 216.04419889502756L359.4414866901055 199.103967855349L358.0592667001507 182.16373681567046L356.4198895027625 175.73480662983422C354.1697639377198 166.79859367152181 350.44098442993476 158.151682571572 345.7157207433451 150.17980914113508L343.0155700652939 145.7117026619789L340.44399799095936 142.2079357106981C334.9472626820694 134.84681064791562 328.2933199397288 128.1928679055751 320.90005022601713 122.66398794575588L317.26770467101966 119.93169261677542L312.8317428427926 117.29583124058252C304.8598694123557 112.60271220492206 296.2129583124059 109.03465595178295 287.34103465595183 106.78453038674024L281.0406830738323 105.14515318935202L264.1004520341538 103.69864389753883L247.0959316926169 105.14515318935202L240.76343545956817 106.78453038674024C231.69864389753903 109.03465595178295 223.1160220994476 112.73129080863879 215.14414866901066 117.36012054244094L206.56152687091924 122.50326469110996L147.09392265193378 -21.086891009542967L191.42139628327482 -39.44148669010548L194.15369161225522 -31.341034655951773L240.34555499748876 80.20090406830741V-48.441988950276254L252.17478653942752 -49.18131592164741L264.0683073832246 -49.75991963837265L275.9618282270216 -49.18131592164741L287.72677046710197 -48.441988950276254V79.94374686087394L337.13309894525366 -39.34505273731793L381.46057257659464 -20.861878453038685L377.6353591160221 -13.211451531893545L331.60421898543444 98.04118533400299L422.76644902059263 6.750376695128068L456.7433450527373 40.82370668006024L450.28227021597183 46.44902059266701L365.42039176293315 131.37518834756406L484.22702159718733 82.16172777498741L502.6780512305374 126.3927674535409L494.48116524359614 129.18935208437966L382.8427925665494 175.4133601205424H511.67855349070805L512.4178804620792 187.62832747363132L512.9321948769461 199.03967855349072L512.4821697639376 210.51531893520846z" />
    <glyph glyph-name="pending"
      unicode="&#xF11C;"
      horiz-adv-x="512" d=" M363.68 116.12799999999999C366.016 113.79199999999997 366.016 109.98399999999998 363.68 107.64799999999997L342.016 85.91999999999996C339.68 83.61599999999999 335.872 83.61599999999999 333.504 85.91999999999996L236.41600000000003 183.07199999999995L235.84000000000003 183.93599999999992L235.13600000000002 184.9919999999999L234.65600000000003 187.29599999999988V359.2959999999999C234.65600000000003 362.59199999999987 237.34400000000002 365.3119999999999 240.67200000000003 365.3119999999999H271.32800000000003C274.656 365.3119999999999 277.34400000000005 362.6239999999999 277.34400000000005 359.2959999999999V202.46399999999988L363.68000000000006 116.12799999999987zM512 191.9999999999999C512 50.62399999999991 397.376 -64.00000000000011 256 -64.00000000000011C114.59200000000001 -64.00000000000011 0 50.62399999999991 0 191.9999999999999S114.624 447.9999999999999 256 447.9999999999999S512 333.37599999999986 512 191.9999999999999zM464.736 193.2159999999999C464.736 308.4799999999999 371.264 401.9519999999999 256 401.9519999999999C140.704 401.9519999999999 47.232 308.4799999999999 47.232 193.2159999999999C47.232 77.9199999999999 140.704 -15.520000000000095 256 -15.520000000000095S464.736 77.95199999999988 464.736 193.2159999999999z" />
    <glyph glyph-name="phone"
      unicode="&#xF11D;"
      horiz-adv-x="396.1315280464217" d=" M7.353191489361702 -12.131528046421693C-0.9655705996131537 -0.39613152804645324 2.3272727272727267 39.66266924564786 19.039071566731142 53.032108317214636C35.72611218568666 66.35203094777557 80.81083172147004 96.40851063829786 100.88974854932303 103.09323017408121C120.91914893617023 109.77794970986457 145.9249516441006 101.43442940038682 162.6615087040619 91.43210831721467C179.37330754352033 81.35551257253377 196.06034816247586 96.35899419729202 196.06034816247586 96.35899419729202S244.51218568665382 156.49671179883944 264.541586073501 186.57794970986458C284.5957446808511 216.68394584139259 272.88510638297873 245.05686653771755 272.88510638297873 245.05686653771755S251.17214700193423 268.45338491295934 241.1450676982592 281.82282398452605L231.14274661508708 316.9052224371373S239.46150870406194 392.0464216634429 241.12030947775634 398.6816247582205C242.77911025145073 405.39110251450677 254.46499032882014 442.13230174081235 292.8897485493231 442.13230174081235C331.3392649903289 442.13230174081235 376.3992263056094 378.6522243713733 376.3992263056094 378.6522243713733S438.19574468085113 275.1628626692456 312.96866537717614 98.14158607350095C187.69206963249528 -78.92920696324961 104.13307543520318 -60.50909090909096 104.13307543520318 -60.50909090909096C45.75319148936178 -60.53384912959393 15.671953578336636 -23.842166344294014 7.353191489361784 -12.131528046421693z" />
    <glyph glyph-name="plus-circle"
      unicode="&#xF11E;"
      horiz-adv-x="512" d=" M362.80320000000006 216.0128H278.8096V300.0064C278.8096 306.61120000000005 273.408 312.0128 266.8032 312.0128H242.7904C236.1856 312.0128 230.78400000000002 306.61120000000005 230.78400000000002 300.0064V216.0128H146.7904C140.1856 216.0128 134.784 210.6112 134.784 204.0064V179.99360000000001C134.784 173.3888 140.1856 167.98720000000003 146.7904 167.98720000000003H230.78400000000002V83.99360000000001C230.78400000000002 77.38879999999995 236.18560000000002 71.98720000000003 242.7904 71.98720000000003H266.8032C273.408 71.98720000000003 278.8096 77.3888 278.8096 83.99360000000001V167.98720000000003H362.80320000000006C369.408 167.98720000000003 374.80960000000005 173.3888 374.80960000000005 179.99360000000001V204.0064C374.80960000000005 210.6112 369.408 216.0128 362.80320000000006 216.0128zM256 448C114.61120000000001 448 0 333.3888 0 192C0 50.636799999999994 114.61120000000001 -64 256 -64C397.3632 -64 512 50.636799999999994 512 192C512 333.3888 397.3632 448 256 448zM256 -15.513600000000054C140.74880000000002 -15.513600000000054 47.23200000000002 77.92639999999994 47.23200000000002 193.22879999999995C47.23200000000002 308.50559999999996 140.72320000000002 401.97119999999995 256 401.97119999999995C371.2512 401.97119999999995 464.7168 308.50559999999996 464.7168 193.22879999999995C464.7168 77.92639999999994 371.2512 -15.513600000000054 255.99999999999997 -15.513600000000054z" />
    <glyph glyph-name="remote-download"
      unicode="&#xF11F;"
      horiz-adv-x="512" d=" M323.17440000000005 193.3056H384.8704L255.84640000000002 69.88799999999998L126.8224 193.3056H188.5696L188.6464 316.74879999999996H323.1744V193.3056zM511.69280000000003 192.7168C511.69280000000003 51.40480000000002 397.13280000000003 -63.12960000000004 255.84640000000002 -63.12960000000004S0 51.43039999999996 0 192.71679999999995S114.56 448.56319999999994 255.84640000000002 448.56319999999994S511.69280000000003 334.02879999999993 511.69280000000003 192.71679999999995zM463.7952 192.71679999999995C463.7952 307.55839999999995 370.66240000000005 400.6655999999999 255.84640000000005 400.6655999999999C141.00480000000005 400.6655999999999 47.89760000000006 307.5583999999999 47.89760000000006 192.71679999999995C47.89760000000006 77.92639999999994 141.00480000000007 -15.231999999999971 255.84640000000005 -15.231999999999971C370.6624000000001 -15.231999999999971 463.7952 77.9264 463.7952 192.7168z" />
    <glyph glyph-name="remote-record"
      unicode="&#xF120;"
      horiz-adv-x="512" d=" M330.3424 195.78879999999998C338.9696 206.61759999999998 343.3472 220.51839999999996 343.3472 237.59359999999995C343.3472 248.95999999999995 341.2992 258.96959999999996 337.1008 267.5967999999999S327.03999999999996 283.39199999999994 319.5392 289.07519999999994C311.98720000000003 294.75839999999994 302.92479999999995 299.0848 292.35200000000003 302.02879999999993C281.7024 304.97279999999995 269.8496 306.48319999999995 256.71680000000003 306.48319999999995H206.18240000000003C200.06400000000002 306.48319999999995 195.072 305.81759999999997 191.28320000000002 304.51199999999994C187.41760000000002 303.2063999999999 184.47360000000003 301.38879999999995 182.37440000000004 299.1103999999999C180.3008 296.80639999999994 178.89280000000002 294.01599999999996 178.15040000000002 290.7392C177.38240000000002 287.46239999999995 176.9728 283.9552 176.9728 280.24319999999994V94.25919999999996C180.0448 93.61919999999992 183.80800000000002 93.05599999999993 188.288 92.67199999999997C192.79360000000003 92.21119999999996 197.29920000000004 92.03199999999993 201.90720000000002 92.03199999999993C212.8384 92.03199999999993 220.288 94.23359999999997 224.23040000000003 98.73919999999998C228.1216 103.27039999999994 230.0928 108.67199999999997 230.0928 115.02079999999995V168.47359999999998H238.15679999999998L280.2688 108.10879999999997C284.64639999999997 101.75999999999999 289.2544 97.30559999999991 294.04159999999996 94.84799999999996C298.88 92.28799999999995 304.97279999999995 91.05919999999992 312.448 91.05919999999992C319.84639999999996 91.05919999999992 326.7072 91.80159999999995 333.0048 93.36319999999995C339.2512 94.8735999999999 344.7552 96.87039999999996 349.54240000000004 99.25119999999993L292.7872 174.02879999999993C309.1968 177.68959999999998 321.6896 184.93439999999993 330.3424 195.78879999999992zM282.5984 215.93599999999995C277.3504 210.48319999999998 268.18559999999997 207.74399999999994 255.0528 207.74399999999994H230.0928V263.16799999999995H257.664C268.3648 263.16799999999995 276.5312 260.71039999999994 282.112 255.79519999999994C287.7184 250.87999999999994 290.5088 244.27519999999993 290.5088 235.95519999999996C290.5088 228.09599999999995 287.82079999999996 221.41439999999997 282.5984 215.93599999999995zM256.0256 448C114.6368 448 0 333.3888 0 192C0 50.662399999999934 114.6368 -64 256.0256 -64C397.3888 -64 512 50.662399999999934 512 192C512 333.3888 397.3888 448 256.0256 448zM256.0256 -15.488000000000056C140.7488 -15.488000000000056 47.283199999999994 77.90079999999995 47.283199999999994 193.25439999999998C47.283199999999994 308.50559999999996 140.7488 401.9712 256.0256 401.9712S464.74240000000003 308.50559999999996 464.74240000000003 193.25439999999998C464.74240000000003 77.90079999999995 371.30240000000003 -15.488000000000056 256.0256 -15.488000000000056z" />
    <glyph glyph-name="search"
      unicode="&#xF121;"
      horiz-adv-x="512" d=" M509.7472 -10.64960000000002L350.74559999999997 147.96799999999996C371.712 178.73919999999998 384.0256 215.91039999999998 384.0256 255.99999999999997C384.0256 362.08639999999997 298.112 448 192.0256 448L190.0544 447.89759999999995C141.184 448.5632 92.10879999999999 430.38719999999995 54.835199999999986 393.11359999999996C17.305599999999988 355.63519999999994 -0.8448000000000093 306.2016 0.07679999999999154 257.0752L0.025599999999991543 255.99999999999997C0.025599999999991543 149.93919999999997 85.96480000000001 64 192.0256 64C231.8592 64 268.8512 76.13439999999997 299.52 96.87040000000002L458.57280000000003 -61.72160000000008C461.56800000000004 -64.74239999999998 466.5088 -64.74239999999998 469.504 -61.74720000000008L509.7472 -21.55520000000007C512.7424 -18.56000000000006 512.7424 -13.619200000000092 509.7472 -10.649600000000135zM285.5424 162.61119999999988C238.592 115.63519999999988 166.3488 109.56799999999993 112.6656 143.9999999999999C76.8512 170.95679999999993 51.2256 213.3247999999999 51.2256 255.9999999999999C51.2256 326.70719999999994 121.3184 396.7999999999999 192.0256 396.7999999999999C234.9312 396.7999999999999 277.504 370.9183999999999 304.4608 334.8223999999999C338.56000000000006 281.1647999999999 332.36480000000006 209.3823999999999 285.5424 162.61119999999988z" />
    <glyph glyph-name="share"
      unicode="&#xF122;"
      horiz-adv-x="512" d=" M425.6 108.79999999999995C399.8976 108.79999999999995 377.1904 96.87040000000002 361.93280000000004 78.54079999999999L180.8384 163.584C181.73440000000002 168.6528 182.42560000000003 173.824 182.42560000000003 179.1488C182.42560000000003 188.9536 180.45440000000002 198.2208 177.5616 207.05280000000002L369.6128 297.216C384.40959999999995 283.648 403.9936 275.1744 425.62559999999996 275.1744C471.5776 275.1744 508.82559999999995 312.42240000000004 508.82559999999995 358.37440000000004S471.5776 441.5744 425.62559999999996 441.5744C379.69919999999996 441.5744 342.4256 404.32640000000004 342.4256 358.37440000000004C342.4256 354.66240000000005 343.03999999999996 351.15520000000004 343.50079999999997 347.59680000000003L142.95039999999995 253.44000000000005C128.63999999999996 263.1168 111.38559999999994 268.7744 92.79999999999995 268.7744C43.28959999999995 268.7744 3.1999999999999433 228.68480000000002 3.1999999999999433 179.17440000000005C3.1999999999999433 129.68960000000004 43.28959999999995 89.57440000000003 92.79999999999995 89.57440000000003C116.37759999999994 89.57440000000003 137.65119999999996 98.86720000000003 153.65119999999993 113.74080000000004L342.4512 25.062400000000025C342.75839999999994 -20.633599999999944 379.85279999999995 -57.59999999999991 425.5999999999999 -57.59999999999991C471.5519999999999 -57.59999999999991 508.79999999999995 -20.35199999999986 508.79999999999995 25.60000000000008C508.79999999999995 71.52640000000008 471.5519999999999 108.80000000000007 425.5999999999999 108.80000000000007z" />
    <glyph glyph-name="sky-go"
      unicode="&#xF123;"
      horiz-adv-x="512" d=" M465.92 448H46.08000000000002C20.480000000000018 448 1.7053025658242407e-14 427.52 1.7053025658242407e-14 401.92V-20.480000000000018C1.7053025658242407e-14 -46.08000000000004 20.480000000000018 -66.56000000000006 46.08000000000002 -66.56000000000006H468.48C494.08000000000004 -66.56000000000006 514.5600000000001 -46.08000000000004 514.5600000000001 -20.480000000000018V401.91999999999996C512 427.52 491.5200000000001 448 465.9200000000001 448zM322.5600000000001 87.03999999999996S294.4000000000001 112.63999999999999 253.44000000000005 112.63999999999999C217.60000000000005 112.63999999999999 189.44000000000005 87.03999999999996 189.44000000000005 87.03999999999996L163.84000000000006 117.75999999999999S197.12000000000006 153.59999999999997 256.00000000000006 153.59999999999997C320.00000000000006 153.59999999999997 348.1600000000001 117.75999999999999 348.1600000000001 117.75999999999999L322.56000000000006 87.03999999999996zM378.88000000000005 151.04000000000002S335.36000000000007 199.68 253.44000000000003 199.68C181.76000000000002 199.68 130.56000000000003 151.04000000000002 130.56000000000003 151.04000000000002L104.96000000000002 184.32S153.60000000000002 240.64000000000004 253.44000000000003 240.64000000000004C363.52 240.64000000000004 407.04 184.32000000000005 407.04 184.32000000000005L378.88000000000005 151.04000000000002zM435.20000000000005 217.60000000000002S360.96000000000004 284.16 253.44000000000003 284.16C148.48000000000002 284.16 71.68000000000002 217.60000000000002 71.68000000000002 217.60000000000002L46.08000000000002 245.76000000000002S120.32000000000004 322.56000000000006 253.44000000000003 322.56000000000006C381.44000000000005 322.56000000000006 458.24 245.76000000000002 458.24 245.76000000000002L435.20000000000005 217.60000000000002z" />
    <glyph glyph-name="sky-plus"
      unicode="&#xF124;"
      horiz-adv-x="512.128032008002" d=" M195.5688922230558 252.14303575893973C163.72093023255815 252.14303575893973 137.89047261815455 226.4086021505376 137.89047261815455 194.56064016004C137.89047261815455 162.74468617154292 163.72093023255815 136.9782445611403 195.56889222305577 136.9782445611403C227.4488622155539 136.9782445611403 253.24731182795696 162.77669417354343 253.24731182795696 194.56064016004C253.24731182795696 226.40860215053763 227.41685421355336 252.14303575893973 195.56889222305577 252.14303575893973zM292.71317829457365 246.0935233808452V143.6359089772443C292.71317829457365 139.1227806951738 295.65791447861966 137.68242060515126 299.1467866966742 140.3070767691923L366.907726931733 190.015503875969C370.49262315578903 192.64016004001002 370.49262315578903 196.96124031007753 366.907726931733 199.61790447611904L299.1467866966742 249.35833958489624C295.5618904726182 252.01500375093778 292.71317829457365 250.54263565891475 292.71317829457365 246.09352338084523zM105.62640660165042 313.6304076019005L56.52613153288322 352.45611402850716C24.13403350837709 311.6459114778695 5.281320330082515 262.5776444111028 1.9844961240310026 210.5646411602901L64.52813203300826 206.6916729182296C67.02475618904727 245.80545136284076 81.20430107526882 282.80670167541894 105.62640660165042 313.6304076019005zM240.15603900975245 385.58439609902484L235.03475868967243 447.9679919979996C178.9247311827957 443.32683170792706 127.167791947987 420.9532383095775 85.36534133533384 383.0877719429858L127.39184796199049 336.67616904226065C158.85571392848212 365.19529882470624 197.93748437109275 382.06351587896984 240.15603900975245 385.58439609902484zM64.78419604901225 178.52463115778949L2.336584146036508 173.43535883970992C6.881720430107525 119.02175543885971 28.23105776444111 68.44911227806955 64.20805201300327 27.25481370342584L111.41985496374096 68.38509627406853C84.34108527131784 99.43285821455368 68.20905226306577 137.58639659914974 64.78419604901225 178.52463115778943zM446.28757189297335 206.69167291822953L508.79919979995003 210.56464116029002C505.4703675918981 262.5776444111027 486.713678419605 311.6459114778694 454.22555638909733 352.4561140285071L405.1892973243311 313.6304076019004C429.67541885471377 282.8067016754188 443.8549637409353 245.80545136284064 446.28757189297335 206.6916729182295zM271.87596899224815 3.408852213053194L277.38134533633416 -58.84671167791953C330.67466866716694 -54.17354338584647 380.22305576394103 -33.14428607151791 420.90522630657676 1.6804201050262009L379.9989997499376 49.11627906976736C349.39934983745945 22.86971742935725 311.98199549887477 7.05776444111018 271.87596899224815 3.408852213053194zM90.03850962740691 1.6804201050262009C130.62465616404106 -33.14428607151791 180.26906726681676 -54.14153538384602 233.56239059764948 -58.84671167791953L239.0037509377345 3.408852213053194C198.89772443110783 7.025756439109728 161.51237809452368 22.837709427356742 130.91272818204558 49.116279069767415L90.03850962740691 1.6804201050262577zM425.57839459864977 383.0877719429858C383.71192798199564 420.98524631157795 331.9549887471869 443.326831707927 275.8769692423107 448.00000000000006L270.69167291822964 385.5843960990248C312.9422355588898 382.1595398849713 352.0240060015005 365.2273068267067 383.45586396599157 336.7081770442611L425.57839459864977 383.0877719429858zM399.4278569642412 68.38509627406853L446.70367591897985 27.25481370342584C482.680670167542 68.44911227806949 504.12603150787714 119.02175543885971 508.6711677919481 173.43535883970992L446.2235558889723 178.52463115778949C442.6706676669168 137.5863965991498 426.53863465866476 99.43285821455368 399.4278569642412 68.38509627406853z" />
    <glyph glyph-name="sky"
      unicode="&#xF125;"
      horiz-adv-x="830.628474432421" d=" M574.9000636537238 -53.71582148666812C581.6716882382063 -57.15595162317004 595.6132682650824 -61.392743475493376 613.1760379093288 -61.863498125751505C643.1594879411557 -62.51531225687819 659.5272650116699 -50.999929273640305 671.6944621260344 -24.13070231275202L832.8736119951907 335.4534266921281C826.2468349954029 339.0384044133248 811.544805148879 342.98550109625853 799.4500318268618 343.3114081618219C778.7368272155032 343.6373152273852 750.9260909540985 339.43673527123553 733.14604993281 296.9963929556545L680.9284956503288 173.80352217271377L578.5574651672678 340.5230921564467C571.9669000636537 342.5509583421741 555.8526062663555 345.4479100360704 543.9751043213805 345.4479100360704C507.9080557323714 345.4479100360704 487.70181766744463 332.1219322441474 466.69891788669634 309.3808614470613L367.18862720135786 200.56411344508095L447.2169177452436 74.54671476059121C461.9913713841148 51.62458448263658 481.5095834217412 39.85571822618283 513.1587806775584 39.85571822618283C533.9081971850908 39.85571822618283 551.1088478676002 44.59947662493806 559.1116769219888 48.43793761935069L462.67939741141515 193.79248886059833L531.0112454911945 266.1800693118325L643.0870641488082 90.29888959615249L574.9000636537237 -53.71582148666812zM363.38637810311894 82.2960605417639C363.38637810311894 55.788952542612606 352.95735200509216 40.50753235730957 301.28297616521667 40.50753235730957C294.43892778838665 40.50753235730957 288.46396491972547 41.05071079991512 282.67006153193284 41.847372515736595V393.4286724662282C282.67006153193284 420.116839946248 291.75924747153255 448 344.049225546361 448C350.6035787538014 448 357.2665676497629 447.31197397269966 363.4225899992926 446.0083457104463L363.38637810311894 82.2960605417639zM256.6337081830397 135.34648843624018C256.6337081830397 85.8810382629606 224.2964848999221 49.813989673951426 158.75295282551795 42.68024612773172C111.2067331494447 37.57436876723949 42.3679185232335 43.621755428248036 9.704788174552553 47.31536883796582C8.473583704646618 52.67472947167403 7.495862507956612 59.301506471461835 7.495862507956612 64.5160195204752C7.495862507956612 107.75302355187773 30.888747436169357 117.6388712072989 52.79694462126024 117.6388712072989C75.50180352217262 117.6388712072989 111.3153688379658 113.6917745243652 138.00353631798563 113.6917745243652C167.29896032251213 113.6917745243652 176.243298677417 123.61383407596003 176.243298677417 133.1013508734705C176.243298677417 145.52203126105093 164.36579673244208 150.62790862154316 141.62472593535603 155.0095480585614L79.44890020510636 166.9956856920574C27.629676780536006 176.88153334747858 -9.648787415371614e-14 212.80373435179285 -9.648787415371614e-14 250.7538015418346C-9.648787415371614e-14 296.9601810594808 32.73555414102827 335.6706980691703 97.04788174552647 342.80444161539003C145.71667020298457 348.09137845675076 204.9231204469905 342.11641558808964 237.36897941862927 338.1331070089822C238.5639719923615 332.5564749982318 239.21578612348816 327.269538156871 239.21578612348816 321.5118466652521C239.21578612348816 278.4559021147181 216.47471532640208 269.1132329019025 194.60273003748492 269.1132329019025C177.72798642053885 269.1132329019025 151.65542117547204 272.26366786901474 121.81681872834 272.26366786901474C91.47124973477608 272.26366786901474 78.86950986632712 263.8625079567154 78.86950986632712 253.6507532357309C78.86950986632712 242.8596081759671 90.89185939599682 238.44175684277522 109.9031048871914 235.07405049862078L169.39925030058697 224.02942216564108C230.48871914562554 212.80373435179285 256.63370818303974 178.04031402503705 256.63370818303974 135.34648843624018" />
    <glyph glyph-name="speech-bubble"
      unicode="&#xF126;"
      horiz-adv-x="512" d=" M256 409.3952C114.5344 409.3952 0 318.4384 0 206.1824C0 145.9712 32.9728 91.95519999999999 85.32480000000001 54.7328V-25.420799999999986L137.0112 26.291200000000003C172.56960000000004 11.468799999999987 213.01760000000002 3.0463999999999487 255.97440000000003 3.0463999999999487C397.41440000000006 3.0463999999999487 511.97440000000006 93.9264 511.97440000000006 206.18239999999994C512.0000000000001 318.43839999999994 397.44000000000005 409.39519999999993 256.00000000000006 409.39519999999993z" />
    <glyph glyph-name="tick"
      unicode="&#xF127;"
      horiz-adv-x="425.91244670895287" d=" M416.32941665800143 359.86274305916606L383.96007070812107 384.08651346573777C379.22179473848394 387.62691067900596 372.64677134241447 386.5887490901529 369.10637412914633 381.7972340646771L137.09056878444426 61.24487886035149L50.60372257460752 156.83560361859213C46.664032442549704 161.2278257252782 39.87605282312577 161.5472600603099 35.61692835603624 157.52771134449415L6.042632837683325 129.84340230841224C1.7568888426744862 125.8504731205158 1.4906935634813903 118.95601538941463 5.457003223458514 114.59041281064788L135.14734324633466 -28.888842674430634C137.2236664240408 -31.151502547571965 139.6726629926173 -32.00332744098989 142.01518144951652 -31.657273578038826C144.38431943433508 -31.79037121763531 146.78007694707293 -30.645731517105048 148.56358531766665 -28.17011542060925L418.5654570032235 344.7694707289176C421.9993761048144 349.5609857543933 420.934594988042 356.34896537381724 416.3294166580015 359.8627430591661" />
    <glyph glyph-name="tv"
      unicode="&#xF128;"
      horiz-adv-x="650.4684770525647" d=" M616.2782277274893 442.26774654597426H33.90566936636499C13.781800857551271 442.26774654597426 4.065427981578587 432.2667937112911 4.065427981578587 412.18357948229317V-29.403207876766714C4.065427981578587 -46.59996823884393 16.749563284103598 -59.52802922026359 34.19024932507549 -59.52802922026359H616.2782277274893C636.3614419564873 -59.52802922026359 646.4030490709862 -49.445767825948906 646.4030490709862 -29.403207876766714V412.18357948229317C646.4030490709862 432.2667937112911 636.3614419564873 442.26774654597426 616.2782277274893 442.26774654597426M415.5680482769573 -19.361600762267756C415.5680482769573 -24.931237097030362 411.13673177703674 -29.403207876766714 405.56709544227414 -29.403207876766714H244.98269016992222C239.4537081149754 -29.403207876766714 234.94108305542323 -24.931237097030362 234.94108305542323 -19.361600762267756V-9.319993647768797C234.94108305542323 -3.750357313006191 239.4537081149754 0.7216134667301617 244.98269016992222 0.7216134667301617H405.56709544227414C411.13673177703674 0.7216134667301617 415.5680482769573 -3.750357313006191 415.5680482769573 -9.319993647768797V-19.361600762267756zM586.234714943624 30.80578053041131H64.2744163887566V382.0587581387963H586.234714943624V30.80578053041131z" />
    <glyph glyph-name="twitter-favourite"
      unicode="&#xF129;"
      horiz-adv-x="512" d=" M256 444.44444444444446L314.4817777777778 242.4888888888889H508.4444444444444L350.66311111111105 133.03466666666668L412.0604444444444 -60.4444444444444L256 60.68622222222223L99.93955555555554 -60.4444444444444L161.33688888888886 133.03466666666668L3.5555555555555554 242.48888888888888H197.51822222222222z" />
    <glyph glyph-name="twitter-follow"
      unicode="&#xF12A;"
      horiz-adv-x="512" d=" M421.11999999999995 322.21866666666665C405.64622222222215 315.392 389.0631111111111 310.7128888888889 371.6693333333333 308.6791111111111C389.41866666666664 319.3031111111111 403.0862222222222 336.19911111111116 409.51466666666664 356.3377777777778C392.88888888888886 346.4675555555556 374.44266666666664 339.29955555555557 354.84444444444443 335.43111111111114C339.1146666666666 352.17066666666665 316.68622222222217 362.624 291.9253333333333 362.624C244.352 362.624 205.78133333333332 324.05333333333334 205.78133333333332 276.4942222222222C205.78133333333332 269.72444444444443 206.5351111111111 263.1537777777778 208 256.8248888888889C136.41955555555552 260.4515555555556 72.91733333333333 294.71288888888887 30.435555555555563 346.83733333333333C23.040000000000006 334.1368888888889 18.773333333333344 319.31733333333335 18.773333333333344 303.53066666666666C18.773333333333344 273.6497777777778 33.99111111111112 247.28177777777776 57.102222222222224 231.83644444444442C42.979555555555564 232.29155555555553 29.710222222222228 236.1742222222222 18.076444444444448 242.60266666666666L18.06222222222223 241.52177777777774C18.06222222222223 199.77955555555553 47.772444444444446 164.9635555555555 87.19644444444444 157.07022222222218C79.95733333333332 155.0791111111111 72.33422222222222 154.0551111111111 64.46933333333334 154.0551111111111C58.92266666666667 154.0551111111111 53.51822222222222 154.59555555555556 48.29866666666667 155.5911111111111C59.24977777777778 121.3582222222222 91.03644444444444 96.45511111111108 128.73955555555554 95.75822222222217C99.29955555555554 72.63288888888883 62.1511111111111 58.879999999999995 21.802666666666656 58.879999999999995C14.819555555555546 58.879999999999995 7.978666666666659 59.30666666666667 1.2373333333333265 60.117333333333306C39.36711111111111 35.655111111111125 84.62222222222222 21.375999999999976 133.30488888888888 21.375999999999976C291.7404444444444 21.375999999999976 378.368 152.6471111111111 378.368 266.5102222222222C378.368 270.20799999999997 378.2968888888889 273.91999999999996 378.1262222222222 277.63199999999995C394.9937777777778 289.7777777777777 409.5715555555555 304.9671111111111 421.11999999999995 322.21866666666665zM510.7626666666666 111.01866666666672H455.92177777777766V165.85955555555557H421.1199999999999V111.01866666666666H366.27911111111104V76.21688888888889H421.11999999999995V21.376000000000033H455.9217777777778V76.21688888888895H510.7626666666667z" />
    <glyph glyph-name="twitter-reply"
      unicode="&#xF12B;"
      horiz-adv-x="512" d=" M207.34577777777778 382.52088888888886V265.28711111111113C410.88 264.06399999999996 509.824 84.83555555555552 509.824 84.83555555555552S433.60711111111107 148.53688888888883 207.34577777777778 118.72711111111107V1.4933333333333394L2.1760000000000064 191.99999999999994L207.34577777777778 382.52088888888886z" />
    <glyph glyph-name="twitter-retweet"
      unicode="&#xF12C;"
      horiz-adv-x="512" d=" M104.86044444444444 61.696000000000026C94.44977777777777 61.696000000000026 85.97333333333333 69.16266666666667 85.97333333333333 78.27911111111115V213.31911111111117L3.128888888888885 213.3333333333334L115.66933333333331 321.15200000000004L228.26666666666662 213.31911111111117H145.33688888888884V113.83466666666669H234.41066666666666L292.7502222222222 61.696000000000026H104.86044444444443zM508.8568888888888 170.63822222222223H425.9982222222221V305.7208888888889C425.9982222222221 314.8515555555556 417.5217777777777 322.30400000000003 407.11111111111103 322.30400000000003H219.24977777777772L277.5893333333333 270.16533333333336H366.64888888888885V170.69511111111115L283.73333333333323 170.63822222222223L396.31644444444436 62.83377777777781L508.8568888888888 170.63822222222223z" />
    <glyph glyph-name="twitter"
      unicode="&#xF12D;"
      horiz-adv-x="512" d=" M509.16977777777777 349.0417777777778C490.51022222222224 340.7928888888889 470.49955555555556 335.1751111111111 449.5217777777778 332.70044444444443C470.9546666666667 345.5288888888889 487.42400000000004 365.8808888888889 495.1608888888889 390.17244444444447C475.1217777777778 378.26844444444447 452.89244444444444 369.6213333333334 429.24088888888895 364.9706666666667C410.26844444444447 385.15200000000004 383.24622222222223 397.7528888888889 353.3795555555556 397.7528888888889C296.02133333333336 397.7528888888889 249.5146666666667 351.24622222222223 249.5146666666667 293.90222222222224C249.5146666666667 285.75288888888895 250.42488888888894 277.8311111111111 252.20266666666672 270.19377777777777C165.87377777777783 274.56000000000006 89.31555555555562 315.8755555555556 38.072888888888954 378.7377777777778C29.155555555555626 363.42044444444446 24.007111111111183 345.55733333333336 24.007111111111183 326.5137777777778C24.007111111111183 290.48888888888894 42.35377777777785 258.688 70.21511111111117 240.05688888888892C53.19111111111118 240.61155555555558 37.19111111111118 245.2906666666667 23.168000000000067 253.0417777777778L23.153777777777847 251.73333333333335C23.153777777777847 201.40088888888891 58.979555555555635 159.41688888888893 106.51022222222228 149.88800000000003C97.77777777777784 147.49866666666674 88.59022222222228 146.24711111111117 79.11822222222227 146.24711111111117C72.43377777777783 146.24711111111117 65.90577777777783 146.9155555555556 59.60533333333339 148.11022222222226C72.8035555555556 106.83733333333333 111.14666666666673 76.81422222222227 156.61511111111116 75.97511111111118C121.08800000000004 48.08533333333344 76.27377777777782 31.488000000000056 27.633777777777823 31.488000000000056C19.214222222222265 31.488000000000056 10.9795555555556 32.00000000000006 2.8302222222222673 32.96711111111114C48.810666666666705 3.4844444444444775 103.39555555555559 -13.738666666666631 162.07644444444446 -13.738666666666631C353.1377777777778 -13.738666666666631 457.6 144.56888888888892 457.6 281.856C457.6 286.32177777777775 457.5146666666667 290.8017777777777 457.31555555555553 295.28177777777773C477.6533333333333 309.91644444444444 495.23199999999997 328.2346666666666 509.16977777777777 349.0417777777777z" />
    <glyph glyph-name="user-profile"
      unicode="&#xF12E;"
      horiz-adv-x="376" d=" M283.737 290.043C283.737 238.08100000000002 241.604 195.99200000000002 189.644 195.99200000000002S95.572 238.10200000000003 95.572 290.043S137.68200000000002 384.136 189.644 384.136S283.737 342.00300000000004 283.737 290.043M378.76700000000005 -12.726999999999975C377.96000000000004 91.06500000000005 293.6310000000001 174.95900000000006 189.62100000000007 174.95900000000006C85.65400000000007 174.95900000000006 1.3030000000000541 91.04500000000007 0.4980000000000757 -12.726999999999975H0.45400000000007573V-22.055999999999983C0.45400000000007573 -26.371999999999957 4.007000000000076 -29.96799999999996 8.343000000000076 -29.96799999999996H371.13700000000006C375.45300000000003 -29.96799999999996 379.02600000000007 -26.37099999999998 379.02600000000007 -22.055999999999983V-12.726999999999975H378.76700000000005z" />
    <glyph glyph-name="video-play"
      unicode="&#xF12F;"
      horiz-adv-x="512" d=" M272.6144 -1.062400000000025L278.1696 -64C331.9552 -59.25119999999998 382.0928 -38.118400000000065 423.1168 -2.841600000000028L381.79839999999996 45.08159999999998C350.8864 18.52159999999992 313.12639999999993 2.5471999999999753 272.61439999999993 -1.062400000000025M401.4208 64.55040000000002L449.11359999999996 22.95040000000006C485.49119999999994 64.62720000000007 507.1232 115.64800000000008 511.616 170.62400000000008L448.576 175.76960000000008C445.12 134.42560000000003 428.86400000000003 95.88480000000004 401.42080000000004 64.55040000000008M448.832 204.2496000000001L512 208.1664000000001C508.736 260.6976000000001 489.6128 310.28480000000013 456.85760000000005 351.4624000000001L407.3088 312.2560000000001C432.0128000000001 281.1264000000001 446.3744000000001 243.7632000000001 448.8320000000001 204.2496000000001M427.8400000000001 382.4256000000001C385.6128000000001 420.6976000000001 333.3120000000001 443.3152000000001 276.63360000000006 448.0000000000001L271.42400000000004 384.9344000000001C314.1376 381.4272000000001 353.53600000000006 364.3904000000001 385.3696 335.57760000000013L427.84 382.42560000000014zM88.90879999999999 -2.8415999999999713C129.90719999999996 -38.11839999999995 180.07039999999998 -59.251199999999926 233.8816 -63.99999999999994L239.3984 -1.0623999999999114C198.8608 2.547200000000032 161.1008 18.52160000000009 130.20159999999998 45.081600000000094L88.90879999999999 -2.8415999999999713zM63.436799999999984 175.76960000000008L0.37119999999998754 170.62400000000008C4.940799999999988 115.64800000000002 26.521599999999992 64.62720000000007 62.86079999999998 22.95040000000006L110.52799999999998 64.55040000000008C83.17439999999998 95.88480000000004 66.86719999999998 134.42560000000003 63.43679999999998 175.76960000000008M104.67839999999997 312.2560000000001L55.07839999999997 351.4624000000001C22.374399999999966 310.27200000000005 3.3279999999999634 260.6976000000001 -3.4106051316484814e-14 208.16640000000007L63.14239999999997 204.24960000000004C65.65119999999996 243.76320000000004 79.99999999999997 281.12640000000005 104.67839999999997 312.2560000000001M240.576 384.93440000000004L235.43039999999996 448.00000000000006C178.73919999999998 443.31520000000006 126.45119999999997 420.6976000000001 84.17279999999997 382.42560000000003L126.63039999999997 335.5776000000001C158.45119999999997 364.39040000000006 197.88799999999998 381.4272 240.57599999999994 384.93440000000004 M204.92800000000003 284.5824C202.21440000000004 286.4512 199.98720000000003 285.2992 199.98720000000003 281.9968V93.99039999999997C199.98720000000003 90.68799999999999 202.18880000000004 89.536 204.90240000000006 91.4176L339.0592000000001 185.01119999999997C341.76000000000005 186.89279999999997 341.7472000000001 189.9776 339.04640000000006 191.84639999999996L204.92800000000008 284.5824z" />
    <glyph glyph-name="volume"
      unicode="&#xF130;"
      horiz-adv-x="512" d=" M325.0176 94.77119999999996C315.8528 105.49759999999998 317.0816 121.57439999999997 327.78240000000005 130.76479999999998C344.93440000000004 145.5104 355.6096 167.168 355.6096 191.51360000000005C355.6096 216.32000000000002 344.5504 238.25920000000005 326.91200000000003 253.03040000000004C316.1344 261.9904 314.5984 278.11840000000007 323.6096 288.94720000000007C332.62080000000003 299.82720000000006 348.672 301.28640000000007 359.5008 292.24960000000004C388.27520000000004 268.26240000000007 406.6816 231.93600000000004 406.6048 191.48800000000006C406.6816 151.73120000000006 388.9664 115.89120000000003 360.96000000000004 91.95520000000005C356.1472 87.78240000000005 350.2848 85.81120000000004 344.4224 85.81120000000004C337.25440000000003 85.83680000000004 330.08639999999997 88.83200000000005 325.01759999999996 94.77120000000002M408.83200000000005 26.26559999999995C398.69440000000003 36.172799999999995 398.59200000000004 52.30079999999998 408.44800000000004 62.38719999999995C440.9856 95.87199999999996 460.97920000000005 141.36319999999995 460.97920000000005 191.84639999999996C460.97920000000005 242.43199999999996 440.8320000000001 288 408.0384000000001 321.536C398.2080000000001 331.62239999999997 398.43840000000006 347.7504 408.47360000000003 357.6064C418.5344 367.5648 434.61120000000005 367.36 444.59520000000003 357.3248C486.19520000000006 314.6752 512 256.1536 512 191.84639999999996C512 127.66719999999998 486.42560000000003 69.27359999999999 444.97920000000005 26.75200000000001V26.726400000000012C439.98720000000003 21.606400000000008 433.3312000000001 19.02080000000001 426.7264 19.02080000000001C420.32640000000004 19.02080000000001 413.7984000000001 21.452800000000025 408.83200000000005 26.265600000000063M252.21120000000002 393.6L112.51200000000001 267.0336H2.2737367544323207e-14V117.01759999999996H112.53760000000003L251.8272 -9.728000000000009C262.0672 -20.710399999999936 262.5536 -10.521599999999978 262.5536 4.505600000000015V379.57120000000003C262.5536 394.5984 262.2464 404.78720000000004 252.21120000000002 393.6" />
    <glyph glyph-name="warning"
      unicode="&#xF131;"
      horiz-adv-x="512" d=" M256 -58.98039215686282C394.59137254901964 -58.98039215686282 506.9803921568628 53.40862745098036 506.9803921568628 192S394.59137254901964 442.98039215686276 256 442.98039215686276S5.019607843137238 330.59137254901964 5.019607843137238 192S117.40862745098039 -58.98039215686282 256 -58.98039215686282M256 395.444705882353C369.01647058823534 395.444705882353 460.6243137254903 303.8117647058824 460.6243137254903 190.79529411764707C460.6243137254903 77.75372549019613 369.0164705882354 -13.854117647058843 256.00000000000006 -13.854117647058843S51.350588235294154 77.75372549019613 51.350588235294154 190.79529411764707C51.350588235294154 303.8117647058824 142.98352941176475 395.444705882353 256.00000000000006 395.444705882353M256.00000000000006 120.11921568627452C265.1105882352942 120.11921568627452 272.86588235294124 116.95686274509808 279.29098039215694 110.65725490196075C285.71607843137264 104.38274509803921 288.92862745098046 96.67764705882348 288.92862745098046 87.56705882352941C288.92862745098046 78.48156862745094 285.71607843137264 70.70117647058822 279.29098039215694 64.27607843137253S265.1105882352942 54.61333333333329 256.00000000000006 54.61333333333329C246.91450980392162 54.61333333333329 239.13411764705887 57.85098039215683 232.70901960784317 64.27607843137253S223.07137254901963 78.45647058823522 223.07137254901963 87.56705882352941S226.28392156862748 104.38274509803921 232.70901960784317 110.65725490196075C239.13411764705887 116.95686274509802 246.8894117647059 120.11921568627452 256.00000000000006 120.11921568627452zM260.41725490196086 344.5709803921569C265.51215686274514 344.5709803921569 270.7325490196079 344.2196078431373 276.0784313725491 343.56705882352946L288.12549019607854 341.76V165.47137254901963C288.12549019607854 158.5443137254902 285.6407843137256 153.32392156862744 280.6964705882354 149.8352941176471S266.18980392156874 144.58980392156866 251.9843137254903 144.58980392156866C246.91450980392167 144.58980392156866 241.69411764705893 144.94117647058823 236.32313725490204 145.61882352941183L224.2760784313726 147.4258823529412V323.68941176470594C224.2760784313726 330.641568627451 226.76078431372557 335.8619607843138 231.70509803921576 339.35058823529414S246.2117647058824 344.5709803921569 260.41725490196086 344.5709803921569z" />
  </font>
</defs>
</svg>
