<svg version="1.1" id="Layer_1"  x="0px" y="0px" width="40.639px" height="40px"
	 viewBox="0 0 40.639 40" enable-background="new 0 0 40.639 40" >
<g>
	<path fill="#EAEBED" d="M6.897,5.123l3.317,3.66c2.485-2.251,5.566-3.582,8.901-3.856L18.712,0
		C14.283,0.365,10.199,2.133,6.897,5.123z"/>
	<path fill="#E7E8E7" d="M8.498,10.606L4.623,7.541C2.067,10.76,0.58,14.633,0.319,18.737l4.934,0.305
		C5.449,15.956,6.57,13.037,8.498,10.606z"/>
	<path fill="#D6D7D5" d="M5.276,21.267L0.348,21.67c0.358,4.294,2.043,8.28,4.884,11.536l3.724-3.249
		C6.818,27.509,5.544,24.498,5.276,21.267z"/>
	<path fill="#B9B9BA" d="M7.266,35.221c3.203,2.756,7.121,4.408,11.327,4.779l0.43-4.917c-3.166-0.282-6.116-1.531-8.531-3.606
		L7.266,35.221z"/>
	<path fill="#A4A4A4" d="M21.617,35.083L22.053,40c4.203-0.371,8.119-2.023,11.325-4.779l-3.229-3.744
		C27.733,33.552,24.783,34.801,21.617,35.083z"/>
	<path fill="#8E8E8E" d="M31.68,29.957l3.728,3.249c2.841-3.256,4.532-7.242,4.883-11.536l-4.925-0.403
		C35.094,24.498,33.824,27.509,31.68,29.957z"/>
	<path fill="#7D7F80" d="M35.387,19.042l4.933-0.305c-0.256-4.104-1.748-7.977-4.308-11.196l-3.873,3.065
		C34.071,13.037,35.192,15.956,35.387,19.042z"/>
	<path fill="#6E706F" d="M33.744,5.123C30.446,2.133,26.359,0.365,21.932,0l-0.406,4.927c3.338,0.274,6.415,1.605,8.902,3.856
		L33.744,5.123z"/>
</g>
</svg>
