<svg xmlns:svg="http://www.w3.org/2000/svg" xmlns="http://www.w3.org/2000/svg" version="1.1" x="0px" y="0px" width="20px" height="20px" viewBox="0 0 20 20" enable-background="new 0 0 20 20" xml:space="preserve" id="svg3170"><defs id="defs3196"/><metadata id="metadata3172"/><g id="g3201"><g id="Layer_1"><path id="path3175" d="" fill="none"/><g display="none" id="tIuFFt.tif"><image transform="matrix(0.0737 0 0 0.0737 0 0)" id="Layer_0_1_" height="267" width="270" overflow="visible" display="inline"/></g><g id="g3179"><path id="path3181" d="M12.205 13.945C11.18402 14.026295 10.792617 12.9723 10.268315 12.304716 9.9465435 11.843478 9.6247717 11.382239 9.303 10.921 8.8006603 10.768791 9.0420492 11.36031 8.988 11.656391 8.9286899 12.319144 9.1524599 13.062904 8.759 13.644 8.3282371 13.946909 6.8904718 14.194213 6.913 13.479589 6.9207092 11.100373 6.8974997 8.7202982 6.92475 6.341625 6.9647569 5.4514032 7.9683328 5.5121099 8.6196855 5.528c1.4277985 0.012951 3.0816425-0.1711443 4.1653265 0.954166 1.136491 1.2313025 0.718078 3.65857-1.003481 4.125697-0.672879 0.02601 0.06686 0.519696 0.202821 0.816974 0.556883 0.733387 1.113765 1.466775 1.670648 2.200163-0.448466 0.220636-0.951421 0.323164-1.45 0.32zM8.988 9.385C9.7244199 9.332033 10.675372 9.5940862 11.173188 8.8957031 11.791414 7.9875417 10.786787 6.9966967 9.8387258 7.22 9.5881586 7.3095766 8.9639162 7.025478 8.988 7.3897056c0 0.6650982 0 1.3301963 0 1.9952944z" fill="#12110c"/><path id="path3183" d="M10.001 0C6.0685588-0.05456079 2.2758663 2.4726774 0.78598437 6.1074844-0.7695285 9.6781201 0.03560457 14.113736 2.7617349 16.899077c2.6228483 2.822514 6.9438557 3.853296 10.5619541 2.535307 3.749663-1.274581 6.514403-4.958227 6.6633-8.919948C20.235861 6.6630587 18.003713 2.8133406 14.55293 1.0939659 13.151164 0.37355094 11.576705-0.00239963 10.001 0zm0 18.105C6.3791492 18.170484 2.9516415 15.5085 2.1037299 11.989703 1.1756423 8.6051026 2.7458204 4.7525093 5.7730009 2.9785181 8.865458 1.0299634 13.227714 1.5545601 15.766125 4.18625c2.631679 2.5388558 3.155589 6.901224 1.20759 9.994081C15.535837 16.586805 12.807307 18.131762 10.001 18.105z" fill="#12110c"/></g></g></g><g id="Layer_2" display="none"><g display="inline" id="g3186"><path opacity="0.6" fill="#FFFFFF" d="M2.922 9.062l-1-1.141c0 0 3.304-2.976 8.094-2.984 4.783-0.009 7.812 2.766 7.953 3.031l-0.922 1.078c0 0-2.922-2.641-7.047-2.641S2.922 9.062 2.922 9.062z" id="path3188"/><path opacity="0.6" fill="#FFFFFF" d="M5.084 11.632l-1.021-1.304c0 0 2.312-2.163 5.829-2.163 3.733 0 5.919 2.018 6.015 2.241l-1.141 1.203c0 0-1.5-1.859-4.891-1.859C7.08 9.75 5.084 11.632 5.084 11.632z" id="path3190"/><path opacity="0.6" fill="#FFFFFF" d="M7.344 14.078l-1.031-1.156c0 0 1.469-1.351 3.627-1.351 1.967 0 3.592 1.112 3.639 1.335l-1.031 1.141c0 0-1.001-0.953-2.656-0.953C8.526 13.094 7.344 14.078 7.344 14.078z" id="path3192"/></g></g></svg>