<svg xmlns:svg="http://www.w3.org/2000/svg" xmlns="http://www.w3.org/2000/svg" version="1.1" x="0px" y="0px" width="20px" height="20px" viewBox="0 0 20 20" enable-background="new 0 0 20 20" xml:space="preserve" id="svg3313"><defs id="defs3335"/><metadata id="metadata3315"/><g id="g3339"><g id="Layer_1"><path id="path3318" d="" fill="none"/><g display="none" id="tIuFFt.tif"><image transform="matrix(0.0737 0 0 0.0737 0 0)" id="Layer_0_1_" height="267" width="270" overflow="visible" display="inline"/></g><path id="path3322" d="M18.229 0C12.682724 0.00608615 7.135833-0.01217922 1.5899414 0.00914478 0.47631712 0.08602787-0.15468837 1.2381742 0 2.2630137 0.0060857 7.6452854-0.01217851 13.028172 0.00914453 18.410059 0.0859609 19.52323 1.2373518 20.154771 2.2620137 20 7.6443441 19.993914 13.027288 20.012178 18.409235 19.990855 19.522689 19.91437 20.154914 18.762977 20 17.737986 19.993914 12.355656 20.012178 6.9727116 19.990855 1.5907654 19.917754 0.70977714 19.113587-0.01766465 18.229 0zM12.625 14.062C11.211098 12.866346 9.020127 12.767908 7.5501562 13.92325 7.1434742 14.231925 6.8555534 13.366925 6.5036025 13.134711 6.1464393 12.406923 7.9338971 11.973215 8.5555842 11.735659 10.280923 11.329071 12.302141 11.647282 13.579 12.952c-0.318 0.37-0.636 0.74-0.954 1.11zm2.141-2.453C12.415123 9.3598509 8.4970307 9.1548908 5.8629395 11.036523 5.2709199 11.813271 4.8713671 11.548234 4.4785925 10.858786 3.5872381 10.228712 4.7933397 9.7275354 5.3308291 9.3477586 8.1010037 7.7612431 11.725831 7.7654482 14.522125 9.2855 15.02644 9.6671734 16.441521 10.272948 15.472561 10.864046 15.23704 11.112364 15.00152 11.360682 14.766 11.609zM17.047 9.047C14.089717 6.6105712 9.826263 5.698465 6.2234438 7.1659207 5.035068 7.6228556 3.9046252 8.249494 2.922 9.062 2.5886667 8.6816667 2.2553333 8.3013333 1.922 7.921 6.2895816 3.945406 13.64957 3.9465976 18 7.953 17.682333 8.3176667 17.364667 8.6823333 17.047 9.047z" fill="#44ad3a"/></g></g><g id="Layer_2" display="none"><g display="inline" id="g3325"><path opacity="0.6" fill="#FFFFFF" d="M2.922 9.062l-1-1.141c0 0 3.304-2.976 8.094-2.984 4.783-0.009 7.812 2.766 7.953 3.031l-0.922 1.078c0 0-2.922-2.641-7.047-2.641S2.922 9.062 2.922 9.062z" id="path3327"/><path opacity="0.6" fill="#FFFFFF" d="M5.084 11.632l-1.021-1.304c0 0 2.312-2.163 5.829-2.163 3.733 0 5.919 2.018 6.015 2.241l-1.141 1.203c0 0-1.5-1.859-4.891-1.859C7.08 9.75 5.084 11.632 5.084 11.632z" id="path3329"/><path opacity="0.6" fill="#FFFFFF" d="M7.344 14.078l-1.031-1.156c0 0 1.469-1.351 3.627-1.351 1.967 0 3.592 1.112 3.639 1.335l-1.031 1.141c0 0-1.001-0.953-2.656-0.953C8.526 13.094 7.344 14.078 7.344 14.078z" id="path3331"/></g></g></svg>