<?xml version="1.0" encoding="utf-8"?>
<!-- Generator: Adobe Illustrator 17.0.0, SVG Export Plug-In . SVG Version: 6.00 Build 0)  -->
<!DOCTYPE svg PUBLIC "-//W3C//DTD SVG 1.1//EN" "http://www.w3.org/Graphics/SVG/1.1/DTD/svg11.dtd">
<svg version="1.1" id="icon-calendar" xmlns="http://www.w3.org/2000/svg" xmlns:xlink="http://www.w3.org/1999/xlink" x="0px"
	 y="0px" width="30px" height="30px" viewBox="0 0 30 30" enable-background="new 0 0 30 30" xml:space="preserve">
<path fill="#0073C5" d="M23.906,5.593C23.906,6.367,23.273,7,22.5,7h-0.938c-0.773,0-1.406-0.633-1.406-1.406V1.406
	C20.156,0.633,20.789,0,21.562,0H22.5c0.773,0,1.406,0.633,1.406,1.406V5.593z"/>
<path fill="#0073C5" d="M9.844,5.625c0,0.774-0.633,1.406-1.406,1.406H7.5c-0.773,0-1.406-0.633-1.406-1.406V1.406
	C6.094,0.633,6.727,0,7.5,0h0.938c0.773,0,1.406,0.633,1.406,1.406V5.625z"/>
<path fill="#0073C5" d="M26.25,2.344c-0.773,0-1.406,0.633-1.406,1.406v2.969c0,0.774-0.633,1.406-1.406,1.406h-2.812
	c-0.773,0-1.406-0.633-1.406-1.406V3.75c0-0.774-0.633-1.406-1.406-1.406h-5.406C11.632,2.344,11,2.976,11,3.75v2.812
	c0,0.774-0.633,1.406-1.406,1.406H6.562c-0.773,0-1.406-0.633-1.406-1.406V3.75c0-0.774-0.633-1.406-1.406-1.406H1.406
	C0.633,2.344,0,2.976,0,3.75v24.844C0,29.367,0.633,30,1.406,30h27.188C29.367,30,30,29.367,30,28.594V3.75
	c0-0.774-0.633-1.406-1.406-1.406C28.594,2.344,26.25,2.344,26.25,2.344z M14.146,24.494l-0.238,0.213
	c-0.334,0.059-1.24,0.107-2.013,0.107H7.2c-0.774,0-1.447-0.147-1.496-0.328l-0.032-0.205c-0.032-0.206-0.047-0.416-0.047-0.627
	c0-0.149,0.015-0.317,0.047-0.505c0.032-0.187,0.084-0.379,0.158-0.58c0.076-0.199,0.183-0.398,0.321-0.599l0.137-0.2
	c0.212-0.198,0.864-0.775,1.448-1.282l0.204-0.177c0.584-0.507,1.404-1.207,1.822-1.554l0.281-0.251
	c0.282-0.25,0.512-0.485,0.696-0.703c0.181-0.22,0.309-0.433,0.384-0.64c0.075-0.206,0.113-0.428,0.113-0.666
	c0-0.325-0.113-0.625-0.338-0.901c-0.226-0.276-0.601-0.413-1.127-0.413c-0.324,0-0.616,0.041-0.873,0.123
	c-0.256,0.081-0.491,0.167-0.704,0.262c-0.212,0.093-0.411,0.178-0.6,0.254c-0.188,0.074-0.381,0.112-0.581,0.112
	c-0.188,0-0.37-0.049-0.545-0.15c-0.174-0.101-0.324-0.244-0.449-0.431c-0.125-0.189-0.219-0.417-0.282-0.685l-0.061-0.27
	c0.003-0.352,0.506-0.953,1.12-1.335l0.688-0.262c0.687-0.266,1.5-0.395,2.439-0.395c0.674,0,1.283,0.094,1.828,0.282
	c0.545,0.187,1.006,0.453,1.381,0.797c0.374,0.344,0.667,0.761,0.872,1.248c0.206,0.488,0.311,1.027,0.311,1.613
	c0,0.889-0.225,1.666-0.678,2.329c-0.449,0.663-0.783,0.922-0.783,0.922c-0.612,0.473-1.598,1.224-2.191,1.667
	c-0.594,0.444-0.447,0.807,0.326,0.807h1.956c0.774,0,1.431,0.144,1.462,0.32l0.038,0.224c0.037,0.226,0.057,0.463,0.057,0.714
	C14.502,23.893,14.384,24.282,14.146,24.494 M24.375,13.589c0,0.537-0.27,1.548-0.6,2.247l-3.209,6.804
	c-0.33,0.699-0.826,1.614-1.103,2.032l-0.324,0.131C18.813,24.934,18.432,25,17.994,25c-0.314,0-0.636-0.03-0.967-0.094
	l-0.333-0.061c-0.266-0.1-0.2-0.747,0.148-1.438l3.42-6.797c0.347-0.691-0.001-1.256-0.775-1.256h-1.461
	c-0.773,0-1.685-0.045-2.025-0.101l-0.226-0.2c-0.223-0.201-0.337-0.581-0.337-1.144c0-0.252,0.014-0.495,0.037-0.732l0.027-0.238
	c0.027-0.179,0.682-0.325,1.457-0.325h6.008C23.742,12.613,24.375,13.052,24.375,13.589"/>
</svg>
