<?xml version="1.0" encoding="UTF-8" standalone="no"?>
<svg id="svg3174" xmlns:rdf="http://www.w3.org/1999/02/22-rdf-syntax-ns#" xmlns="http://www.w3.org/2000/svg" height="20.4" width="20.4" version="1.1" xmlns:cc="http://creativecommons.org/ns#" xmlns:dc="http://purl.org/dc/elements/1.1/" viewBox="0 0 20.4 20.4">
 <metadata id="metadata3182">
  <rdf:RDF>
   <cc:Work rdf:about="">
    <dc:format>image/svg+xml</dc:format>
    <dc:type rdf:resource="http://purl.org/dc/dcmitype/StillImage"/>
    <dc:title/>
   </cc:Work>
  </rdf:RDF>
 </metadata>
 <path id="path3176" fill="#13110c" d="M10.138,6.544c-0.354,0-0.656-0.122-0.906-0.367s-0.375-0.544-0.375-0.898,0.125-0.656,0.375-0.906,0.552-0.375,0.906-0.375,0.656,0.125,0.906,0.375,0.375,0.553,0.375,0.906c0,0.354-0.125,0.653-0.375,0.898s-0.552,0.367-0.906,0.367m-0.172,8.734c-0.198,0-0.401-0.013-0.609-0.039l-0.469-0.07v-6.86c0-0.271,0.096-0.474,0.29-0.609,0.192-0.136,0.564-0.203,1.117-0.203,0.198,0,0.401,0.014,0.609,0.039l0.469,0.07v6.859c0,0.271-0.097,0.474-0.289,0.609s-0.566,0.204-1.118,0.204m0.234-15.078c-5.523,0-10,4.478-10,10s4.477,10,10,10c5.522,0,10-4.478,10-10s-4.478-10-10-10"/>
</svg>
