<?xml version="1.0" encoding="UTF-8" standalone="no"?>
<svg id="Layer_1" xmlns:rdf="http://www.w3.org/1999/02/22-rdf-syntax-ns#" xmlns="http://www.w3.org/2000/svg" enable-background="new 0 0 20 20" height="20.4" viewBox="0 0 20.4 20.4" width="20.4" version="1.1" y="0px" x="0px" xmlns:cc="http://creativecommons.org/ns#" xmlns:dc="http://purl.org/dc/elements/1.1/">
 <metadata id="metadata3094">
  <rdf:RDF>
   <cc:Work rdf:about="">
    <dc:format>image/svg+xml</dc:format>
    <dc:type rdf:resource="http://purl.org/dc/dcmitype/StillImage"/>
    <dc:title/>
   </cc:Work>
  </rdf:RDF>
 </metadata>
 <path id="path3088" fill="#d2191a" d="m10.2,20.2c5.522,0,10-4.478,10-10s-4.478-10-10-10-10,4.478-10,10,4.478,10,10,10m0-18.106c4.503,0,8.153,3.651,8.153,8.154,0,4.504-3.65,8.154-8.153,8.154s-8.154-3.65-8.154-8.154c0-4.503,3.651-8.154,8.154-8.154m0,10.97c0.363,0,0.672,0.126,0.928,0.377,0.256,0.25,0.384,0.557,0.384,0.92,0,0.362-0.128,0.672-0.384,0.928s-0.565,0.385-0.928,0.385c-0.362,0-0.672-0.129-0.928-0.385s-0.384-0.565-0.384-0.928,0.128-0.67,0.384-0.92c0.256-0.251,0.565-0.377,0.928-0.377zm0.176-8.943c0.203,0,0.411,0.014,0.624,0.04s0.374,0.051,0.48,0.072v7.024c0,0.276-0.099,0.484-0.296,0.623s-0.578,0.209-1.144,0.209c-0.202,0-0.41-0.014-0.624-0.041-0.213-0.026-0.373-0.051-0.48-0.072v-7.023c0-0.277,0.099-0.485,0.296-0.624s0.578-0.208,1.144-0.208z"/>
</svg>
