<svg width="342.667" height="202" viewBox="0 0 342.667 202"><path fill="#fff" d="M162.384 94.721h16.751v9.973h-16.751zM162.449 94.795h16.693v9.883h-16.693z"/><path fill="#FFFAD0" d="M162.449 95.381"/><path fill="#E30613" d="M164.222 97.212"/><path fill="#2C3672" d="M162.449 95.772v2.763h4.693z"/><path fill="#E30613" d="M167.819 98.535h.961l-6.331-3.74v.586z"/><path fill="#2B366F" d="M164.299 94.795l5.361 3.299v-3.299z"/><path fill="#2C3672" d="M179.144 103.692v-2.737h-4.644z"/><path fill="#E30613" d="M173.822 100.955h-.96l6.282 3.721v-.593z"/><path fill="#2B366F" d="M177.341 104.719l-5.361-3.3v3.3z"/><path fill="#2C3672" d="M179.144 95.797v2.738l-4.644-.004z"/><path fill="#E30613" d="M171.982 98.535h1.09l6.072-3.74h-1.103z"/><path fill="#2B366F" d="M177.295 94.795l-5.313 3.274v-3.274z"/><path fill="#2C3672" d="M162.449 103.715v-2.761h4.694z"/><path fill="#E30613" d="M169.658 100.953h-1.091l-6.121 3.768h1.103z"/><path fill="#2B366F" d="M164.297 104.717l5.361-3.299v3.299z"/><path fill="#E30613" d="M179.145 98.962h-7.626v-4.167h-1.412v4.167h-7.658v1.598h7.658v4.159h1.412v-4.159h7.626z"/></svg>