<svg width="40.639" height="40" viewBox="0 0 40.639 40"><path fill="#EAEBED" d="M6.897 5.123l3.317 3.66c2.485-2.251 5.566-3.582 8.901-3.856l-.403-4.927c-4.429.365-8.513 2.133-11.815 5.123z"/><path fill="#E7E8E7" d="M8.498 10.606l-3.875-3.065c-2.556 3.219-4.043 7.092-4.304 11.196l4.934.305c.196-3.086 1.317-6.005 3.245-8.436z"/><path fill="#D6D7D5" d="M5.276 21.267l-4.928.403c.358 4.294 2.043 8.28 4.884 11.536l3.724-3.249c-2.138-2.448-3.412-5.459-3.68-8.69z"/><path fill="#B9B9BA" d="M7.266 35.221c3.203 2.756 7.121 4.408 11.327 4.779l.43-4.917c-3.166-.282-6.116-1.531-8.531-3.606l-3.226 3.744z"/><path fill="#A4A4A4" d="M21.617 35.083l.436 4.917c4.203-.371 8.119-2.023 11.325-4.779l-3.229-3.744c-2.416 2.075-5.366 3.324-8.532 3.606z"/><path fill="#8E8E8E" d="M31.68 29.957l3.728 3.249c2.841-3.256 4.532-7.242 4.883-11.536l-4.925-.403c-.272 3.231-1.542 6.242-3.686 8.69z"/><path fill="#7D7F80" d="M35.387 19.042l4.933-.305c-.256-4.104-1.748-7.977-4.308-11.196l-3.873 3.065c1.932 2.431 3.053 5.35 3.248 8.436z"/><path fill="#6E706F" d="M33.744 5.123c-3.298-2.99-7.385-4.758-11.812-5.123l-.406 4.927c3.338.274 6.415 1.605 8.902 3.856l3.316-3.66z"/></svg>